*
*
G04 PADS VX.2.4 Build Number: 11695987 generated Gerber (RS-274-X) file*
G04 PC Version=2.1*
*
%IN "Zegar.pcb"*%
*
%MOIN*%
*
%FSLAX35Y35*%
*
*
*
*
G04 PC Standard Apertures*
*
*
G04 Thermal Relief Aperture macro.*
%AMTER*
1,1,$1,0,0*
1,0,$1-$2,0,0*
21,0,$3,$4,0,0,45*
21,0,$3,$4,0,0,135*
%
*
*
G04 Annular Aperture macro.*
%AMANN*
1,1,$1,0,0*
1,0,$2,0,0*
%
*
*
G04 Odd Aperture macro.*
%AMODD*
1,1,$1,0,0*
1,0,$1-0.005,0,0*
%
*
*
G04 PC Custom Aperture Macros*
*
*
*
*
*
*
G04 PC Aperture Table*
*
%ADD010C,0.001*%
%ADD012R,0.07087X0.07087*%
%ADD013C,0.07087*%
%ADD014C,0.07874*%
%ADD015O,0.09843X0.17717*%
%ADD016O,0.17717X0.09843*%
%ADD017C,0.01*%
%ADD020C,0.01969*%
%ADD021C,0.00591*%
%ADD022C,0.02953*%
%ADD023C,0.03937*%
%ADD024C,0.00984*%
%ADD025C,0.00787*%
%ADD026C,0.01575*%
%ADD027C,0.01378*%
%ADD028C,0.01181*%
%ADD029R,0.05512X0.05906*%
%ADD030R,0.035X0.031*%
%ADD031R,0.05118X0.03937*%
%ADD032R,0.07087X0.05906*%
%ADD033R,0.031X0.035*%
%ADD034R,0.05512X0.03937*%
%ADD035R,0.03937X0.05512*%
%ADD036R,0.06102X0.02165*%
%ADD037R,0.02165X0.06102*%
%ADD038R,0.09646X0.09252*%
%ADD039R,0.03937X0.05118*%
%ADD040R,0.05315X0.01575*%
%ADD041R,0.06299X0.08268*%
%ADD042R,0.07087X0.0748*%
%ADD043R,0.08465X0.0374*%
%ADD044R,0.08465X0.12795*%
%ADD045R,0.07874X0.02362*%
%ADD046R,0.24409X0.40945*%
%ADD047R,0.06496X0.02362*%
%ADD048R,0.012X0.05*%
%ADD049R,0.07874X0.04724*%
%ADD050R,0.11811X0.09843*%
%ADD051R,0.09252X0.09646*%
%ADD052C,0.0315*%
%ADD053C,0.02362*%
%ADD054C,0.03543*%
*
*
*
*
G04 PC Circuitry*
G04 Layer Name Zegar.pcb - circuitry*
%LPD*%
*
*
G04 PC Custom Flashes*
G04 Layer Name Zegar.pcb - flashes*
%LPD*%
*
*
G04 PC Circuitry*
G04 Layer Name Zegar.pcb - circuitry*
%LPD*%
*
G54D10*
G54D12*
G01X253543Y44488D03*
X392913D03*
X324016D03*
G54D13*
X243543D03*
X233543D03*
X223543D03*
X213543D03*
X203543D03*
X382913D03*
X372913D03*
X362913D03*
X352913D03*
X342913D03*
X314016D03*
X304016D03*
X294016D03*
X284016D03*
X274016D03*
G54D14*
X220472Y81220D03*
Y91220D03*
X201575Y81220D03*
Y91220D03*
X29708Y64626D03*
X98240Y25059D03*
G54D15*
X55512Y114567D03*
X32677D03*
G54D16*
X43701Y134252D03*
G54D17*
X147653Y425847D02*
X147006Y428262D01*
X144977Y427718*
X145624Y425303*
X147653Y425847*
X145551Y425575D02*
X146637D01*
X145283Y426575D02*
X147458D01*
X145016Y427575D02*
X147190D01*
X145575Y425487D02*
Y427878D01*
X146575Y425558D02*
Y428146D01*
X147575Y425826D02*
Y426137D01*
X153448Y427400D02*
X152801Y429815D01*
X150773Y429271*
X151420Y426856*
X153448Y427400*
X151227Y427575D02*
X153401D01*
X150959Y428575D02*
X153133D01*
X151906Y429575D02*
X152865D01*
X151575Y426898D02*
Y429486D01*
X152575Y427166D02*
Y429754D01*
X241100Y429612D02*
X241747Y432027D01*
X239719Y432571*
X239072Y430156*
X241100Y429612*
X239184Y430575D02*
X241358D01*
X239452Y431575D02*
X241626D01*
X239575Y430021D02*
Y432034D01*
X240575Y429753D02*
Y432341D01*
X241575Y431384D02*
Y432073D01*
X246896Y428059D02*
X247543Y430474D01*
X245514Y431018*
X244867Y428603*
X246896Y428059*
X244972Y428575D02*
X247034D01*
X245128Y429575D02*
X247302D01*
X245396Y430575D02*
X247167D01*
X245575Y428413D02*
Y431001D01*
X246575Y428145D02*
Y430733D01*
X85828Y391916D02*
X84306Y393899D01*
X82640Y392621*
X84162Y390637*
X85828Y391916*
X83443Y391575D02*
X85384D01*
X82675Y392575D02*
X85322D01*
X83884Y393575D02*
X84555D01*
X83575Y391403D02*
Y393338D01*
X84575Y390954D02*
Y393549D01*
X85575Y391721D02*
Y392246D01*
X90588Y395568D02*
X89066Y397552D01*
X87400Y396273*
X88922Y394290*
X90588Y395568*
X88704Y394575D02*
X89293D01*
X87936Y395575D02*
X90583D01*
X87793Y396575D02*
X89816D01*
X87575Y396046D02*
Y396407D01*
X88575Y394743D02*
Y397175D01*
X89575Y394791D02*
Y396889D01*
X90575Y395558D02*
Y395586D01*
X305172Y400983D02*
X306694Y402966D01*
X305028Y404245*
X303506Y402261*
X305172Y400983*
X304401Y401575D02*
X305627D01*
X303747Y402575D02*
X306394D01*
X304514Y403575D02*
X305901D01*
X303575Y402209D02*
Y402350D01*
X304575Y401441D02*
Y403654D01*
X305575Y401507D02*
Y403825D01*
X306575Y402811D02*
Y403058D01*
X309932Y397330D02*
X311454Y399314D01*
X309788Y400592*
X308266Y398609*
X309932Y397330*
X309614Y397575D02*
X310120D01*
X308310Y398575D02*
X310887D01*
X309008Y399575D02*
X311114D01*
X309775Y400575D02*
X309811D01*
X308575Y398372D02*
Y399011D01*
X309575Y397605D02*
Y400314D01*
X310575Y398167D02*
Y399989D01*
X353848Y349883D02*
X356013Y351133D01*
X354963Y352951*
X352798Y351701*
X353848Y349883*
X353448Y350575D02*
X355047D01*
X352871Y351575D02*
X355758D01*
X354311Y352575D02*
X355180D01*
X353575Y350356D02*
Y352150D01*
X354575Y350302D02*
Y352727D01*
X355575Y350880D02*
Y351892D01*
X356848Y344686D02*
X359013Y345936D01*
X357963Y347755*
X355798Y346505*
X356848Y344686*
X356335Y345575D02*
X358387D01*
X355919Y346575D02*
X358645D01*
X357651Y347575D02*
X358067D01*
X356575Y345160D02*
Y346954D01*
X357575Y345106D02*
Y347531D01*
X358575Y345683D02*
Y346696D01*
X41840Y337056D02*
X39675Y338306D01*
X38625Y336488*
X40790Y335238*
X41840Y337056*
X40206Y335575D02*
X40984D01*
X38675Y336575D02*
X41562D01*
X39252Y337575D02*
X40942D01*
X39575Y335939D02*
Y338133D01*
X40575Y335362D02*
Y337787D01*
X41575Y336597D02*
Y337209D01*
X44840Y342252D02*
X42675Y343502D01*
X41625Y341684*
X43790Y340434*
X44840Y342252*
X43546Y340575D02*
X43871D01*
X41814Y341575D02*
X44449D01*
X42139Y342575D02*
X44282D01*
X42575Y341135D02*
Y343329D01*
X43575Y340558D02*
Y342983D01*
X44575Y341793D02*
Y342405D01*
X49831Y335416D02*
X46264Y337475D01*
X44796Y334931*
X48362Y332872*
X49831Y335416*
X47145Y333575D02*
X48768D01*
X45413Y334575D02*
X49345D01*
X45167Y335575D02*
X49555D01*
X45745Y336575D02*
X47823D01*
X45575Y334481D02*
Y336280D01*
X46575Y333904D02*
Y337295D01*
X47575Y333327D02*
Y336718D01*
X48575Y333240D02*
Y336141D01*
X49575Y334972D02*
Y335563D01*
X56268Y346565D02*
X52701Y348624D01*
X51233Y346080*
X54799Y344021*
X56268Y346565*
X53841Y344575D02*
X55119D01*
X52109Y345575D02*
X55696D01*
X51518Y346575D02*
X56251D01*
X52096Y347575D02*
X54518D01*
X52673Y348575D02*
X52786D01*
X51575Y345883D02*
Y346673D01*
X52575Y345306D02*
Y348405D01*
X53575Y344728D02*
Y348120D01*
X54575Y344151D02*
Y347542D01*
X55575Y345365D02*
Y346965D01*
X152168Y418735D02*
X151102Y422713D01*
X148265Y421953*
X149331Y417975*
X152168Y418735*
X149170Y418575D02*
X151570D01*
X148902Y419575D02*
X151943D01*
X148634Y420575D02*
X151675D01*
X148367Y421575D02*
X151407D01*
X150587Y422575D02*
X151139D01*
X148575Y420797D02*
Y422036D01*
X149575Y418040D02*
Y422304D01*
X150575Y418308D02*
Y422572D01*
X151575Y418576D02*
Y420949D01*
X164603Y422067D02*
X163538Y426045D01*
X160701Y425285*
X161766Y421307*
X164603Y422067*
X161695Y421575D02*
X162766D01*
X161427Y422575D02*
X164467D01*
X161159Y423575D02*
X164199D01*
X160891Y424575D02*
X163931D01*
X161783Y425575D02*
X163663D01*
X161575Y422022D02*
Y425519D01*
X162575Y421524D02*
Y425787D01*
X163575Y421791D02*
Y425906D01*
X164575Y422059D02*
Y422174D01*
X47352Y346505D02*
X45187Y347755D01*
X44137Y345936*
X46302Y344686*
X47352Y346505*
X44763Y345575D02*
X46814D01*
X44505Y346575D02*
X47231D01*
X45082Y347575D02*
X45499D01*
X44575Y345683D02*
Y346696D01*
X45575Y345106D02*
Y347531D01*
X46575Y345160D02*
Y346954D01*
X50352Y351701D02*
X48187Y352951D01*
X47137Y351133*
X49302Y349883*
X50352Y351701*
X48103Y350575D02*
X49701D01*
X47392Y351575D02*
X50279D01*
X47969Y352575D02*
X48839D01*
X47575Y350880D02*
Y351892D01*
X48575Y350302D02*
Y352727D01*
X49575Y350356D02*
Y352150D01*
X94490Y398609D02*
X92968Y400592D01*
X91302Y399314*
X92823Y397330*
X94490Y398609*
X92636Y397575D02*
X93142D01*
X91868Y398575D02*
X94445D01*
X91642Y399575D02*
X93748D01*
X92945Y400575D02*
X92981D01*
X91575Y398958D02*
Y399523D01*
X92575Y397654D02*
Y400291D01*
X93575Y397907D02*
Y399801D01*
X99250Y402261D02*
X97728Y404245D01*
X96062Y402966*
X97584Y400983*
X99250Y402261*
X97129Y401575D02*
X98355D01*
X96362Y402575D02*
X99009D01*
X96855Y403575D02*
X98242D01*
X96575Y402297D02*
Y403360D01*
X97575Y400994D02*
Y404127D01*
X98575Y401743D02*
Y403141D01*
X313834Y394290D02*
X315356Y396273D01*
X313690Y397552*
X312168Y395568*
X313834Y394290*
X313462Y394575D02*
X314052D01*
X312173Y395575D02*
X314820D01*
X312940Y396575D02*
X314963D01*
X312575Y395256D02*
Y396099D01*
X313575Y394489D02*
Y397402D01*
X314575Y395256D02*
Y396872D01*
X318594Y390637D02*
X320116Y392621D01*
X318450Y393899*
X316928Y391916*
X318594Y390637*
X317372Y391575D02*
X319313D01*
X317434Y392575D02*
X320081D01*
X318201Y393575D02*
X318872D01*
X317575Y391419D02*
Y392759D01*
X318575Y390652D02*
Y393803D01*
X319575Y391916D02*
Y393036D01*
X158282Y428603D02*
X157635Y431018D01*
X155607Y430474*
X156254Y428059*
X158282Y428603*
X156116Y428575D02*
X158178D01*
X155848Y429575D02*
X158022D01*
X155983Y430575D02*
X157754D01*
X156575Y428145D02*
Y430733D01*
X157575Y428413D02*
Y431001D01*
X164078Y430156D02*
X163431Y432571D01*
X161403Y432027*
X162050Y429612*
X164078Y430156*
X161792Y430575D02*
X163966D01*
X161524Y431575D02*
X163698D01*
X161575Y431384D02*
Y432073D01*
X162575Y429753D02*
Y432341D01*
X163575Y430021D02*
Y432034D01*
X251730Y426856D02*
X252377Y429271D01*
X250349Y429815*
X249701Y427400*
X251730Y426856*
X249748Y427575D02*
X251922D01*
X250016Y428575D02*
X252190D01*
X250284Y429575D02*
X251244D01*
X250575Y427166D02*
Y429754D01*
X251575Y426898D02*
Y429486D01*
X257525Y425303D02*
X258173Y427718D01*
X256144Y428262*
X255497Y425847*
X257525Y425303*
X256513Y425575D02*
X257598D01*
X255692Y426575D02*
X257866D01*
X255960Y427575D02*
X258134D01*
X255575Y425826D02*
Y426137D01*
X256575Y425558D02*
Y428146D01*
X257575Y425487D02*
Y427878D01*
X359360Y340434D02*
X361525Y341684D01*
X360475Y343502*
X358310Y342252*
X359360Y340434*
X359278Y340575D02*
X359604D01*
X358701Y341575D02*
X361336D01*
X358868Y342575D02*
X361010D01*
X358575Y341793D02*
Y342405D01*
X359575Y340558D02*
Y342983D01*
X360575Y341135D02*
Y343329D01*
X362360Y335238D02*
X364525Y336488D01*
X363475Y338306*
X361310Y337056*
X362360Y335238*
X362165Y335575D02*
X362944D01*
X361588Y336575D02*
X364475D01*
X362208Y337575D02*
X363897D01*
X361575Y336597D02*
Y337209D01*
X362575Y335362D02*
Y337787D01*
X363575Y335939D02*
Y338133D01*
X110328Y375662D02*
X111850Y373679D01*
X113516Y374957*
X111994Y376941*
X110328Y375662*
X111162Y374575D02*
X113017D01*
X110395Y375575D02*
X113042D01*
X111517Y376575D02*
X112274D01*
X110575Y375340D02*
Y375852D01*
X111575Y374037D02*
Y376619D01*
X112575Y374235D02*
Y376183D01*
X105568Y372010D02*
X107089Y370026D01*
X108755Y371305*
X107234Y373288*
X105568Y372010*
X106668Y370575D02*
X107804D01*
X105901Y371575D02*
X108548D01*
X106304Y372575D02*
X107781D01*
X105575Y372000D02*
Y372015D01*
X106575Y370697D02*
Y372782D01*
X107575Y370399D02*
Y372843D01*
X108575Y371166D02*
Y371540D01*
X295916Y373288D02*
X294394Y371305D01*
X296060Y370026*
X297582Y372010*
X295916Y373288*
X295345Y370575D02*
X296481D01*
X294601Y371575D02*
X297248D01*
X295369Y372575D02*
X296845D01*
X294575Y371166D02*
Y371540D01*
X295575Y370399D02*
Y372843D01*
X296575Y370697D02*
Y372782D01*
X297575Y372000D02*
Y372015D01*
X291156Y376941D02*
X289634Y374957D01*
X291300Y373679*
X292822Y375662*
X291156Y376941*
X290132Y374575D02*
X291988D01*
X290108Y375575D02*
X292755D01*
X290875Y376575D02*
X291632D01*
X290575Y374235D02*
Y376183D01*
X291575Y374037D02*
Y376619D01*
X292575Y375340D02*
Y375852D01*
X75008Y328060D02*
X73758Y325895D01*
X75576Y324845*
X76826Y327010*
X75008Y328060*
X74313Y325575D02*
X75997D01*
X74150Y326575D02*
X76575D01*
X74727Y327575D02*
X75848D01*
X74575Y325423D02*
Y327311D01*
X75575Y324846D02*
Y327733D01*
X76575Y326575D02*
Y327155D01*
X69811Y331060D02*
X68561Y328895D01*
X70380Y327845*
X71630Y330010*
X69811Y331060*
X69116Y328575D02*
X70801D01*
X68954Y329575D02*
X71379D01*
X69531Y330575D02*
X70652D01*
X68575Y328888D02*
Y328918D01*
X69575Y328310D02*
Y330650D01*
X70575Y328182D02*
Y330620D01*
X71575Y329914D02*
Y330042D01*
X164770Y395731D02*
X162355Y395084D01*
X162898Y393056*
X165313Y393703*
X164770Y395731*
X162759Y393575D02*
X164835D01*
X162491Y394575D02*
X165080D01*
X164186Y395575D02*
X164812D01*
X162575Y394264D02*
Y395143D01*
X163575Y393237D02*
Y395411D01*
X164575Y393505D02*
Y395679D01*
X163217Y401527D02*
X160802Y400880D01*
X161346Y398851*
X163760Y399498*
X163217Y401527*
X161152Y399575D02*
X163740D01*
X160884Y400575D02*
X163472D01*
X161575Y398913D02*
Y401087D01*
X162575Y399181D02*
Y401355D01*
X163575Y399449D02*
Y400191D01*
X240795Y395084D02*
X238380Y395731D01*
X237836Y393703*
X240251Y393056*
X240795Y395084*
X238314Y393575D02*
X240390D01*
X238070Y394575D02*
X240658D01*
X238338Y395575D02*
X238964D01*
X238575Y393505D02*
Y395679D01*
X239575Y393237D02*
Y395411D01*
X240575Y394264D02*
Y395143D01*
X242348Y400880D02*
X239933Y401527D01*
X239389Y399498*
X241804Y398851*
X242348Y400880*
X239410Y399575D02*
X241998D01*
X239678Y400575D02*
X242266D01*
X239575Y399449D02*
Y400191D01*
X240575Y399181D02*
Y401355D01*
X241575Y398913D02*
Y401087D01*
X329392Y325895D02*
X328142Y328060D01*
X326323Y327010*
X327573Y324845*
X329392Y325895*
X327152Y325575D02*
X328837D01*
X326575Y326575D02*
X329000D01*
X327301Y327575D02*
X328422D01*
X326575Y326575D02*
Y327155D01*
X327575Y324846D02*
Y327733D01*
X328575Y325423D02*
Y327311D01*
X334588Y328895D02*
X333338Y331060D01*
X331519Y330010*
X331519D02*
X332769Y327845D01*
X332769D02*
X334588Y328895D01*
X332348Y328575D02*
X334033D01*
X331771Y329575D02*
X334196D01*
X332497Y330575D02*
X333618D01*
X331575Y329914D02*
Y330042D01*
X332575Y328182D02*
Y330620D01*
X333575Y328310D02*
Y330650D01*
X334575Y328888D02*
Y328918D01*
X132377Y346926D02*
X133899Y344943D01*
X135565Y346221*
X135565D02*
X134043Y348205D01*
X132377Y346926*
X133414Y345575D02*
X134722D01*
X132647Y346575D02*
X135294D01*
X133222Y347575D02*
X134527D01*
X132575Y346669D02*
Y347078D01*
X133575Y345366D02*
Y347845D01*
X134575Y345462D02*
Y347512D01*
X127617Y343274D02*
X129139Y341291D01*
X130805Y342569*
X129283Y344552*
X127617Y343274*
X128921Y341575D02*
X129510D01*
X128154Y342575D02*
X130801D01*
X128009Y343575D02*
X130033D01*
X128575Y342026D02*
Y344009D01*
X129575Y341625D02*
Y344172D01*
X130575Y342392D02*
Y342869D01*
X273627Y344240D02*
X272105Y342257D01*
X273771Y340978*
X275293Y342962*
X273627Y344240*
X272993Y341575D02*
X274229D01*
X272349Y342575D02*
X274996D01*
X273116Y343575D02*
X274494D01*
X272575Y341896D02*
Y342869D01*
X273575Y341129D02*
Y344172D01*
X274575Y342026D02*
Y343512D01*
X268867Y347893D02*
X267345Y345909D01*
X269011Y344631*
X270533Y346614*
X268867Y347893*
X267780Y345575D02*
X269735D01*
X267855Y346575D02*
X270502D01*
X268623Y347575D02*
X269281D01*
X267575Y345733D02*
Y346209D01*
X268575Y344965D02*
Y347512D01*
X269575Y345366D02*
Y347349D01*
X58152Y333726D02*
X54244Y335982D01*
X52776Y333438*
X56683Y331182*
X58152Y333726*
X56003Y331575D02*
X56910D01*
X54271Y332575D02*
X57487D01*
X52855Y333575D02*
X58065D01*
X53432Y334575D02*
X56681D01*
X54010Y335575D02*
X54949D01*
X53575Y332977D02*
Y334822D01*
X54575Y332399D02*
Y335791D01*
X55575Y331822D02*
Y335213D01*
X56575Y331245D02*
Y334636D01*
X57575Y332726D02*
Y334059D01*
X61892Y340204D02*
X57985Y342460D01*
X57985D02*
X56516Y339916D01*
X60423Y337660*
X61892Y340204*
X58839Y338575D02*
X60951D01*
X57107Y339575D02*
X61529D01*
X56896Y340575D02*
X61249D01*
X57474Y341575D02*
X59517D01*
X56575Y339882D02*
Y340018D01*
X57575Y339305D02*
Y341750D01*
X58575Y338727D02*
Y342119D01*
X59575Y338150D02*
Y341541D01*
X60575Y337923D02*
Y340964D01*
X61575Y339655D02*
Y340387D01*
X67557Y332614D02*
X63650Y334870D01*
X62181Y332327*
X66088Y330071*
X67557Y332614*
X65215Y330575D02*
X66379D01*
X63483Y331575D02*
X66957D01*
X62324Y332575D02*
X67534D01*
X62902Y333575D02*
X65893D01*
X63479Y334575D02*
X64161D01*
X62575Y332099D02*
Y333009D01*
X63575Y331522D02*
Y334741D01*
X64575Y330945D02*
Y334336D01*
X65575Y330367D02*
Y333759D01*
X66575Y330913D02*
Y333181D01*
X156857Y411656D02*
X155689Y416014D01*
X152852Y415254*
X154020Y410896*
X156857Y411656*
X153838Y411575D02*
X156553D01*
X153570Y412575D02*
X156611D01*
X153302Y413575D02*
X156343D01*
X153034Y414575D02*
X156075D01*
X154049Y415575D02*
X155807D01*
X153575Y412557D02*
Y415448D01*
X154575Y411045D02*
Y415716D01*
X155575Y411313D02*
Y415984D01*
X156575Y411581D02*
Y412709D01*
X164082Y413592D02*
X162914Y417950D01*
X160078Y417190*
X161245Y412832*
X164082Y413592*
X161046Y413575D02*
X164017D01*
X160778Y414575D02*
X163819D01*
X160510Y415575D02*
X163551D01*
X160242Y416575D02*
X163283D01*
X161513Y417575D02*
X163015D01*
X160575Y415334D02*
Y417323D01*
X161575Y412920D02*
Y417591D01*
X162575Y413188D02*
Y417859D01*
X163575Y413456D02*
Y415486D01*
X162721Y404220D02*
X161554Y408578D01*
X158717Y407818*
X159885Y403460*
X159885D02*
X162721Y404220D01*
X159854Y403575D02*
X160314D01*
X159586Y404575D02*
X162626D01*
X159318Y405575D02*
X162358D01*
X159050Y406575D02*
X162090D01*
X158782Y407575D02*
X161822D01*
X161542Y408575D02*
X161555D01*
X159575Y404616D02*
Y408048D01*
X160575Y403645D02*
Y408316D01*
X161575Y403913D02*
Y408499D01*
X162575Y404181D02*
Y404767D01*
X241904Y412832D02*
X243072Y417190D01*
X240235Y417950*
X239067Y413592*
X241904Y412832*
X239133Y413575D02*
X242103D01*
X239331Y414575D02*
X242371D01*
X239599Y415575D02*
X242639D01*
X239867Y416575D02*
X242907D01*
X240135Y417575D02*
X241637D01*
X239575Y413456D02*
Y415486D01*
X240575Y413188D02*
Y417859D01*
X241575Y412920D02*
Y417591D01*
X242575Y415334D02*
Y417323D01*
X249130Y410896D02*
X250297Y415254D01*
X247461Y416014*
X246293Y411656*
X249130Y410896*
X246597Y411575D02*
X249312D01*
X246539Y412575D02*
X249580D01*
X246807Y413575D02*
X249848D01*
X247075Y414575D02*
X250115D01*
X247343Y415575D02*
X249101D01*
X246575Y411581D02*
Y412709D01*
X247575Y411313D02*
Y415984D01*
X248575Y411045D02*
Y415716D01*
X249575Y412557D02*
Y415448D01*
X243265Y403460D02*
X244433Y407818D01*
X241596Y408578*
X240428Y404220*
X243265Y403460*
X242836Y403575D02*
X243296D01*
X240523Y404575D02*
X243564D01*
X240791Y405575D02*
X243832D01*
X241059Y406575D02*
X244100D01*
X241327Y407575D02*
X244368D01*
X241595Y408575D02*
X241608D01*
X240575Y404181D02*
Y404767D01*
X241575Y403913D02*
Y408499D01*
X242575Y403645D02*
Y408316D01*
X243575Y404616D02*
Y408048D01*
X342726Y337660D02*
X346634Y339916D01*
X345165Y342460*
X341258Y340204*
X342726Y337660*
X342198Y338575D02*
X344310D01*
X341621Y339575D02*
X346042D01*
X341900Y340575D02*
X346253D01*
X343633Y341575D02*
X345676D01*
X341575Y339655D02*
Y340387D01*
X342575Y337923D02*
Y340964D01*
X343575Y338150D02*
Y341541D01*
X344575Y338727D02*
Y342119D01*
X345575Y339305D02*
Y341750D01*
X346575Y339882D02*
Y340018D01*
X346466Y331182D02*
X350374Y333438D01*
X348905Y335982*
X344998Y333726*
X346466Y331182*
X346240Y331575D02*
X347147D01*
X345662Y332575D02*
X348879D01*
X345085Y333575D02*
X350295D01*
X346469Y334575D02*
X349717D01*
X348201Y335575D02*
X349140D01*
X345575Y332726D02*
Y334059D01*
X346575Y331245D02*
Y334636D01*
X347575Y331822D02*
Y335213D01*
X348575Y332399D02*
Y335791D01*
X349575Y332977D02*
Y334822D01*
X337061Y330071D02*
X340969Y332327D01*
X339500Y334870*
X335593Y332614*
X337061Y330071*
X336770Y330575D02*
X337934D01*
X336193Y331575D02*
X339666D01*
X335616Y332575D02*
X340825D01*
X337256Y333575D02*
X340248D01*
X338988Y334575D02*
X339671D01*
X336575Y330913D02*
Y333181D01*
X337575Y330367D02*
Y333759D01*
X338575Y330945D02*
Y334336D01*
X339575Y331522D02*
Y334741D01*
X340575Y332099D02*
Y333009D01*
X99754Y382508D02*
X97007Y386087D01*
X94677Y384299*
X97423Y380720*
X99754Y382508*
X96767Y381575D02*
X98538D01*
X96000Y382575D02*
X99702D01*
X95233Y383575D02*
X98935D01*
X95036Y384575D02*
X98167D01*
X96339Y385575D02*
X97400D01*
X95575Y383129D02*
Y384988D01*
X96575Y381826D02*
Y385756D01*
X97575Y380836D02*
Y385347D01*
X98575Y381603D02*
Y384044D01*
X99575Y382371D02*
Y382741D01*
X105688Y387061D02*
X102941Y390641D01*
X100611Y388853*
X103358Y385274*
X105688Y387061*
X103127Y385575D02*
X103751D01*
X102359Y386575D02*
X105054D01*
X101592Y387575D02*
X105294D01*
X100825Y388575D02*
X104527D01*
X101552Y389575D02*
X103760D01*
X102855Y390575D02*
X102992D01*
X101575Y387597D02*
Y389592D01*
X102575Y386294D02*
Y390360D01*
X103575Y385440D02*
Y389816D01*
X104575Y386207D02*
Y388512D01*
X105575Y386975D02*
Y387209D01*
X108018Y377882D02*
X105271Y381461D01*
X102941Y379673*
X105687Y376094*
X108018Y377882*
X105318Y376575D02*
X106314D01*
X104551Y377575D02*
X107617D01*
X103784Y378575D02*
X107486D01*
X103016Y379575D02*
X106718D01*
X104116Y380575D02*
X105951D01*
X103575Y378847D02*
Y380160D01*
X104575Y377544D02*
Y380927D01*
X105575Y376241D02*
Y381065D01*
X106575Y376775D02*
Y379762D01*
X107575Y377542D02*
Y378459D01*
X299792Y385274D02*
X302538Y388853D01*
X300208Y390641*
X297462Y387061*
X299792Y385274*
X299399Y385575D02*
X300023D01*
X298096Y386575D02*
X300790D01*
X297855Y387575D02*
X301557D01*
X298623Y388575D02*
X302325D01*
X299390Y389575D02*
X301598D01*
X300157Y390575D02*
X300294D01*
X297575Y386975D02*
Y387209D01*
X298575Y386207D02*
Y388512D01*
X299575Y385440D02*
Y389816D01*
X300575Y386294D02*
Y390360D01*
X301575Y387597D02*
Y389592D01*
X305726Y380720D02*
X308473Y384299D01*
X306143Y386087*
X303396Y382508*
X305726Y380720*
X304612Y381575D02*
X306382D01*
X303448Y382575D02*
X307150D01*
X304215Y383575D02*
X307917D01*
X304982Y384575D02*
X308114D01*
X305749Y385575D02*
X306810D01*
X303575Y382371D02*
Y382741D01*
X304575Y381603D02*
Y384044D01*
X305575Y380836D02*
Y385347D01*
X306575Y381826D02*
Y385756D01*
X307575Y383129D02*
Y384988D01*
X297462Y376094D02*
X300209Y379673D01*
X297879Y381461*
X295132Y377882*
X297462Y376094*
X296835Y376575D02*
X297831D01*
X295532Y377575D02*
X298599D01*
X295664Y378575D02*
X299366D01*
X296431Y379575D02*
X300133D01*
X297198Y380575D02*
X299034D01*
X295575Y377542D02*
Y378459D01*
X296575Y376775D02*
Y379762D01*
X297575Y376241D02*
Y381065D01*
X298575Y377544D02*
Y380927D01*
X299575Y378847D02*
Y380160D01*
X241383Y421307D02*
X242449Y425285D01*
X239612Y426045*
X238546Y422067*
X241383Y421307*
X240383Y421575D02*
X241455D01*
X238682Y422575D02*
X241723D01*
X238950Y423575D02*
X241991D01*
X239218Y424575D02*
X242259D01*
X239486Y425575D02*
X241366D01*
X238575Y422059D02*
Y422174D01*
X239575Y421791D02*
Y425906D01*
X240575Y421524D02*
Y425787D01*
X241575Y422022D02*
Y425519D01*
X253819Y417975D02*
X254884Y421953D01*
X252047Y422713*
X250982Y418735*
X253819Y417975*
X251580Y418575D02*
X253979D01*
X251207Y419575D02*
X254247D01*
X251475Y420575D02*
X254515D01*
X251742Y421575D02*
X254783D01*
X252010Y422575D02*
X252563D01*
X251575Y418576D02*
Y420949D01*
X252575Y418308D02*
Y422572D01*
X253575Y418040D02*
Y422304D01*
X254575Y420797D02*
Y422036D01*
X348350Y344021D02*
X351917Y346080D01*
X350448Y348624*
X346882Y346565*
X348350Y344021*
X348031Y344575D02*
X349309D01*
X347453Y345575D02*
X351041D01*
X346899Y346575D02*
X351631D01*
X348631Y347575D02*
X351054D01*
X350363Y348575D02*
X350477D01*
X347575Y345365D02*
Y346965D01*
X348575Y344151D02*
Y347542D01*
X349575Y344728D02*
Y348120D01*
X350575Y345306D02*
Y348405D01*
X351575Y345883D02*
Y346673D01*
X354787Y332872D02*
X358354Y334931D01*
X356885Y337475*
X353319Y335416*
X354787Y332872*
X354382Y333575D02*
X356004D01*
X353804Y334575D02*
X357736D01*
X353595Y335575D02*
X357982D01*
X355327Y336575D02*
X357405D01*
X353575Y334972D02*
Y335563D01*
X354575Y333240D02*
Y336141D01*
X355575Y333327D02*
Y336718D01*
X356575Y333904D02*
Y337295D01*
X357575Y334481D02*
Y336280D01*
X92713Y387253D02*
X90206Y390521D01*
X87876Y388733*
X90383Y385465*
X90383D02*
X92713Y387253D01*
X90299Y385575D02*
X90525D01*
X89531Y386575D02*
X91828D01*
X88764Y387575D02*
X92466D01*
X87997Y388575D02*
X91699D01*
X88973Y389575D02*
X90932D01*
X88575Y387822D02*
Y389269D01*
X89575Y386518D02*
Y390036D01*
X90575Y385613D02*
Y390040D01*
X91575Y386380D02*
Y388736D01*
X92575Y387148D02*
Y387433D01*
X102926Y395091D02*
X100419Y398358D01*
X98089Y396570*
X100596Y393303*
X102926Y395091*
X100388Y393575D02*
X100951D01*
X99620Y394575D02*
X102254D01*
X98853Y395575D02*
X102555D01*
X98096Y396575D02*
X101788D01*
X99399Y397575D02*
X101020D01*
X98575Y395937D02*
Y396942D01*
X99575Y394634D02*
Y397710D01*
X100575Y393331D02*
Y398155D01*
X101575Y394054D02*
Y396852D01*
X102575Y394821D02*
Y395549D01*
X302553Y393303D02*
X305060Y396570D01*
X302730Y398358*
X300223Y395091*
X302553Y393303*
X302199Y393575D02*
X302762D01*
X300895Y394575D02*
X303529D01*
X300595Y395575D02*
X304297D01*
X301362Y396575D02*
X305054D01*
X302129Y397575D02*
X303751D01*
X300575Y394821D02*
Y395549D01*
X301575Y394054D02*
Y396852D01*
X302575Y393331D02*
Y398155D01*
X303575Y394634D02*
Y397710D01*
X304575Y395937D02*
Y396942D01*
X312767Y385465D02*
X315274Y388733D01*
X312944Y390521*
X310437Y387253*
X312767Y385465*
X312624Y385575D02*
X312851D01*
X311321Y386575D02*
X313618D01*
X310683Y387575D02*
X314385D01*
X311451Y388575D02*
X315153D01*
X312218Y389575D02*
X314176D01*
X310575Y387148D02*
Y387433D01*
X311575Y386380D02*
Y388736D01*
X312575Y385613D02*
Y390040D01*
X313575Y386518D02*
Y390036D01*
X314575Y387822D02*
Y389269D01*
X124602Y357587D02*
X127349Y354008D01*
X129679Y355796*
X126932Y359375*
X124602Y357587*
X126914Y354575D02*
X128088D01*
X126147Y355575D02*
X129391D01*
X125379Y356575D02*
X129081D01*
X124612Y357575D02*
X128314D01*
X125889Y358575D02*
X127547D01*
X125575Y356320D02*
Y358334D01*
X126575Y355017D02*
Y359101D01*
X127575Y354181D02*
Y358538D01*
X128575Y354949D02*
Y357235D01*
X129575Y355716D02*
Y355932D01*
X118668Y353034D02*
X121414Y349454D01*
X123745Y351242*
X120998Y354822*
X118668Y353034*
X121322Y349575D02*
X121572D01*
X120555Y350575D02*
X122875D01*
X119787Y351575D02*
X123489D01*
X119020Y352575D02*
X122722D01*
X119373Y353575D02*
X121955D01*
X120676Y354575D02*
X121187D01*
X119575Y351852D02*
Y353730D01*
X120575Y350548D02*
Y354497D01*
X121575Y349577D02*
Y354070D01*
X122575Y350345D02*
Y352767D01*
X123575Y351112D02*
Y351463D01*
X116338Y362213D02*
X119085Y358634D01*
X121415Y360422*
X118668Y364001*
X116338Y362213*
X118363Y359575D02*
X120311D01*
X117596Y360575D02*
X121298D01*
X116828Y361575D02*
X120530D01*
X116809Y362575D02*
X119763D01*
X118113Y363575D02*
X118996D01*
X116575Y361905D02*
Y362395D01*
X117575Y360602D02*
Y363162D01*
X118575Y359299D02*
Y363929D01*
X119575Y359010D02*
Y362820D01*
X120575Y359777D02*
Y361517D01*
X282152Y354822D02*
X279405Y351242D01*
X281735Y349454*
X284482Y353034*
X282152Y354822*
X281578Y349575D02*
X281828D01*
X280275Y350575D02*
X282595D01*
X279660Y351575D02*
X283362D01*
X280428Y352575D02*
X284130D01*
X281195Y353575D02*
X283777D01*
X281962Y354575D02*
X282473D01*
X279575Y351112D02*
Y351463D01*
X280575Y350345D02*
Y352767D01*
X281575Y349577D02*
Y354070D01*
X282575Y350548D02*
Y354497D01*
X283575Y351852D02*
Y353730D01*
X276217Y359375D02*
X273471Y355796D01*
X275801Y354008*
X278547Y357587*
X276217Y359375*
X275062Y354575D02*
X276236D01*
X273759Y355575D02*
X277003D01*
X274068Y356575D02*
X277770D01*
X274836Y357575D02*
X278538D01*
X275603Y358575D02*
X277260D01*
X273575Y355716D02*
Y355932D01*
X274575Y354949D02*
Y357235D01*
X275575Y354181D02*
Y358538D01*
X276575Y355017D02*
Y359101D01*
X277575Y356320D02*
Y358334D01*
X284481Y364001D02*
X281735Y360422D01*
X284065Y358634*
X286811Y362213*
X284481Y364001*
X282838Y359575D02*
X284787D01*
X281852Y360575D02*
X285554D01*
X282619Y361575D02*
X286321D01*
X283387Y362575D02*
X286340D01*
X284154Y363575D02*
X285037D01*
X282575Y359777D02*
Y361517D01*
X283575Y359010D02*
Y362820D01*
X284575Y359299D02*
Y363929D01*
X285575Y360602D02*
Y363162D01*
X286575Y361905D02*
Y362395D01*
G54D20*
X120007Y47133D02*
G75*
G03X121604Y46457I1597J1550D01*
G01X120007Y47133D02*
Y45780D01*
X121604Y46457D02*
G03X120007Y45780I0J-2226D01*
G01Y46457D02*
X121604D01*
X123206Y45898D02*
G03X122517Y46457I-689J-146D01*
G01X123206Y45898D02*
Y47015D01*
X122517Y46457D02*
G03X123206Y47015I-0J704D01*
G01X122517Y46457D02*
X123206D01*
X122517D02*
X122517D01*
X120007Y31779D02*
G03X121604Y31102I1597J1549D01*
G01X120007Y31779D02*
Y30426D01*
X121604Y31102D02*
G03X120007Y30426I0J-2225D01*
G01Y31102D02*
X121604D01*
X123206Y30544D02*
G03X122517Y31102I-689J-146D01*
G01X123206Y30544D02*
Y31661D01*
X122517Y31102D02*
G03X123206Y31661I-0J705D01*
G01X122517Y31102D02*
X123206D01*
X122517D02*
X122517D01*
X120007Y42015D02*
G03X121604Y41339I1597J1549D01*
G01X120007Y42015D02*
Y40662D01*
X121604Y41339D02*
G03X120007Y40662I0J-2226D01*
G01Y41339D02*
X121604D01*
X123206Y40780D02*
G03X122517Y41339I-689J-146D01*
G01X123206Y40780D02*
Y41897D01*
X122517Y41339D02*
G03X123206Y41897I-0J704D01*
G01X122517Y41339D02*
X123206D01*
X122517D02*
X122517D01*
X116214Y77670D02*
G03X114616Y78346I-1598J-1549D01*
G01X116214Y77670D02*
Y79023D01*
X114616Y78346D02*
G03X116214Y79023I0J2226D01*
G01X114616Y78346D02*
X116214D01*
X114616D02*
X114616D01*
X106958Y88604D02*
G03X106449Y87915I212J-689D01*
G01X106958Y88604D02*
X105940D01*
X106449Y87915D02*
G03X105940Y88604I-721J0D01*
G01X106449Y87915D02*
Y88604D01*
X105940Y90136D02*
G03X106449Y90825I-212J689D01*
G01X105940Y90136D02*
X106958D01*
X106449Y90825D02*
G03X106958Y90136I721J0D01*
G01X106449Y90825D02*
X106449D01*
Y90136D02*
Y90825D01*
X106958Y93722D02*
G03X106449Y93033I212J-689D01*
G01X106958Y93722D02*
X105940D01*
X106449Y93033D02*
G03X105940Y93722I-721J0D01*
G01X106449Y93033D02*
Y93722D01*
X167289Y88828D02*
G03X165799Y89469I-1490J-1411D01*
G01X167289Y88828D02*
X167623Y90225D01*
X165799Y89469D02*
G03X167623Y90225I0J2575D01*
G01X165799Y89469D02*
X167442D01*
X165799D02*
X165799D01*
X181962Y65072D02*
G03X180364Y65748I-1598J-1550D01*
G01X181962Y65072D02*
Y66424D01*
X180364Y65748D02*
G03X181962Y66424I0J2226D01*
G01X180364Y65748D02*
X181962D01*
X180364D02*
X180364D01*
X178763Y66306D02*
G03X179452Y65748I689J147D01*
G01X178763Y66306D02*
Y65190D01*
X179452Y65748D02*
G03X178763Y65190I-0J-704D01*
G01Y65748D02*
X179452D01*
X130731Y74574D02*
G03X131420Y74016I689J146D01*
G01X130731Y74574D02*
Y73458D01*
X131420Y74016D02*
G03X130731Y73458I0J-705D01*
G01Y74016D02*
X131420D01*
X155859Y26632D02*
G03X157431Y25965I1572J1517D01*
G01X155859Y26632D02*
X155804Y25279D01*
X157431Y25965D02*
G03X155804Y25279I0J-2272D01*
G01X155832Y25965D02*
X157431D01*
X117774Y85150D02*
G03X119235Y84469I1461J1225D01*
G01X117774Y85150D02*
X117279Y83726D01*
X119235Y84468D02*
G03X117279Y83726I0J-2948D01*
G01X117537Y84469D02*
X119235D01*
X171631Y49048D02*
G03X170942Y49606I-689J-146D01*
G01X171631Y49048D02*
Y50165D01*
X170942Y49606D02*
G03X171631Y50165I-0J705D01*
G01X170942Y49606D02*
X171631D01*
X170942D02*
X170942D01*
X158209Y50754D02*
G03X159626Y49606I1417J301D01*
G01X158209Y50754D02*
Y48458D01*
X159626Y49606D02*
G03X158209Y48458I-0J-1449D01*
G01Y49606D02*
X159626D01*
X178763Y50165D02*
G03X179452Y49606I689J146D01*
G01X178763Y50165D02*
Y49048D01*
X179452Y49606D02*
G03X178763Y49048I-0J-704D01*
G01Y49606D02*
X179452D01*
X205484Y61615D02*
G03X203876Y60963I-34J-2226D01*
G01X205484Y61615D02*
X204528Y62571D01*
X203876Y60963D02*
G03X204528Y62571I-1574J1574D01*
G01X203876Y60963D02*
X203876D01*
X177688Y61396D02*
G03X178197Y62085I-212J689D01*
G01X177688Y61396D02*
X178706D01*
X178197Y62085D02*
G03X178706Y61396I721J-0D01*
G01X178197Y62085D02*
X178197D01*
Y61396D02*
Y62085D01*
X178706Y64982D02*
G03X178197Y64293I212J-689D01*
G01X178706Y64982D02*
X177688D01*
X178197Y64293D02*
G03X177688Y64982I-721J0D01*
G01X178197Y64293D02*
Y64982D01*
X143366Y15781D02*
G03X141949Y16929I-1417J-301D01*
G01X143366Y15781D02*
Y18077D01*
X141949Y16929D02*
G03X143366Y18077I-0J1449D01*
G01X141949Y16929D02*
X143366D01*
X141949D02*
X141949D01*
X101191Y24976D02*
G03X103146Y20152I6677J-102D01*
G01X101191Y24976D02*
X98323Y22107D01*
X103146Y20152D02*
G03X98323Y22107I-4721J-4721D01*
G01X100305Y24089D02*
X101237D01*
X98336Y22121D02*
X101785D01*
X99209Y22062D02*
Y22994D01*
X101178Y21514D02*
Y24963D01*
X156240Y17266D02*
G03X155238Y18916I-3879J-1228D01*
G01X156240Y17266D02*
Y18504D01*
X155238Y18916D02*
G03X156240Y18504I994J993D01*
G01X155238Y18916D02*
X155238D01*
X155238*
X123656Y74781D02*
G03X124165Y75471I-212J690D01*
G01X123656Y74781D02*
X124675D01*
X124165Y75471D02*
G03X124675Y74781I721J-0D01*
G01X124165Y75471D02*
X124165D01*
Y74781D02*
Y75471D01*
X124932Y77986D02*
G03X124165Y76038I2092J-1948D01*
G01X124932Y77986D02*
X123501Y77507D01*
X124165Y76038D02*
G03X123501Y77507I-1957J0D01*
G01X124165Y76038D02*
Y77730D01*
X129656Y74781D02*
G03X130165Y75471I-212J690D01*
G01X129656Y74781D02*
X130675D01*
X130165Y75471D02*
G03X130675Y74781I721J-0D01*
G01X130165Y75471D02*
X130165D01*
Y74781D02*
Y75471D01*
X130829Y77507D02*
G03X130165Y76038I1293J-1469D01*
G01X130829Y77507D02*
X129399Y77986D01*
X130165Y76038D02*
G03X129399Y77986I-2858J0D01*
G01X130165Y76038D02*
Y77730D01*
X156240Y48031D02*
G03X155238Y47620I-8J-1405D01*
G01X156240Y48031D02*
Y49269D01*
X155238Y47620D02*
G03X156240Y49269I-2877J2877D01*
G01X155238Y47620D02*
X155238D01*
X274281Y76738D02*
G03X275047Y78686I-2092J1948D01*
G01X274281Y76738D02*
X275711Y77217D01*
X275047Y78686D02*
G03X275711Y77217I1957J0D01*
G01X275047Y78686D02*
X275047D01*
Y76995D02*
Y78686D01*
X275556Y80730D02*
G03X275047Y80041I212J-689D01*
G01X275556Y80730D02*
X274538D01*
X275047Y80041D02*
G03X274538Y80730I-721J0D01*
G01X275047Y80041D02*
Y80730D01*
X265282Y92802D02*
G03X266880Y92126I1598J1550D01*
G01X265282Y92802D02*
Y91450D01*
X266880Y92126D02*
G03X265282Y91450I-0J-2226D01*
G01Y92126D02*
X266880D01*
X268481Y91568D02*
G03X267792Y92126I-689J-147D01*
G01X268481Y91568D02*
Y92684D01*
X267792Y92126D02*
G03X268481Y92684I0J705D01*
G01X267792Y92126D02*
X268481D01*
X267792D02*
X267792D01*
X274538Y72026D02*
G03X275047Y72715I-212J689D01*
G01X274538Y72026D02*
X275556D01*
X275047Y72715D02*
G03X275556Y72026I721J-0D01*
G01X275047Y72715D02*
X275047D01*
Y72026D02*
Y72715D01*
X275711Y75539D02*
G03X275047Y74070I1293J-1469D01*
G01X275711Y75539D02*
X274281Y76018D01*
X275047Y74070D02*
G03X274281Y76018I-2858J-0D01*
G01X275047Y74070D02*
Y75761D01*
X299718Y52290D02*
G03X300394Y53888I-1550J1598D01*
G01X299718Y52290D02*
X301070D01*
X300394Y53888D02*
G03X301070Y52290I2226J-0D01*
G01X300394Y53888D02*
X300394D01*
Y52290D02*
Y53888D01*
X300952Y55489D02*
G03X300394Y54800I146J-689D01*
G01X300952Y55489D02*
X299835D01*
X300394Y54800D02*
G03X299835Y55489I-705J0D01*
G01X300394Y54800D02*
Y55489D01*
X321765Y52290D02*
G03X322441Y53888I-1550J1598D01*
G01X321765Y52290D02*
X323117D01*
X322441Y53888D02*
G03X323117Y52290I2226J-0D01*
G01X322441Y53888D02*
X322441D01*
Y52290D02*
Y53888D01*
X322999Y55489D02*
G03X322441Y54800I146J-689D01*
G01X322999Y55489D02*
X321883D01*
X322441Y54800D02*
G03X321883Y55489I-705J0D01*
G01X322441Y54800D02*
Y55489D01*
X283344Y67375D02*
G03X284008Y68844I-1293J1469D01*
G01X283344Y67375D02*
X284774Y66896D01*
X284008Y68844D02*
G03X284774Y66896I2858J-0D01*
G01X284008Y68844D02*
X284008D01*
Y67152D02*
Y68844D01*
X284517Y70494D02*
G03X284008Y69805I212J-689D01*
G01X284517Y70494D02*
X283499D01*
X284008Y69805D02*
G03X283499Y70494I-721J-0D01*
G01X284008Y69805D02*
Y70494D01*
X306410Y52290D02*
G03X307087Y53888I-1549J1598D01*
G01X306410Y52290D02*
X307763D01*
X307087Y53888D02*
G03X307763Y52290I2225J-0D01*
G01X307087Y53888D02*
X307087D01*
Y52290D02*
Y53888D01*
X307645Y55489D02*
G03X307087Y54800I146J-689D01*
G01X307645Y55489D02*
X306528D01*
X307087Y54800D02*
G03X306528Y55489I-705J0D01*
G01X307087Y54800D02*
Y55489D01*
X311529Y52290D02*
G03X312205Y53888I-1550J1598D01*
G01X311529Y52290D02*
X312881D01*
X312205Y53888D02*
G03X312881Y52290I2226J-0D01*
G01X312205Y53888D02*
X312205D01*
Y52290D02*
Y53888D01*
X312763Y55489D02*
G03X312205Y54800I146J-689D01*
G01X312763Y55489D02*
X311646D01*
X312205Y54800D02*
G03X311646Y55489I-705J0D01*
G01X312205Y54800D02*
Y55489D01*
X312970Y62564D02*
G03X313660Y62055I690J212D01*
G01X312970Y62564D02*
Y61546D01*
X313660Y62055D02*
G03X312970Y61546I-0J-721D01*
G01Y62055D02*
X313660D01*
X316557Y61546D02*
G03X315868Y62055I-689J-212D01*
G01X316557Y61546D02*
Y62564D01*
X315868Y62055D02*
G03X316557Y62564I-0J721D01*
G01X315868Y62055D02*
X316557D01*
X315868D02*
X315868D01*
X307852Y62564D02*
G03X308542Y62055I690J212D01*
G01X307852Y62564D02*
Y61546D01*
X308542Y62055D02*
G03X307852Y61546I-0J-721D01*
G01Y62055D02*
X308542D01*
X311439Y61546D02*
G03X310750Y62055I-689J-212D01*
G01X311439Y61546D02*
Y62564D01*
X310750Y62055D02*
G03X311439Y62564I-0J721D01*
G01X310750Y62055D02*
X311439D01*
X310750D02*
X310750D01*
X283300Y62621D02*
G03X283858Y63310I-146J689D01*
G01X283300Y62621D02*
X284416D01*
X283858Y63310D02*
G03X284416Y62621I705J0D01*
G01X283858Y63310D02*
X283858D01*
Y62621D02*
Y63310D01*
X284534Y65820D02*
G03X283858Y64222I1550J-1598D01*
G01X284534Y65820D02*
X283182D01*
X283858Y64222D02*
G03X283182Y65820I-2226J0D01*
G01X283858Y64222D02*
Y65820D01*
X284624Y62564D02*
G03X285313Y62055I689J212D01*
G01X284624Y62564D02*
Y61546D01*
X285313Y62055D02*
G03X284624Y61546I0J-721D01*
G01Y62055D02*
X285313D01*
X293329Y61603D02*
G03X292640Y62128I-689J-190D01*
G01X293329Y61603D02*
Y62621D01*
X292640Y62128D02*
G03X293329Y62621I-0J728D01*
G01X292640Y62128D02*
X293329D01*
X292640D02*
X292640D01*
X316647Y52290D02*
G03X317323Y53888I-1550J1598D01*
G01X316647Y52290D02*
X317999D01*
X317323Y53888D02*
G03X317999Y52290I2226J-0D01*
G01X317323Y53888D02*
X317323D01*
Y52290D02*
Y53888D01*
X317881Y55489D02*
G03X317323Y54800I146J-689D01*
G01X317881Y55489D02*
X316765D01*
X317323Y54800D02*
G03X316765Y55489I-705J0D01*
G01X317323Y54800D02*
Y55489D01*
X27974Y164995D02*
G03X27285Y165504I-689J-212D01*
G01X27974Y164995D02*
Y166013D01*
X27285Y165504D02*
G03X27974Y166013I0J721D01*
G01X27285Y165504D02*
X27974D01*
X27285D02*
X27285D01*
X24603Y166849D02*
G03X25047Y165504I1558J-231D01*
G01X24603Y166849D02*
X23702Y165948D01*
X25047Y165504D02*
G03X23702Y165948I-1113J-1114D01*
G01X29506Y172013D02*
G03X30195Y171504I689J212D01*
G01X29506Y172013D02*
Y170995D01*
X30195Y171504D02*
G03X29506Y170995I0J-721D01*
G01Y171504D02*
X30195D01*
X34274Y170995D02*
G03X33584Y171504I-690J-212D01*
G01X34274Y170995D02*
Y172013D01*
X33584Y171504D02*
G03X34274Y172013I0J721D01*
G01X33584Y171504D02*
X34274D01*
X33584D02*
X33584D01*
X115846Y135075D02*
Y138547D01*
X114075*
Y135075*
X115846*
X114075Y135433D02*
X115846D01*
X114075Y137402D02*
X115846D01*
X115748Y135075D02*
Y138547D01*
X108366Y151083D02*
G03X111811Y152362I327J4398D01*
G01X108366Y151083D02*
Y146667D01*
X111811Y152362D02*
G03X108366Y146667I9845J-9845D01*
G01X111811Y152362D02*
X111811D01*
X108366Y150394D02*
X110175D01*
X108366Y148425D02*
X109049D01*
X109843Y149885D02*
Y151223D01*
X105940Y95254D02*
G03X106449Y95943I-212J689D01*
G01X105940Y95254D02*
X106958D01*
X106449Y95943D02*
G03X106958Y95254I721J0D01*
G01X106449Y95943D02*
X106449D01*
Y95254D02*
Y95943D01*
X106958Y98841D02*
G03X106449Y98151I212J-690D01*
G01X106958Y98841D02*
X105940D01*
X106449Y98151D02*
G03X105940Y98841I-721J0D01*
G01X106449Y98151D02*
Y98841D01*
X71281Y144223D02*
G03X70592Y144732I-689J-212D01*
G01X71281Y144223D02*
Y145241D01*
X70592Y144732D02*
G03X71281Y145241I0J721D01*
G01X70592Y144732D02*
X71281D01*
X70592D02*
X70592D01*
X67695Y145241D02*
G03X68384Y144732I689J212D01*
G01X67695Y145241D02*
Y144223D01*
X68384Y144732D02*
G03X67695Y144223I0J-721D01*
G01Y144732D02*
X68384D01*
X72813Y145241D02*
G03X73502Y144732I689J212D01*
G01X72813Y145241D02*
Y144223D01*
X73502Y144732D02*
G03X72813Y144223I0J-721D01*
G01Y144732D02*
X73502D01*
X81346D02*
X81399Y144783D01*
X81396*
X81346Y144732*
X81346*
X179851Y141087D02*
X176914Y144024D01*
X175661Y142771*
X178598Y139834*
X179851Y141087*
X177094Y141339D02*
X179599D01*
X176197Y143307D02*
X177631D01*
X176772Y141661D02*
Y143881D01*
X178740Y139977D02*
Y142198D01*
X181962Y103655D02*
G03X180364Y104331I-1598J-1550D01*
G01X181962Y103655D02*
Y105007D01*
X180364Y104331D02*
G03X181962Y105007I0J2226D01*
G01X180364Y104331D02*
X181962D01*
X180364D02*
X180364D01*
X178763Y104889D02*
G03X179452Y104331I689J146D01*
G01X178763Y104889D02*
Y103772D01*
X179452Y104331D02*
G03X178763Y103772I-0J-705D01*
G01Y104331D02*
X179452D01*
X124692Y122907D02*
G03X124016Y121309I1549J-1598D01*
G01X124692Y122907D02*
X123339D01*
X124016Y121309D02*
G03X123339Y122907I-2226J0D01*
G01X124016Y121309D02*
Y122907D01*
X137380Y145635D02*
G03X138069Y145126I689J212D01*
G01X137380Y145635D02*
Y144617D01*
X138069Y145126D02*
G03X137380Y144617I0J-721D01*
G01Y145126D02*
X138069D01*
X148053Y144617D02*
G03X147364Y145126I-689J-212D01*
G01X148053Y144617D02*
Y145635D01*
X147364Y145126D02*
G03X148053Y145635I-0J721D01*
G01X147364Y145126D02*
X148053D01*
X147364D02*
X147364D01*
X124781Y145635D02*
G03X125471Y145126I690J212D01*
G01X124781Y145635D02*
Y144617D01*
X125471Y145126D02*
G03X124781Y144617I-0J-721D01*
G01Y145126D02*
X125471D01*
X135848Y144617D02*
G03X135159Y145126I-689J-212D01*
G01X135848Y144617D02*
Y145635D01*
X135159Y145126D02*
G03X135848Y145635I0J721D01*
G01X135159Y145126D02*
X135848D01*
X135159D02*
X135159D01*
X122150Y133858D02*
G03X124016Y136161I-489J2303D01*
G01X122150Y133858D02*
X125881D01*
X124016Y136161D02*
G03X125881Y133858I2354J0D01*
G01X124016Y136161D02*
X124016D01*
X122953Y134193D02*
X125079D01*
X124016Y133858D02*
Y136161D01*
X124574Y138560D02*
G03X124016Y137871I146J-689D01*
G01X124574Y138560D02*
X123458D01*
X124016Y137871D02*
G03X123458Y138560I-705J0D01*
G01X124016Y137871D02*
Y138560D01*
X134749Y133858D02*
G03X136614Y136161I-489J2303D01*
G01X134749Y133858D02*
X138480D01*
X136614Y136161D02*
G03X138480Y133858I2355J0D01*
G01X136614Y136161D02*
X136614D01*
X135551Y134193D02*
X137677D01*
X136614Y133858D02*
Y136161D01*
X137172Y138560D02*
G03X136614Y137871I147J-689D01*
G01X137172Y138560D02*
X136056D01*
X136614Y137871D02*
G03X136056Y138560I-704J0D01*
G01X136614Y137871D02*
Y138560D01*
X196850Y106563D02*
G03X195256Y107854I-1594J-339D01*
G01X196850Y106563D02*
Y109146D01*
X195256Y107854D02*
G03X196850Y109146I-0J1630D01*
G01X195256Y107854D02*
X196850D01*
X195256D02*
X195256D01*
X192867Y108522D02*
G03X194439Y107854I1572J1517D01*
G01X192867Y108522D02*
X192812Y107168D01*
X194439Y107854D02*
G03X192812Y107168I-0J-2272D01*
G01X192840Y107854D02*
X194439D01*
X158571Y144094D02*
G03X158024Y145126I-1954J-375D01*
G01X158571Y144094D02*
X159525D01*
X158024Y145126D02*
G03X159525Y144094I3530J3530D01*
G01X158024Y145126D02*
X158024D01*
X158024*
X149585Y145635D02*
G03X150274Y145126I689J212D01*
G01X149585Y145635D02*
Y144617D01*
X150274Y145126D02*
G03X149585Y144617I-0J-721D01*
G01Y145126D02*
X150274D01*
X146953Y133858D02*
G03X148819Y136161I-489J2303D01*
G01X146953Y133858D02*
X150684D01*
X148819Y136161D02*
G03X150684Y133858I2354J0D01*
G01X148819Y136161D02*
X148819D01*
X147756Y134193D02*
X149882D01*
X148819Y133858D02*
Y136161D01*
X149377Y138560D02*
G03X148819Y137871I146J-689D01*
G01X149377Y138560D02*
X148261D01*
X148819Y137871D02*
G03X148261Y138560I-705J0D01*
G01X148819Y137871D02*
Y138560D01*
X265282Y97920D02*
G03X266880Y97244I1598J1550D01*
G01X265282Y97920D02*
Y96568D01*
X266880Y97244D02*
G03X265282Y96568I-0J-2226D01*
G01Y97244D02*
X266880D01*
X268481Y96686D02*
G03X267792Y97244I-689J-146D01*
G01X268481Y96686D02*
Y97802D01*
X267792Y97244D02*
G03X268481Y97802I0J705D01*
G01X267792Y97244D02*
X268481D01*
X267792D02*
X267792D01*
X210347Y119613D02*
G03X211024Y121211I-1549J1598D01*
G01X210347Y119613D02*
X211700D01*
X211024Y121211D02*
G03X211700Y119613I2225J-0D01*
G01X211024Y121211D02*
X211024D01*
Y119613D02*
Y121211D01*
X216907Y128182D02*
G03X216218Y128740I-689J-146D01*
G01X216907Y128182D02*
Y129298D01*
X216218Y128740D02*
G03X216907Y129298I-0J705D01*
G01X216218Y128740D02*
X216907D01*
X216218D02*
X216218D01*
X208290Y100558D02*
G03X208979Y100000I689J147D01*
G01X208290Y100558D02*
Y99442D01*
X208979Y100000D02*
G03X208290Y99442I0J-705D01*
G01Y100000D02*
X208979D01*
X204066Y129506D02*
G03X204575Y130195I-212J689D01*
G01X204066Y129506D02*
X205084D01*
X204575Y130195D02*
G03X205084Y129506I721J0D01*
G01X204575Y130195D02*
X204575D01*
Y129506D02*
Y130195D01*
X213757Y99442D02*
G03X213068Y100000I-689J-147D01*
G01X213757Y99442D02*
Y100558D01*
X213068Y100000D02*
G03X213757Y100558I-0J705D01*
G01X213068Y100000D02*
X213757D01*
X213068D02*
X213068D01*
X211700Y104403D02*
G03X211024Y102805I1549J-1598D01*
G01X211700Y104403D02*
X210347D01*
X211024Y102805D02*
G03X210347Y104403I-2226J0D01*
G01X211024Y102805D02*
Y104403D01*
X280243Y118393D02*
G03X281841Y117717I1598J1549D01*
G01X280243Y118393D02*
Y117040D01*
X281841Y117717D02*
G03X280243Y117040I-0J-2226D01*
G01Y117717D02*
X281841D01*
X283442Y117158D02*
G03X282753Y117717I-689J-146D01*
G01X283442Y117158D02*
Y118275D01*
X282753Y117717D02*
G03X283442Y118275I-0J704D01*
G01X282753Y117717D02*
X283442D01*
X282753D02*
X282753D01*
X289499Y118482D02*
G03X290008Y119171I-212J689D01*
G01X289499Y118482D02*
X290517D01*
X290008Y119171D02*
G03X290517Y118482I721J0D01*
G01X290008Y119171D02*
X290008D01*
Y118482D02*
Y119171D01*
X290517Y122069D02*
G03X290008Y121380I212J-689D01*
G01X290517Y122069D02*
X289499D01*
X290008Y121380D02*
G03X289499Y122069I-721J-0D01*
G01X290008Y121380D02*
Y122069D01*
X319026Y160608D02*
G03X319535Y161297I-212J689D01*
G01X319026Y160608D02*
X320045D01*
X319535Y161297D02*
G03X320045Y160608I721J0D01*
G01X319535Y161297D02*
X319535D01*
Y160608D02*
Y161297D01*
X318307Y166848D02*
G03X319535Y164913I4946J1783D01*
G01X318307Y166848D02*
Y165945D01*
X319535Y164913D02*
G03X318307Y165945I-6535J-6535D01*
G01X290574Y118275D02*
G03X291263Y117717I689J146D01*
G01X290574Y118275D02*
Y117158D01*
X291263Y117717D02*
G03X290574Y117158I-0J-705D01*
G01Y117717D02*
X291263D01*
X280243Y123511D02*
G03X281841Y122835I1598J1549D01*
G01X280243Y123511D02*
Y122158D01*
X281841Y122835D02*
G03X280243Y122158I-0J-2226D01*
G01Y122835D02*
X281841D01*
X283442Y122276D02*
G03X282753Y122835I-689J-146D01*
G01X283442Y122276D02*
Y123393D01*
X282753Y122835D02*
G03X283442Y123393I-0J704D01*
G01X282753Y122835D02*
X283442D01*
X282753D02*
X282753D01*
X25591Y248091D02*
G03X25179Y249093I-1406J8D01*
G01X25591Y248091D02*
X26829D01*
X25179Y249093D02*
G03X26829Y248091I2877J2877D01*
G01X25179Y249093D02*
X25179D01*
X25179*
X20844Y251541D02*
G03X21534Y251031I690J211D01*
G01X20844Y251541D02*
Y250522D01*
X21534Y251031D02*
G03X20844Y250522I-0J-720D01*
G01Y251031D02*
X21534D01*
X27502Y248091D02*
G03X29152Y249093I-1227J3879D01*
G01X27502Y248091D02*
X28740D01*
X29152Y249093D02*
G03X28740Y248091I994J-994D01*
G01X29152Y249093D02*
X29152D01*
X33248Y248917D02*
G03X31654Y249803I-1594J-992D01*
G01X33248Y248917D02*
Y250689D01*
X31654Y249803D02*
G03X33248Y250689I-0J1878D01*
G01X31654Y249803D02*
X33248D01*
X31654D02*
X31654D01*
X19521Y251597D02*
G03X20079Y252286I-147J689D01*
G01X19521Y251597D02*
X20637D01*
X20079Y252286D02*
G03X20637Y251597I704J0D01*
G01X20079Y252286D02*
X20079D01*
Y251597D02*
Y252286D01*
X20637Y255489D02*
G03X20079Y254800I146J-689D01*
G01X20637Y255489D02*
X19521D01*
X20079Y254800D02*
G03X19521Y255489I-705J0D01*
G01X20079Y254800D02*
Y255489D01*
X58628Y198160D02*
G03X60576Y197394I1948J2092D01*
G01X58628Y198160D02*
X59107Y196730D01*
X60576Y197394D02*
G03X59107Y196730I-0J-1957D01*
G01X58885Y197394D02*
X60576D01*
X62226Y196885D02*
G03X61537Y197394I-689J-212D01*
G01X62226Y196885D02*
Y197903D01*
X61537Y197394D02*
G03X62226Y197903I0J721D01*
G01X61537Y197394D02*
X62226D01*
X61537D02*
X61537D01*
X68876Y203903D02*
G03X69565Y203394I689J212D01*
G01X68876Y203903D02*
Y202885D01*
X69565Y203394D02*
G03X68876Y202885I0J-721D01*
G01Y203394D02*
X69565D01*
X72463Y202885D02*
G03X71773Y203394I-690J-212D01*
G01X72463Y202885D02*
Y203903D01*
X71773Y203394D02*
G03X72463Y203903I0J721D01*
G01X71773Y203394D02*
X72463D01*
X71773D02*
X71773D01*
X63758Y203903D02*
G03X64447Y203394I689J212D01*
G01X63758Y203903D02*
Y202885D01*
X64447Y203394D02*
G03X63758Y202885I0J-721D01*
G01Y203394D02*
X64447D01*
X67344Y202885D02*
G03X66655Y203394I-689J-212D01*
G01X67344Y202885D02*
Y203903D01*
X66655Y203394D02*
G03X67344Y203903I0J721D01*
G01X66655Y203394D02*
X67344D01*
X66655D02*
X66655D01*
X62226Y202885D02*
G03X61537Y203394I-689J-212D01*
G01X62226Y202885D02*
Y203903D01*
X61537Y203394D02*
G03X62226Y203903I0J721D01*
G01X61537Y203394D02*
X62226D01*
X61537D02*
X61537D01*
X37060Y204058D02*
G03X38529Y203394I1469J1293D01*
G01X37060Y204058D02*
X36581Y202627D01*
X38529Y203394D02*
G03X36581Y202627I-0J-2859D01*
G01X36837Y203394D02*
X38529D01*
X382513Y251597D02*
G03X383071Y252286I-147J689D01*
G01X382513Y251597D02*
X383629D01*
X383071Y252286D02*
G03X383629Y251597I704J0D01*
G01X383071Y252286D02*
X383071D01*
Y251597D02*
Y252286D01*
X383629Y255489D02*
G03X383071Y254800I146J-689D01*
G01X383629Y255489D02*
X382513D01*
X383071Y254800D02*
G03X382513Y255489I-705J0D01*
G01X383071Y254800D02*
Y255489D01*
X382395Y241266D02*
G03X383071Y242864I-1550J1598D01*
G01X382395Y241266D02*
X383747D01*
X383071Y242864D02*
G03X383747Y241266I2226J0D01*
G01X383071Y242864D02*
X383071D01*
Y241266D02*
Y242864D01*
X383629Y244466D02*
G03X383071Y243777I146J-689D01*
G01X383629Y244466D02*
X382513D01*
X383071Y243777D02*
G03X382513Y244466I-705J-0D01*
G01X383071Y243777D02*
Y244466D01*
X19521Y262621D02*
G03X20079Y263310I-147J689D01*
G01X19521Y262621D02*
X20637D01*
X20079Y263310D02*
G03X20637Y262621I704J0D01*
G01X20079Y263310D02*
X20079D01*
Y262621D02*
Y263310D01*
X20755Y265820D02*
G03X20079Y264222I1550J-1598D01*
G01X20755Y265820D02*
X19403D01*
X20079Y264222D02*
G03X19403Y265820I-2226J0D01*
G01X20079Y264222D02*
Y265820D01*
X382305Y255510D02*
G03X381617Y255986I-656J-212D01*
G01X382305Y255510D02*
Y256528D01*
X381617Y255986D02*
G03X382305Y256528I-36J754D01*
G01X381682Y255986D02*
X382305D01*
X381617D02*
X381617D01*
X377559Y258996D02*
G03X377920Y257977I1298J-114D01*
G01X377559Y258996D02*
X376282D01*
X377920Y257977D02*
G03X376282Y258996I-2849J-2753D01*
G01X369902Y258238D02*
G03X371495Y257413I1523J992D01*
G01X369902Y258238D02*
Y256466D01*
X371495Y257413D02*
G03X369902Y256466I75J-1939D01*
G01Y257413D02*
X371355D01*
X371495D02*
X371495D01*
X375530Y258996D02*
G03X373850Y258044I1277J-4212D01*
G01X375530Y258996D02*
X374409D01*
X373849Y258044D02*
G03X374409Y258996I-1245J1373D01*
G01X373849Y258044D02*
X373849D01*
X364407Y332946D02*
G03X364171Y334665I-2148J580D01*
G01X364407Y332946D02*
X365570Y333638D01*
X364171Y334665D02*
G03X365570Y333638I1913J1138D01*
G01X364171Y334665D02*
X364171D01*
X364171*
X363690Y336565D02*
G03X363559Y335694I467J-516D01*
G01X363690Y336565D02*
X362723Y336007D01*
X363559Y335694D02*
G03X362723Y336007I-613J-365D01*
G01X363559Y336405D02*
Y336489D01*
X90116Y389842D02*
G03X90637Y390794I-937J1131D01*
G01X90116Y389842D02*
X90857Y388876D01*
X90637Y390794D02*
G03X90857Y388876I4098J-502D01*
G01X90637Y390794D02*
X90637D01*
Y389163D02*
Y389791D01*
X89856Y395617D02*
G03X89864Y394755I594J-425D01*
G01X89856Y395617D02*
X89048Y394997D01*
X89864Y394755D02*
G03X89048Y394997I-570J-426D01*
G01X95422Y384261D02*
G03X95144Y386057I-1748J649D01*
G01X95422Y384261D02*
X96828Y385339D01*
X95144Y386057D02*
G03X96828Y385339I1491J1164D01*
G01X95144Y386057D02*
X95144D01*
X95144*
X91314Y388281D02*
G03X93104Y387556I2439J3449D01*
G01X91314Y388281D02*
X92034Y387343D01*
X93104Y387556D02*
G03X92034Y387343I-244J-1568D01*
G01X91870Y387556D02*
X92616D01*
X53512Y333744D02*
G03X52597Y335348I-1924J-34D01*
G01X53512Y333744D02*
X54398Y335279D01*
X52597Y335348D02*
G03X54398Y335279I962J1561D01*
G01X52597Y335348D02*
X52597D01*
X52597*
X97753Y403416D02*
G03X98625Y403411I439J521D01*
G01X97753Y403416D02*
X98433Y402530D01*
X98625Y403411D02*
G03X98433Y402530I463J-563D01*
G01X97757Y403411D02*
X97759D01*
X98625D02*
X98625D01*
X101058Y404535D02*
G03X99394Y404043I-250J-2211D01*
G01X101058Y404535D02*
X100199Y405580D01*
X99394Y404043D02*
G03X100199Y405580I-1413J1719D01*
G01X99394Y404043D02*
X99394D01*
X48550Y352182D02*
G03X49386Y352495I223J678D01*
G01X48550Y352182D02*
X49517Y351624D01*
X49386Y352495D02*
G03X49517Y351624I598J-355D01*
G01X49386Y352495D02*
X49386D01*
Y351700D02*
Y351784D01*
X51396Y354551D02*
G03X49998Y353524I515J-2165D01*
G01X51396Y354551D02*
X50234Y355243D01*
X49998Y353524D02*
G03X50234Y355243I-1913J1139D01*
G01X49998Y353524D02*
X49998D01*
X46442Y336813D02*
G03X46635Y337877I-1077J746D01*
G01X46442Y336813D02*
X47545Y336176D01*
X46635Y337877D02*
G03X47545Y336176I3849J966D01*
G01X46635Y337877D02*
X46635D01*
Y336702D02*
Y337240D01*
Y337877D02*
X46635D01*
X44133Y341996D02*
G03X44459Y341184I731J-178D01*
G01X44133Y341996D02*
X43623Y341114D01*
X44459Y341184D02*
G03X43623Y341114I-372J-582D01*
G01X43664Y341184D02*
X43715D01*
X48092Y335860D02*
G03X50022Y335907I871J3958D01*
G01X48092Y335860D02*
X49169Y335238D01*
X50022Y335907D02*
G03X49169Y335238I362J-1341D01*
G01X50022Y335907D02*
X50022D01*
X43037Y342734D02*
G03X43870Y343049I221J676D01*
G01X43037Y342734D02*
X44003Y342176D01*
X43871Y343049D02*
G03X44003Y342176I600J-355D01*
G01X43871Y343049D02*
X43871D01*
Y342253D02*
Y342339D01*
X45940Y345455D02*
G03X45106Y345140I-222J-677D01*
G01X45940Y345455D02*
X44973Y346013D01*
X45106Y345140D02*
G03X44973Y346013I-601J355D01*
G01X45106Y345140D02*
X45106D01*
Y345850D02*
Y345936D01*
X89101Y396711D02*
G03X89984Y396692I453J533D01*
G01X89101Y396711D02*
X89780Y395826D01*
X89984Y396692D02*
G03X89780Y395826I436J-560D01*
G01X89115Y396692D02*
X89124D01*
X89984D02*
X89984D01*
X92789Y398170D02*
G03X91906Y398190I-453J-532D01*
G01X92789Y398170D02*
X92109Y399056D01*
X91906Y398190D02*
G03X92109Y399056I-437J560D01*
G01X92765Y398190D02*
X92774D01*
X91906D02*
X91906D01*
X309831Y398019D02*
G03X309037Y397760I-229J-646D01*
G01X309831Y398019D02*
X309023Y398639D01*
X309037Y397760D02*
G03X309023Y398639I-626J429D01*
G01X309037Y397760D02*
X309037D01*
Y398618D02*
Y398628D01*
X356993Y345404D02*
G03X356138Y345507I-498J-532D01*
G01X356993Y345404D02*
X356484Y346286D01*
X356138Y345507D02*
G03X356484Y346286I-350J621D01*
G01X356853Y345507D02*
X356934D01*
X356138D02*
X356138D01*
X351221Y346238D02*
G03X351925Y345383I1089J180D01*
G01X351221Y346238D02*
X349972Y345517D01*
X351925Y345383D02*
G03X349972Y345517I-1202J-3232D01*
G01X300342Y389928D02*
G03X301985Y390676I157J1834D01*
G01X300342Y389928D02*
X301748Y388849D01*
X301985Y390676D02*
G03X301748Y388849I1548J-1130D01*
G01X301985Y390676D02*
X301985D01*
X345056Y341680D02*
G03X346897I920J1677D01*
G01X345056D02*
X345942Y340146D01*
X346897Y341680D02*
G03X345942Y340146I887J-1616D01*
G01X346897Y341680D02*
X346897D01*
X349622Y345315D02*
G03X348706Y343616I2958J-2691D01*
G01X349622Y345315D02*
X348528Y344683D01*
X348706Y343616D02*
G03X348528Y344683I-1295J332D01*
G01X348706Y343616D02*
X348706D01*
Y344280D02*
Y344786D01*
X312976Y395826D02*
G03X312772Y396692I-640J306D01*
G01X312976Y395826D02*
X313655Y396711D01*
X312772Y396692D02*
G03X313655Y396711I430J552D01*
G01X312772Y396692D02*
X312772D01*
X313632D02*
X313640D01*
X312772D02*
X312772D01*
X310646Y399056D02*
G03X310850Y398190I640J-306D01*
G01X310646Y399056D02*
X309967Y398170D01*
X310850Y398190D02*
G03X309967Y398170I-430J-552D01*
G01X309982Y398190D02*
X309990D01*
X321065Y389302D02*
G03X320260Y390839I-2218J-183D01*
G01X321065Y389302D02*
X321924Y390347D01*
X320260Y390839D02*
G03X321924Y390347I1414J1719D01*
G01X320260Y390839D02*
X320260D01*
X320260*
X319299Y392352D02*
G03X319491Y391471I655J-319D01*
G01X319299Y392352D02*
X318619Y391466D01*
X319491Y391471D02*
G03X318619Y391466I-432J-527D01*
G01X318623Y391471D02*
X318626D01*
X359146Y342176D02*
G03X359279Y343049I-468J518D01*
G01X359146Y342176D02*
X360113Y342734D01*
X359279Y343049D02*
G03X360113Y342734I613J361D01*
G01X359279Y343049D02*
X359279D01*
Y342253D02*
Y342339D01*
Y343049D02*
X359279D01*
X358177Y346013D02*
G03X358044Y345140I467J-518D01*
G01X358177Y346013D02*
X357210Y345455D01*
X358044Y345140D02*
G03X357210Y345455I-613J-362D01*
G01X358044Y345850D02*
Y345936D01*
X153553Y414941D02*
G03X154008Y416713I-1374J1297D01*
G01X153553Y414941D02*
X155265Y415399D01*
X154008Y416713D02*
G03X155265Y415399I1806J469D01*
G01X154008Y416713D02*
X154008D01*
Y415063D02*
Y415763D01*
Y416713D02*
X154008D01*
X151244Y420314D02*
G03X152653Y418996I3323J2142D01*
G01X151244Y420314D02*
X151575Y419077D01*
X152653Y418996D02*
G03X151575Y419077I-627J-1135D01*
G01X163140Y431786D02*
G03X163947Y431435I617J316D01*
G01X163140Y431786D02*
X163429Y430707D01*
X163947Y431435D02*
G03X163429Y430707I196J-688D01*
G01X163234Y431435D02*
X163567D01*
X163947D02*
X163947D01*
X166426Y431437D02*
G03X164704Y431650I-1112J-1927D01*
G01X166426Y431437D02*
X166056Y432738D01*
X164704Y431650D02*
G03X166056Y432738I-609J2141D01*
G01X165923Y431650D02*
X166366D01*
X164704D02*
X164704D01*
X150760Y422120D02*
G03X151490Y422975I-1268J1822D01*
G01X150760Y422120D02*
X151034Y421098D01*
X151490Y422975D02*
G03X151034Y421098I4126J-1997D01*
G01X151490Y422975D02*
X151490D01*
X152778Y427722D02*
G03X152444Y426919I388J-633D01*
G01X152778Y427722D02*
X151794Y427458D01*
X152444Y426919D02*
G03X151794Y427458I-682J-160D01*
G01X152444Y427259D02*
Y427632D01*
X260151Y425136D02*
G03X258799Y426224I-1961J-1053D01*
G01X260151Y425136D02*
X260521Y426437D01*
X258799Y426224D02*
G03X260521Y426437I609J2140D01*
G01X258799Y426224D02*
X258799D01*
X260017D02*
X260460D01*
X258799D02*
X258799D01*
X257523Y427167D02*
G03X258042Y426439I715J-40D01*
G01X257523Y427167D02*
X257234Y426088D01*
X258042Y426439D02*
G03X257234Y426088I-190J-667D01*
G01X257328Y426439D02*
X257662D01*
X241856Y424942D02*
G03X242932Y425053I412J1286D01*
G01X241856Y424942D02*
X241530Y423727D01*
X242932Y425053D02*
G03X241530Y423727I1975J-3493D01*
G01X242932Y425053D02*
X242932D01*
X246481Y428672D02*
G03X245794Y428142I21J-738D01*
G01X246481Y428672D02*
X245497Y428935D01*
X245794Y428142D02*
G03X245497Y428935I-676J199D01*
G01X245794Y428142D02*
X245794D01*
Y428540D02*
Y428856D01*
X240700Y417324D02*
G03X241993Y418628I-537J1827D01*
G01X240700Y417324D02*
X242412Y416866D01*
X241993Y418628D02*
G03X242412Y416866I1782J-508D01*
G01X241993Y418628D02*
X241993D01*
Y416978D02*
Y417612D01*
X241385Y423183D02*
G03X241969Y421344I3817J202D01*
G01X241385Y423183D02*
X241041Y421902D01*
X241969Y421344D02*
G03X241041Y421902I-1017J-642D01*
G01X119291Y46457D02*
X123772D01*
X119291Y31102D02*
X123772D01*
X119291Y41339D02*
X123772D01*
X116929Y78346D02*
X112992D01*
X106449Y84890*
Y89370*
Y94488*
X168110Y89370D02*
X168012Y89469D01*
X161024*
X182677Y65748D02*
X178197D01*
X140748Y73248D02*
X135039D01*
X134646Y73622*
X134252Y74016*
X130165*
X161220Y25965D02*
X155118D01*
Y25984*
X124016Y84469D02*
X116929D01*
Y84646*
X172197Y49606D02*
X157224D01*
X178197D02*
X192520D01*
X205512Y62598*
X178197Y60630D02*
Y65748D01*
X144350Y16929D02*
X106370D01*
X98240Y25059*
X157224Y16929D02*
X150787Y23366D01*
Y30965*
X124165Y74016D02*
Y78346D01*
X124016*
X130165Y74016D02*
Y78197D01*
X130315Y78346*
X150787Y30965D02*
Y43169D01*
X157224Y49606*
X150787Y30965D02*
X161220D01*
X275197Y76378D02*
X275047Y76528D01*
Y81496*
X264567Y92126D02*
X269047D01*
X275047Y71260D02*
Y76228D01*
X275197Y76378*
X288904Y62128D02*
X288981Y62205D01*
X300394Y51575D02*
Y56055D01*
X322441Y51575D02*
Y56055D01*
X283858Y66535D02*
X284008D01*
Y71260*
X307087Y51575D02*
Y56055D01*
X312205Y51575D02*
Y56055D01*
X317323Y62055D02*
X312205D01*
X307087*
X283858Y66535D02*
Y62055D01*
X288831*
X288904Y62128*
X294094Y62055D02*
X294022Y62128D01*
X288904*
X317323Y51575D02*
Y56055D01*
X28740Y165504D02*
X25047D01*
X23622Y166929*
X28740Y171504D02*
X35039D01*
X105118Y145669D02*
X112992Y153543D01*
X106449Y94488D02*
Y99606D01*
X66929Y144732D02*
X72047D01*
X81346*
X82283Y145669*
X182677Y104331D02*
X178197D01*
X124016Y119469D02*
Y123622D01*
X124016*
X148819Y145126D02*
X136614D01*
X124016*
Y131890D02*
Y139126D01*
X136614Y131890D02*
Y139126D01*
X197835Y107854D02*
X192126D01*
Y107874*
X161024Y142126D02*
X158024Y145126D01*
X148819*
Y131890D02*
Y139126D01*
X264567Y97244D02*
X269047D01*
X211024Y118898D02*
Y126378D01*
X213386Y128740*
X217472*
X207724Y100000D02*
X211024D01*
X204575Y128740D02*
Y132827D01*
X183858Y153543*
X112992*
X214323Y100000D02*
X211024D01*
Y105118*
X279528Y117717D02*
X284008D01*
X290008D02*
Y122835D01*
X319535Y159843D02*
Y164913D01*
X316535Y167913*
X300394Y116929D02*
X295276D01*
X294488Y117717*
X290008*
X279528Y122835D02*
X284008D01*
X27165Y247106D02*
X23240Y251031D01*
X20079*
X27165Y247106D02*
X29862Y249803D01*
X35020*
X20079Y251031D02*
Y256055D01*
X58268Y197244D02*
Y197394D01*
X62992*
X73228Y203394D02*
X68110D01*
X62992*
X36220*
Y203543*
X383071Y251031D02*
Y256055D01*
Y240551D02*
Y245031D01*
X20079Y262055D02*
Y266535D01*
X383071Y256055D02*
X379921Y255906D01*
X375984Y259980*
X368130Y257283D02*
X373228Y257480D01*
X375984Y259980*
X365354Y332677D02*
X362917Y336772D01*
X90294Y387993D02*
X90945Y393307D01*
X88994Y395921*
X97215Y383404D02*
X94094Y387402D01*
X90294Y387993*
X55464Y333582D02*
X51181Y336220D01*
X97656Y402614D02*
X101181Y405512D01*
X48744Y351417D02*
X51181Y355512D01*
X47313Y335173D02*
X46063Y340157D01*
X43232Y341968*
X47313Y335173D02*
X51181Y336220D01*
X43232Y341968D02*
X45744Y346221D01*
X88994Y395921D02*
X92896Y398961D01*
X302749Y395835D02*
X307874Y396063D01*
X309860Y398961*
X357406Y346221D02*
X354331Y344488D01*
X349399Y346323*
X302642Y395830D02*
X302749Y395835D01*
X300000Y387957D02*
X302756Y391732D01*
X302749Y395835*
X343946Y340060D02*
X348425Y342520D01*
X349399Y346323*
X313762Y395921D02*
X309860Y398961D01*
X322047Y389370D02*
X318522Y392268D01*
X359917Y341968D02*
X357406Y346221D01*
X154854Y413455D02*
X153543Y418504D01*
X150217Y420344*
X162740Y431091D02*
X166929Y432283D01*
X150217Y420344D02*
X152756Y425591D01*
X152110Y428336*
X261024Y425591D02*
X256835Y426783D01*
X240498Y423676D02*
X245276Y426378D01*
X246205Y429539*
X241070Y415391D02*
X242520Y420472D01*
X240498Y423676*
X105118Y138583D02*
Y139272D01*
X101022Y138583D02*
X102411Y140251D01*
X100197Y142596D02*
X100956Y142736D01*
X100197Y145669D02*
X100886D01*
X100197Y148743D02*
X100956Y148603D01*
X101022Y152756D02*
X102411Y151088D01*
X105118Y152756D02*
Y152067D01*
X109214Y152756D02*
X107826Y151088D01*
X109214Y138583D02*
X107826Y140251D01*
G54D21*
X143307Y26762D02*
G03X145669Y25965I2362J3101D01*
G01X143307Y26762D02*
Y25167D01*
X145669Y25965D02*
G03X143307Y25167I0J-3899D01*
G01Y26555D02*
X143606D01*
X143307Y25965D02*
X145669D01*
X143307Y25374D02*
X143606D01*
X143307Y25167D02*
Y26762D01*
X143898Y25539D02*
Y26390D01*
X144488Y25781D02*
Y26148D01*
X145079Y25920D02*
Y26010D01*
X323543Y69685D02*
G03X322835Y68504I630J-1181D01*
G01X323543Y69685D02*
X322126D01*
X322835Y68504D02*
G03X322126Y69685I-1339J-0D01*
G01X323543*
X322697Y69094D02*
X322972D01*
X322244Y69614D02*
Y69685D01*
X322835Y68504D02*
Y69685D01*
X323425Y69614D02*
Y69685D01*
X326693D02*
G03X325984Y68110I1395J-1575D01*
G01X326693Y69685D02*
X325276D01*
X325984Y68110D02*
G03X325276Y69685I-2104J0D01*
G01X325621Y69291D02*
X326347D01*
X325900Y68701D02*
X326069D01*
X325394Y69572D02*
Y69685D01*
X325984Y68110D02*
Y69685D01*
X326575Y69572D02*
Y69685D01*
X113739Y90534D02*
G03X115048Y89469I1309J272D01*
G01X113739Y90534D02*
Y88403D01*
X115048Y89469D02*
G03X113739Y88403I0J-1338D01*
G01Y90059D02*
X113939D01*
X113739Y89469D02*
X115048D01*
X113739Y88878D02*
X113939D01*
X113867Y88758D02*
Y90179D01*
X114458Y89331D02*
Y89606D01*
X120374Y88671D02*
G03X117096Y89469I-3278J-6338D01*
G01X120374Y88671D02*
Y90266D01*
X117096Y89469D02*
G03X120374Y90266I0J7135D01*
G01X119939Y90059D02*
X120374D01*
X117096Y89469D02*
X120374D01*
X119939Y88878D02*
X120374D01*
X117096Y89469D02*
X117096D01*
X117687Y89444D02*
Y89493D01*
X118277Y89370D02*
Y89567D01*
X118868Y89245D02*
Y89692D01*
X119459Y89066D02*
Y89871D01*
X120049Y88829D02*
Y90108D01*
X104262Y63287D02*
G03X105768Y65325I-625J2038D01*
G01X104262Y63287D02*
X107274D01*
X105768Y65325D02*
G03X107274Y63287I2131J-0D01*
G01X105768Y65325D02*
X105768D01*
X105684Y64734D02*
X105851D01*
X105410Y64144D02*
X106125D01*
X104821Y63553D02*
X106714D01*
X104587Y63287D02*
Y63417D01*
X105177Y63287D02*
Y63852D01*
X105768Y63287D02*
Y65325D01*
X106358Y63287D02*
Y63852D01*
X106949Y63287D02*
Y63417D01*
X107274Y68209D02*
G03X105768Y66171I625J-2038D01*
G01X107274Y68209D02*
X104262D01*
X105768Y66171D02*
G03X104262Y68209I-2131J0D01*
G01X104821Y67943D02*
X106714D01*
X105410Y67352D02*
X106125D01*
X105684Y66762D02*
X105851D01*
X104587Y68079D02*
Y68209D01*
X105177Y67644D02*
Y68209D01*
X105768Y66171D02*
Y68209D01*
X106358Y67644D02*
Y68209D01*
X106949Y68079D02*
Y68209D01*
X120315Y62432D02*
G03X122197Y61024I1882J553D01*
G01X120315Y62432D02*
Y59616D01*
X122197Y61024D02*
G03X120315Y59616I-0J-1962D01*
G01Y62205D02*
X120397D01*
X120315Y61614D02*
X120794D01*
X120315Y61024D02*
X122197D01*
X120315Y60433D02*
X120794D01*
X120315Y59843D02*
X120397D01*
X120425Y59904D02*
Y62143D01*
X121016Y60628D02*
Y61419D01*
X121606Y60933D02*
Y61115D01*
X122911Y61537D02*
G03X122197Y61024I1219J-2447D01*
G01X122911Y61537D02*
Y62056D01*
X122197Y61024D02*
G03X122911Y62056I-2473J2472D01*
G01X122671Y61614D02*
X122911D01*
X122197Y61024D02*
X122197D01*
X122787Y61472D02*
Y61810D01*
X137402Y30167D02*
G03X134744Y30965I-2658J-4030D01*
G01X137402Y30167D02*
Y31762D01*
X134744Y30965D02*
G03X137402Y31762I0J4827D01*
G01X137058Y31555D02*
X137402D01*
X134744Y30965D02*
X137402D01*
X137058Y30374D02*
X137402D01*
X134744Y30965D02*
X134744D01*
X135335Y30928D02*
Y31001D01*
X135925Y30818D02*
Y31111D01*
X136516Y30628D02*
Y31301D01*
X137106Y30347D02*
Y31582D01*
X107441Y60240D02*
G03X108882Y57910I5659J1888D01*
G01X107441Y60240D02*
Y58760D01*
X108882Y57910D02*
G03X107441Y58760I-2370J-2369D01*
G01Y59681D02*
X107659D01*
X107441Y59091D02*
X107965D01*
X108083Y58500D02*
X108364D01*
X107701Y58673D02*
Y59591D01*
X108291Y58380D02*
Y58598D01*
X122911Y56026D02*
G03X121905Y55597I212J-1891D01*
G01X122911Y56026D02*
Y57011D01*
X121905Y55597D02*
G03X122911Y57011I-2178J2613D01*
G01X122813Y56778D02*
X122911D01*
X122462Y56187D02*
X122911D01*
X121905Y55597D02*
X121905D01*
X122495Y55931D02*
Y56233D01*
X164567Y59045D02*
G03X165748Y58248I1181J477D01*
G01X164567Y59045D02*
Y57451D01*
X165748Y58248D02*
G03X164567Y57451I0J-1273D01*
G01Y58839D02*
X164673D01*
X164567Y58248D02*
X165748D01*
X164567Y57657D02*
X164673D01*
X164567Y57451D02*
Y59045D01*
X165157Y58103D02*
Y58393D01*
X170942Y59569D02*
G03X169633Y60630I-1309J-278D01*
G01X170942Y59569D02*
Y61690D01*
X169633Y60630D02*
G03X170942Y61690I-0J1338D01*
G01X170743Y61220D02*
X170942D01*
X169633Y60630D02*
X170942D01*
X170743Y60039D02*
X170942D01*
X169633Y60630D02*
X169633D01*
X170223Y60493D02*
Y60767D01*
X170814Y59921D02*
Y61339D01*
X164567Y64045D02*
G03X166142Y63248I1575J1157D01*
G01X164567Y64045D02*
Y62451D01*
X166142Y63248D02*
G03X164567Y62451I-0J-1954D01*
G01Y63839D02*
X164742D01*
X164567Y63248D02*
X166142D01*
X164567Y62657D02*
X164742D01*
X164961Y62851D02*
Y63645D01*
X165551Y63157D02*
Y63339D01*
X170942Y64688D02*
G03X169633Y65748I-1309J-278D01*
G01X170942Y64688D02*
Y66809D01*
X169633Y65748D02*
G03X170942Y66809I-0J1338D01*
G01X170743Y66339D02*
X170942D01*
X169633Y65748D02*
X170942D01*
X170743Y65157D02*
X170942D01*
X169633Y65748D02*
X169633D01*
X170223Y65611D02*
Y65885D01*
X170814Y65039D02*
Y66457D01*
X164567Y74045D02*
G03X166142Y73248I1575J1157D01*
G01X164567Y74045D02*
Y72451D01*
X166142Y73248D02*
G03X164567Y72451I-0J-1954D01*
G01Y73839D02*
X164742D01*
X164567Y73248D02*
X166142D01*
X164567Y72657D02*
X164742D01*
X164961Y72851D02*
Y73645D01*
X165551Y73157D02*
Y73339D01*
X170942Y74924D02*
G03X169633Y75984I-1309J-278D01*
G01X170942Y74924D02*
Y77045D01*
X169633Y75984D02*
G03X170942Y77045I-0J1339D01*
G01X170743Y76575D02*
X170942D01*
X169633Y75984D02*
X170942D01*
X170743Y75394D02*
X170942D01*
X169633Y75984D02*
X169633D01*
X170223Y75847D02*
Y76122D01*
X170814Y75275D02*
Y76693D01*
X137795Y67451D02*
G03X135138Y68248I-2657J-4031D01*
G01X137795Y67451D02*
Y69045D01*
X135138Y68248D02*
G03X137795Y69045I-0J4828D01*
G01X137452Y68839D02*
X137795D01*
X135138Y68248D02*
X137795D01*
X137452Y67657D02*
X137795D01*
X135138Y68248D02*
X135138D01*
X135728Y68212D02*
Y68284D01*
X136319Y68101D02*
Y68395D01*
X136909Y67911D02*
Y68585D01*
X137500Y67631D02*
Y68865D01*
X131197Y69238D02*
G03X132507Y68248I1310J371D01*
G01X131197Y69238D02*
Y67258D01*
X132507Y68248D02*
G03X131197Y67258I-0J-1361D01*
G01Y68839D02*
X131385D01*
X131197Y68248D02*
X132507D01*
X131197Y67657D02*
X131385D01*
X131326Y67563D02*
Y68933D01*
X131916Y68113D02*
Y68383D01*
X143701Y64045D02*
G03X146358Y63248I2657J4031D01*
G01X143701Y64045D02*
Y62451D01*
X146358Y63248D02*
G03X143701Y62451I0J-4828D01*
G01Y63839D02*
X144045D01*
X143701Y63248D02*
X146358D01*
X143701Y62657D02*
X144045D01*
X143996Y62631D02*
Y63865D01*
X144587Y62911D02*
Y63585D01*
X145177Y63101D02*
Y63395D01*
X145768Y63212D02*
Y63284D01*
X158661Y67451D02*
G03X156004Y68248I-2657J-4031D01*
G01X158661Y67451D02*
Y69045D01*
X156004Y68248D02*
G03X158661Y69045I-0J4828D01*
G01X158318Y68839D02*
X158661D01*
X156004Y68248D02*
X158661D01*
X158318Y67657D02*
X158661D01*
X156004Y68248D02*
X156004D01*
X156594Y68212D02*
Y68284D01*
X157185Y68101D02*
Y68395D01*
X157776Y67911D02*
Y68585D01*
X158366Y67631D02*
Y68865D01*
X137402Y35167D02*
G03X134744Y35965I-2658J-4030D01*
G01X137402Y35167D02*
Y36762D01*
X134744Y35965D02*
G03X137402Y36762I0J4827D01*
G01X137058Y36555D02*
X137402D01*
X134744Y35965D02*
X137402D01*
X137058Y35374D02*
X137402D01*
X134744Y35965D02*
X134744D01*
X135335Y35928D02*
Y36001D01*
X135925Y35818D02*
Y36111D01*
X136516Y35628D02*
Y36301D01*
X137106Y35347D02*
Y36582D01*
X130976Y36955D02*
G03X132285Y35965I1309J370D01*
G01X130976Y36955D02*
Y34974D01*
X132285Y35965D02*
G03X130976Y34974I-0J-1361D01*
G01Y36555D02*
X131163D01*
X130976Y35965D02*
X132285D01*
X130976Y35374D02*
X131163D01*
X131104Y35279D02*
Y36650D01*
X131694Y35830D02*
Y36099D01*
X137402Y25167D02*
G03X134744Y25965I-2658J-4030D01*
G01X137402Y25167D02*
Y26762D01*
X134744Y25965D02*
G03X137402Y26762I0J4827D01*
G01X137058Y26555D02*
X137402D01*
X134744Y25965D02*
X137402D01*
X137058Y25374D02*
X137402D01*
X134744Y25965D02*
X134744D01*
X135335Y25928D02*
Y26001D01*
X135925Y25818D02*
Y26111D01*
X136516Y25628D02*
Y26301D01*
X137106Y25347D02*
Y26582D01*
X131019Y27025D02*
G03X132328Y25965I1309J278D01*
G01X131019Y27025D02*
Y24904D01*
X132328Y25965D02*
G03X131019Y24904I-0J-1339D01*
G01Y26555D02*
X131218D01*
X131019Y25965D02*
X132328D01*
X131019Y25374D02*
X131218D01*
X131147Y25256D02*
Y26673D01*
X131737Y25827D02*
Y26102D01*
X122642Y27439D02*
G03X123772Y28748I-194J1309D01*
G01X122642Y27439D02*
X124901D01*
X123772Y28748D02*
G03X124901Y27439I1323J0D01*
G01X123772Y28748D02*
X123772D01*
X123633Y28158D02*
X123911D01*
X123045Y27567D02*
X124498D01*
X123181Y27439D02*
Y27646D01*
X123772Y27439D02*
Y28748D01*
X124362Y27439D02*
Y27646D01*
X124901Y29648D02*
G03X123772Y28338I194J-1310D01*
G01X124901Y29648D02*
X122642D01*
X123772Y28338D02*
G03X122642Y29648I-1324J0D01*
G01X123045Y29519D02*
X124498D01*
X123633Y28929D02*
X123911D01*
X123181Y29440D02*
Y29648D01*
X123772Y28338D02*
Y29648D01*
X124362Y29440D02*
Y29648D01*
X122642Y32557D02*
G03X123772Y33866I-194J1309D01*
G01X122642Y32557D02*
X124901D01*
X123772Y33866D02*
G03X124901Y32557I1323J0D01*
G01X123772Y33866D02*
X123772D01*
X123633Y33276D02*
X123911D01*
X123045Y32685D02*
X124498D01*
X123181Y32557D02*
Y32764D01*
X123772Y32557D02*
Y33866D01*
X124362Y32557D02*
Y32764D01*
X124901Y34766D02*
G03X123772Y33456I194J-1310D01*
G01X124901Y34766D02*
X122642D01*
X123772Y33456D02*
G03X122642Y34766I-1324J0D01*
G01X123045Y34638D02*
X124498D01*
X123633Y34047D02*
X123911D01*
X123181Y34559D02*
Y34766D01*
X123772Y33456D02*
Y34766D01*
X124362Y34559D02*
Y34766D01*
X124796Y58935D02*
G03X126264Y59929I-1083J3181D01*
G01X124796Y58935D02*
X125420D01*
X126264Y59929*
X126264*
X125604Y59339D02*
X125763D01*
X125083Y58935D02*
Y59048D01*
X125674Y59234D02*
Y59387D01*
X137795Y62451D02*
G03X135689Y63248I-2106J-2384D01*
G01X137795Y62451D02*
Y64045D01*
X135689Y63248D02*
G03X137795Y64045I-0J3181D01*
G01X137535Y63839D02*
X137795D01*
X135689Y63248D02*
X137795D01*
X137535Y62657D02*
X137795D01*
X135689Y63248D02*
X135689D01*
X136280Y63193D02*
Y63303D01*
X136870Y63021D02*
Y63475D01*
X137461Y62709D02*
Y63787D01*
X171068Y56967D02*
G03X172197Y58276I-195J1309D01*
G01X171068Y56967D02*
X173326D01*
X172197Y58276D02*
G03X173326Y56967I1323J-0D01*
G01X172197Y58276D02*
X172197D01*
X172058Y57685D02*
X172336D01*
X171471Y57095D02*
X172923D01*
X171606Y56967D02*
Y57174D01*
X172197Y56967D02*
Y58276D01*
X172787Y56967D02*
Y57174D01*
X173326Y59175D02*
G03X172197Y57866I194J-1309D01*
G01X173326Y59175D02*
X171068D01*
X172197Y57866D02*
G03X171068Y59175I-1324J-0D01*
G01X171471Y59047D02*
X172923D01*
X172058Y58456D02*
X172336D01*
X171606Y58968D02*
Y59175D01*
X172197Y57866D02*
Y59175D01*
X172787Y58968D02*
Y59175D01*
X171068Y67203D02*
G03X172197Y68512I-195J1309D01*
G01X171068Y67203D02*
X173326D01*
X172197Y68512D02*
G03X173326Y67203I1323J0D01*
G01X172197Y68512D02*
X172197D01*
X172058Y67921D02*
X172336D01*
X171471Y67331D02*
X172923D01*
X171606Y67203D02*
Y67410D01*
X172197Y67203D02*
Y68512D01*
X172787Y67203D02*
Y67410D01*
X173326Y69411D02*
G03X172197Y68102I194J-1309D01*
G01X173326Y69411D02*
X171068D01*
X172197Y68102D02*
G03X171068Y69411I-1324J0D01*
G01X171471Y69283D02*
X172923D01*
X172058Y68693D02*
X172336D01*
X171606Y69204D02*
Y69411D01*
X172197Y68102D02*
Y69411D01*
X172787Y69204D02*
Y69411D01*
X170821Y83450D02*
G03X169512Y84469I-1309J-332D01*
G01X170821Y83450D02*
Y85487D01*
X169512Y84469D02*
G03X170821Y85487I-0J1350D01*
G01X170628Y85059D02*
X170821D01*
X169512Y84469D02*
X170821D01*
X170628Y83878D02*
X170821D01*
X169512Y84469D02*
X169512D01*
X170102Y84333D02*
Y84604D01*
X170693Y83773D02*
Y85164D01*
X164665Y85266D02*
G03X167943Y84469I3278J6338D01*
G01X164665Y85266D02*
Y83671D01*
X167943Y84469D02*
G03X164665Y83671I-0J-7136D01*
G01Y85059D02*
X165101D01*
X164665Y84469D02*
X167943D01*
X164665Y83878D02*
X165101D01*
X164990Y83829D02*
Y85108D01*
X165581Y84066D02*
Y84871D01*
X166171Y84245D02*
Y84692D01*
X166762Y84370D02*
Y84567D01*
X167352Y84444D02*
Y84493D01*
X176942Y71571D02*
G03X176016Y73047I-3686J-1285D01*
G01X176942Y71571D02*
Y72321D01*
X176016Y73047D02*
G03X176942Y72321I3460J3459D01*
G01X176016Y73047D02*
X176016D01*
X176501Y72456D02*
X176731D01*
X176826Y71866D02*
X176942D01*
X176016Y73047D02*
X176016D01*
X176607Y72289D02*
Y72543D01*
X173452Y83547D02*
G03X174377Y82071I3686J1285D01*
G01X173452Y83547D02*
Y82797D01*
X174377Y82071D02*
G03X173452Y82797I-3459J-3459D01*
G01Y83253D02*
X173568D01*
X173663Y82662D02*
X173893D01*
X173787Y82575D02*
Y82829D01*
X129036Y64447D02*
G03X130165Y65756I-194J1309D01*
G01X129036Y64447D02*
X131295D01*
X130165Y65756D02*
G03X131295Y64447I1324J0D01*
G01X130165Y65756D02*
X130165D01*
X130026Y65166D02*
X130304D01*
X129439Y64575D02*
X130892D01*
X129575Y64447D02*
Y64654D01*
X130165Y64447D02*
Y65756D01*
X130756Y64447D02*
Y64654D01*
X131295Y67049D02*
G03X130165Y65740I194J-1309D01*
G01X131295Y67049D02*
X129036D01*
X130165Y65740D02*
G03X129036Y67049I-1323J-0D01*
G01X129439Y66921D02*
X130892D01*
X130026Y66331D02*
X130304D01*
X129575Y66842D02*
Y67049D01*
X130165Y65740D02*
Y67049D01*
X130756Y66842D02*
Y67049D01*
X122911Y69440D02*
G03X122197Y70472I-3187J-1440D01*
G01X122911Y69440D02*
Y69959D01*
X122197Y70472D02*
G03X122911Y69959I1933J1934D01*
G01X122197Y70472D02*
X122197D01*
X122671Y69882D02*
X122911D01*
X122197Y70472D02*
X122197D01*
X122787Y69686D02*
Y70024D01*
X120315Y71880D02*
G03X122197Y70472I1882J554D01*
G01X120315Y71880D02*
Y69064D01*
X122197Y70472D02*
G03X120315Y69064I-0J-1961D01*
G01Y71654D02*
X120397D01*
X120315Y71063D02*
X120794D01*
X120315Y70472D02*
X122197D01*
X120315Y69882D02*
X120794D01*
X120315Y69291D02*
X120397D01*
X120425Y69353D02*
Y71592D01*
X121016Y70077D02*
Y70868D01*
X121606Y70381D02*
Y70563D01*
X242467Y131792D02*
G03X239764Y130709I-85J-3702D01*
G01X242467Y131792D02*
X240847Y133412D01*
X239764Y130709D02*
G03X240847Y133412I-2618J2618D01*
G01X240839Y133071D02*
X241189D01*
X240750Y132480D02*
X241779D01*
X240558Y131890D02*
X242370D01*
X240244Y131299D02*
X240534D01*
X239764Y130709D02*
X239764D01*
X240354Y131189D02*
Y131479D01*
X240945Y131503D02*
Y133315D01*
X241535Y131695D02*
Y132724D01*
X242126Y131784D02*
Y132134D01*
X283153Y54800D02*
G03X281678Y53875I1285J-3686D01*
G01X283153Y54800D02*
X282404D01*
X281678Y53875D02*
G03X282404Y54800I-3460J3459D01*
G01X282181Y54465D02*
X282435D01*
X281678Y53875D02*
X281678D01*
X282268Y54359D02*
Y54589D01*
X282859Y54684D02*
Y54800D01*
X238945Y137367D02*
G03X237795Y134651I2634J-2716D01*
G01X238945Y137367D02*
X236646D01*
X237795Y134651D02*
G03X236646Y137367I-3784J-0D01*
G01X236967Y137013D02*
X238623D01*
X237355Y136422D02*
X238236D01*
X237606Y135832D02*
X237984D01*
X237749Y135241D02*
X237842D01*
X237205Y136680D02*
Y137367D01*
X237795Y134651D02*
Y137367D01*
X238386Y136680D02*
Y137367D01*
X260374Y86713D02*
G03X262795Y88583I-6067J10358D01*
G01X260374Y86713D02*
X261122D01*
X262795Y88583D02*
G03X261122Y86713I15996J-15996D01*
G01X262795Y88583D02*
X262795D01*
X262161Y87992D02*
X262226D01*
X261421Y87402D02*
X261696D01*
X260539Y86811D02*
X261201D01*
X260433Y86713D02*
Y86748D01*
X261024Y86713D02*
Y87122D01*
X261614Y87307D02*
Y87547D01*
X262205Y87969D02*
Y88031D01*
X273793Y90671D02*
G03X272867Y89945I2533J-4185D01*
G01X273793Y90671D02*
Y91421D01*
X272867Y89945D02*
G03X273793Y91421I-2761J2761D01*
G01X273676Y91127D02*
X273793D01*
X273352Y90536D02*
X273582D01*
X272867Y89945D02*
X272867D01*
X273457Y90449D02*
Y90703D01*
X259154Y61604D02*
G03X261319Y59744I2165J330D01*
G01X259154Y61604D02*
Y57884D01*
X261319Y59744D02*
G03X259154Y57884I-0J-2190D01*
G01Y61516D02*
X259169D01*
X259154Y60925D02*
X259375D01*
X259154Y60335D02*
X259823D01*
X259154Y59744D02*
X261319D01*
X259154Y59154D02*
X259823D01*
X259154Y58563D02*
X259375D01*
X259154Y57972D02*
X259169D01*
X259547Y58842D02*
Y60646D01*
X260138Y59398D02*
Y60090D01*
X260728Y59663D02*
Y59825D01*
X267793Y69805D02*
G03X266867Y69079I2533J-4185D01*
G01X267793Y69805D02*
Y70555D01*
X266867Y69079D02*
G03X267793Y70555I-2761J2761D01*
G01X267676Y70260D02*
X267793D01*
X267352Y69670D02*
X267582D01*
X266867Y69079D02*
X266867D01*
X267457Y69583D02*
Y69837D01*
X259154Y71077D02*
G03X261122Y69390I1968J305D01*
G01X259154Y71077D02*
Y67702D01*
X261122Y69390D02*
G03X259154Y67702I0J-1992D01*
G01Y70571D02*
X259303D01*
X259154Y69980D02*
X259706D01*
X259154Y69390D02*
X261122D01*
X259154Y68799D02*
X259706D01*
X259154Y68209D02*
X259303D01*
X259350Y68308D02*
Y70471D01*
X259941Y69002D02*
Y69778D01*
X260531Y69300D02*
Y69479D01*
X270176Y80041D02*
G03X269047Y78732I195J-1309D01*
G01X270176Y80041D02*
X267918D01*
X269047Y78732D02*
G03X267918Y80041I-1323J0D01*
G01X268321Y79913D02*
X269773D01*
X268908Y79323D02*
X269186D01*
X268457Y79834D02*
Y80041D01*
X269047Y78732D02*
Y80041D01*
X269638Y79834D02*
Y80041D01*
X199118Y93909D02*
G03X201721Y99777I-5632J6009D01*
G01X199118Y93909D02*
X204121Y93824D01*
X201721Y99777D02*
G03X204121Y93824I8234J-140D01*
G01X201721Y99777D02*
X201721D01*
X201689Y99187D02*
X201732D01*
X201615Y98596D02*
X201785D01*
X201497Y98006D02*
X201883D01*
X201332Y97415D02*
X202025D01*
X201119Y96825D02*
X202215D01*
X200852Y96234D02*
X202455D01*
X200526Y95643D02*
X202752D01*
X200131Y95053D02*
X203113D01*
X199656Y94462D02*
X203548D01*
X201299Y93872D02*
X204074D01*
X199358Y93905D02*
Y94143D01*
X199949Y93895D02*
Y94813D01*
X200540Y93885D02*
Y95666D01*
X201130Y93875D02*
Y96852D01*
X201721Y93865D02*
Y99497D01*
X202311Y93855D02*
Y96572D01*
X202902Y93844D02*
Y95385D01*
X203492Y93834D02*
Y94532D01*
X204083Y93824D02*
Y93863D01*
X202829Y98545D02*
G03X201677Y97236I194J-1332D01*
G01X202829Y98545D02*
X200570D01*
X201677Y97236D02*
G03X200570Y98545I-1301J22D01*
G01X200968Y98417D02*
X202421D01*
X201547Y97827D02*
X201825D01*
X201087Y98349D02*
Y98545D01*
X201677Y97236D02*
X201677D01*
Y97281D02*
Y98545D01*
X202268Y98327D02*
Y98545D01*
X217926Y93824D02*
G03X220327Y99777I-5834J5813D01*
G01X217926Y93824D02*
X222929Y93909D01*
X220327Y99777D02*
G03X222929Y93909I8234J141D01*
G01X220327Y99777D02*
X220327D01*
X220316Y99187D02*
X220358D01*
X220262Y98596D02*
X220432D01*
X220165Y98006D02*
X220550D01*
X220022Y97415D02*
X220715D01*
X219833Y96825D02*
X220928D01*
X219592Y96234D02*
X221195D01*
X219295Y95643D02*
X221521D01*
X218934Y95053D02*
X221916D01*
X218499Y94462D02*
X222391D01*
X217973Y93872D02*
X220748D01*
X217964Y93824D02*
Y93863D01*
X218555Y93834D02*
Y94532D01*
X219146Y93844D02*
Y95385D01*
X219736Y93855D02*
Y96572D01*
X220327Y93865D02*
Y99497D01*
Y99777D02*
X220327D01*
X220917Y93875D02*
Y96852D01*
X221508Y93885D02*
Y95666D01*
X222098Y93895D02*
Y94813D01*
X222689Y93905D02*
Y94143D01*
X221477Y98545D02*
G03X220370Y97236I194J-1287D01*
G01X221477Y98545D02*
X219218D01*
X220370Y97236D02*
G03X219218Y98545I-1346J-23D01*
G01X219626Y98417D02*
X221079D01*
X220222Y97827D02*
X220500D01*
X219779Y98327D02*
Y98545D01*
X220370Y97281D02*
Y98545D01*
X220960Y98349D02*
Y98545D01*
X267918Y82951D02*
G03X269047Y84260I-194J1309D01*
G01X267918Y82951D02*
X270176D01*
X269047Y84260D02*
G03X270176Y82951I1324J0D01*
G01X269047Y84260D02*
X269047D01*
X268908Y83669D02*
X269186D01*
X268321Y83079D02*
X269773D01*
X268457Y82951D02*
Y83158D01*
X269047Y82951D02*
Y84260D01*
X269638Y82951D02*
Y83158D01*
X297638Y87874D02*
G03X295157Y88583I-2481J-3986D01*
G01X297638Y87874D02*
Y89291D01*
X295157Y88583D02*
G03X297638Y89291I0J4695D01*
G01X297437Y89173D02*
X297638D01*
X295157Y88583D02*
X297638D01*
X297437Y87992D02*
X297638D01*
X295157Y88583D02*
X295157D01*
X295748Y88545D02*
Y88620D01*
X296339Y88432D02*
Y88734D01*
X296929Y88236D02*
Y88930D01*
X297520Y87945D02*
Y89220D01*
X271228Y73590D02*
X270302Y72715D01*
Y72130*
X271228Y73590D02*
G03X270302Y72130I2796J-2796D01*
G01X271228Y73590D02*
X271228D01*
X270603Y72999D02*
X270742D01*
X270302Y72409D02*
X270414D01*
X270637Y72835D02*
Y73032D01*
X211410Y46938D02*
G03X213543Y51339I-3473J4401D01*
G01X211410Y46938D02*
X215676D01*
X213543Y51339D02*
G03X215676Y46938I5607J-0D01*
G01X213543Y51339D02*
X213543D01*
X213512Y50748D02*
X213574D01*
X213417Y50157D02*
X213669D01*
X213256Y49567D02*
X213831D01*
X213021Y48976D02*
X214065D01*
X212703Y48386D02*
X214384D01*
X212282Y47795D02*
X214805D01*
X211724Y47205D02*
X215362D01*
X211772Y46938D02*
Y47249D01*
X212362Y46938D02*
Y47896D01*
X212953Y46938D02*
Y48834D01*
X213543Y46938D02*
Y51339D01*
X214134Y46938D02*
Y48834D01*
X214724Y46938D02*
Y47896D01*
X215315Y46938D02*
Y47249D01*
X231594Y128300D02*
G03X232702Y125566I3783J-58D01*
G01X231594Y128300D02*
X229968Y126674D01*
X232702Y125566D02*
G03X229968Y126674I-2676J-2676D01*
G01X231223Y127928D02*
X231606D01*
X230632Y127338D02*
X231703D01*
X230041Y126747D02*
X231901D01*
X231937Y126157D02*
X232220D01*
X230339Y126661D02*
Y127045D01*
X230930Y126565D02*
Y127636D01*
X231521Y126367D02*
Y128226D01*
X232111Y126048D02*
Y126331D01*
X221338Y46873D02*
G03X223543Y51890I-4604J5017D01*
G01X221338Y46873D02*
X225748D01*
X223543Y51890D02*
G03X225748Y46873I6810J-0D01*
G01X223543Y51890D02*
X223543D01*
X223518Y51299D02*
X223569D01*
X223440Y50709D02*
X223647D01*
X223309Y50118D02*
X223778D01*
X223120Y49528D02*
X223966D01*
X222870Y48937D02*
X224217D01*
X222549Y48346D02*
X224538D01*
X222145Y47756D02*
X224942D01*
X221638Y47165D02*
X225449D01*
X221772Y46873D02*
Y47308D01*
X222362Y46873D02*
Y48057D01*
X222953Y46873D02*
Y49116D01*
X223543Y46873D02*
Y51890D01*
X224134Y46873D02*
Y49116D01*
X224724Y46873D02*
Y48057D01*
X225315Y46873D02*
Y47308D01*
X229841Y142441D02*
G03X228740Y140157I1817J-2284D01*
G01X229841Y142441D02*
X227639D01*
X228740Y140157D02*
G03X227639Y142441I-2918J0D01*
G01X228141Y141929D02*
X229339D01*
X228490Y141339D02*
X228990D01*
X228680Y140748D02*
X228801D01*
X228150Y141918D02*
Y142441D01*
X228740Y140157D02*
Y142441D01*
X229331Y141918D02*
Y142441D01*
X382822Y41241D02*
G03X377516Y39091I-112J-7344D01*
G01X382822Y41241D02*
X379667Y44397D01*
X377516Y39091D02*
G03X379667Y44397I-5194J5194D01*
G01X379652Y43815D02*
X380248D01*
X379591Y43225D02*
X380839D01*
X379480Y42634D02*
X381430D01*
X379317Y42044D02*
X382020D01*
X379100Y41453D02*
X382611D01*
X378822Y40863D02*
X380379D01*
X378475Y40272D02*
X379061D01*
X378046Y39681D02*
X378183D01*
X377516Y39091D02*
X377516D01*
X378107Y39621D02*
Y39758D01*
X378697Y40049D02*
Y40636D01*
X379288Y40396D02*
Y41954D01*
X379878Y40675D02*
Y44185D01*
X380469Y40892D02*
Y43595D01*
X381059Y41054D02*
Y43004D01*
X381650Y41165D02*
Y42414D01*
X382241Y41227D02*
Y41823D01*
X355039Y69685D02*
G03X354331Y67205I3987J-2480D01*
G01X355039Y69685D02*
X353622D01*
X354331Y67205D02*
G03X353622Y69685I-4695J-0D01*
G01X353693Y69567D02*
X354968D01*
X353984Y68976D02*
X354678D01*
X354180Y68386D02*
X354482D01*
X354293Y67795D02*
X354368D01*
X353740Y69484D02*
Y69685D01*
X354331Y67205D02*
Y69685D01*
X354921Y69484D02*
Y69685D01*
X297638Y91024D02*
G03X295157Y91732I-2481J-3987D01*
G01X297638Y91024D02*
Y92441D01*
X295157Y91732D02*
G03X297638Y92441I0J4695D01*
G01X297437Y92323D02*
X297638D01*
X295157Y91732D02*
X297638D01*
X297437Y91142D02*
X297638D01*
X295157Y91732D02*
X295157D01*
X295748Y91695D02*
Y91770D01*
X296339Y91581D02*
Y91883D01*
X296929Y91385D02*
Y92079D01*
X297520Y91095D02*
Y92370D01*
X276302Y93186D02*
G03X277611Y92126I1309J278D01*
G01X276302Y93186D02*
Y91065D01*
X277611Y92126D02*
G03X276302Y91065I0J-1338D01*
G01Y92717D02*
X276501D01*
X276302Y92126D02*
X277611D01*
X276302Y91535D02*
X276501D01*
X276430Y91417D02*
Y92835D01*
X277021Y91989D02*
Y92263D01*
X297638Y94173D02*
G03X295276Y94882I-2362J-3582D01*
G01X297638Y94173D02*
Y95591D01*
X295276Y94882D02*
G03X297638Y95591I-0J4291D01*
G01X297448Y95472D02*
X297638D01*
X295276Y94882D02*
X297638D01*
X297448Y94291D02*
X297638D01*
X295276Y94882D02*
X295276D01*
X295866Y94841D02*
Y94923D01*
X296457Y94716D02*
Y95048D01*
X297047Y94499D02*
Y95265D01*
X276302Y98305D02*
G03X277611Y97244I1309J278D01*
G01X276302Y98305D02*
Y96184D01*
X277611Y97244D02*
G03X276302Y96184I0J-1338D01*
G01Y97835D02*
X276501D01*
X276302Y97244D02*
X277611D01*
X276302Y96654D02*
X276501D01*
X276430Y96535D02*
Y97953D01*
X277021Y97107D02*
Y97381D01*
X288879Y72715D02*
G03X290008Y74024I-195J1309D01*
G01X288879Y72715D02*
X291137D01*
X290008Y74024D02*
G03X291137Y72715I1323J-0D01*
G01X290008Y74024D02*
X290008D01*
X289869Y73433D02*
X290147D01*
X289282Y72843D02*
X290734D01*
X289417Y72715D02*
Y72922D01*
X290008Y72715D02*
Y74024D01*
X290598Y72715D02*
Y72922D01*
X291137Y74923D02*
G03X290008Y73614I194J-1309D01*
G01X291137Y74923D02*
X288879D01*
X290008Y73614D02*
G03X288879Y74923I-1324J-0D01*
G01X289282Y74795D02*
X290734D01*
X289869Y74205D02*
X290147D01*
X289417Y74716D02*
Y74923D01*
X290008Y73614D02*
Y74923D01*
X290598Y74716D02*
Y74923D01*
X281784Y46848D02*
G03X284016Y52121I-5113J5273D01*
G01X281784Y46848D02*
X286247D01*
X284016Y52121D02*
G03X286247Y46848I7345J0D01*
G01X284016Y52121D02*
X284016D01*
X283992Y51531D02*
X284040D01*
X283920Y50940D02*
X284111D01*
X283799Y50349D02*
X284233D01*
X283626Y49759D02*
X284406D01*
X283396Y49168D02*
X284635D01*
X283105Y48578D02*
X284927D01*
X282742Y47987D02*
X285289D01*
X282295Y47397D02*
X285737D01*
X282244Y46848D02*
Y47337D01*
X282835Y46848D02*
Y48127D01*
X283425Y46848D02*
Y49235D01*
X284016Y46848D02*
Y52121D01*
X284606Y46848D02*
Y49235D01*
X285197Y46848D02*
Y48127D01*
X285787Y46848D02*
Y47337D01*
X285078Y54851D02*
G03X284016Y53542I276J-1309D01*
G01X285078Y54851D02*
X282954D01*
X284016Y53542D02*
G03X282954Y54851I-1338J-0D01*
G01X283306Y54723D02*
X284725D01*
X283878Y54132D02*
X284153D01*
X283425Y54652D02*
Y54851D01*
X284016Y53542D02*
Y54851D01*
X284606Y54652D02*
Y54851D01*
X291784Y46848D02*
G03X294016Y52121I-5113J5273D01*
G01X291784Y46848D02*
X296247D01*
X294016Y52121D02*
G03X296247Y46848I7345J0D01*
G01X294016Y52121D02*
X294016D01*
X293992Y51531D02*
X294040D01*
X293920Y50940D02*
X294111D01*
X293799Y50349D02*
X294233D01*
X293626Y49759D02*
X294406D01*
X293396Y49168D02*
X294635D01*
X293105Y48578D02*
X294927D01*
X292742Y47987D02*
X295289D01*
X292295Y47397D02*
X295737D01*
X292244Y46848D02*
Y47337D01*
X292835Y46848D02*
Y48127D01*
X293425Y46848D02*
Y49235D01*
X294016Y46848D02*
Y52121D01*
X294606Y46848D02*
Y49235D01*
X295197Y46848D02*
Y48127D01*
X295787Y46848D02*
Y47337D01*
X295079Y54765D02*
G03X294016Y53456I274J-1309D01*
G01X295079Y54765D02*
X292952D01*
X294016Y53456D02*
G03X292952Y54765I-1338J-0D01*
G01X293306Y54637D02*
X294725D01*
X293878Y54046D02*
X294153D01*
X293425Y54565D02*
Y54765D01*
X294016Y53456D02*
Y54765D01*
X294606Y54565D02*
Y54765D01*
X340682Y46848D02*
G03X342913Y52121I-5114J5273D01*
G01X340682Y46848D02*
X345145D01*
X342913Y52121D02*
G03X345145Y46848I7346J0D01*
G01X342913Y52121D02*
X342913D01*
X342890Y51531D02*
X342937D01*
X342818Y50940D02*
X343009D01*
X342697Y50349D02*
X343130D01*
X342523Y49759D02*
X343304D01*
X342294Y49168D02*
X343533D01*
X342002Y48578D02*
X343825D01*
X341640Y47987D02*
X344187D01*
X341192Y47397D02*
X344634D01*
X341142Y46848D02*
Y47337D01*
X341732Y46848D02*
Y48127D01*
X342323Y46848D02*
Y49235D01*
X342913Y46848D02*
Y52121D01*
X343504Y46848D02*
Y49235D01*
X344094Y46848D02*
Y48127D01*
X344685Y46848D02*
Y47337D01*
X336142Y69685D02*
G03X335433Y68110I1395J-1575D01*
G01X336142Y69685D02*
X334724D01*
X335433Y68110D02*
G03X334724Y69685I-2104J0D01*
G01X335070Y69291D02*
X335796D01*
X335348Y68701D02*
X335518D01*
X334843Y69572D02*
Y69685D01*
X335433Y68110D02*
Y69685D01*
X336024Y69572D02*
Y69685D01*
X350699Y46865D02*
G03X352913Y51969I-4775J5104D01*
G01X350699Y46865D02*
X355128D01*
X352913Y51969D02*
G03X355128Y46865I6990J-0D01*
G01X352913Y51969D02*
X352913D01*
X352888Y51378D02*
X352938D01*
X352813Y50787D02*
X353014D01*
X352685Y50197D02*
X353142D01*
X352502Y49606D02*
X353325D01*
X352259Y49016D02*
X353568D01*
X351949Y48425D02*
X353878D01*
X351560Y47835D02*
X354267D01*
X351075Y47244D02*
X354752D01*
X351142Y46865D02*
Y47318D01*
X351732Y46865D02*
Y48081D01*
X352323Y46865D02*
Y49157D01*
X352913Y46865D02*
Y51969D01*
X353504Y46865D02*
Y49157D01*
X354094Y46865D02*
Y48081D01*
X354685Y46865D02*
Y47318D01*
X308759Y97985D02*
G03X309867Y95251I3784J-58D01*
G01X308759Y97985D02*
X307133Y96359D01*
X309867Y95251D02*
G03X307133Y96359I-2676J-2676D01*
G01X308388Y97613D02*
X308772D01*
X307797Y97023D02*
X308868D01*
X307207Y96432D02*
X309066D01*
X309102Y95842D02*
X309385D01*
X307505Y96346D02*
Y96730D01*
X308095Y96250D02*
Y97321D01*
X308686Y96052D02*
Y97911D01*
X309276Y95733D02*
Y96016D01*
X323896Y63184D02*
G03X325205Y62055I1309J195D01*
G01X323896Y63184D02*
Y60926D01*
X325205Y62055D02*
G03X323896Y60926I-0J-1323D01*
G01Y62646D02*
X324103D01*
X323896Y62055D02*
X325205D01*
X323896Y61465D02*
X324103D01*
X324024Y61329D02*
Y62781D01*
X324614Y61916D02*
Y62194D01*
X326104Y60926D02*
G03X324795Y62055I-1309J-194D01*
G01X326104Y60926D02*
Y63184D01*
X324795Y62055D02*
G03X326104Y63184I0J1324D01*
G01X325897Y62646D02*
X326104D01*
X324795Y62055D02*
X326104D01*
X325897Y61465D02*
X326104D01*
X324795Y62055D02*
X324795D01*
X325386Y61916D02*
Y62194D01*
X325976Y61329D02*
Y62781D01*
X321380Y63310D02*
G03X322441Y64619I-277J1309D01*
G01X321380Y63310D02*
X323501D01*
X322441Y64619D02*
G03X323501Y63310I1338J0D01*
G01X322441Y64619D02*
X322441D01*
X322304Y64029D02*
X322578D01*
X321732Y63438D02*
X323150D01*
X321850Y63310D02*
Y63509D01*
X322441Y63310D02*
Y64619D01*
X323031Y63310D02*
Y63509D01*
X320394Y69685D02*
G03X319685Y67717I2379J-1968D01*
G01X320394Y69685D02*
X318976D01*
X319685Y67717D02*
G03X318976Y69685I-3088J-0D01*
G01X319126Y69488D02*
X320244D01*
X319450Y68898D02*
X319920D01*
X319628Y68307D02*
X319742D01*
X319094Y69533D02*
Y69685D01*
X319685Y67717D02*
Y69685D01*
X320276Y69533D02*
Y69685D01*
X285263Y77833D02*
G03X286259Y78298I-345J2037D01*
G01X285263Y77833D02*
Y76876D01*
X286259Y78298D02*
G03X285263Y76876I2246J-2633D01*
G01X286259Y78298D02*
X286259D01*
X285263Y77707D02*
X285711D01*
X285263Y77117D02*
X285363D01*
X285668Y77648D02*
Y77945D01*
X288753Y80041D02*
G03X287757Y79576I345J-2037D01*
G01X288753Y80041D02*
Y80998D01*
X287757Y79576D02*
G03X288753Y80998I-2246J2633D01*
G01X288653Y80757D02*
X288753D01*
X288305Y80167D02*
X288753D01*
X287757Y79576D02*
X287757D01*
X288348Y79929D02*
Y80226D01*
X291263Y77438D02*
G03X292572Y76378I1309J278D01*
G01X291263Y77438D02*
Y75317D01*
X292572Y76378D02*
G03X291263Y75317I-0J-1338D01*
G01Y76969D02*
X291462D01*
X291263Y76378D02*
X292572D01*
X291263Y75787D02*
X291462D01*
X291391Y75669D02*
Y77087D01*
X291981Y76241D02*
Y76515D01*
X297638Y81575D02*
G03X295224Y82283I-2414J-3756D01*
G01X297638Y81575D02*
Y82992D01*
X295224Y82283D02*
G03X297638Y82992I0J4465D01*
G01X297443Y82874D02*
X297638D01*
X295224Y82283D02*
X297638D01*
X297443Y81693D02*
X297638D01*
X295224Y82283D02*
X295224D01*
X295815Y82244D02*
Y82323D01*
X296405Y82124D02*
Y82443D01*
X296996Y81917D02*
Y82650D01*
X297586Y81607D02*
Y82960D01*
X318976Y75197D02*
G03X319685Y77677I-3986J2480D01*
G01X318976Y75197D02*
X320394D01*
X319685Y77677D02*
G03X320394Y75197I4695J0D01*
G01X319685Y77677D02*
X319685D01*
X319648Y77087D02*
X319722D01*
X319534Y76496D02*
X319836D01*
X319338Y75906D02*
X320032D01*
X319047Y75315D02*
X320323D01*
X319094Y75197D02*
Y75398D01*
X319685Y75197D02*
Y77677D01*
X320276Y75197D02*
Y75398D01*
X320835Y77131D02*
G03X319685Y74414I2634J-2717D01*
G01X320835Y77131D02*
X318536D01*
X319685Y74414D02*
G03X318535Y77131I-3784J0D01*
G01X318857Y76777D02*
X320513D01*
X319245Y76186D02*
X320125D01*
X319496Y75595D02*
X319874D01*
X319639Y75005D02*
X319731D01*
X319094Y76444D02*
Y77131D01*
X319685Y74414D02*
Y77131D01*
X320276Y76444D02*
Y77131D01*
X297638Y84724D02*
G03X295157Y85433I-2481J-3986D01*
G01X297638Y84724D02*
Y86142D01*
X295157Y85433D02*
G03X297638Y86142I0J4695D01*
G01X297437Y86024D02*
X297638D01*
X295157Y85433D02*
X297638D01*
X297437Y84843D02*
X297638D01*
X295157Y85433D02*
X295157D01*
X295748Y85396D02*
Y85470D01*
X296339Y85282D02*
Y85584D01*
X296929Y85086D02*
Y85780D01*
X297520Y84796D02*
Y86071D01*
X292640Y54926D02*
G03X291331Y56055I-1309J-194D01*
G01X292640Y54926D02*
Y57184D01*
X291331Y56055D02*
G03X292640Y57184I-0J1324D01*
G01X292433Y56646D02*
X292640D01*
X291331Y56055D02*
X292640D01*
X292433Y55465D02*
X292640D01*
X291331Y56055D02*
X291331D01*
X291921Y55916D02*
Y56194D01*
X292512Y55329D02*
Y56781D01*
X318863Y28772D02*
G03X316147Y29921I-2716J-2635D01*
G01X318863Y28772D02*
Y31071D01*
X316147Y29921D02*
G03X318863Y31071I-0J3784D01*
G01X318177Y30512D02*
X318863D01*
X316147Y29921D02*
X318863D01*
X318177Y29331D02*
X318863D01*
X316147Y29921D02*
X316147D01*
X316737Y29875D02*
Y29968D01*
X317328Y29732D02*
Y30110D01*
X317918Y29481D02*
Y30362D01*
X318509Y29093D02*
Y30749D01*
X291263Y70555D02*
G03X292188Y69079I3686J1285D01*
G01X291263Y70555D02*
Y69805D01*
X292188Y69079D02*
G03X291263Y69805I-3459J-3459D01*
G01Y70260D02*
X291379D01*
X291474Y69670D02*
X291704D01*
X291598Y69583D02*
Y69837D01*
X360682Y46848D02*
G03X362913Y52121I-5114J5273D01*
G01X360682Y46848D02*
X365145D01*
X362913Y52121D02*
G03X365145Y46848I7346J0D01*
G01X362913Y52121D02*
X362913D01*
X362890Y51531D02*
X362937D01*
X362818Y50940D02*
X363009D01*
X362697Y50349D02*
X363130D01*
X362523Y49759D02*
X363304D01*
X362294Y49168D02*
X363533D01*
X362002Y48578D02*
X363825D01*
X361640Y47987D02*
X364187D01*
X361192Y47397D02*
X364634D01*
X361142Y46848D02*
Y47337D01*
X361732Y46848D02*
Y48127D01*
X362323Y46848D02*
Y49235D01*
X362913Y46848D02*
Y52121D01*
X363504Y46848D02*
Y49235D01*
X364094Y46848D02*
Y48127D01*
X364685Y46848D02*
Y47337D01*
X358268Y84724D02*
G03X355787Y85433I-2481J-3986D01*
G01X358268Y84724D02*
Y86142D01*
X355787Y85433D02*
G03X358268Y86142I0J4695D01*
G01X358067Y86024D02*
X358268D01*
X355787Y85433D02*
X358268D01*
X358067Y84843D02*
X358268D01*
X355787Y85433D02*
X355787D01*
X356378Y85396D02*
Y85470D01*
X356969Y85282D02*
Y85584D01*
X357559Y85086D02*
Y85780D01*
X358150Y84796D02*
Y86071D01*
X65179Y169134D02*
G03X65453Y171118I-7042J1984D01*
G01X65179Y169134D02*
X65727D01*
X65453Y171118D02*
G03X65727Y169134I7315J0D01*
G01X65453Y171118D02*
X65453D01*
X65429Y170528D02*
X65477D01*
X65357Y169937D02*
X65549D01*
X65235Y169346D02*
X65671D01*
X65453Y169134D02*
Y171118D01*
X58585Y181769D02*
G03X59895Y180709I1310J278D01*
G01X58585Y181769D02*
Y179648D01*
X59895Y180709D02*
G03X58585Y179648I-0J-1339D01*
G01Y181299D02*
X58785D01*
X58585Y180709D02*
X59895D01*
X58585Y180118D02*
X58785D01*
X58714Y180000D02*
Y181417D01*
X59304Y180571D02*
Y180846D01*
X107704Y106179D02*
G03X108629Y106905I-2534J4185D01*
G01X107704Y106179D02*
Y105430D01*
X108629Y106905D02*
G03X107704Y105430I2761J-2761D01*
G01X108629Y106905D02*
X108629D01*
X107915Y106314D02*
X108145D01*
X107704Y105724D02*
X107820D01*
X108039Y106147D02*
Y106401D01*
X120374Y108671D02*
G03X117096Y109469I-3278J-6338D01*
G01X120374Y108671D02*
Y110266D01*
X117096Y109469D02*
G03X120374Y110266I0J7135D01*
G01X119939Y110059D02*
X120374D01*
X117096Y109469D02*
X120374D01*
X119939Y108878D02*
X120374D01*
X117096Y109469D02*
X117096D01*
X117687Y109444D02*
Y109493D01*
X118277Y109370D02*
Y109567D01*
X118868Y109245D02*
Y109692D01*
X119459Y109066D02*
Y109871D01*
X120049Y108829D02*
Y110108D01*
X164665Y95266D02*
G03X167943Y94469I3278J6338D01*
G01X164665Y95266D02*
Y93671D01*
X167943Y94469D02*
G03X164665Y93671I-0J-7136D01*
G01Y95059D02*
X165101D01*
X164665Y94469D02*
X167943D01*
X164665Y93878D02*
X165101D01*
X164990Y93829D02*
Y95108D01*
X165581Y94066D02*
Y94871D01*
X166171Y94245D02*
Y94692D01*
X166762Y94370D02*
Y94567D01*
X167352Y94444D02*
Y94493D01*
X170950Y93408D02*
G03X169641Y94469I-1309J-278D01*
G01X170950Y93408D02*
Y95529D01*
X169641Y94469D02*
G03X170950Y95529I-0J1338D01*
G01X170750Y95059D02*
X170950D01*
X169641Y94469D02*
X170950D01*
X170750Y93878D02*
X170950D01*
X169641Y94469D02*
X169641D01*
X170231Y94331D02*
Y94606D01*
X170822Y93760D02*
Y95177D01*
X120374Y103671D02*
G03X117096Y104469I-3278J-6338D01*
G01X120374Y103671D02*
Y105266D01*
X117096Y104469D02*
G03X120374Y105266I0J7135D01*
G01X119939Y105059D02*
X120374D01*
X117096Y104469D02*
X120374D01*
X119939Y103878D02*
X120374D01*
X117096Y104469D02*
X117096D01*
X117687Y104444D02*
Y104493D01*
X118277Y104370D02*
Y104567D01*
X118868Y104245D02*
Y104692D01*
X119459Y104066D02*
Y104871D01*
X120049Y103829D02*
Y105108D01*
X113653Y105459D02*
G03X114962Y104469I1309J370D01*
G01X113653Y105459D02*
Y103478D01*
X114962Y104469D02*
G03X113653Y103478I0J-1361D01*
G01Y105059D02*
X113840D01*
X113653Y104469D02*
X114962D01*
X113653Y103878D02*
X113840D01*
X113781Y103783D02*
Y105154D01*
X114372Y104334D02*
Y104603D01*
X120374Y98671D02*
G03X117096Y99469I-3278J-6338D01*
G01X120374Y98671D02*
Y100266D01*
X117096Y99469D02*
G03X120374Y100266I0J7135D01*
G01X119939Y100059D02*
X120374D01*
X117096Y99469D02*
X120374D01*
X119939Y98878D02*
X120374D01*
X117096Y99469D02*
X117096D01*
X117687Y99444D02*
Y99493D01*
X118277Y99370D02*
Y99567D01*
X118868Y99245D02*
Y99692D01*
X119459Y99066D02*
Y99871D01*
X120049Y98829D02*
Y100108D01*
X113739Y100539D02*
G03X115048Y99469I1309J265D01*
G01X113739Y100539D02*
Y98398D01*
X115048Y99469D02*
G03X113739Y98398I0J-1336D01*
G01Y100059D02*
X113939D01*
X113739Y99469D02*
X115048D01*
X113739Y98878D02*
X113939D01*
X113867Y98757D02*
Y100180D01*
X114458Y99331D02*
Y99606D01*
X120374Y93671D02*
G03X117096Y94469I-3278J-6338D01*
G01X120374Y93671D02*
Y95266D01*
X117096Y94469D02*
G03X120374Y95266I0J7135D01*
G01X119939Y95059D02*
X120374D01*
X117096Y94469D02*
X120374D01*
X119939Y93878D02*
X120374D01*
X117096Y94469D02*
X117096D01*
X117687Y94444D02*
Y94493D01*
X118277Y94370D02*
Y94567D01*
X118868Y94245D02*
Y94692D01*
X119459Y94066D02*
Y94871D01*
X120049Y93829D02*
Y95108D01*
X113696Y95529D02*
G03X115005Y94469I1309J278D01*
G01X113696Y95529D02*
Y93408D01*
X115005Y94469D02*
G03X113696Y93408I0J-1339D01*
G01Y95059D02*
X113895D01*
X113696Y94469D02*
X115005D01*
X113696Y93878D02*
X113895D01*
X113824Y93760D02*
Y95177D01*
X114415Y94331D02*
Y94606D01*
X170821Y103398D02*
G03X169512Y104469I-1309J-265D01*
G01X170821Y103398D02*
Y105539D01*
X169512Y104469D02*
G03X170821Y105539I-0J1335D01*
G01X170620Y105059D02*
X170821D01*
X169512Y104469D02*
X170821D01*
X170620Y103878D02*
X170821D01*
X169512Y104469D02*
X169512D01*
X170102Y104331D02*
Y104606D01*
X170693Y103757D02*
Y105180D01*
X164665Y105266D02*
G03X167943Y104469I3278J6338D01*
G01X164665Y105266D02*
Y103671D01*
X167943Y104469D02*
G03X164665Y103671I-0J-7136D01*
G01Y105059D02*
X165101D01*
X164665Y104469D02*
X167943D01*
X164665Y103878D02*
X165101D01*
X164990Y103829D02*
Y105108D01*
X165581Y104066D02*
Y104871D01*
X166171Y104245D02*
Y104692D01*
X166762Y104370D02*
Y104567D01*
X167352Y104444D02*
Y104493D01*
X170950Y108408D02*
G03X169641Y109469I-1309J-278D01*
G01X170950Y108408D02*
Y110529D01*
X169641Y109469D02*
G03X170950Y110529I-0J1338D01*
G01X170750Y110059D02*
X170950D01*
X169641Y109469D02*
X170950D01*
X170750Y108878D02*
X170950D01*
X169641Y109469D02*
X169641D01*
X170231Y109331D02*
Y109606D01*
X170822Y108760D02*
Y110177D01*
X197446Y125077D02*
G03X198575Y126386I-195J1309D01*
G01X197446Y125077D02*
X199704D01*
X198575Y126386D02*
G03X199704Y125077I1323J0D01*
G01X198575Y126386D02*
X198575D01*
X198436Y125795D02*
X198714D01*
X197849Y125205D02*
X199301D01*
X197984Y125077D02*
Y125284D01*
X198575Y125077D02*
Y126386D01*
X199165Y125077D02*
Y125284D01*
X199704Y127285D02*
G03X198575Y125976I194J-1309D01*
G01X199704Y127285D02*
X197446D01*
X198575Y125976D02*
G03X197446Y127285I-1324J0D01*
G01X197849Y127157D02*
X199301D01*
X198436Y126567D02*
X198714D01*
X197984Y127078D02*
Y127285D01*
X198575Y125976D02*
Y127285D01*
X199165Y127078D02*
Y127285D01*
X263814Y134614D02*
G03X266531Y133465I2717J2634D01*
G01X263814Y134614D02*
Y132315D01*
X266531Y133465D02*
G03X263814Y132315I-0J-3784D01*
G01Y134055D02*
X264501D01*
X263814Y133465D02*
X266531D01*
X263814Y132874D02*
X264501D01*
X264168Y132637D02*
Y134292D01*
X264759Y133024D02*
Y133905D01*
X265349Y133276D02*
Y133654D01*
X265940Y133418D02*
Y133511D01*
X277173Y134328D02*
G03X275835Y133465I1331J-3533D01*
G01X277173Y134328D02*
X276498D01*
X275835Y133465D02*
G03X276498Y134328I-2964J2963D01*
G01X276326Y134055D02*
X276600D01*
X275835Y133465D02*
X275835D01*
X276425Y133946D02*
Y134207D01*
X277016Y134265D02*
Y134328D01*
X268602Y129425D02*
G03X270717Y128346I2115J1533D01*
G01X268602Y129425D02*
Y127268D01*
X270717Y128346D02*
G03X268602Y127268I-0J-2611D01*
G01Y128937D02*
X269062D01*
X268602Y128346D02*
X270717D01*
X268602Y127756D02*
X269062D01*
X268945Y127654D02*
Y129039D01*
X269535Y128064D02*
Y128629D01*
X270126Y128279D02*
Y128414D01*
X272055Y129210D02*
G03X270717Y128346I1331J-3533D01*
G01X272055Y129210D02*
X271380D01*
X270717Y128346D02*
G03X271380Y129210I-2964J2964D01*
G01X271208Y128937D02*
X271482D01*
X270717Y128346D02*
X270717D01*
X271307Y128828D02*
Y129089D01*
X271898Y129146D02*
Y129210D01*
X273614Y137719D02*
G03X274953Y138583I-1331J3533D01*
G01X273614Y137719D02*
X274289D01*
X274953Y138583D02*
G03X274289Y137719I2964J-2964D01*
G01X274953Y138583D02*
X274953D01*
X274187Y137992D02*
X274462D01*
X273772Y137719D02*
Y137783D01*
X274362Y137840D02*
Y138101D01*
X282753Y137522D02*
G03X281444Y138583I-1309J-278D01*
G01X282753Y137522D02*
Y139643D01*
X281444Y138583D02*
G03X282753Y139643I-0J1338D01*
G01X282554Y139173D02*
X282753D01*
X281444Y138583D02*
X282753D01*
X282554Y137992D02*
X282753D01*
X281444Y138583D02*
X281444D01*
X282034Y138445D02*
Y138720D01*
X282625Y137874D02*
Y139292D01*
X271380Y137719D02*
G03X270717Y138583I-3627J-2100D01*
G01X271380Y137719D02*
X272055D01*
X270717Y138583D02*
G03X272055Y137719I2669J2669D01*
G01X270717Y138583D02*
X270717D01*
X271208Y137992D02*
X271482D01*
X270717Y138583D02*
X270717D01*
X271307Y137840D02*
Y138101D01*
X271898Y137719D02*
Y137783D01*
X257909Y139732D02*
G03X260625Y138583I2716J2635D01*
G01X257909Y139732D02*
Y137433D01*
X260625Y138583D02*
G03X257909Y137433I0J-3784D01*
G01Y139173D02*
X258595D01*
X257909Y138583D02*
X260625D01*
X257909Y137992D02*
X258595D01*
X258263Y137755D02*
Y139411D01*
X258853Y138142D02*
Y139023D01*
X259444Y138394D02*
Y138772D01*
X260034Y138536D02*
Y138629D01*
X278732Y142837D02*
G03X280071Y143701I-1331J3533D01*
G01X278732Y142837D02*
X279407D01*
X280071Y143701D02*
G03X279407Y142837I2964J-2964D01*
G01X280071Y143701D02*
X280071D01*
X279305Y143110D02*
X279580D01*
X278890Y142837D02*
Y142901D01*
X279480Y142958D02*
Y143219D01*
X282753Y142640D02*
G03X281444Y143701I-1309J-278D01*
G01X282753Y142640D02*
Y144761D01*
X281444Y143701D02*
G03X282753Y144761I-0J1338D01*
G01X282554Y144291D02*
X282753D01*
X281444Y143701D02*
X282753D01*
X282554Y143110D02*
X282753D01*
X281444Y143701D02*
X281444D01*
X282034Y143563D02*
Y143838D01*
X282625Y142992D02*
Y144410D01*
X276498Y142837D02*
G03X275835Y143701I-3627J-2100D01*
G01X276498Y142837D02*
X277173D01*
X275835Y143701D02*
G03X277173Y142837I2669J2669D01*
G01X275835Y143701D02*
X275835D01*
X276326Y143110D02*
X276600D01*
X275835Y143701D02*
X275835D01*
X276425Y142958D02*
Y143219D01*
X277016Y142837D02*
Y142901D01*
X252791Y144850D02*
G03X255507Y143701I2716J2635D01*
G01X252791Y144850D02*
Y142551D01*
X255507Y143701D02*
G03X252791Y142551I-0J-3784D01*
G01Y144291D02*
X253477D01*
X252791Y143701D02*
X255507D01*
X252791Y143110D02*
X253477D01*
X253145Y142873D02*
Y144529D01*
X253735Y143260D02*
Y144141D01*
X254326Y143512D02*
Y143890D01*
X254916Y143654D02*
Y143747D01*
X273669Y124507D02*
G03X276402Y125615I58J3784D01*
G01X273669Y124507D02*
X275295Y122882D01*
X276402Y125615D02*
G03X275295Y122882I2676J-2676D01*
G01X276402Y125615D02*
X276402D01*
X275637Y125024D02*
X275920D01*
X273742Y124434D02*
X275602D01*
X274333Y123843D02*
X275404D01*
X274923Y123253D02*
X275307D01*
X274040Y124136D02*
Y124520D01*
X274631Y123545D02*
Y124616D01*
X275221Y122955D02*
Y124814D01*
X275812Y124850D02*
Y125133D01*
X200595Y101455D02*
G03X201724Y102764I-194J1309D01*
G01X200595Y101455D02*
X202854D01*
X201724Y102764D02*
G03X202854Y101455I1324J-0D01*
G01X201724Y102764D02*
X201724D01*
X201585Y102173D02*
X201863D01*
X200998Y101583D02*
X202451D01*
X201134Y101455D02*
Y101662D01*
X201724Y101455D02*
Y102764D01*
X202315Y101455D02*
Y101662D01*
X205194Y105394D02*
G03X202253Y103828I1096J-5603D01*
G01X205194Y105394D02*
X203642D01*
X202253Y103828D02*
G03X203642Y105394I-12364J12363D01*
G01X203331Y105009D02*
X203974D01*
X202817Y104418D02*
X202946D01*
X202253Y103828D02*
X202253D01*
X202844Y104342D02*
Y104448D01*
X203434Y104734D02*
Y105134D01*
X204025Y105031D02*
Y105394D01*
X204615Y105249D02*
Y105394D01*
X273793Y97949D02*
G03X272867Y99425I-3687J-1285D01*
G01X273793Y97949D02*
Y98699D01*
X272867Y99425D02*
G03X273793Y98699I3459J3459D01*
G01X272867Y99425D02*
X272867D01*
X273352Y98834D02*
X273582D01*
X273676Y98243D02*
X273793D01*
X272867Y99425D02*
X272867D01*
X273457Y98667D02*
Y98921D01*
X261122Y103785D02*
G03X262795Y101575I8830J4947D01*
G01X261122Y103785D02*
Y103051D01*
X262795Y101575D02*
G03X261122Y103051I-12647J-12647D01*
G01Y103346D02*
X261382D01*
X261492Y102756D02*
X261783D01*
X262176Y102165D02*
X262250D01*
X261614Y102655D02*
Y102994D01*
X262205Y102139D02*
Y102219D01*
X200187Y119016D02*
G03X201575Y120622I-236J1606D01*
G01X200187Y119016D02*
X202963D01*
X201575Y120622D02*
G03X202963Y119016I1623J0D01*
G01X201575Y120622D02*
X201575D01*
X201464Y120031D02*
X201686D01*
X201065Y119441D02*
X202084D01*
X200394Y119016D02*
Y119060D01*
X200984Y119016D02*
Y119370D01*
X201575Y119016D02*
Y120622D01*
X202165Y119016D02*
Y119370D01*
X202756Y119016D02*
Y119060D01*
X203320Y122167D02*
G03X202394Y121442I2534J-4185D01*
G01X203320Y122167D02*
Y122917D01*
X202394Y121442D02*
G03X203320Y122917I-2760J2760D01*
G01X203204Y122623D02*
X203320D01*
X202879Y122032D02*
X203109D01*
X202394Y121442D02*
X202394D01*
X202985Y121945D02*
Y122199D01*
X219085Y119016D02*
G03X220472Y120622I-236J1606D01*
G01X219085Y119016D02*
X221860D01*
X220472Y120622D02*
G03X221860Y119016I1624J0D01*
G01X220472Y120622D02*
X220472D01*
X220361Y120031D02*
X220584D01*
X219963Y119441D02*
X220982D01*
X219291Y119016D02*
Y119060D01*
X219882Y119016D02*
Y119370D01*
X220472Y119016D02*
Y120622D01*
X221063Y119016D02*
Y119370D01*
X221654Y119016D02*
Y119060D01*
X218727Y122917D02*
G03X219653Y121442I3686J1285D01*
G01X218727Y122917D02*
Y122167D01*
X219653Y121442D02*
G03X218727Y122167I-3460J-3460D01*
G01Y122623D02*
X218843D01*
X218938Y122032D02*
X219168D01*
X219062Y121945D02*
Y122199D01*
X222539Y109225D02*
G03X220973Y111704I-6275J-2230D01*
G01X222539Y109225D02*
Y110315D01*
X220973Y111704D02*
G03X222539Y110315I12364J12363D01*
G01X220973Y111704D02*
X220973D01*
X221498Y111113D02*
X221594D01*
X221913Y110523D02*
X222280D01*
X222241Y109932D02*
X222539D01*
X222497Y109342D02*
X222539D01*
X220973Y111704D02*
X220973D01*
X221564Y111028D02*
Y111140D01*
X222155Y110102D02*
Y110626D01*
X203248Y118349D02*
G03X205463Y116555I2215J470D01*
G01X203248Y118349D02*
Y114761D01*
X205463Y116555D02*
G03X203248Y114761I-0J-2264D01*
G01Y118327D02*
X203253D01*
X203248Y117736D02*
X203474D01*
X203248Y117146D02*
X203938D01*
X203248Y116555D02*
X205463D01*
X203248Y115965D02*
X203938D01*
X203248Y115374D02*
X203474D01*
X203248Y114783D02*
X203253D01*
X203691Y115701D02*
Y117410D01*
X204281Y116223D02*
Y116888D01*
X204872Y116477D02*
Y116633D01*
X224281Y110315D02*
G03X227235Y111881I-1072J5592D01*
G01X224281Y110315D02*
X225886D01*
X227235Y111881D02*
G03X225886Y110315I9867J-9867D01*
G01X227235Y111881D02*
X227235D01*
X226542Y111290D02*
X226678D01*
X225512Y110700D02*
X226181D01*
X224282Y110315D02*
X224282D01*
X224873D02*
Y110462D01*
X225464Y110315D02*
Y110679D01*
X226054Y110538D02*
Y110975D01*
X226645Y111253D02*
Y111367D01*
X231071Y121619D02*
G03X229921Y118903I2634J-2716D01*
G01X231071Y121619D02*
X228772D01*
X229921Y118903D02*
G03X228772Y121619I-3784J-0D01*
G01X229093Y121265D02*
X230749D01*
X229481Y120674D02*
X230362D01*
X229732Y120084D02*
X230110D01*
X229875Y119493D02*
X229968D01*
X229331Y120932D02*
Y121619D01*
X229921Y118903D02*
Y121619D01*
X230512Y120932D02*
Y121619D01*
X222343Y125077D02*
G03X223472Y126386I-194J1309D01*
G01X222343Y125077D02*
X224602D01*
X223472Y126386D02*
G03X224602Y125077I1324J0D01*
G01X223472Y126386D02*
X223472D01*
X223333Y125795D02*
X223611D01*
X222746Y125205D02*
X224199D01*
X222882Y125077D02*
Y125284D01*
X223472Y125077D02*
Y126386D01*
X224063Y125077D02*
Y125284D01*
X224602Y127285D02*
G03X223472Y125976I194J-1309D01*
G01X224602Y127285D02*
X222343D01*
X223472Y125976D02*
G03X222343Y127285I-1323J0D01*
G01X222746Y127157D02*
X224199D01*
X223333Y126567D02*
X223611D01*
X222882Y127078D02*
Y127285D01*
X223472Y125976D02*
Y127285D01*
X224063Y127078D02*
Y127285D01*
X227068Y143748D02*
G03X225960Y146481I-3784J58D01*
G01X227068Y143748D02*
X228693Y145373D01*
X225960Y146481D02*
G03X228693Y145373I2675J2676D01*
G01X225960Y146481D02*
X225960D01*
X226442Y145891D02*
X226725D01*
X226760Y145300D02*
X228620D01*
X226958Y144710D02*
X228029D01*
X227055Y144119D02*
X227439D01*
X225960Y146481D02*
X225960D01*
X226550Y145716D02*
Y145999D01*
X227141Y143821D02*
Y145681D01*
X227731Y144411D02*
Y145482D01*
X228322Y145002D02*
Y145386D01*
X83640Y164724D02*
G03X83366Y163386I3130J-1338D01*
G01X83640Y164724D02*
X83092D01*
X83366Y163386D02*
G03X83092Y164724I-3404J-0D01*
G01X83155Y164567D02*
X83578D01*
X83315Y163976D02*
X83418D01*
X83366Y163386D02*
Y164724D01*
X228249Y128393D02*
G03X227141Y131127I-3784J58D01*
G01X228249Y128393D02*
X229874Y130019D01*
X227141Y131127D02*
G03X229874Y130019I2675J2675D01*
G01X227141Y131127D02*
X227141D01*
X227623Y130536D02*
X227906D01*
X227941Y129946D02*
X229801D01*
X228140Y129355D02*
X229211D01*
X228236Y128765D02*
X228620D01*
X227141Y131127D02*
X227141D01*
X227731Y130362D02*
Y130645D01*
X228322Y128467D02*
Y130326D01*
X228913Y129057D02*
Y130128D01*
X229503Y129648D02*
Y130032D01*
X75963Y164724D02*
G03X75689Y162992I5334J-1732D01*
G01X75963Y164724D02*
X75415D01*
X75689Y162992D02*
G03X75415Y164724I-5608J0D01*
G01X75563Y164173D02*
X75815D01*
X75658Y163583D02*
X75720D01*
X75689Y162992D02*
Y164724D01*
X282753Y132404D02*
G03X281444Y133465I-1309J-278D01*
G01X282753Y132404D02*
Y134525D01*
X281444Y133465D02*
G03X282753Y134525I-0J1338D01*
G01X282554Y134055D02*
X282753D01*
X281444Y133465D02*
X282753D01*
X282554Y132874D02*
X282753D01*
X281444Y133465D02*
X281444D01*
X282034Y133327D02*
Y133602D01*
X282625Y132756D02*
Y134173D01*
X279407Y134328D02*
G03X280071Y133465I3628J2100D01*
G01X279407Y134328D02*
X278732D01*
X280071Y133465D02*
G03X278732Y134328I-2670J-2670D01*
G01X279305Y134055D02*
X279580D01*
X278890Y134265D02*
Y134328D01*
X279480Y133946D02*
Y134207D01*
X282753Y127286D02*
G03X281444Y128346I-1309J-278D01*
G01X282753Y127286D02*
Y129407D01*
X281444Y128346D02*
G03X282753Y129407I-0J1339D01*
G01X282554Y128937D02*
X282753D01*
X281444Y128346D02*
X282753D01*
X282554Y127756D02*
X282753D01*
X281444Y128346D02*
X281444D01*
X282034Y128209D02*
Y128484D01*
X282625Y127638D02*
Y129055D01*
X274289Y129210D02*
G03X274953Y128346I3628J2100D01*
G01X274289Y129210D02*
X273614D01*
X274953Y128346D02*
G03X273614Y129210I-2670J-2669D01*
G01X274187Y128937D02*
X274462D01*
X273772Y129146D02*
Y129210D01*
X274362Y128828D02*
Y129089D01*
X347326Y148202D02*
G03X345851Y147276I1286J-3686D01*
G01X347326Y148202D02*
X346577D01*
X345851Y147276D02*
G03X346577Y148202I-3460J3460D01*
G01X346354Y147867D02*
X346609D01*
X345851Y147276D02*
X345851D01*
X346442Y147761D02*
Y147991D01*
X347032Y148086D02*
Y148202D01*
X348737Y144711D02*
G03X350212Y145637I-1286J3687D01*
G01X348737Y144711D02*
X349486D01*
X350212Y145637D02*
G03X349486Y144711I3460J-3459D01*
G01X350212Y145637D02*
X350212D01*
X349454Y145047D02*
X349708D01*
X349031Y144711D02*
Y144828D01*
X349621Y144922D02*
Y145152D01*
X332404Y150711D02*
G03X333465Y152021I-278J1310D01*
G01X332404Y150711D02*
X334525D01*
X333465Y152021D02*
G03X334525Y150711I1338J-0D01*
G01X333465Y152021D02*
X333465D01*
X333327Y151430D02*
X333602D01*
X332756Y150840D02*
X334173D01*
X332874Y150711D02*
Y150911D01*
X333465Y150711D02*
Y152021D01*
X334055Y150711D02*
Y150911D01*
X326892Y150711D02*
G03X327953Y152021I-278J1310D01*
G01X326892Y150711D02*
X329013D01*
X327953Y152021D02*
G03X329013Y150711I1338J-0D01*
G01X327953Y152021D02*
X327953D01*
X327815Y151430D02*
X328090D01*
X327244Y150840D02*
X328662D01*
X327362Y150711D02*
Y150911D01*
X327953Y150711D02*
Y152021D01*
X328543Y150711D02*
Y150911D01*
X239893Y429724D02*
G03X238296Y428978I228J-2571D01*
G01X239893Y429724D02*
X238821Y430011D01*
X238296Y428978D02*
G03X238821Y430011I-1322J1322D01*
G01X238694Y429568D02*
X239212D01*
X238296Y428978D02*
X238296D01*
X238886Y429419D02*
Y429993D01*
X239477Y429652D02*
Y429835D01*
X282753Y111538D02*
G03X281444Y112598I-1309J-278D01*
G01X282753Y111538D02*
Y113659D01*
X281444Y112598D02*
G03X282753Y113659I-0J1339D01*
G01X282554Y113189D02*
X282753D01*
X281444Y112598D02*
X282753D01*
X282554Y112008D02*
X282753D01*
X281444Y112598D02*
X281444D01*
X282034Y112461D02*
Y112736D01*
X282625Y111890D02*
Y113307D01*
X146295Y425271D02*
G03X145669Y423794I1431J-1477D01*
G01X146295Y425271D02*
X145479Y425053D01*
X145669Y423794D02*
G03X145479Y425053I-4263J0D01*
G01X145502Y424975D02*
X146042D01*
X145628Y424385D02*
X145756D01*
X145669Y423794D02*
Y425104D01*
X146260Y425237D02*
Y425262D01*
X282753Y106420D02*
G03X281444Y107480I-1309J-278D01*
G01X282753Y106420D02*
Y108541D01*
X281444Y107480D02*
G03X282753Y108541I-0J1339D01*
G01X282554Y108071D02*
X282753D01*
X281444Y107480D02*
X282753D01*
X282554Y106890D02*
X282753D01*
X281444Y107480D02*
X281444D01*
X282034Y107343D02*
Y107618D01*
X282625Y106771D02*
Y108189D01*
X84739Y390822D02*
G03X84234Y389125I2597J-1697D01*
G01X84739Y390822D02*
X84124Y390350D01*
X84234Y389125D02*
G03X84124Y390350I-6884J0D01*
G01X84132Y390306D02*
X84468D01*
X84209Y389716D02*
X84291D01*
X84234Y389125D02*
Y390435D01*
X282753Y101385D02*
G03X281496Y102362I-1257J-320D01*
G01X282753Y101385D02*
Y103340D01*
X281496Y102362D02*
G03X282753Y103340I0J1297D01*
G01X282584Y102953D02*
X282753D01*
X281496Y102362D02*
X282753D01*
X282584Y101772D02*
X282753D01*
X281496Y102362D02*
X281496D01*
X282087Y102220D02*
Y102504D01*
X282677Y101601D02*
Y103123D01*
X40823Y334982D02*
G03X40232Y334014I497J-968D01*
G01X40823Y334982D02*
X39641Y335664D01*
X40232Y334014D02*
G03X39641Y335664I-2600J-0D01*
G01X39949Y335195D02*
X40454D01*
X40164Y334604D02*
X40407D01*
X39642Y335664D02*
X39642D01*
X40232Y334014D02*
Y335323D01*
X40823Y334982D02*
X40823D01*
X291263Y103423D02*
G03X292572Y102362I1309J278D01*
G01X291263Y103423D02*
Y101302D01*
X292572Y102362D02*
G03X291263Y101302I-0J-1338D01*
G01Y102953D02*
X291462D01*
X291263Y102362D02*
X292572D01*
X291263Y101772D02*
X291462D01*
X291391Y101653D02*
Y103071D01*
X291981Y102225D02*
Y102500D01*
X297638Y103622D02*
G03X295157Y104331I-2481J-3986D01*
G01X297638Y103622D02*
Y105039D01*
X295157Y104331D02*
G03X297638Y105039I0J4695D01*
G01X297437Y104921D02*
X297638D01*
X295157Y104331D02*
X297638D01*
X297437Y103740D02*
X297638D01*
X295157Y104331D02*
X295157D01*
X295748Y104293D02*
Y104368D01*
X296339Y104180D02*
Y104482D01*
X296929Y103984D02*
Y104678D01*
X297520Y103693D02*
Y104968D01*
X282753Y97949D02*
G03X281827Y99425I-3686J-1285D01*
G01X282753Y97949D02*
Y98699D01*
X281827Y99425D02*
G03X282753Y98699I3460J3459D01*
G01X281827Y99425D02*
X281827D01*
X282312Y98834D02*
X282542D01*
X282637Y98243D02*
X282753D01*
X281827Y99425D02*
X281827D01*
X282418Y98667D02*
Y98921D01*
X21533Y243777D02*
G03X22259Y242851I4186J2534D01*
G01X21533Y243777D02*
X20784D01*
X22259Y242851D02*
G03X20784Y243777I-2760J-2761D01*
G01X21502Y243442D02*
X21756D01*
X21078Y243661D02*
Y243777D01*
X21669Y243336D02*
Y243566D01*
X291263Y98305D02*
G03X292572Y97244I1309J278D01*
G01X291263Y98305D02*
Y96184D01*
X292572Y97244D02*
G03X291263Y96184I-0J-1338D01*
G01Y97835D02*
X291462D01*
X291263Y97244D02*
X292572D01*
X291263Y96654D02*
X291462D01*
X291391Y96535D02*
Y97953D01*
X291981Y97107D02*
Y97381D01*
X297638Y100472D02*
G03X295669Y101181I-1969J-2379D01*
G01X297638Y100472D02*
Y101890D01*
X295669Y101181D02*
G03X297638Y101890I0J3088D01*
G01X297486Y101772D02*
X297638D01*
X295669Y101181D02*
X297638D01*
X297486Y100591D02*
X297638D01*
X295669Y101181D02*
X295669D01*
X296260Y101124D02*
Y101238D01*
X296850Y100946D02*
Y101416D01*
X297441Y100622D02*
Y101740D01*
X318625Y150711D02*
G03X319685Y152021I-278J1310D01*
G01X318625Y150711D02*
X320746D01*
X319685Y152021D02*
G03X320746Y150711I1338J-0D01*
G01X319685Y152021D02*
X319685D01*
X319548Y151430D02*
X319822D01*
X318976Y150840D02*
X320394D01*
X319094Y150711D02*
Y150911D01*
X319685Y150711D02*
Y152021D01*
X320276Y150711D02*
Y150911D01*
X320732Y153270D02*
G03X319685Y151960I295J-1310D01*
G01X320732Y153270D02*
X318638D01*
X319685Y151960D02*
G03X318638Y153270I-1342J0D01*
G01X318980Y153142D02*
X320390D01*
X319548Y152551D02*
X319822D01*
X319094Y153072D02*
Y153270D01*
X319685Y151960D02*
Y153270D01*
X320276Y153072D02*
Y153270D01*
X320790Y160903D02*
G03X322099Y159843I1309J278D01*
G01X320790Y160903D02*
Y158782D01*
X322099Y159843D02*
G03X320790Y158782I0J-1339D01*
G01Y160433D02*
X320989D01*
X320790Y159843D02*
X322099D01*
X320790Y159252D02*
X320989D01*
X320918Y159134D02*
Y160551D01*
X321509Y159705D02*
Y159980D01*
X322800Y158693D02*
G03X320084Y159843I-2716J-2634D01*
G01X322800Y158693D02*
Y160992D01*
X320084Y159843D02*
G03X322800Y160992I-0J3783D01*
G01X322114Y160433D02*
X322800D01*
X320084Y159843D02*
X322800D01*
X322114Y159252D02*
X322800D01*
X320084Y159843D02*
X320084D01*
X320674Y159796D02*
Y159889D01*
X321265Y159653D02*
Y160032D01*
X321855Y159402D02*
Y160283D01*
X322446Y159015D02*
Y160670D01*
X341024Y135827D02*
G03X341732Y138307I-3987J2480D01*
G01X341024Y135827D02*
X342441D01*
X341732Y138307D02*
G03X342441Y135827I4695J0D01*
G01X341732Y138307D02*
X341732D01*
X341695Y137717D02*
X341770D01*
X341581Y137126D02*
X341883D01*
X341385Y136535D02*
X342079D01*
X341095Y135945D02*
X342370D01*
X341142Y135827D02*
Y136028D01*
X341732Y135827D02*
Y138307D01*
X342323Y135827D02*
Y136028D01*
X342793Y142202D02*
G03X341732Y140893I278J-1309D01*
G01X342793Y142202D02*
X340672D01*
X341732Y140893D02*
G03X340672Y142202I-1338J-0D01*
G01X341023Y142074D02*
X342441D01*
X341595Y141483D02*
X341870D01*
X341142Y142003D02*
Y142202D01*
X341732Y140893D02*
Y142202D01*
X342323Y142003D02*
Y142202D01*
X331575Y135827D02*
G03X332283Y137795I-2380J1968D01*
G01X331575Y135827D02*
X332992D01*
X332283Y137795D02*
G03X332992Y135827I3089J0D01*
G01X332283Y137795D02*
X332283D01*
X332226Y137205D02*
X332340D01*
X332049Y136614D02*
X332518D01*
X331725Y136024D02*
X332842D01*
X331693Y135827D02*
Y135979D01*
X332283Y135827D02*
Y137795D01*
X332874Y135827D02*
Y135979D01*
X334525Y142202D02*
G03X333465Y140893I278J-1309D01*
G01X334525Y142202D02*
X332404D01*
X333465Y140893D02*
G03X332404Y142202I-1339J-0D01*
G01X332756Y142074D02*
X334173D01*
X333327Y141483D02*
X333602D01*
X332874Y142003D02*
Y142202D01*
X333465Y140893D02*
Y142202D01*
X334055Y142003D02*
Y142202D01*
X328425Y135827D02*
G03X329134Y137795I-2380J1968D01*
G01X328425Y135827D02*
X329843D01*
X329134Y137795D02*
G03X329843Y135827I3088J0D01*
G01X329134Y137795D02*
X329134D01*
X329077Y137205D02*
X329191D01*
X328899Y136614D02*
X329369D01*
X328575Y136024D02*
X329693D01*
X328543Y135827D02*
Y135979D01*
X329134Y135827D02*
Y137795D01*
X329724Y135827D02*
Y135979D01*
X329013Y142202D02*
G03X327953Y140893I278J-1309D01*
G01X329013Y142202D02*
X326892D01*
X327953Y140893D02*
G03X326892Y142202I-1339J-0D01*
G01X327244Y142074D02*
X328662D01*
X327815Y141483D02*
X328090D01*
X327362Y142003D02*
Y142202D01*
X327953Y140893D02*
Y142202D01*
X328543Y142003D02*
Y142202D01*
X318976Y135827D02*
G03X319685Y138307I-3986J2480D01*
G01X318976Y135827D02*
X320394D01*
X319685Y138307D02*
G03X320394Y135827I4695J0D01*
G01X319685Y138307D02*
X319685D01*
X319648Y137717D02*
X319722D01*
X319534Y137126D02*
X319836D01*
X319338Y136535D02*
X320032D01*
X319047Y135945D02*
X320323D01*
X319094Y135827D02*
Y136028D01*
X319685Y135827D02*
Y138307D01*
X320276Y135827D02*
Y136028D01*
X320746Y142202D02*
G03X319685Y140893I277J-1309D01*
G01X320746Y142202D02*
X318625D01*
X319685Y140893D02*
G03X318625Y142202I-1338J-0D01*
G01X318976Y142074D02*
X320394D01*
X319548Y141483D02*
X319822D01*
X319094Y142003D02*
Y142202D01*
X319685Y140893D02*
Y142202D01*
X320276Y142003D02*
Y142202D01*
X306378Y135827D02*
G03X307087Y138189I-3583J2362D01*
G01X306378Y135827D02*
X307795D01*
X307087Y138189D02*
G03X307795Y135827I4291J-0D01*
G01X307087Y138189D02*
X307087D01*
X307046Y137598D02*
X307127D01*
X306921Y137008D02*
X307252D01*
X306704Y136417D02*
X307469D01*
X306496Y135827D02*
Y136016D01*
X307087Y135827D02*
Y138189D01*
X307677Y135827D02*
Y136016D01*
X291263Y144761D02*
G03X292572Y143701I1309J278D01*
G01X291263Y144761D02*
Y142640D01*
X292572Y143701D02*
G03X291263Y142640I-0J-1339D01*
G01Y144291D02*
X291462D01*
X291263Y143701D02*
X292572D01*
X291263Y143110D02*
X291462D01*
X291391Y142992D02*
Y144410D01*
X291981Y143563D02*
Y143838D01*
X297638Y125669D02*
G03X295276Y126378I-2362J-3582D01*
G01X297638Y125669D02*
Y127087D01*
X295276Y126378D02*
G03X297638Y127087I-0J4291D01*
G01X297448Y126969D02*
X297638D01*
X295276Y126378D02*
X297638D01*
X297448Y125787D02*
X297638D01*
X295276Y126378D02*
X295276D01*
X295866Y126337D02*
Y126419D01*
X296457Y126212D02*
Y126544D01*
X297047Y125995D02*
Y126761D01*
X291263Y129407D02*
G03X292572Y128346I1309J278D01*
G01X291263Y129407D02*
Y127286D01*
X292572Y128346D02*
G03X291263Y127286I-0J-1338D01*
G01Y128937D02*
X291462D01*
X291263Y128346D02*
X292572D01*
X291263Y127756D02*
X291462D01*
X291391Y127638D02*
Y129055D01*
X291981Y128209D02*
Y128484D01*
X297638Y122520D02*
G03X295157Y123228I-2481J-3987D01*
G01X297638Y122520D02*
Y123937D01*
X295157Y123228D02*
G03X297638Y123937I0J4695D01*
G01X297437Y123819D02*
X297638D01*
X295157Y123228D02*
X297638D01*
X297437Y122638D02*
X297638D01*
X295157Y123228D02*
X295157D01*
X295748Y123191D02*
Y123266D01*
X296339Y123077D02*
Y123379D01*
X296929Y122881D02*
Y123575D01*
X297520Y122591D02*
Y123866D01*
X297638Y109921D02*
G03X295276Y110630I-2362J-3582D01*
G01X297638Y109921D02*
Y111339D01*
X295276Y110630D02*
G03X297638Y111339I-0J4291D01*
G01X297448Y111220D02*
X297638D01*
X295276Y110630D02*
X297638D01*
X297448Y110039D02*
X297638D01*
X295276Y110630D02*
X295276D01*
X295866Y110589D02*
Y110671D01*
X296457Y110464D02*
Y110796D01*
X297047Y110247D02*
Y111013D01*
X291263Y113659D02*
G03X292572Y112598I1309J278D01*
G01X291263Y113659D02*
Y111538D01*
X292572Y112598D02*
G03X291263Y111538I-0J-1338D01*
G01Y113189D02*
X291462D01*
X291263Y112598D02*
X292572D01*
X291263Y112008D02*
X291462D01*
X291391Y111890D02*
Y113307D01*
X291981Y112461D02*
Y112736D01*
X297638Y106772D02*
G03X295157Y107480I-2481J-3987D01*
G01X297638Y106772D02*
Y108189D01*
X295157Y107480D02*
G03X297638Y108189I0J4695D01*
G01X297437Y108071D02*
X297638D01*
X295157Y107480D02*
X297638D01*
X297437Y106890D02*
X297638D01*
X295157Y107480D02*
X295157D01*
X295748Y107443D02*
Y107518D01*
X296339Y107329D02*
Y107631D01*
X296929Y107133D02*
Y107827D01*
X297520Y106843D02*
Y108118D01*
X291263Y108541D02*
G03X292572Y107480I1309J278D01*
G01X291263Y108541D02*
Y106420D01*
X292572Y107480D02*
G03X291263Y106420I-0J-1338D01*
G01Y108071D02*
X291462D01*
X291263Y107480D02*
X292572D01*
X291263Y106890D02*
X291462D01*
X291391Y106771D02*
Y108189D01*
X291981Y107343D02*
Y107618D01*
X303150Y98740D02*
G03X305630Y98031I2480J3986D01*
G01X303150Y98740D02*
Y97323D01*
X305630Y98031D02*
G03X303150Y97323I-0J-4694D01*
G01Y98622D02*
X303350D01*
X303150Y98031D02*
X305630D01*
X303150Y97441D02*
X303350D01*
X303268Y97394D02*
Y98669D01*
X303858Y97684D02*
Y98379D01*
X304449Y97881D02*
Y98182D01*
X305039Y97994D02*
Y98069D01*
X305871Y96882D02*
G03X303155Y98031I-2716J-2634D01*
G01X305871Y96882D02*
Y99181D01*
X303155Y98032D02*
G03X305871Y99181I-0J3783D01*
G01X305184Y98622D02*
X305871D01*
X303155Y98031D02*
X305871D01*
X305184Y97441D02*
X305871D01*
X303155Y98031D02*
X303155D01*
X303745Y97985D02*
Y98078D01*
X304336Y97842D02*
Y98221D01*
X304926Y97591D02*
Y98472D01*
X305517Y97204D02*
Y98859D01*
X378664Y110509D02*
G03X379973Y109449I1309J278D01*
G01X378664Y110509D02*
Y108388D01*
X379973Y109449D02*
G03X378664Y108388I0J-1339D01*
G01Y110039D02*
X378863D01*
X378664Y109449D02*
X379973D01*
X378664Y108858D02*
X378863D01*
X378792Y108740D02*
Y110158D01*
X379383Y109311D02*
Y109586D01*
X370155Y108388D02*
G03X368845Y109449I-1310J-278D01*
G01X370155Y108388D02*
Y110509D01*
X368845Y109449D02*
G03X370155Y110509I0J1338D01*
G01X369955Y110039D02*
X370155D01*
X368845Y109449D02*
X370155D01*
X369955Y108858D02*
X370155D01*
X368845Y109449D02*
X368845D01*
X369436Y109311D02*
Y109586D01*
X370027Y108740D02*
Y110158D01*
X363780Y111339D02*
G03X365748Y110630I1968J2379D01*
G01X363780Y111339D02*
Y109921D01*
X365748Y110630D02*
G03X363780Y109921I0J-3088D01*
G01Y111220D02*
X363932D01*
X363780Y110630D02*
X365748D01*
X363780Y110039D02*
X363932D01*
X363976Y110071D02*
Y111189D01*
X364567Y110395D02*
Y110865D01*
X365157Y110573D02*
Y110687D01*
X376280Y116415D02*
G03X377409Y117725I-194J1310D01*
G01X376280Y116415D02*
X378539D01*
X377409Y117725D02*
G03X378539Y116415I1324J-0D01*
G01X377409Y117725D02*
X377409D01*
X377270Y117134D02*
X377548D01*
X376683Y116544D02*
X378136D01*
X376819Y116415D02*
Y116623D01*
X377409Y116415D02*
Y117725D01*
X378000Y116415D02*
Y116623D01*
X358268Y94173D02*
G03X355787Y94882I-2481J-3986D01*
G01X358268Y94173D02*
Y95591D01*
X355787Y94882D02*
G03X358268Y95591I0J4695D01*
G01X358067Y95472D02*
X358268D01*
X355787Y94882D02*
X358268D01*
X358067Y94291D02*
X358268D01*
X355787Y94882D02*
X355787D01*
X356378Y94845D02*
Y94919D01*
X356969Y94731D02*
Y95033D01*
X357559Y94535D02*
Y95229D01*
X358150Y94244D02*
Y95519D01*
X291263Y134525D02*
G03X292572Y133465I1309J278D01*
G01X291263Y134525D02*
Y132404D01*
X292572Y133465D02*
G03X291263Y132404I-0J-1339D01*
G01Y134055D02*
X291462D01*
X291263Y133465D02*
X292572D01*
X291263Y132874D02*
X291462D01*
X291391Y132756D02*
Y134173D01*
X291981Y133327D02*
Y133602D01*
X358268Y97323D02*
G03X355787Y98031I-2481J-3986D01*
G01X358268Y97323D02*
Y98740D01*
X355787Y98031D02*
G03X358268Y98740I0J4695D01*
G01X358067Y98622D02*
X358268D01*
X355787Y98031D02*
X358268D01*
X358067Y97441D02*
X358268D01*
X355787Y98031D02*
X355787D01*
X356378Y97994D02*
Y98069D01*
X356969Y97881D02*
Y98182D01*
X357559Y97684D02*
Y98379D01*
X358150Y97394D02*
Y98669D01*
X291263Y139643D02*
G03X292572Y138583I1309J278D01*
G01X291263Y139643D02*
Y137522D01*
X292572Y138583D02*
G03X291263Y137522I-0J-1339D01*
G01Y139173D02*
X291462D01*
X291263Y138583D02*
X292572D01*
X291263Y137992D02*
X291462D01*
X291391Y137874D02*
Y139292D01*
X291981Y138445D02*
Y138720D01*
X363780Y105039D02*
G03X366260Y104331I2480J3987D01*
G01X363780Y105039D02*
Y103622D01*
X366260Y104331D02*
G03X363780Y103622I-0J-4695D01*
G01Y104921D02*
X363980D01*
X363780Y104331D02*
X366260D01*
X363780Y103740D02*
X363980D01*
X363898Y103693D02*
Y104968D01*
X364488Y103984D02*
Y104678D01*
X365079Y104180D02*
Y104482D01*
X365669Y104293D02*
Y104368D01*
X363780Y114488D02*
G03X365748Y113780I1968J2380D01*
G01X363780Y114488D02*
Y113071D01*
X365748Y113780D02*
G03X363780Y113071I0J-3089D01*
G01Y114370D02*
X363932D01*
X363780Y113780D02*
X365748D01*
X363780Y113189D02*
X363932D01*
X363976Y113221D02*
Y114338D01*
X364567Y113545D02*
Y114014D01*
X365157Y113723D02*
Y113837D01*
X370155Y113900D02*
G03X368845Y114961I-1310J-278D01*
G01X370155Y113900D02*
Y116021D01*
X368845Y114961D02*
G03X370155Y116021I0J1338D01*
G01X369955Y115551D02*
X370155D01*
X368845Y114961D02*
X370155D01*
X369955Y114370D02*
X370155D01*
X368845Y114961D02*
X368845D01*
X369436Y114823D02*
Y115098D01*
X370027Y114252D02*
Y115669D01*
X20177Y179577D02*
G03X22303Y179134I2126J4881D01*
G01X20177Y179577D02*
Y178691D01*
X22303Y179134D02*
G03X20177Y178691I0J-5324D01*
G01Y179134D02*
X22303D01*
X20531Y178830D02*
Y179437D01*
X21122Y179001D02*
Y179267D01*
X21713Y179101D02*
Y179167D01*
X44732Y179134D02*
X44813Y179210D01*
X44757*
X44732Y179134D02*
G03X44757Y179210I-62J62D01*
G01X44732Y179134D02*
X44732D01*
X70845Y186772D02*
G03X70571Y185433I3130J-1339D01*
G01X70845Y186772D02*
X70297D01*
X70571Y185433D02*
G03X70297Y186772I-3404J0D01*
G01X70359Y186614D02*
X70782D01*
X70519Y186024D02*
X70622D01*
X70571Y185433D02*
Y186772D01*
X80533Y191181D02*
G03X80807Y192618I-3628J1437D01*
G01X80533Y191181D02*
X81081D01*
X80807Y192618D02*
G03X81081Y191181I3902J0D01*
G01X80807Y192618D02*
X80807D01*
X80762Y192028D02*
X80852D01*
X80624Y191437D02*
X80990D01*
X80807Y191181D02*
Y192618D01*
X77974Y191181D02*
G03X78248Y192913I-5334J1732D01*
G01X77974Y191181D02*
X78522D01*
X78248Y192913D02*
G03X78522Y191181I5608J0D01*
G01X78248Y192913D02*
X78248D01*
X78217Y192323D02*
X78279D01*
X78122Y191732D02*
X78374D01*
X78248Y191181D02*
Y192913D01*
X65148Y187369D02*
G03X63164Y188976I-1984J-421D01*
G01X65148Y187369D02*
Y190584D01*
X63164Y188976D02*
G03X65148Y190584I-0J2029D01*
G01X65007Y190157D02*
X65148D01*
X64595Y189567D02*
X65148D01*
X63164Y188976D02*
X65148D01*
X64595Y188386D02*
X65148D01*
X65007Y187795D02*
X65148D01*
X63164Y188976D02*
X63164D01*
X63754Y188889D02*
Y189064D01*
X64345Y188597D02*
Y189356D01*
X64935Y187936D02*
Y190017D01*
X95396Y176696D02*
G03X96457Y178005I-278J1309D01*
G01X95396Y176696D02*
X97517D01*
X96457Y178005D02*
G03X97517Y176696I1338J-0D01*
G01X96457Y178005D02*
X96457D01*
X96319Y177414D02*
X96594D01*
X95748Y176824D02*
X97166D01*
X95866Y176696D02*
Y176895D01*
X96457Y176696D02*
Y178005D01*
X97047Y176696D02*
Y176895D01*
X97517Y179210D02*
G03X96457Y177901I278J-1309D01*
G01X97517Y179210D02*
X95396D01*
X96457Y177901D02*
G03X95396Y179210I-1339J-0D01*
G01X95748Y179082D02*
X97166D01*
X96319Y178491D02*
X96594D01*
X95866Y179011D02*
Y179210D01*
X96457Y177901D02*
Y179210D01*
X97047Y179011D02*
Y179210D01*
X89884Y176696D02*
G03X90945Y178005I-278J1309D01*
G01X89884Y176696D02*
X92005D01*
X90945Y178005D02*
G03X92005Y176696I1338J-0D01*
G01X90945Y178005D02*
X90945D01*
X90808Y177414D02*
X91082D01*
X90236Y176824D02*
X91654D01*
X90354Y176696D02*
Y176895D01*
X90945Y176696D02*
Y178005D01*
X91535Y176696D02*
Y176895D01*
X92005Y179210D02*
G03X90945Y177901I278J-1309D01*
G01X92005Y179210D02*
X89884D01*
X90945Y177901D02*
G03X89884Y179210I-1339J-0D01*
G01X90236Y179082D02*
X91654D01*
X90808Y178491D02*
X91082D01*
X90354Y179011D02*
Y179210D01*
X90945Y177901D02*
Y179210D01*
X91535Y179011D02*
Y179210D01*
X47518Y181594D02*
G03X48827Y180465I1309J194D01*
G01X47518Y181594D02*
Y179335D01*
X48827Y180465D02*
G03X47518Y179335I-0J-1324D01*
G01Y181055D02*
X47725D01*
X47518Y180465D02*
X48827D01*
X47518Y179874D02*
X47725D01*
X47646Y179738D02*
Y181191D01*
X48236Y180326D02*
Y180604D01*
X50127Y179466D02*
G03X48817Y180465I-1310J-359D01*
G01X50127Y179466D02*
Y181463D01*
X48817Y180465D02*
G03X50127Y181463I0J1357D01*
G01X49937Y181055D02*
X50127D01*
X48817Y180465D02*
X50127D01*
X49937Y179874D02*
X50127D01*
X48817Y180465D02*
X48817D01*
X49408Y180329D02*
Y180600D01*
X49998Y179776D02*
Y181153D01*
X39490Y175746D02*
G03X38181Y176575I-1309J-620D01*
G01X39490Y175746D02*
Y177389D01*
X38181Y176575D02*
G03X39490Y177389I-0J1460D01*
G01X39354Y177165D02*
X39490D01*
X38181Y176575D02*
X39490D01*
X39348Y175984D02*
X39490D01*
X38181Y176575D02*
X38181D01*
X38771Y176449D02*
Y176700D01*
X39362Y175965D02*
Y177176D01*
X20177Y177018D02*
G03X22303Y176575I2126J4881D01*
G01X20177Y177018D02*
Y176132D01*
X22303Y176575D02*
G03X20177Y176132I0J-5324D01*
G01Y176575D02*
X22303D01*
X20531Y176271D02*
Y176878D01*
X21122Y176442D02*
Y176707D01*
X21713Y176542D02*
Y176608D01*
X95396Y187719D02*
G03X96457Y189029I-278J1310D01*
G01X95396Y187719D02*
X97517D01*
X96457Y189029D02*
G03X97517Y187719I1338J-0D01*
G01X96457Y189029D02*
X96457D01*
X96319Y188438D02*
X96594D01*
X95748Y187847D02*
X97166D01*
X95866Y187719D02*
Y187919D01*
X96457Y187719D02*
Y189029D01*
X97047Y187719D02*
Y187919D01*
X89884Y187719D02*
G03X90945Y189029I-278J1310D01*
G01X89884Y187719D02*
X92005D01*
X90945Y189029D02*
G03X92005Y187719I1338J-0D01*
G01X90945Y189029D02*
X90945D01*
X90808Y188438D02*
X91082D01*
X90236Y187847D02*
X91654D01*
X90354Y187719D02*
Y187919D01*
X90945Y187719D02*
Y189029D01*
X91535Y187719D02*
Y187919D01*
X56076Y175902D02*
G03X55150Y177377I-3686J-1285D01*
G01X56076Y175902D02*
Y176652D01*
X55150Y177377D02*
G03X56076Y176652I3460J3460D01*
G01X55150Y177377D02*
X55150D01*
X55635Y176787D02*
X55865D01*
X55960Y176196D02*
X56076D01*
X55150Y177377D02*
X55150D01*
X55741Y176620D02*
Y176874D01*
X49955Y175541D02*
G03X48645Y176134I-1310J-1148D01*
G01X49955Y175541D02*
Y176652D01*
X48645Y176134D02*
G03X49955Y176652I0J1914D01*
G01X48645Y176134D02*
X49955D01*
X49952Y175543D02*
X49955D01*
X48645Y176134D02*
X48645D01*
X49236Y176031D02*
Y176227D01*
X49826Y175672D02*
Y176542D01*
X42400Y177263D02*
G03X43709Y176134I1309J194D01*
G01X42400Y177263D02*
Y175005D01*
X43709Y176134D02*
G03X42400Y175005I-0J-1324D01*
G01Y176724D02*
X42607D01*
X42400Y176134D02*
X43709D01*
X42400Y175543D02*
X42607D01*
X42528Y175408D02*
Y176860D01*
X43118Y175995D02*
Y176273D01*
X284346Y352520D02*
G03X284987Y349719I2074J-999D01*
G01X284346Y352520D02*
X282161Y349673D01*
X284987Y349719D02*
G03X282161Y349673I-1385J-1743D01*
G01X284009Y352081D02*
X284187D01*
X283556Y351490D02*
X284118D01*
X283102Y350900D02*
X284203D01*
X282649Y350309D02*
X284462D01*
X282196Y349719D02*
X282216D01*
X282625Y349976D02*
Y350277D01*
X283215Y350168D02*
Y351047D01*
X283806Y350193D02*
Y351817D01*
X284397Y350055D02*
Y350422D01*
X381616Y263310D02*
G03X380890Y264236I-4185J-2534D01*
G01X381616Y263310D02*
X382366D01*
X380890Y264236D02*
G03X382366Y263310I2761J2760D01*
G01X380890Y264236D02*
X380890D01*
X381394Y263645D02*
X381648D01*
X380890Y264236D02*
X380890D01*
X381481Y263521D02*
Y263751D01*
X382071Y263310D02*
Y263426D01*
X127373Y359138D02*
G03X130217Y359069I1464J1716D01*
G01X127373Y359138D02*
X129557Y356292D01*
X130217Y359069D02*
G03X129557Y356292I1389J-1797D01*
G01X127426Y359069D02*
X127458D01*
X130217D02*
X130217D01*
X127879Y358478D02*
X129682D01*
X128332Y357888D02*
X129420D01*
X128785Y357297D02*
X129335D01*
X129238Y356707D02*
X129406D01*
X127855Y358510D02*
Y358823D01*
X128445Y357740D02*
Y358632D01*
X129036Y356970D02*
Y358607D01*
X129626Y358386D02*
Y358740D01*
X355148Y353040D02*
G03X356693Y352756I937J754D01*
G01X355148Y353040D02*
X356174Y351264D01*
X356693Y352756D02*
G03X356174Y351264I615J-1050D01*
G01X355312Y352756D02*
X355478D01*
X356693D02*
X356693D01*
X355653Y352165D02*
X356181D01*
X355994Y351575D02*
X356098D01*
X355512Y352410D02*
Y352737D01*
X356102Y351387D02*
Y351538D01*
Y351874D02*
Y352591D01*
X305171Y404393D02*
G03X306693Y404724I568J1051D01*
G01X305171Y404393D02*
X306782Y403157D01*
X306693Y404724D02*
G03X306782Y403157I969J-731D01*
G01X306693Y404724D02*
X306693D01*
X305509Y404134D02*
X306456D01*
X306278Y403543D02*
X306534D01*
X305512Y404132D02*
Y404271D01*
X306102Y403678D02*
Y404306D01*
X306693Y403225D02*
Y403262D01*
X307480Y12205D02*
X153150D01*
X151575Y13780*
Y18504*
X148031Y22047*
Y23602*
X145669Y25965*
X140354*
X307480Y12205D02*
X332283Y37008D01*
Y62598*
X329528Y65354*
X325984*
X322835Y68504*
Y72441*
X308661Y10630D02*
X152362D01*
X150000Y12992*
Y18110*
X146063Y22047*
X128346*
X126772Y23622*
Y28102*
X129581Y30911*
X308661Y10630D02*
X334252Y36220D01*
Y63386*
X330709Y66929*
X327165*
X325984Y68110*
Y72441*
X112449Y89370D02*
X112547Y89469D01*
X124016*
X105768Y61024D02*
Y70472D01*
X118642Y61024D02*
X122197D01*
X124165Y62992*
X129772Y31102D02*
X129581Y30911D01*
X129634Y30965*
X140354*
X121803Y55512D02*
X111280D01*
X105768Y61024*
X121803Y55512D02*
X124165Y57480D01*
X161614Y58248D02*
X165748D01*
X168130Y60630*
X172197*
X161614Y63248D02*
X166142D01*
X168642Y65748*
X172197*
X161614Y73248D02*
X166142D01*
X168878Y75984*
X172197*
X140748Y68248D02*
X130421D01*
X130165Y68504*
X140748Y63248D02*
X149075D01*
X154075Y68248*
X161614*
X140354Y35965D02*
X129772D01*
Y36220*
X140354Y25965D02*
X130051D01*
X129772Y25984*
X123772D02*
Y31102D01*
Y36220*
X124165Y57480D02*
X126528Y60236D01*
X132677*
X135689Y63248*
X140748*
X172197Y55512D02*
Y60630D01*
Y65748D02*
Y70866D01*
Y84252D02*
X171980Y84469D01*
X161024*
X178197Y70866D02*
X175441Y73622D01*
X175197*
Y81252*
X172197Y84252*
X130165Y62992D02*
Y68504D01*
X124165D02*
X122197Y70472D01*
X118642*
X242913Y52362D02*
X274803D01*
X281496Y59055*
X242913Y52362D02*
X239764Y55512D01*
Y130709*
X242520Y133465*
X241732Y50787D02*
X278591D01*
X283858Y56055*
X241732Y50787D02*
X237795Y54724D01*
Y138583*
X255512Y82087D02*
X256299D01*
X262795Y88583*
X271504*
X275047Y92126*
X255512Y59744D02*
X261319D01*
X265354Y63780*
Y67567*
X269047Y71260*
X255512Y69390D02*
X261122D01*
X269047Y77315*
Y81496*
X201575Y91220D02*
X201724Y100000D01*
X220472Y91220D02*
X220323Y100000D01*
X269047Y81496D02*
Y84646D01*
X270547Y86146*
X271972*
X274409Y88583*
X300394*
X269047Y71260D02*
Y71409D01*
X272047Y74409*
Y83071*
X275591Y86614*
X293701*
X213543Y44488D02*
Y51339D01*
X233465Y71260*
Y124803*
X229921Y128346*
X223543Y44488D02*
Y51890D01*
X235827Y64173*
Y133071*
X228740Y140157*
Y143701*
X350787Y38583D02*
X377008D01*
X382913Y44488*
X350787Y38583D02*
X348031Y41339D01*
Y51575*
X354331Y57874*
Y72441*
X281102Y90551D02*
X293701D01*
X294882Y91732*
X300394*
X281102Y90551D02*
X279528Y92126D01*
X275047*
X282283Y92913D02*
X293307D01*
X295276Y94882*
X300394*
X282283Y92913D02*
X277953Y97244D01*
X275047*
X290008Y71260D02*
Y76378D01*
X284016Y44488D02*
Y55898D01*
X283858Y56055*
X294016Y44488D02*
Y55976D01*
X294094Y56055*
X342913Y44488D02*
Y60630D01*
X335433Y68110*
Y72441*
X352913Y44488D02*
Y51969D01*
X359055Y58110*
Y73622*
X354921Y77756*
X348425*
X345866Y80315*
X324803*
X307087Y98031*
X327559Y62055D02*
X322441D01*
Y64961*
X319685Y67717*
Y72441*
X284008Y76378D02*
X290008Y81496D01*
Y76378D02*
X292913D01*
X294094Y77559*
Y81154*
X295224Y82283*
X300394*
X319685Y72441D02*
Y78346D01*
X300394Y85433D02*
X294882D01*
X293701Y86614*
X294094Y56055D02*
X290008D01*
X287008Y59055*
X281496*
X320079Y29921D02*
X308661D01*
Y30315*
X299213Y39764*
Y47638*
X297244Y49606*
Y64024*
X290008Y71260*
X362913Y44488D02*
Y71732D01*
X355512Y79134*
X353150*
X351575Y80709*
Y83858*
X353150Y85433*
X361024*
X65453Y166929D02*
Y175492D01*
X60236Y180709*
X57331*
X106449Y104724D02*
X111193Y109469D01*
X124016*
X161024Y94469D02*
X172177D01*
X172197Y94488*
X124016Y104469D02*
X112705D01*
X112449Y104724*
X124016Y99469D02*
X112587D01*
X112449Y99606*
X124016Y94469D02*
X112469D01*
X112449Y94488*
X172197Y104331D02*
X172059Y104469D01*
X161024*
X172197Y109449D02*
X172177Y109469D01*
X198575Y123622D02*
Y128740D01*
X262598Y133465D02*
X275835D01*
X277953Y135583*
X267323Y128346D02*
X270717D01*
X272835Y130465*
Y136465D02*
X274953Y138583D01*
X284008*
X272835Y136465D02*
X270717Y138583D01*
X256693*
X277953Y141583D02*
X280071Y143701D01*
X284008*
X277953Y141583D02*
X275835Y143701D01*
X251575*
X273622Y122835D02*
X277165Y126378D01*
X281102*
X201724Y100000D02*
Y103299D01*
X205315Y106890*
Y107854*
X275047Y97244D02*
X270717Y101575D01*
X262795*
X256693Y107677*
X255512*
X201575Y116555D02*
Y120622D01*
X204575Y123622*
X220472Y116555D02*
Y120622D01*
X217472Y123622*
X224213Y107854D02*
Y108465D01*
X220472Y112205*
X212205*
X207854Y116555*
X201575*
X224213Y107854D02*
Y108858D01*
X229921Y114567*
Y122835*
X223472Y123622D02*
Y128740D01*
X228740Y143701D02*
X222047Y150394D01*
X194488*
X186614Y158268*
X129134*
X124803Y162598*
X84154*
X83366Y163386*
Y166929*
X229921Y128346D02*
X209843Y148425D01*
X193307*
X185433Y156299*
X127953*
X123622Y160630*
X78051*
X75689Y162992*
Y166929*
X284008Y133465D02*
X280071D01*
X277953Y135583*
X284008Y128346D02*
X274953D01*
X272835Y130465*
X331496Y146457D02*
X345031D01*
X348031Y149457*
X331496Y146457D02*
X330709Y147244D01*
Y287795*
X286614Y331890*
X348031Y143457D02*
X351031Y146457D01*
X356693*
X333465Y149457D02*
Y296850D01*
X316535Y313780*
Y375802*
X325591Y386031*
Y391166*
X308219Y404724*
X306693*
X327953Y149457D02*
Y279528D01*
X226378Y381102*
Y417060*
X240409Y431091*
X284008Y112598D02*
X277953D01*
X230709Y159843*
X199213*
X192913Y166142*
X135039*
X87402Y213780*
Y292913*
X145669Y351181*
Y426137*
X146315Y426783*
X284008Y107480D02*
X279921D01*
X229921Y157480*
X198031*
X191339Y164173*
X133465*
X84234Y213404*
Y392268*
X284008Y102362D02*
X281496D01*
X279528Y104331*
Y104724*
X229134Y155118*
X196850*
X189764Y162205*
X131890*
X80709Y213386*
Y303543*
X40232Y329134*
Y336772*
X290008Y102362D02*
X292913D01*
X294882Y104331*
X300394*
X284008Y97244D02*
X228618Y152634D01*
X195791*
X188189Y160236*
X130315*
X77559Y212992*
Y229921*
X66535Y240945*
X24165*
X20079Y245031*
X290008Y97244D02*
X293307D01*
X294488Y98425*
Y100000*
X295669Y101181*
X300394*
X319685Y149457D02*
Y154575D01*
X319535Y154724*
Y159843D02*
X324016D01*
X341732Y133071D02*
Y143457D01*
X332283Y133071D02*
Y137795D01*
X333465Y138976*
Y143457*
X329134Y133071D02*
Y137795D01*
X327953Y138976*
Y143457*
X319685Y133071D02*
Y143457D01*
X307087Y133071D02*
Y138189D01*
X301575Y143701*
X290008*
X300394Y126378D02*
X295276D01*
X293307Y128346*
X290008*
X300394Y123228D02*
X294882D01*
X292520Y125591*
X281890*
X281102Y126378*
X300394Y110630D02*
X295276D01*
X293307Y112598*
X290008*
X300394Y107480D02*
X290008D01*
X300394Y98031D02*
X307087D01*
X377409Y109449D02*
X380315D01*
X381496Y110630*
Y150000*
X350984Y180512*
X346654*
X338976Y188189*
Y261811*
X342520Y265354*
X379772*
X371409Y109449D02*
X366929D01*
X365748Y110630*
X361024*
X377409Y114961D02*
Y151331D01*
X350394Y178346*
X345276*
X336220Y187402*
Y297638*
X370032Y331450*
X357874Y352362*
X356693Y352756*
X361024Y94882D02*
X337795D01*
X312205Y120472*
X309055*
X305512Y124016*
Y127165*
X299213Y133465*
X290008*
X361024Y98031D02*
X337795D01*
X313780Y122047*
X309843*
X307087Y124803*
Y127559*
X296063Y138583*
X290008*
X361024Y104331D02*
X371654D01*
X374409Y107087*
Y128740*
X356693Y146457*
X361024Y113780D02*
X365748D01*
X366929Y114961*
X371409*
X17815Y179134D02*
X44732D01*
X46063Y180465*
X68012Y184646D02*
X69783D01*
X70571Y185433*
Y188976*
X80807D02*
Y192618D01*
X81496Y193307*
X78248Y188976D02*
Y192913D01*
X80217Y194882*
X65453Y188976D02*
X61024D01*
X60236Y189764*
X96457Y175441D02*
Y180465D01*
X90945Y175441D02*
Y180465D01*
X46063D02*
X51087D01*
X51331Y180709*
X40945Y176134D02*
X40504Y176575D01*
X17815*
X96457Y186465D02*
Y189764D01*
X91339Y194882*
X80217*
X90945Y186465D02*
Y189370D01*
X87008Y193307*
X81496*
X57331Y175197D02*
X54181Y178346D01*
Y187252*
X55906Y188976*
X56693Y189764*
X60236*
X51331Y175197D02*
X50394Y176134D01*
X40945*
X286614Y331890D02*
Y348425D01*
X281943Y352138*
X286614Y331890D02*
X278346D01*
X264567Y345669*
Y427953*
X251969Y440551*
X149213*
X383071Y262055D02*
X379772Y265354D01*
X127141Y356692D02*
X138583Y365534D01*
Y429921*
X149213Y440551*
X354406Y351417D02*
X356693Y352756D01*
X305100Y402614D02*
X306693Y404724D01*
G54D22*
X55906Y245276D02*
X55756Y253543D01*
X347244Y245276D02*
X347394Y253543D01*
X375984Y242126D02*
Y247106D01*
X368110Y244094D02*
X368130Y249803D01*
X375984Y247106D02*
X373287Y249803D01*
X373228*
X368130D02*
X373228D01*
X35039Y262992D02*
X35020Y257283D01*
X29921*
X29862*
X27165Y259980*
Y264961*
X70096Y329453D02*
X64869Y332470D01*
X75292Y326453D02*
X79528Y333465D01*
X49756Y253543D02*
X43720D01*
X55756D02*
X55906Y261811D01*
X70866Y319291D02*
X75292Y326453D01*
X358268Y331102D02*
X355914Y335044D01*
X350394Y328740D02*
X347686Y333582D01*
X332283Y319291D02*
X327858Y326453D01*
X347394Y253543D02*
X347244Y261811D01*
X333054Y329453D02*
X338281Y332470D01*
X327858Y326453D02*
X323622Y333465D01*
X359429Y253543D02*
X353394D01*
X121206Y352138D02*
X115748Y351969D01*
X101969Y368383*
Y375979*
X105479Y378778*
X118877Y361318D02*
X114567Y361811D01*
X107162Y371657*
X100508Y395830D02*
X104331Y398819D01*
X107480Y391339D02*
X103150Y387957D01*
X100000Y392126*
X100508Y395830*
X62205Y344882D02*
X59204Y340060D01*
X54331Y342913*
X53750Y346323*
X111922Y375310D02*
X117323Y379528D01*
X53750Y346323D02*
X56299Y350787D01*
X164171Y394494D02*
X172047Y396850D01*
X129211Y342921D02*
X121206Y352138D01*
X133971Y346574D02*
X139370Y351181D01*
X162281Y400189D02*
X160719Y406019D01*
X163834Y394394D02*
X164171Y394494D01*
X155906Y392126*
X279134Y338583D02*
X273699Y342609D01*
X253937Y411811D02*
X248295Y413455D01*
X276009Y356692D02*
X275984Y364567D01*
X288583Y380709*
X293701Y381890*
X268939Y346262D02*
X276009Y356692D01*
X240868Y400189D02*
X242431Y406019D01*
X231102Y396850D02*
X239316Y394394D01*
X247638Y392126*
X316929Y385039D02*
X312855Y387993D01*
X310236Y379921D02*
X305934Y383404D01*
X301575Y367323D02*
X295988Y371657D01*
X355836Y335173D02*
X355914Y335044D01*
X350787Y335433*
X284273Y361318D02*
X284252Y366142D01*
X291228Y375310*
X297670Y378778D02*
X293701Y381890D01*
X305934Y383404D02*
X309055Y387402D01*
X312855Y387993*
X347686Y333582D02*
X350787Y335433D01*
X167717Y416929D02*
X162080Y415391D01*
X160630Y420866*
X162652Y423676*
X167323Y425197*
X257874Y418898D02*
X252933Y420344D01*
X248295Y413455D02*
X249606Y418898D01*
X252933Y420344*
G54D23*
X8701Y162598D02*
G03X7283Y161004I188J-1594D01*
G01X8701Y162598D02*
X5866D01*
X7283Y161004D02*
G03X5866Y162598I-1605J-0D01*
G01X7283Y161004D02*
Y162598D01*
X5866Y166142D02*
G03X7283Y167736I-188J1594D01*
G01X5866Y166142D02*
X8701D01*
X7283Y167736D02*
G03X8701Y166142I1606J0D01*
G01X7283Y167736D02*
X7283D01*
Y166142D02*
Y167736D01*
X8701Y172638D02*
G03X7283Y171043I188J-1595D01*
G01X8701Y172638D02*
X5866D01*
X7283Y171043D02*
G03X5866Y172638I-1605J0D01*
G01X7283Y171043D02*
Y172638D01*
X18504Y168508D02*
G03X20453Y166929I1949J413D01*
G01X18504Y168508D02*
Y165351D01*
X20453Y166929D02*
G03X18504Y165351I-0J-1992D01*
G01Y166929D02*
X20453D01*
X25478Y152657D02*
G03X27559Y155226I-545J2569D01*
G01X25478Y152657D02*
X29640D01*
X27559Y155226D02*
G03X29640Y152657I2626J0D01*
G01X27559Y155226D02*
X27559D01*
Y152657D02*
Y155226D01*
X30413Y152235D02*
G03X32982Y150000I2569J359D01*
G01X30413Y152235D02*
Y147765D01*
X32982Y150000D02*
G03X30413Y147765I0J-2594D01*
G01Y150000D02*
X32982D01*
X18386Y164764D02*
G03X17323Y162815I1255J-1949D01*
G01X18386Y164764D02*
X16260D01*
X17323Y162815D02*
G03X16260Y164764I-2318J-0D01*
G01X17323Y162815D02*
Y164764D01*
X24705Y147765D02*
G03X22136Y150000I-2569J-359D01*
G01X24705Y147765D02*
Y152235D01*
X22136Y150000D02*
G03X24705Y152235I-0J2594D01*
G01X22136Y150000D02*
X24705D01*
X22136D02*
X22136D01*
X29640Y147343D02*
G03X27559Y144774I545J-2569D01*
G01X29640Y147343D02*
X25478D01*
X27559Y144774D02*
G03X25478Y147343I-2626J-0D01*
G01X27559Y144774D02*
Y147343D01*
X49114Y147765D02*
G03X46545Y150000I-2569J-359D01*
G01X49114Y147765D02*
Y152235D01*
X46545Y150000D02*
G03X49114Y152235I0J2594D01*
G01X46545Y150000D02*
X49114D01*
X46545D02*
X46545D01*
X49888Y152657D02*
G03X51969Y155226I-546J2569D01*
G01X49888Y152657D02*
X54049D01*
X51969Y155226D02*
G03X54049Y152657I2626J0D01*
G01X51969Y155226D02*
X51969D01*
Y152657D02*
Y155226D01*
X5866Y195669D02*
G03X7283Y197264I-188J1595D01*
G01X5866Y195669D02*
X8701D01*
X7283Y197264D02*
G03X8701Y195669I1606J-0D01*
G01X7283Y197264D02*
X7283D01*
Y195669D02*
Y197264D01*
X5866Y185630D02*
G03X7283Y187224I-188J1594D01*
G01X5866Y185630D02*
X8701D01*
X7283Y187224D02*
G03X8701Y185630I1606J0D01*
G01X7283Y187224D02*
X7283D01*
Y185630D02*
Y187224D01*
X8701Y192126D02*
G03X7283Y190531I188J-1595D01*
G01X8701Y192126D02*
X5866D01*
X7283Y190531D02*
G03X5866Y192126I-1605J0D01*
G01X7283Y190531D02*
Y192126D01*
X5866Y176181D02*
G03X7283Y177776I-188J1595D01*
G01X5866Y176181D02*
X8701D01*
X7283Y177776D02*
G03X8701Y176181I1606J-0D01*
G01X7283Y177776D02*
X7283D01*
Y176181D02*
Y177776D01*
X8701Y182087D02*
G03X7283Y180492I188J-1595D01*
G01X8701Y182087D02*
X5866D01*
X7283Y180492D02*
G03X5866Y182087I-1605J0D01*
G01X7283Y180492D02*
Y182087D01*
X18504Y192917D02*
G03X20453Y191339I1949J414D01*
G01X18504Y192917D02*
Y189760D01*
X20453Y191339D02*
G03X18504Y189760I-0J-1993D01*
G01Y191339D02*
X20453D01*
X16260Y193504D02*
G03X17323Y195453I-1255J1949D01*
G01X16260Y193504D02*
X18386D01*
X17323Y195453D02*
G03X18386Y193504I2318J-0D01*
G01X17323Y195453D02*
X17323D01*
Y193504D02*
Y195453D01*
X198917Y402644D02*
G03X196348Y404724I-2569J-546D01*
G01X198917Y402644D02*
Y406805D01*
X196348Y404724D02*
G03X198917Y406805I0J2627D01*
G01X196348Y404724D02*
X198917D01*
X196348D02*
X196348D01*
X204232Y406805D02*
G03X206801Y404724I2569J546D01*
G01X204232Y406805D02*
Y402644D01*
X206801Y404724D02*
G03X204232Y402644I0J-2626D01*
G01Y404724D02*
X206801D01*
X203810Y401870D02*
G03X201575Y399301I359J-2569D01*
G01X203810Y401870D02*
X199340D01*
X201575Y399301D02*
G03X199340Y401870I-2594J0D01*
G01X201575Y399301D02*
Y401870D01*
X198917Y427053D02*
G03X196348Y429134I-2569J-545D01*
G01X198917Y427053D02*
Y431215D01*
X196348Y429134D02*
G03X198917Y431215I0J2626D01*
G01X196348Y429134D02*
X198917D01*
X196348D02*
X196348D01*
X199340Y431988D02*
G03X201575Y434557I-359J2569D01*
G01X199340Y431988D02*
X203810D01*
X201575Y434557D02*
G03X203810Y431988I2594J0D01*
G01X201575Y434557D02*
X201575D01*
Y431988D02*
Y434557D01*
X203810Y426280D02*
G03X201575Y423711I359J-2569D01*
G01X203810Y426280D02*
X199340D01*
X201575Y423711D02*
G03X199340Y426280I-2594J-0D01*
G01X201575Y423711D02*
Y426280D01*
X204232Y431215D02*
G03X206801Y429134I2569J545D01*
G01X204232Y431215D02*
Y427053D01*
X206801Y429134D02*
G03X204232Y427053I0J-2626D01*
G01Y429134D02*
X206801D01*
X144350Y49606D02*
X135039D01*
X132677Y51969*
X102362*
X93307Y61024*
Y145669*
X144350Y49606D02*
X150787D01*
X7480Y157874D02*
X7283D01*
Y164370*
Y174409*
X17323Y166929D02*
X23622D01*
X27559Y157480D02*
Y150000D01*
X35039*
X17323Y159843D02*
Y166929D01*
X19685Y150000D02*
X27559D01*
Y142520*
X114961Y134646D02*
Y138976D01*
X44094Y150000D02*
X51969D01*
X114961Y138976D02*
Y146457D01*
X118110Y149606*
X170079*
X82283Y131496D02*
Y136614D01*
X51969Y157480D02*
X44094Y165354D01*
X41732*
X51969Y150000D02*
Y157480D01*
X179528Y140157D02*
X175984Y143701D01*
X170079Y149606*
X348031Y159843D02*
Y167913D01*
X7283Y193898D02*
Y200000D01*
X7480Y200394*
X7283Y193898D02*
Y183858D01*
Y174409*
X23622Y191339D02*
X17323D01*
Y198425*
X348031Y187795D02*
Y193504D01*
X316535Y187795D02*
Y193504D01*
X348031Y199213D02*
Y193504D01*
X353543*
Y193701*
X348031Y193504D02*
X342913D01*
X342520Y193701*
X316535Y199213D02*
Y193504D01*
X322047*
Y193701*
X316535Y193504D02*
X311417D01*
X311024Y193701*
X193701Y404724D02*
X201575D01*
X209449*
X201575Y397244D02*
Y404724D01*
X193701Y429134D02*
X201575D01*
Y436614*
Y421654D02*
Y429134D01*
X209449*
X119291Y46457D03*
Y31102D03*
Y41339D03*
X116929Y84646D03*
Y78346D03*
X150787Y49606D03*
X155118Y25984D03*
X134646Y57480D03*
X182677Y75984D03*
Y55512D03*
X168110Y89370D03*
X182677Y65748D03*
X130315Y78346D03*
X124016D03*
X264567Y81496D03*
X205512Y62598D03*
X275197Y76378D03*
X264567Y92126D03*
X300394Y66535D03*
X350000Y29921D03*
X355906Y24409D03*
X279528Y81496D03*
X355906Y35433D03*
X327559Y51575D03*
X300394D03*
X322441D03*
X283858Y66535D03*
X319685Y78346D03*
X310236D03*
X307087Y51575D03*
X312205D03*
X355118Y82283D03*
X307087Y66535D03*
X288976Y62205D03*
X317323Y51575D03*
X320079Y29921D03*
X366929Y79134D03*
X381890D03*
X361417Y29921D03*
X7480Y157874D03*
X35039Y150000D03*
X17323Y159843D03*
X19685Y150000D03*
X23622Y166929D03*
X27559Y142520D03*
Y157480D03*
X114961Y134646D03*
X72047Y160630D03*
X66929D03*
X75984Y150394D03*
X61811Y160630D03*
X44094Y150000D03*
X41732Y165354D03*
X89370Y154724D03*
X66929Y134252D03*
X72047D03*
X114961Y138976D03*
X82283Y131496D03*
X51969Y157480D03*
X179528Y140157D03*
X175984Y143701D03*
X192126Y107874D03*
X177953Y118898D03*
X124016Y123622D03*
X182677Y94488D03*
Y104331D03*
Y109449D03*
Y114567D03*
X142520Y101969D03*
X237795Y138583D03*
X264567Y97244D03*
X256693Y138583D03*
X242520Y133465D03*
X211024Y118898D03*
Y105118D03*
X262598Y133465D03*
X267323Y128346D03*
X273622Y122835D03*
X228740Y143701D03*
X229921Y128346D03*
Y122835D03*
X251575Y143701D03*
X307087Y98031D03*
X324016Y159843D03*
X308661D03*
Y154724D03*
X354331Y153937D03*
X279528Y117717D03*
X308661Y149606D03*
X341732Y153937D03*
X351181Y127165D03*
X306693Y113780D03*
X310236Y127165D03*
X313386Y138976D03*
X354331D03*
X279528Y122835D03*
X348031Y159843D03*
X36220Y182283D03*
X7480Y200394D03*
X36220Y203543D03*
X23622Y191339D03*
Y184252D03*
X17323Y198425D03*
X46063Y190945D03*
X58268Y186614D03*
Y197244D03*
X73228Y183071D03*
X55906Y245276D03*
X342520Y193701D03*
X353543D03*
X348031Y187795D03*
Y199213D03*
X311024Y193701D03*
X316535Y187795D03*
Y199213D03*
X322047Y193701D03*
X347244Y245276D03*
X375984Y242126D03*
X368110Y244094D03*
X383071Y240551D03*
X35039Y262992D03*
X27165Y264961D03*
X20079Y266535D03*
X55906Y261811D03*
X70866Y319291D03*
X358268Y331102D03*
X350394Y328740D03*
X332283Y319291D03*
X347244Y261811D03*
X365354Y332677D03*
X117323Y379528D03*
X107480Y391339D03*
X104331Y398819D03*
X56299Y350787D03*
X62205Y344882D03*
X79528Y333465D03*
X51181Y355512D03*
X101181Y405512D03*
X139370Y351181D03*
X193701Y404724D03*
X155906Y392126D03*
X172047Y396850D03*
X209449Y404724D03*
X201575Y397244D03*
X279134Y338583D03*
X253937Y411811D03*
X247638Y392126D03*
X231102Y396850D03*
X316929Y385039D03*
X310236Y379921D03*
X301575Y367323D03*
X322047Y389370D03*
X323622Y333465D03*
X193701Y429134D03*
X167323Y425197D03*
X167717Y416929D03*
X166929Y432283D03*
X201575Y421654D03*
Y436614D03*
X209449Y429134D03*
X261024Y425591D03*
X257874Y418898D03*
G54D24*
X299379Y67608D02*
G03X300394Y70005I-2324J2397D01*
G01X299379Y67608D02*
X301408D01*
X300394Y70005D02*
G03X301408Y67608I3338J-0D01*
G01X300394Y70005D02*
X300394D01*
X300245Y69021D02*
X300542D01*
X299752Y68036D02*
X301036D01*
X299409Y67608D02*
Y67638D01*
X300394Y67608D02*
Y70005D01*
X301378Y67608D02*
Y67638D01*
X302259Y78543D02*
G03X300394Y76240I489J-2303D01*
G01X302259Y78543D02*
X298528D01*
X300394Y76240D02*
G03X298528Y78543I-2355J0D01*
G01X299331Y78209D02*
X301456D01*
X300178Y77224D02*
X300609D01*
X299409Y78155D02*
Y78543D01*
X300394Y76240D02*
Y78543D01*
X301378Y78155D02*
Y78543D01*
X326545Y52648D02*
G03X327559Y55044I-2325J2396D01*
G01X326545Y52648D02*
X328573D01*
X327559Y55044D02*
G03X328573Y52648I3339J0D01*
G01X327559Y55044D02*
X327559D01*
X327411Y54060D02*
X327707D01*
X326917Y53076D02*
X328201D01*
X326575Y52648D02*
Y52677D01*
X327559Y52648D02*
Y55044D01*
X328543Y52648D02*
Y52677D01*
X328476Y54997D02*
G03X327559Y53865I240J-1132D01*
G01X328476Y54997D02*
X326642D01*
X327559Y53865D02*
G03X326642Y54997I-1157J0D01*
G01X327011Y54849D02*
X328108D01*
X327559Y53865D02*
Y54997D01*
X299477Y63113D02*
G03X300394Y64245I-241J1132D01*
G01X299477Y63113D02*
X301311D01*
X300394Y64245D02*
G03X301311Y63113I1157J0D01*
G01X300394Y64245D02*
X300394D01*
X299845Y63261D02*
X300942D01*
X300394Y63113D02*
Y64245D01*
X301408Y65463D02*
G03X300394Y63066I2324J-2397D01*
G01X301408Y65463D02*
X299379D01*
X300394Y63066D02*
G03X299379Y65463I-3339J-0D01*
G01X299752Y65034D02*
X301036D01*
X300245Y64050D02*
X300542D01*
X299409Y65433D02*
Y65463D01*
X300394Y63066D02*
Y65463D01*
X301378Y65433D02*
Y65463D01*
X292837Y61140D02*
G03X291705Y62125I-1167J-197D01*
G01X292837Y61140D02*
Y63044D01*
X291705Y62125D02*
G03X292837Y63044I33J1116D01*
G01X291705Y62125D02*
X291705D01*
X291770D02*
X292837D01*
X292836Y61141D02*
X292837D01*
X291705Y62125D02*
X291705D01*
X292689Y61543D02*
Y62657D01*
X181604Y93474D02*
G03X179208Y94488I-2396J-2325D01*
G01X181604Y93474D02*
Y95502D01*
X179208Y94488D02*
G03X181604Y95502I-0J3339D01*
G01X181575Y95472D02*
X181604D01*
X179208Y94488D02*
X181604D01*
X181575Y93504D02*
X181604D01*
X179208Y94488D02*
X179208D01*
X180192Y94340D02*
Y94637D01*
X181176Y93846D02*
Y95130D01*
X179255Y95405D02*
G03X180387Y94488I1132J241D01*
G01X179255Y95405D02*
Y93571D01*
X180387Y94488D02*
G03X179255Y93571I-0J-1157D01*
G01Y94488D02*
X180387D01*
X179403Y93940D02*
Y95037D01*
X312372Y140049D02*
G03X313386Y142446I-2325J2397D01*
G01X312372Y140049D02*
X314400D01*
X313386Y142446D02*
G03X314400Y140049I3339J-0D01*
G01X313386Y142446D02*
X313386D01*
X313237Y141462D02*
X313534D01*
X312744Y140477D02*
X314028D01*
X312402Y140049D02*
Y140079D01*
X313386Y140049D02*
Y142446D01*
X314370Y140049D02*
Y140079D01*
X314303Y142399D02*
G03X313386Y141267I240J-1132D01*
G01X314303Y142399D02*
X312469D01*
X313386Y141267D02*
G03X312469Y142399I-1157J-0D01*
G01X312837Y142251D02*
X313934D01*
X313386Y141267D02*
Y142399D01*
X353316Y140049D02*
G03X354331Y142446I-2324J2397D01*
G01X353316Y140049D02*
X355345D01*
X354331Y142446D02*
G03X355345Y140049I3338J-0D01*
G01X354331Y142446D02*
X354331D01*
X354182Y141462D02*
X354479D01*
X353689Y140477D02*
X354973D01*
X353346Y140049D02*
Y140079D01*
X354331Y140049D02*
Y142446D01*
X355315Y140049D02*
Y140079D01*
X355248Y142399D02*
G03X354331Y141267I240J-1132D01*
G01X355248Y142399D02*
X353414D01*
X354331Y141267D02*
G03X353414Y142399I-1158J-0D01*
G01X353782Y142251D02*
X354879D01*
X354331Y141267D02*
Y142399D01*
X353414Y150515D02*
G03X354331Y151647I-241J1132D01*
G01X353414Y150515D02*
X355248D01*
X354331Y151647D02*
G03X355248Y150515I1157J-0D01*
G01X354331Y151647D02*
X354331D01*
X353782Y150662D02*
X354879D01*
X354331Y150515D02*
Y151647D01*
X355345Y152864D02*
G03X354331Y150468I2324J-2396D01*
G01X355345Y152864D02*
X353316D01*
X354331Y150468D02*
G03X353316Y152864I-3339J-0D01*
G01X353689Y152436D02*
X354973D01*
X354182Y151452D02*
X354479D01*
X353346Y152835D02*
Y152864D01*
X354331Y150468D02*
Y152864D01*
X355315Y152835D02*
Y152864D01*
X353799Y135630D02*
G03X354331Y137933I-4724J2303D01*
G01X353799Y135630D02*
X354862D01*
X354331Y137933D02*
G03X354862Y135630I5256J0D01*
G01X354331Y137933D02*
X354331D01*
X354238Y136949D02*
X354424D01*
X353948Y135965D02*
X354713D01*
X354331Y135630D02*
Y137933D01*
X355345Y137904D02*
G03X354331Y135507I2324J-2397D01*
G01X355345Y137904D02*
X353316D01*
X354331Y135507D02*
G03X353316Y137904I-3339J-0D01*
G01X353689Y137475D02*
X354973D01*
X354182Y136491D02*
X354479D01*
X353346Y137874D02*
Y137904D01*
X354331Y135507D02*
Y137904D01*
X355315Y137874D02*
Y137904D01*
X312854Y135630D02*
G03X313386Y137933I-4724J2303D01*
G01X312854Y135630D02*
X313917D01*
X313386Y137933D02*
G03X313917Y135630I5256J0D01*
G01X313386Y137933D02*
X313386D01*
X313293Y136949D02*
X313479D01*
X313003Y135965D02*
X313768D01*
X313386Y135630D02*
Y137933D01*
X314400Y137904D02*
G03X313386Y135507I2325J-2397D01*
G01X314400Y137904D02*
X312372D01*
X313386Y135507D02*
G03X312372Y137904I-3339J-0D01*
G01X312744Y137475D02*
X314028D01*
X313237Y136491D02*
X313534D01*
X312402Y137874D02*
Y137904D01*
X313386Y135507D02*
Y137904D01*
X314370Y137874D02*
Y137904D01*
X340815Y150515D02*
G03X341732Y151647I-240J1132D01*
G01X340815Y150515D02*
X342649D01*
X341732Y151647D02*
G03X342649Y150515I1158J-0D01*
G01X341732Y151647D02*
X341732D01*
X341184Y150662D02*
X342281D01*
X341732Y150515D02*
Y151647D01*
X342747Y152864D02*
G03X341732Y150468I2324J-2396D01*
G01X342747Y152864D02*
X340718D01*
X341732Y150468D02*
G03X340718Y152864I-3338J-0D01*
G01X341090Y152436D02*
X342374D01*
X341584Y151452D02*
X341881D01*
X340748Y152835D02*
Y152864D01*
X341732Y150468D02*
Y152864D01*
X342717Y152835D02*
Y152864D01*
X74053Y196362D02*
G03X73130Y195230I233J-1132D01*
G01X74053Y196362D02*
X72207D01*
X73130Y195230D02*
G03X72207Y196362I-1156J-0D01*
G01X72580Y196214D02*
X73680D01*
X73130Y195230D02*
Y196362D01*
X152900Y429477D02*
G03X154236Y428864I1051J530D01*
G01X152900Y429477D02*
X153374Y427705D01*
X154236Y428864D02*
G03X153374Y427705I274J-1103D01*
G01X153064Y428864D02*
X153667D01*
X154236D02*
X154236D01*
X153328Y427880D02*
X153379D01*
X153251Y428164D02*
Y429060D01*
X156155Y428397D02*
G03X154819Y429010I-1051J-530D01*
G01X156155Y428397D02*
X155681Y430169D01*
X154819Y429010D02*
G03X155681Y430169I-274J1103D01*
G01X155676Y429994D02*
X155728D01*
X155388Y429010D02*
X155991D01*
X154819D02*
X154819D01*
X155804Y428814D02*
Y429710D01*
X249775Y427705D02*
G03X248914Y428864I-1136J56D01*
G01X249775Y427705D02*
X250250Y429477D01*
X248914Y428864D02*
G03X250250Y429477I284J1143D01*
G01X248914Y428864D02*
X248914D01*
X249483D02*
X250086D01*
X249770Y427880D02*
X249822D01*
X248914Y428864D02*
X248914D01*
X249898Y428164D02*
Y429060D01*
X247469Y430169D02*
G03X248330Y429010I1136J-56D01*
G01X247469Y430169D02*
X246994Y428397D01*
X248330Y429010D02*
G03X246994Y428397I-284J-1143D01*
G01X247422Y429994D02*
X247474D01*
X247158Y429010D02*
X247761D01*
X247346Y428814D02*
Y429710D01*
X300394Y66535D02*
Y79134D01*
X288981Y62205D02*
X288976D01*
X327559Y51575D02*
Y56055D01*
X300394Y62055D02*
Y66535D01*
X294094Y62055D02*
X288981Y62205D01*
X182677Y94488D02*
X178197D01*
X313386Y138976D02*
Y143457D01*
X354331Y138976D02*
Y143457D01*
Y149457D02*
Y153937D01*
Y133071D02*
Y138976D01*
X313386Y133071D02*
Y138976D01*
X341732Y149457D02*
Y153937D01*
X68110Y197244D02*
Y197394D01*
X73130Y188976D02*
Y197295D01*
X73228Y197394*
X152110Y428336D02*
X156945Y429539D01*
X251039Y428336D02*
X246205Y429539D01*
G54D25*
X281102Y84547D02*
G03X280709Y84941I-393J0D01*
G01X277051*
G03X276921Y84175I-0J-394*
G01X277582Y83246D02*
G03X276921Y84175I-985J0D01*
G01X277582Y83246D02*
Y79746D01*
X276597Y78762D02*
G03X277582Y79746I0J984D01*
G01X276597Y78762D02*
X274114D01*
G03X273720Y78368I0J-394*
G01Y74409*
Y74392D02*
G03Y74409I-1673J17D01*
G01Y74392D02*
G03Y74388I394J-4D01*
G01X273720*
G03X274114Y73994I394J-0*
G01X276597*
X277582Y73010D02*
G03X276597Y73994I-985J-0D01*
G01X277582Y73010D02*
Y69510D01*
X276597Y68526D02*
G03X277582Y69510I0J984D01*
G01X276597Y68526D02*
X273497D01*
X272705Y68926D02*
G03X273497Y68526I792J584D01*
G01X272705Y68926D02*
G03X272030Y68856I-317J-234D01*
G01X270597Y67935D02*
G03X272030Y68856I0J1575D01*
G01X270597Y67935D02*
X268252D01*
G03X267973Y67820I-0J-394*
G01X267143Y66989*
G03X267028Y66711I278J-278*
G01Y63780*
X266537Y62596D02*
G03X267028Y63780I-1183J1184D01*
G01X266537Y62596D02*
X262503Y58562D01*
X261399Y58073D02*
G03X262503Y58562I-80J1671D01*
G01X261399Y58073D02*
G03X261024Y57679I18J-394D01*
G01Y57382*
X259449Y55807D02*
G03X261024Y57382I-0J1575D01*
G01X259449Y55807D02*
X251575D01*
X250000Y57382D02*
G03X251575Y55807I1575J-0D01*
G01X250000Y57382D02*
Y62106D01*
X251575Y63681D02*
G03X250000Y62106I-0J-1575D01*
G01X251575Y63681D02*
X259449D01*
X260955Y62565D02*
G03X259449Y63681I-1506J-459D01*
G01X260955Y62565D02*
G03X261610Y62402I377J115D01*
G01X263566Y64357*
G03X263681Y64636I-279J279*
G01Y67567*
X264171Y68750D02*
G03X263681Y67567I1183J-1183D01*
G01X264171Y68750D02*
X265684Y70263D01*
G03X265834Y70428I-1578J1577*
X265922Y70677I-305J249*
G01Y70873*
G03X265250Y71152I-393J0*
G01X262306Y68208*
X261361Y67734D02*
G03X262306Y68208I-239J1656D01*
G01X261361Y67734D02*
G03X261024Y67344I56J-390D01*
G01Y67028*
X259449Y65453D02*
G03X261024Y67028I-0J1575D01*
G01X259449Y65453D02*
X251575D01*
X250000Y67028D02*
G03X251575Y65453I1575J-0D01*
G01X250000Y67028D02*
Y71752D01*
X251575Y73327D02*
G03X250000Y71752I-0J-1575D01*
G01X251575Y73327D02*
X259449D01*
X260915Y72328D02*
G03X259449Y73327I-1466J-576D01*
G01X260915Y72328D02*
G03X261559Y72193I366J144D01*
G01X267017Y77651*
G03X266890Y78293I-278J279*
G01X265922Y79746D02*
G03X266890Y78293I1575J0D01*
G01X265922Y79746D02*
Y83246D01*
X267136Y84779D02*
G03X265922Y83246I361J-1533D01*
G01X267136Y84779D02*
G03X267427Y85064I-90J383D01*
G01X267864Y85829D02*
G03X267427Y85064I1183J-1183D01*
G01X267864Y85829D02*
X268273Y86237D01*
G03X267994Y86909I-279J279*
G01X263676*
G03X263386Y86783I-0J-393*
X263091Y86455I15405J-14196*
X262992Y86194I295J-261*
G01Y77165*
X261417Y75590D02*
G03X262992Y77165I0J1575D01*
G01X261417Y75590D02*
X249606D01*
X248031Y77165D02*
G03X249606Y75590I1575J0D01*
G01X248031Y77165D02*
Y87008D01*
X249606Y88583D02*
G03X248031Y87008I0J-1575D01*
G01X249606Y88583D02*
X260071D01*
G03X260300Y88656I0J393*
X261612Y89766I-5993J8415*
G01X262795Y90256D02*
G03X261612Y89766I0J-1673D01*
G01X262795Y90256D02*
X266119D01*
G03X266513Y90650I0J394*
G01Y93876*
X266700Y94454D02*
G03X266513Y93876I797J-578D01*
G01X266700Y94454D02*
G03X266775Y94685I-318J231D01*
G01X266775*
G03X266700Y94916I-393J0*
G01X266513Y95494D02*
G03X266700Y94916I984J0D01*
G01X266513Y95494D02*
Y98994D01*
X266584Y99361D02*
G03X266513Y98994I913J-367D01*
G01X266584Y99361D02*
G03X266219Y99902I-365J147D01*
G01X262795*
X261612Y100392D02*
G03X262795Y99902I1183J1183D01*
G01X261612Y100392D02*
G03X260877Y101083I-11464J-11464D01*
X260616Y101181I-261J-296*
G01X249606*
X248031Y102756D02*
G03X249606Y101181I1575J-0D01*
G01X248031Y102756D02*
Y112598D01*
X249606Y114173D02*
G03X248031Y112598I0J-1575D01*
G01X249606Y114173D02*
X261417D01*
X262992Y112598D02*
G03X261417Y114173I-1575J0D01*
G01X262992Y112598D02*
Y104067D01*
G03X263065Y103839I394J0*
X263405Y103393I6887J4892*
X263710Y103248I305J249*
G01X270717*
X271900Y102758D02*
G03X270717Y103248I-1183J-1183D01*
G01X271900Y102758D02*
X273973Y100684D01*
G03X274252Y100569I279J279*
G01X276597*
X277490Y100292D02*
G03X276597Y100569I-893J-1298D01*
G01X277490Y100292D02*
G03X277850Y100247I223J324D01*
X277895Y99887I369J-137*
G01X278161Y99177D02*
G03X277895Y99887I-1564J-183D01*
G01X278161Y99177D02*
G03X278438Y98845I392J45D01*
G01X279136Y98427D02*
G03X278438Y98845I-1183J-1183D01*
G01X279136Y98427D02*
X280211Y97352D01*
G03X280883Y97631I278J279*
G01Y97826*
G03X280794Y98076I-394J0*
X280644Y98241I-1727J-1412*
G01X278497Y100388*
G03X278082Y100479I-278J-278*
X277991Y100894I-369J137*
G01X259710Y119176*
G03X259431Y119291I-279J-278*
G01X242520*
G03X242126Y118898I-0J-393*
G01Y55679*
G03X242241Y55401I394J0*
G01X243196Y54446*
G03X243474Y54331I278J278*
G01X274242*
G03X274521Y54446I0J393*
G01X280312Y60237*
X280398Y60318D02*
G03X280312Y60237I1098J-1263D01*
G01X280398Y60318D02*
G03X280533Y60615I-258J297D01*
G01Y63605*
X280857Y64562D02*
G03X280533Y63605I1251J-957D01*
G01X280857Y64562D02*
G03X280893Y64984I-312J239D01*
G01X281040Y68340D02*
G03X280893Y64984I2818J-1805D01*
G01X281040Y68340D02*
G03X281102Y68553I-331J213D01*
G01Y68607*
G03X281059Y68787I-393J-0*
G01X280883Y69510D02*
G03X281059Y68787I1575J-0D01*
G01X280883Y69510D02*
Y73010D01*
X281022Y73657D02*
G03X280883Y73010I1436J-647D01*
G01X281022Y73657D02*
G03X281057Y73819I-359J162D01*
G01X281057*
G03X281022Y73981I-394J-0*
G01X280883Y74628D02*
G03X281022Y73981I1575J-0D01*
G01X280883Y74628D02*
Y78128D01*
X281022Y78775D02*
G03X280883Y78128I1436J-647D01*
G01X281022Y78775D02*
G03X281057Y78937I-359J162D01*
G01X281057*
G03X281022Y79099I-394J0*
G01X280883Y79746D02*
G03X281022Y79099I1575J0D01*
G01X280883Y79746D02*
Y83246D01*
X281059Y83968D02*
G03X280883Y83246I1399J-722D01*
G01X281058Y83968D02*
G03X281102Y84149I-349J181D01*
G01Y84547*
X169685Y90551D02*
G03X169291Y90945I-394J0D01*
G01X154331*
Y121654*
G03X153937Y122047I-394J-0*
G01X125591*
Y124803*
G03X125197Y125197I-394J0*
G01X122835*
G03X122441Y124803I-0J-394*
G01Y120472*
X120472*
G03X120079Y120079I0J-393*
G01Y118898*
G03X120472Y118504I393J-0*
G01X130709*
Y86220*
X115748*
G03X115354Y85827I0J-393*
G01Y83465*
G03X115748Y83071I394J-0*
G01X153937*
G03X154331Y83465I0J394*
G01Y87795*
X169291*
G03X169685Y88189I0J394*
G01Y90551*
X109843Y158563D02*
G03X109449Y158957I-394J-0D01*
G01X86529*
G03X86526Y158169I-0J-394*
G01X87345Y157933D02*
G03X86526Y158169I-829J-1339D01*
G01X87345Y157933D02*
G03X87553Y157874I208J335D01*
G01X88173*
G03X88299Y157895I-0J394*
G01Y151554D02*
G03Y157895I1071J3170D01*
G01Y151554D02*
G03X88173Y151575I-126J-373D01*
G01X87553*
G03X87345Y151516I-0J-394*
G01X86516Y151280D02*
G03X87345Y151516I-0J1574D01*
G01X86516Y151280D02*
X80315D01*
G03X79921Y150886I-0J-394*
G01Y148622*
G03X80315Y148228I394J0*
G01X86516*
X87205Y147539D02*
G03X86516Y148228I-689J0D01*
G01X87205Y147539D02*
Y143799D01*
X86516Y143110D02*
G03X87205Y143799I-0J689D01*
G01X86516Y143110D02*
X80315D01*
G03X79921Y142717I-0J-393*
G01Y140453*
G03X80315Y140059I394J-0*
G01X86516*
X88091Y138484D02*
G03X86516Y140059I-1575J0D01*
G01X88091Y138484D02*
Y134744D01*
X86516Y133169D02*
G03X88091Y134744I-0J1575D01*
G01X86516Y133169D02*
X86024D01*
G03X85630Y132776I-0J-393*
G01Y131496*
X80522Y128651D02*
G03X85630Y131496I1761J2845D01*
G01X80522Y128651D02*
G03X79921Y128316I-207J-335D01*
G01Y110236*
G03X80315Y109843I394J0*
G01X109038*
G03X109316Y109958I-0J393*
G01X109727Y110369*
G03X109843Y110648I-278J279*
G01Y138193*
G03X109413Y138586I-394J0*
G01X109350Y138583D02*
G03X109413Y138586I0J689D01*
G01X109350Y138583D02*
X100886D01*
X100197Y139272D02*
G03X100886Y138583I689J-0D01*
G01X100197Y139272D02*
Y152067D01*
X100886Y152756D02*
G03X100197Y152067I-0J-689D01*
G01X100886Y152756D02*
X109350D01*
X109413Y152753D02*
G03X109350Y152756I-63J-686D01*
G01X109413Y152753D02*
G03X109843Y153145I36J392D01*
G01Y158563*
X271808Y68503D02*
X281099D01*
X277098Y84093D02*
X281098D01*
X276751Y84802D02*
X281009D01*
X277367Y79133D02*
X281007D01*
X273785Y74172D02*
X280951D01*
X277471Y73463D02*
X280950D01*
X277535Y69211D02*
X280912D01*
X273724Y78424D02*
X280911D01*
X267028Y64959D02*
X280905D01*
X277572Y83385D02*
X280889D01*
X277582Y82676D02*
X280883D01*
X277582Y81967D02*
X280883D01*
X277582Y81259D02*
X280883D01*
X277582Y80550D02*
X280883D01*
X277582Y79841D02*
X280883D01*
X273720Y77715D02*
X280883D01*
X273720Y77007D02*
X280883D01*
X273720Y76298D02*
X280883D01*
X273720Y75589D02*
X280883D01*
X273720Y74881D02*
X280883D01*
X277582Y72755D02*
X280883D01*
X277582Y72046D02*
X280883D01*
X277582Y71337D02*
X280883D01*
X277582Y70629D02*
X280883D01*
X277582Y69920D02*
X280883D01*
X280005Y97558D02*
X280876D01*
X267948Y67794D02*
X280757D01*
X267028Y64251D02*
X280672D01*
X267028Y65668D02*
X280626D01*
X279297Y98266D02*
X280619D01*
X267239Y67085D02*
X280557D01*
X267011Y63542D02*
X280533D01*
X266734Y62833D02*
X280533D01*
X266066Y62125D02*
X280533D01*
X265357Y61416D02*
X280533D01*
X264648Y60707D02*
X280533D01*
X267028Y66377D02*
X280516D01*
X263940Y59999D02*
X280073D01*
X278246Y98975D02*
X279911D01*
X263231Y59290D02*
X279365D01*
X278013Y99684D02*
X279202D01*
X262522Y58581D02*
X278656D01*
X277322Y100392D02*
X278493D01*
X261074Y57873D02*
X277947D01*
X273557Y101101D02*
X277785D01*
X261009Y57164D02*
X277239D01*
X272848Y101810D02*
X277076D01*
X260722Y56455D02*
X276530D01*
X272139Y102518D02*
X276367D01*
X242126Y55747D02*
X275821D01*
X270981Y103227D02*
X275659D01*
X242604Y55038D02*
X275113D01*
X263015Y103936D02*
X274950D01*
X262992Y104644D02*
X274241D01*
X262992Y105353D02*
X273533D01*
X262992Y106062D02*
X272824D01*
X262992Y106770D02*
X272115D01*
X262992Y107479D02*
X271407D01*
X262992Y108188D02*
X270698D01*
X262992Y108896D02*
X269989D01*
X262992Y109605D02*
X269281D01*
X262992Y110314D02*
X268572D01*
X262993Y86219D02*
X268254D01*
X262992Y111022D02*
X267863D01*
X262992Y85510D02*
X267615D01*
X262992Y84802D02*
X267205D01*
X262992Y111731D02*
X267155D01*
X262992Y77715D02*
X267069D01*
X242126Y94723D02*
X266774D01*
X262992Y78424D02*
X266642D01*
X242126Y99684D02*
X266571D01*
X242126Y94014D02*
X266523D01*
X242126Y95432D02*
X266515D01*
X242126Y98975D02*
X266513D01*
X242126Y98266D02*
X266513D01*
X242126Y97558D02*
X266513D01*
X242126Y96849D02*
X266513D01*
X242126Y96140D02*
X266513D01*
X242126Y93306D02*
X266513D01*
X242126Y92597D02*
X266513D01*
X242126Y91888D02*
X266513D01*
X242126Y91180D02*
X266513D01*
X242126Y90471D02*
X266470D01*
X262992Y112440D02*
X266446D01*
X262984Y77007D02*
X266373D01*
X262992Y84093D02*
X266170D01*
X262992Y79133D02*
X266047D01*
X262992Y83385D02*
X265929D01*
X262992Y82676D02*
X265922D01*
X262992Y81967D02*
X265922D01*
X262992Y81259D02*
X265922D01*
X262992Y80550D02*
X265922D01*
X262992Y79841D02*
X265922D01*
X264727Y70629D02*
X265919D01*
X262893Y113148D02*
X265737D01*
X262732Y76298D02*
X265664D01*
X264019Y69920D02*
X265341D01*
X262364Y113857D02*
X265029D01*
X242126Y75589D02*
X264955D01*
X263310Y69211D02*
X264632D01*
X242126Y114566D02*
X264320D01*
X242126Y74881D02*
X264247D01*
X262601Y68503D02*
X263967D01*
X261625Y67794D02*
X263697D01*
X261024Y67085D02*
X263681D01*
X260883Y66377D02*
X263681D01*
X260244Y65668D02*
X263681D01*
X242126Y64959D02*
X263681D01*
X242126Y115274D02*
X263611D01*
X242126Y74172D02*
X263538D01*
X242126Y64251D02*
X263459D01*
X242126Y115983D02*
X262903D01*
X242126Y73463D02*
X262829D01*
X260096Y63542D02*
X262750D01*
X242126Y116692D02*
X262194D01*
X260663Y72755D02*
X262121D01*
X260846Y62833D02*
X262042D01*
X242126Y100392D02*
X261611D01*
X242126Y89762D02*
X261609D01*
X242126Y117400D02*
X261485D01*
X242126Y101101D02*
X260854D01*
X242126Y89054D02*
X260823D01*
X242126Y118109D02*
X260777D01*
X242126Y118818D02*
X260068D01*
X242126Y63542D02*
X250928D01*
X242126Y65668D02*
X250780D01*
X242126Y72755D02*
X250360D01*
X242126Y56455D02*
X250301D01*
X242126Y62833D02*
X250178D01*
X242126Y66377D02*
X250141D01*
X242126Y72046D02*
X250028D01*
X242126Y57164D02*
X250015D01*
X242126Y62125D02*
X250000D01*
X242126Y71337D02*
X250000D01*
X242126Y70629D02*
X250000D01*
X242126Y69920D02*
X250000D01*
X242126Y69211D02*
X250000D01*
X242126Y68503D02*
X250000D01*
X242126Y67794D02*
X250000D01*
X242126Y67085D02*
X250000D01*
X242126Y61416D02*
X250000D01*
X242126Y60707D02*
X250000D01*
X242126Y59999D02*
X250000D01*
X242126Y59290D02*
X250000D01*
X242126Y58581D02*
X250000D01*
X242126Y57873D02*
X250000D01*
X242126Y88345D02*
X248775D01*
X242126Y113857D02*
X248660D01*
X242126Y101810D02*
X248347D01*
X242126Y76298D02*
X248292D01*
X242126Y87636D02*
X248162D01*
X242126Y113148D02*
X248131D01*
X242126Y102518D02*
X248049D01*
X242126Y77007D02*
X248039D01*
X242126Y112440D02*
X248031D01*
X242126Y111731D02*
X248031D01*
X242126Y111022D02*
X248031D01*
X242126Y110314D02*
X248031D01*
X242126Y109605D02*
X248031D01*
X242126Y108896D02*
X248031D01*
X242126Y108188D02*
X248031D01*
X242126Y107479D02*
X248031D01*
X242126Y106770D02*
X248031D01*
X242126Y106062D02*
X248031D01*
X242126Y105353D02*
X248031D01*
X242126Y104644D02*
X248031D01*
X242126Y103936D02*
X248031D01*
X242126Y103227D02*
X248031D01*
X242126Y86928D02*
X248031D01*
X242126Y86219D02*
X248031D01*
X242126Y85510D02*
X248031D01*
X242126Y84802D02*
X248031D01*
X242126Y84093D02*
X248031D01*
X242126Y83385D02*
X248031D01*
X242126Y82676D02*
X248031D01*
X242126Y81967D02*
X248031D01*
X242126Y81259D02*
X248031D01*
X242126Y80550D02*
X248031D01*
X242126Y79841D02*
X248031D01*
X242126Y79133D02*
X248031D01*
X242126Y78424D02*
X248031D01*
X242126Y77715D02*
X248031D01*
X130709Y90156D02*
X169685D01*
X130709Y89448D02*
X169685D01*
X130709Y88739D02*
X169685D01*
X130709Y88030D02*
X169652D01*
X130709Y90865D02*
X169529D01*
X122441Y121337D02*
X154331D01*
X122441Y120629D02*
X154331D01*
X120079Y119920D02*
X154331D01*
X120079Y119211D02*
X154331D01*
X130709Y118503D02*
X154331D01*
X130709Y117794D02*
X154331D01*
X130709Y117085D02*
X154331D01*
X130709Y116377D02*
X154331D01*
X130709Y115668D02*
X154331D01*
X130709Y114959D02*
X154331D01*
X130709Y114251D02*
X154331D01*
X130709Y113542D02*
X154331D01*
X130709Y112833D02*
X154331D01*
X130709Y112125D02*
X154331D01*
X130709Y111416D02*
X154331D01*
X130709Y110707D02*
X154331D01*
X130709Y109999D02*
X154331D01*
X130709Y109290D02*
X154331D01*
X130709Y108581D02*
X154331D01*
X130709Y107873D02*
X154331D01*
X130709Y107164D02*
X154331D01*
X130709Y106455D02*
X154331D01*
X130709Y105747D02*
X154331D01*
X130709Y105038D02*
X154331D01*
X130709Y104329D02*
X154331D01*
X130709Y103621D02*
X154331D01*
X130709Y102912D02*
X154331D01*
X130709Y102203D02*
X154331D01*
X130709Y101495D02*
X154331D01*
X130709Y100786D02*
X154331D01*
X130709Y100077D02*
X154331D01*
X130709Y99369D02*
X154331D01*
X130709Y98660D02*
X154331D01*
X130709Y97951D02*
X154331D01*
X130709Y97243D02*
X154331D01*
X130709Y96534D02*
X154331D01*
X130709Y95825D02*
X154331D01*
X130709Y95117D02*
X154331D01*
X130709Y94408D02*
X154331D01*
X130709Y93699D02*
X154331D01*
X130709Y92991D02*
X154331D01*
X130709Y92282D02*
X154331D01*
X130709Y91573D02*
X154331D01*
X130709Y87322D02*
X154331D01*
X130709Y86613D02*
X154331D01*
X115362Y85904D02*
X154331D01*
X115354Y85196D02*
X154331D01*
X115354Y84487D02*
X154331D01*
X115354Y83778D02*
X154331D01*
X122441Y122046D02*
X153969D01*
X122441Y124172D02*
X125591D01*
X122441Y123463D02*
X125591D01*
X122441Y122755D02*
X125591D01*
X122449Y124881D02*
X125583D01*
X89890Y158030D02*
X109843D01*
X91481Y157322D02*
X109843D01*
X92133Y156613D02*
X109843D01*
X92502Y155904D02*
X109843D01*
X92683Y155196D02*
X109843D01*
X92708Y154487D02*
X109843D01*
X92580Y153778D02*
X109843D01*
X88091Y138188D02*
X109843D01*
X88091Y137479D02*
X109843D01*
X88091Y136770D02*
X109843D01*
X88091Y136062D02*
X109843D01*
X88091Y135353D02*
X109843D01*
X88087Y134644D02*
X109843D01*
X87867Y133936D02*
X109843D01*
X86938Y133227D02*
X109843D01*
X85630Y132518D02*
X109843D01*
X85630Y131810D02*
X109843D01*
X85607Y131101D02*
X109843D01*
X85443Y130392D02*
X109843D01*
X85097Y129684D02*
X109843D01*
X84484Y128975D02*
X109843D01*
X83160Y128266D02*
X109843D01*
X79921Y127558D02*
X109843D01*
X79921Y126849D02*
X109843D01*
X79921Y126140D02*
X109843D01*
X79921Y125432D02*
X109843D01*
X79921Y124723D02*
X109843D01*
X79921Y124014D02*
X109843D01*
X79921Y123306D02*
X109843D01*
X79921Y122597D02*
X109843D01*
X79921Y121888D02*
X109843D01*
X79921Y121180D02*
X109843D01*
X79921Y120471D02*
X109843D01*
X79921Y119762D02*
X109843D01*
X79921Y119054D02*
X109843D01*
X79921Y118345D02*
X109843D01*
X79921Y117636D02*
X109843D01*
X79921Y116928D02*
X109843D01*
X79921Y116219D02*
X109843D01*
X79921Y115510D02*
X109843D01*
X79921Y114802D02*
X109843D01*
X79921Y114093D02*
X109843D01*
X79921Y113385D02*
X109843D01*
X79921Y112676D02*
X109843D01*
X79921Y111967D02*
X109843D01*
X79921Y111259D02*
X109843D01*
X92279Y153070D02*
X109835D01*
X79921Y110550D02*
X109830D01*
X86176Y158739D02*
X109801D01*
X88036Y138896D02*
X100308D01*
X91739Y152361D02*
X100263D01*
X90697Y151652D02*
X100197D01*
X79926Y150944D02*
X100197D01*
X79921Y150235D02*
X100197D01*
X79921Y149526D02*
X100197D01*
X79921Y148818D02*
X100197D01*
X86903Y148109D02*
X100197D01*
X87205Y147400D02*
X100197D01*
X87205Y146692D02*
X100197D01*
X87205Y145983D02*
X100197D01*
X87205Y145274D02*
X100197D01*
X87205Y144566D02*
X100197D01*
X87205Y143857D02*
X100197D01*
X86742Y143148D02*
X100197D01*
X79921Y142440D02*
X100197D01*
X79921Y141731D02*
X100197D01*
X79921Y141022D02*
X100197D01*
X79947Y140314D02*
X100197D01*
X87622Y139605D02*
X100197D01*
X87163Y158030D02*
X88850D01*
X79921Y128266D02*
X81407D01*
G54D26*
X134833Y58646D02*
G03X137313Y58248I2480J7519D01*
G01X134833Y58646D02*
X135761Y57093D01*
X137313Y58248D02*
G03X135761Y57093I-0J-1620D01*
G01X135071Y58248D02*
X137313D01*
X135738Y57131D02*
Y58406D01*
X171260Y27658D02*
G03X169255Y32063I-6883J-473D01*
G01X171260Y27658D02*
Y30217D01*
X169255Y32063*
X169255*
X170434Y30489D02*
X170965D01*
X171056Y28914D02*
X171260D01*
X169255Y32063D02*
X169255D01*
X170830Y29625D02*
Y30612D01*
X171260Y38923D02*
G03X170059Y40965I-4537J-1295D01*
G01X171260Y38923D02*
Y39862D01*
X170059Y40965*
X170059*
X171100Y39390D02*
X171260D01*
X170059Y40965D02*
X170059D01*
X130534Y42040D02*
G03X131401Y41339I867J184D01*
G01X130534Y42040D02*
Y40637D01*
X131401Y41339D02*
G03X130534Y40637I-0J-886D01*
G01Y41339D02*
X131401D01*
X129085Y42301D02*
G03X129772Y43168I-203J867D01*
G01X129085Y42301D02*
X130458D01*
X129772Y43168D02*
G03X130458Y42301I890J-0D01*
G01X129772Y43168D02*
X129772D01*
Y42301D02*
Y43168D01*
X130458Y45494D02*
G03X129772Y44628I204J-866D01*
G01X130458Y45494D02*
X129085D01*
X129772Y44628D02*
G03X129085Y45494I-890J-0D01*
G01X129772Y44628D02*
Y45494D01*
X311048Y77488D02*
G03X310236Y75571I1859J-1917D01*
G01X311048Y77488D02*
X309425D01*
X310236Y75571D02*
G03X309425Y77488I-2671J-0D01*
G01X309723Y77146D02*
X310750D01*
X310236Y75571D02*
Y77488D01*
X27778Y172267D02*
G03X27365Y172879I-1777J-752D01*
G01X27778Y172267D02*
X28349D01*
X27365Y172879D02*
G03X28349Y172267I1808J1809D01*
G01X27365Y172879D02*
X27365D01*
X27365*
X350370Y128024D02*
G03X351181Y129941I-1860J1917D01*
G01X350370Y128024D02*
X351993D01*
X351181Y129941D02*
G03X351993Y128024I2671J-0D01*
G01X351181Y129941D02*
X351181D01*
X350667Y128366D02*
X351695D01*
X351181Y128024D02*
Y129941D01*
X309425Y128024D02*
G03X310236Y129941I-1860J1917D01*
G01X309425Y128024D02*
X311048D01*
X310236Y129941D02*
G03X311048Y128024I2671J-0D01*
G01X310236Y129941D02*
X310236D01*
X309723Y128366D02*
X310750D01*
X310236Y128024D02*
Y129941D01*
X305835Y112968D02*
G03X303917Y113780I-1918J-1859D01*
G01X305835Y112968D02*
Y114591D01*
X303917Y113780D02*
G03X305835Y114591I0J2671D01*
G01X303917Y113780D02*
X305835D01*
X303917D02*
X303917D01*
X305492Y113266D02*
Y114293D01*
X22764Y183441D02*
G03X20846Y184252I-1918J-1860D01*
G01X22764Y183441D02*
Y185063D01*
X20846Y184252D02*
G03X22764Y185063I0J2671D01*
G01X20846Y184252D02*
X22764D01*
X20846D02*
X20846D01*
X22421Y183738D02*
Y184766D01*
X134646Y57480D02*
X135413Y58248D01*
X140748*
X174409Y28642D02*
X172677D01*
X165354Y35965*
X161220*
X174409Y38287D02*
X172736D01*
X170059Y40965*
X161220*
X140354D02*
X134232D01*
X133858Y41339*
X129772*
Y46457*
X310236Y72441D02*
Y78346D01*
X28740Y171504D02*
X26228Y174016D01*
X17815*
X351181Y127165D02*
Y133071D01*
X310236Y127165D02*
Y133071D01*
X300394Y113780D02*
X306693D01*
X23622Y184252D02*
X17815D01*
X277581Y71260D02*
X276597D01*
X275047Y68526D02*
Y69510D01*
Y73994D02*
Y73010D01*
X277581Y81496D02*
X276597D01*
X275047Y78762D02*
Y79746D01*
X266513Y97244D02*
X267497D01*
X266513Y92126D02*
X267497D01*
G54D27*
X179058Y76758D02*
G03X180013Y75984I955J202D01*
G01X179058Y76758D02*
Y75211D01*
X180013Y75984D02*
G03X179058Y75211I-0J-976D01*
G01Y75984D02*
X180013D01*
X181747Y75105D02*
G03X179670Y75984I-2077J-2014D01*
G01X181747Y75105D02*
Y76863D01*
X179670Y75984D02*
G03X181747Y76863I0J2894D01*
G01X179670Y75984D02*
X181747D01*
X179670D02*
X179670D01*
X181048Y75635D02*
Y76333D01*
X179058Y56285D02*
G03X180013Y55512I955J203D01*
G01X179058Y56285D02*
Y54738D01*
X180013Y55512D02*
G03X179058Y54738I-0J-976D01*
G01Y55512D02*
X180013D01*
X181747Y54633D02*
G03X179670Y55512I-2077J-2015D01*
G01X181747Y54633D02*
Y56391D01*
X179670Y55512D02*
G03X181747Y56391I0J2893D01*
G01X179670Y55512D02*
X181747D01*
X179670D02*
X179670D01*
X181048Y55163D02*
Y55861D01*
X356048Y83163D02*
G03X358125Y82283I2077J2014D01*
G01X356048Y83163D02*
Y81404D01*
X358125Y82283D02*
G03X356048Y81404I0J-2893D01*
G01Y82283D02*
X358125D01*
X356747Y81934D02*
Y82633D01*
X358661Y81929D02*
G03X356535Y82283I-2126J-6201D01*
G01X358661Y81929D02*
Y82638D01*
X356535Y82283D02*
G03X358661Y82638I0J6556D01*
G01X356535Y82283D02*
X358661D01*
X356535D02*
X356535D01*
X357913Y82137D02*
Y82430D01*
X306208Y67465D02*
G03X307087Y69542I-2015J2077D01*
G01X306208Y67465D02*
X307966D01*
X307087Y69542D02*
G03X307966Y67465I2893J0D01*
G01X307087Y69542D02*
X307087D01*
X306737Y68164D02*
X307436D01*
X307087Y67465D02*
Y69542D01*
X307441Y70079D02*
G03X307087Y67953I6201J-2126D01*
G01X307441Y70079D02*
X306732D01*
X307087Y67953D02*
G03X306732Y70079I-6556J-0D01*
G01X306940Y69331D02*
X307233D01*
X307087Y67953D02*
Y70079D01*
X306313Y62916D02*
G03X307087Y63871I-203J955D01*
G01X306313Y62916D02*
X307860D01*
X307087Y63871D02*
G03X307860Y62916I976J0D01*
G01X307087Y63871D02*
X307087D01*
Y62916D02*
Y63871D01*
X307966Y65606D02*
G03X307087Y63529I2014J-2077D01*
G01X307966Y65606D02*
X306208D01*
X307087Y63529D02*
G03X306208Y65606I-2894J-0D01*
G01X306737Y64906D02*
X307436D01*
X307087Y63529D02*
Y65606D01*
X367859Y80013D02*
G03X369936Y79134I2077J2014D01*
G01X367859Y80013D02*
Y78255D01*
X369936Y79134D02*
G03X367859Y78255I0J-2894D01*
G01Y79134D02*
X369936D01*
X368558Y78785D02*
Y79483D01*
X370548Y78360D02*
G03X369594Y79134I-954J-202D01*
G01X370548Y78360D02*
Y79907D01*
X369594Y79134D02*
G03X370548Y79907I-0J976D01*
G01X369594Y79134D02*
X370548D01*
X369594D02*
X369594D01*
X378270Y79907D02*
G03X379225Y79134I955J203D01*
G01X378270Y79907D02*
Y78360D01*
X379225Y79134D02*
G03X378270Y78360I0J-976D01*
G01Y79134D02*
X379225D01*
X380960Y78255D02*
G03X378883Y79134I-2077J-2015D01*
G01X380960Y78255D02*
Y80013D01*
X378883Y79134D02*
G03X380960Y80013I-0J2893D01*
G01X378883Y79134D02*
X380960D01*
X378883D02*
X378883D01*
X380261Y78785D02*
Y79483D01*
X363386Y79488D02*
G03X365512Y79134I2126J6201D01*
G01X363386Y79488D02*
Y78780D01*
X365512Y79134D02*
G03X363386Y78780I-0J-6555D01*
G01Y79134D02*
X365512D01*
X364134Y78987D02*
Y79280D01*
X365999Y78255D02*
G03X363922Y79134I-2077J-2015D01*
G01X365999Y78255D02*
Y80013D01*
X363922Y79134D02*
G03X365999Y80013I0J2893D01*
G01X363922Y79134D02*
X365999D01*
X363922D02*
X363922D01*
X365300Y78785D02*
Y79483D01*
X92006Y170216D02*
G03X92961Y169441I955J201D01*
G01X92006Y170216D02*
Y168666D01*
X92961Y169441D02*
G03X92006Y168666I-0J-976D01*
G01Y169441D02*
X92961D01*
X95396Y168666D02*
G03X94441Y169441I-955J-201D01*
G01X95396Y168666D02*
Y170216D01*
X94441Y169441D02*
G03X95396Y170216I-0J976D01*
G01X94441Y169441D02*
X95396D01*
X94441D02*
X94441D01*
X309591Y160722D02*
G03X311668Y159843I2077J2014D01*
G01X309591Y160722D02*
Y158963D01*
X311668Y159843D02*
G03X309591Y158963I0J-2894D01*
G01Y159843D02*
X311668D01*
X310290Y159493D02*
Y160192D01*
X312674Y159069D02*
G03X311719Y159843I-955J-203D01*
G01X312674Y159069D02*
Y160616D01*
X311719Y159843D02*
G03X312674Y160616I0J976D01*
G01X311719Y159843D02*
X312674D01*
X311719D02*
X311719D01*
X312325Y148682D02*
G03X311370Y149457I-955J-201D01*
G01X312325Y148682D02*
Y150232D01*
X311370Y149457D02*
G03X312325Y150232I-0J976D01*
G01X311370Y149457D02*
X312325D01*
X311370D02*
X311370D01*
X309742Y150291D02*
G03X311665Y149457I1923J1797D01*
G01X309742Y150291D02*
X309148Y148423D01*
X311665Y149457D02*
G03X309148Y148423I-0J-3581D01*
G01X309477Y149457D02*
X311665D01*
X310287Y149181D02*
Y149846D01*
X178197Y75984D02*
X182677D01*
X178197Y55512D02*
X182677D01*
X355118Y82283D02*
X361024D01*
X307087Y72441D02*
Y66535D01*
Y62055*
X366929Y79134D02*
X371409D01*
X377409D02*
X381890D01*
X361024D02*
X366929D01*
X90945Y169441D02*
X96457D01*
X308661Y159843D02*
X313535D01*
X313386Y149457D02*
X308811D01*
X308661Y149606*
G54D28*
X131125Y58326D02*
G03X132168Y57480I1043J221D01*
G01X131125Y58326D02*
Y56635D01*
X132168Y57480D02*
G03X131125Y56635I0J-1066D01*
G01Y57480D02*
X132168D01*
X133644Y56534D02*
G03X131407Y57480I-2237J-2170D01*
G01X133644Y56534D02*
Y58427D01*
X131407Y57480D02*
G03X133644Y58427I0J3116D01*
G01X131407Y57480D02*
X133644D01*
X131407D02*
X131407D01*
X132589Y57248D02*
Y57713D01*
X280529Y82443D02*
G03X282766Y81496I2237J2169D01*
G01X280529Y82443D02*
Y80549D01*
X282766Y81496D02*
G03X280529Y80549I-0J-3116D01*
G01Y81496D02*
X282766D01*
X281585Y81264D02*
Y81729D01*
X283048Y80651D02*
G03X282005Y81496I-1043J-222D01*
G01X283048Y80651D02*
Y82341D01*
X282005Y81496D02*
G03X283048Y82341I-0J1067D01*
G01X282005Y81496D02*
X283048D01*
X282005D02*
X282005D01*
X59645Y186576D02*
G03X60557Y184324I3116J-48D01*
G01X59645Y186576D02*
X58306Y185237D01*
X60557Y184324D02*
G03X58306Y185237I-2203J-2203D01*
G01X58575Y185506D02*
X59817D01*
X59376Y185065D02*
Y186307D01*
X89785Y170400D02*
G03X89248Y171138I-2622J-1346D01*
G01X89785Y170400D02*
X90428D01*
X89248Y171138D02*
G03X90428Y170400I2189J2190D01*
G01X89248Y171138D02*
X89248D01*
X89248*
X215356Y108113D02*
G03X213407Y109055I-1949J-1545D01*
G01X215356Y108113D02*
Y109997D01*
X213407Y109055D02*
G03X215356Y109997I0J2487D01*
G01X213407Y109055D02*
X215356D01*
X213407D02*
X213407D01*
X214588Y108757D02*
Y109353D01*
X309663Y155671D02*
G03X311900Y154724I2237J2170D01*
G01X309663Y155671D02*
Y153778D01*
X311900Y154724D02*
G03X309663Y153778I-0J-3116D01*
G01Y154724D02*
X311900D01*
X310719Y154492D02*
Y154957D01*
X312576Y153879D02*
G03X311532Y154724I-1044J-221D01*
G01X312576Y153879D02*
Y155570D01*
X311532Y154724D02*
G03X312576Y155570I0J1067D01*
G01X311532Y154724D02*
X312576D01*
X311532D02*
X311532D01*
X72121Y183891D02*
G03X73130Y186308I-2390J2417D01*
G01X72121Y183891D02*
X74039Y184185D01*
X73130Y186308D02*
G03X74039Y184185I2932J-0D01*
G01X73130Y186308D02*
X73130D01*
X72918Y185126D02*
X73378D01*
X72175Y183945D02*
X72474D01*
X73130Y184046D02*
Y186308D01*
X74388Y202434D02*
G03X74926Y201696I2622J1347D01*
G01X74388Y202434D02*
X73745D01*
X74926Y201696D02*
G03X73745Y202434I-2190J-2189D01*
G01X45218Y187424D02*
G03X46063Y188468I-222J1044D01*
G01X45218Y187424D02*
X46908D01*
X46063Y188468D02*
G03X46908Y187424I1067J-0D01*
G01X46063Y188468D02*
X46063D01*
Y187424D02*
Y188468D01*
X47010Y189944D02*
G03X46063Y187707I2169J-2237D01*
G01X47010Y189944D02*
X45116D01*
X46063Y187707D02*
G03X45116Y189944I-3116J-0D01*
G01X45830Y188888D02*
X46296D01*
X46063Y187707D02*
Y189944D01*
X39785Y181270D02*
G03X38742Y182134I-1043J-198D01*
G01X39785Y181270D02*
Y182997D01*
X38742Y182134D02*
G03X39785Y182997I-0J1062D01*
G01X38742Y182134D02*
X39785D01*
X38742D02*
X38742D01*
X37380Y183028D02*
G03X39455Y182134I2075J1961D01*
G01X37380Y183028D02*
X36813Y181039D01*
X39455Y182134D02*
G03X36813Y181039I0J-3737D01*
G01X37125Y182134D02*
X39455D01*
X37093Y181292D02*
Y182021D01*
X38274Y181942D02*
Y182390D01*
X130165Y57480D02*
X134646D01*
X279528Y81496D02*
X284008D01*
X78248Y171654D02*
X68012Y181890D01*
Y184646*
X73130Y166929D02*
Y171752D01*
X58268Y186614*
X78248Y166929D02*
Y171654D01*
X90945Y169441D02*
X88732Y171654D01*
X78248*
X197835Y107854D02*
X198031Y108051D01*
Y109055*
X201181Y112205*
X216732Y107854D02*
X215531Y109055D01*
X211024*
X207874Y112205*
X201181*
X308661Y154724D02*
X313535D01*
X68012Y184646D02*
Y188976D01*
X73228Y183071D02*
X73130Y183169D01*
Y188976*
X75689D02*
Y193701D01*
X77165Y195177*
Y199457*
X73228Y203394*
X68012Y188976D02*
Y197146D01*
X68110Y197244*
X46063Y186465D02*
Y190945D01*
X40945Y182134D02*
X36370D01*
X36220Y182283*
X40945Y182134D02*
X41732D01*
X87205Y145669D02*
X86516D01*
X86496Y143110D02*
X85742Y144154D01*
X84050Y143110D02*
Y143799D01*
X82283Y143110D02*
Y143799D01*
X80517Y143110D02*
Y143799D01*
Y148228D02*
Y147539D01*
X82283Y148228D02*
Y147539D01*
X84050Y148228D02*
Y147539D01*
X86496Y148228D02*
X85742Y147185D01*
G54D29*
X316535Y167913D03*
Y193504D03*
X348031D03*
Y167913D03*
G54D30*
X383071Y262055D03*
Y256055D03*
X20079Y245031D03*
Y251031D03*
Y256055D03*
Y262055D03*
X294094Y56055D03*
Y62055D03*
X283858Y56055D03*
Y62055D03*
X341732Y149457D03*
Y143457D03*
X90945Y180465D03*
Y186465D03*
X96457Y180465D03*
Y186465D03*
X383071Y251031D03*
Y245031D03*
X354331Y143457D03*
Y149457D03*
X307087Y62055D03*
Y56055D03*
X300394Y62055D03*
Y56055D03*
X312205Y62055D03*
Y56055D03*
X72047Y156543D03*
Y150543D03*
X66929Y156543D03*
Y150543D03*
X72047Y144732D03*
Y138732D03*
X66929Y144732D03*
Y138732D03*
X322441Y56055D03*
Y62055D03*
X62992Y197394D03*
Y203394D03*
X73228Y197394D03*
Y203394D03*
X40945Y176134D03*
Y182134D03*
X46063Y180465D03*
Y186465D03*
X28740Y171504D03*
Y165504D03*
X68110Y197394D03*
Y203394D03*
X313386Y143457D03*
Y149457D03*
X90945Y175441D03*
Y169441D03*
X96457Y175441D03*
Y169441D03*
X317323Y62055D03*
Y56055D03*
X35039Y171504D03*
Y165504D03*
X61811Y150543D03*
Y156543D03*
X319685Y149457D03*
Y143457D03*
X327953D03*
Y149457D03*
X333465Y143457D03*
Y149457D03*
X327559Y62055D03*
Y56055D03*
X124016Y139126D03*
Y145126D03*
X136614Y139126D03*
Y145126D03*
X148819Y139126D03*
Y145126D03*
X348031Y149457D03*
Y143457D03*
X277953Y141583D03*
Y135583D03*
X272835Y130465D03*
Y136465D03*
G54D31*
X27165Y247106D03*
Y259980D03*
X375984D03*
Y247106D03*
G54D32*
X148819Y131890D03*
X161024Y142126D03*
X136614Y131890D03*
X124016D03*
G54D33*
X214323Y100000D03*
X220323D03*
X55756Y253543D03*
X49756D03*
X223472Y123622D03*
X217472D03*
X124165Y68504D03*
X130165D03*
Y62992D03*
X124165D03*
X172197Y70866D03*
X178197D03*
Y84252D03*
X172197D03*
Y65748D03*
X178197D03*
X51331Y175197D03*
X57331D03*
X51331Y180709D03*
X57331D03*
X347394Y253543D03*
X353394D03*
X198575Y123622D03*
X204575D03*
X371409Y79134D03*
X377409D03*
X290008Y122835D03*
X284008D03*
X129772Y46457D03*
X123772D03*
X106449Y99606D03*
X112449D03*
X106449Y104724D03*
X112449D03*
X178197Y109449D03*
X172197D03*
X178197Y104331D03*
X172197D03*
X269047Y92126D03*
X275047D03*
X269047Y97244D03*
X275047D03*
X269047Y71260D03*
X275047D03*
X269047Y81496D03*
X275047D03*
X319535Y159843D03*
X313535D03*
X290008Y76378D03*
X284008D03*
X172197Y55512D03*
X178197D03*
X130165Y74016D03*
X124165D03*
Y57480D03*
X130165D03*
X172197Y75984D03*
X178197D03*
X198575Y128740D03*
X204575D03*
X223472D03*
X217472D03*
X313535Y154724D03*
X319535D03*
X290008Y117717D03*
X284008D03*
X129772Y41339D03*
X123772D03*
X172197Y114567D03*
X178197D03*
X172197Y60630D03*
X178197D03*
X290008Y81496D03*
X284008D03*
X290008Y71260D03*
X284008D03*
X207724Y100000D03*
X201724D03*
X290008Y97244D03*
X284008D03*
X290008Y102362D03*
X284008D03*
X290008Y107480D03*
X284008D03*
X290008Y112598D03*
X284008D03*
X178197Y49606D03*
X172197D03*
X371409Y114961D03*
X377409D03*
X371409Y109449D03*
X377409D03*
X123772Y31102D03*
X129772D03*
Y25984D03*
X123772D03*
Y36220D03*
X129772D03*
X106449Y94488D03*
X112449D03*
X106449Y89370D03*
X112449D03*
X172197Y94488D03*
X178197D03*
X284008Y128346D03*
X290008D03*
X284008Y143701D03*
X290008D03*
X284008Y138583D03*
X290008D03*
X284008Y133465D03*
X290008D03*
G54D34*
X35020Y249803D03*
Y257283D03*
X43720Y253543D03*
X368130Y257283D03*
Y249803D03*
X359429Y253543D03*
G54D35*
X224213Y107854D03*
X216732D03*
X220472Y116555D03*
X205315Y107854D03*
X197835D03*
X201575Y116555D03*
G54D36*
X300394Y79134D03*
Y82283D03*
Y85433D03*
Y88583D03*
Y91732D03*
Y94882D03*
Y98031D03*
Y101181D03*
Y104331D03*
Y107480D03*
Y110630D03*
Y113780D03*
Y116929D03*
Y120079D03*
Y123228D03*
Y126378D03*
X361024D03*
Y123228D03*
Y120079D03*
Y116929D03*
Y113780D03*
Y110630D03*
Y107480D03*
Y104331D03*
Y101181D03*
Y98031D03*
Y94882D03*
Y91732D03*
Y88583D03*
Y85433D03*
Y82283D03*
Y79134D03*
G54D37*
X307087Y133071D03*
X310236D03*
X313386D03*
X316535D03*
X319685D03*
X322835D03*
X325984D03*
X329134D03*
X332283D03*
X335433D03*
X338583D03*
X341732D03*
X344882D03*
X348031D03*
X351181D03*
X354331D03*
Y72441D03*
X351181D03*
X348031D03*
X344882D03*
X341732D03*
X338583D03*
X335433D03*
X332283D03*
X329134D03*
X325984D03*
X322835D03*
X319685D03*
X316535D03*
X313386D03*
X310236D03*
X307087D03*
G54D38*
X51969Y150000D03*
X27559D03*
G54D39*
X118642Y61024D03*
X105768D03*
Y70472D03*
X118642D03*
X157224Y16929D03*
X144350D03*
X157224Y49606D03*
X144350D03*
G54D40*
X17815Y174016D03*
Y176575D03*
Y179134D03*
Y181693D03*
Y184252D03*
G54D41*
X17323Y166929D03*
Y191339D03*
G54D42*
X7283Y164370D03*
Y174409D03*
Y183858D03*
Y193898D03*
G54D43*
X82283Y136614D03*
Y145669D03*
Y154724D03*
G54D44*
X105118Y145669D03*
G54D45*
X124016Y84469D03*
Y89469D03*
Y94469D03*
Y99469D03*
Y104469D03*
Y109469D03*
Y114469D03*
Y119469D03*
X161024D03*
Y114469D03*
Y109469D03*
Y104469D03*
Y99469D03*
Y94469D03*
Y89469D03*
Y84469D03*
G54D46*
X142520Y101969D03*
G54D47*
X161220Y40965D03*
Y35965D03*
Y30965D03*
Y25965D03*
X140354D03*
Y30965D03*
Y35965D03*
Y40965D03*
X140748Y58248D03*
Y63248D03*
Y68248D03*
Y73248D03*
X161614D03*
Y68248D03*
Y63248D03*
Y58248D03*
G54D48*
X83366Y166929D03*
X80807D03*
X78248D03*
X75689D03*
X73130D03*
X70571D03*
X68012D03*
X65453D03*
Y188976D03*
X68012D03*
X70571D03*
X73130D03*
X75689D03*
X78248D03*
X80807D03*
X83366D03*
G54D49*
X174409Y38287D03*
Y28642D03*
X255512Y69390D03*
Y59744D03*
G54D50*
Y82087D03*
Y107677D03*
G54D51*
X201575Y404724D03*
Y429134D03*
G54D52*
X52695Y119689D02*
G03X55512Y127953I-10714J8264D01*
G01X52695Y119689D02*
X58328D01*
X55512Y127953D02*
G03X58328Y119689I13530J-0D01*
G01X55512Y127953D02*
X55512D01*
X55140Y124803D02*
X55883D01*
X53956Y121654D02*
X57068D01*
X55512Y119689D02*
Y127953D01*
X75984Y150394D02*
X75835Y150543D01*
X72047*
X41732Y165354D02*
X41583Y165504D01*
X35039*
X66929Y134252D02*
Y138732D01*
X72047Y134252D02*
Y138732D01*
X82283Y154724D02*
X76772D01*
X74953Y156543*
X72047*
X82283Y136614D02*
X76772D01*
X74654Y138732*
X72047*
X66929Y156543D02*
X61811D01*
Y160630*
Y156543D02*
X59205D01*
X58268Y157480*
X51969*
X55512Y114567D02*
Y127953D01*
X61811Y134252*
Y150543*
X72047Y138732D02*
X66929D01*
Y150543D02*
X72047D01*
Y156543D02*
X66929D01*
Y160630*
X72047Y156543D02*
Y160630D01*
X182677Y109449D02*
X178197D01*
X182677Y114567D02*
X178197D01*
Y118898*
X177953*
X172197Y109449D02*
Y114567D01*
G54D53*
X163386Y140354D02*
G03X164457Y138898I4488J2178D01*
G01X163386Y140354D02*
X161998D01*
X164457Y138898D02*
G03X161998Y140354I-4487J-4772D01*
G01X162094Y140322D02*
Y140354D01*
X151181Y133484D02*
G03X153307Y131890I2126J620D01*
G01X151181Y133484D02*
Y130295D01*
X153307Y131890D02*
G03X151181Y130295I0J-2215D01*
G01Y131890D02*
X153307D01*
X138976Y130118D02*
G03X139889Y128615I3532J1116D01*
G01X138976Y130118D02*
X137461D01*
X139889Y128615D02*
G03X137461Y130118I-4409J-4409D01*
G01X137527Y130096D02*
Y130118D01*
X123169D02*
G03X120741Y128615I1981J-5912D01*
G01X123169Y130118D02*
X121654D01*
X120741Y128615D02*
G03X121654Y130118I-2619J2619D01*
G01X120741Y128615D02*
X120741D01*
X123103Y130096D02*
Y130118D01*
X172177Y109469D02*
X161024D01*
Y99469D02*
X185060Y99627D01*
X187402Y101969*
Y117323*
X161024Y142126*
Y114469D02*
X166142D01*
X168110Y116437*
Y122835*
X159055Y131890*
X148819*
X161024Y119469D02*
Y122047D01*
X157480Y125591*
X142913*
X136614Y131890*
X124016Y114469D02*
X118602D01*
X116929Y116142*
Y124803*
X124016Y131890*
G54D54*
X82283Y154724D02*
X89370D01*
G74*
X0Y0D02*
M02*
