*
*
G04 PADS VX.2.4 Build Number: 11695987 generated Gerber (RS-274-X) file*
G04 PC Version=2.1*
*
%IN "Hdd_Clock.pcb"*%
*
%MOIN*%
*
%FSLAX35Y35*%
*
*
*
*
G04 PC Standard Apertures*
*
*
G04 Thermal Relief Aperture macro.*
%AMTER*
1,1,$1,0,0*
1,0,$1-$2,0,0*
21,0,$3,$4,0,0,45*
21,0,$3,$4,0,0,135*
%
*
*
G04 Annular Aperture macro.*
%AMANN*
1,1,$1,0,0*
1,0,$2,0,0*
%
*
*
G04 Odd Aperture macro.*
%AMODD*
1,1,$1,0,0*
1,0,$1-0.005,0,0*
%
*
*
G04 PC Custom Aperture Macros*
*
*
*
*
*
*
G04 PC Aperture Table*
*
%ADD010C,0.001*%
%ADD020C,0.01969*%
%ADD021C,0.00591*%
%ADD024C,0.00984*%
%ADD025C,0.00787*%
%ADD026C,0.01575*%
%ADD028C,0.01181*%
%ADD066C,0.005*%
%ADD093C,0.006*%
%ADD094C,0.00394*%
%ADD095C,0.00669*%
*
*
*
*
G04 PC Circuitry*
G04 Layer Name Hdd_Clock.pcb - circuitry*
%LPD*%
*
*
G04 PC Custom Flashes*
G04 Layer Name Hdd_Clock.pcb - flashes*
%LPD*%
*
*
G04 PC Circuitry*
G04 Layer Name Hdd_Clock.pcb - circuitry*
%LPD*%
*
G54D10*
G54D20*
G01X703937Y181693D02*
G75*
G03X703937I-984J0D01*
G54D21*
G01X423228Y345965D02*
Y343307D01*
X422638*
Y345965*
X423228*
X422638D02*
X423228D01*
Y357972*
X422638*
X415354Y345965D02*
Y343307D01*
X415945*
Y345965*
X415354*
X415945D02*
X415354D01*
Y357972*
X415945*
X443065Y432005D02*
X441737Y429704D01*
X441225Y429999*
X442554Y432300*
X443065Y432005*
X442554Y432300D02*
X443065Y432005D01*
X449069Y442404*
X448558Y442700*
X436246Y435942D02*
X434918Y433641D01*
X435429Y433345*
X436758Y435647*
X436246Y435942*
X436758Y435647D02*
X436246Y435942D01*
X442250Y446341*
X442762Y446046*
X543780Y515078D02*
X541213Y514390D01*
X541213D02*
X541060Y514961D01*
X543627Y515649*
X543780Y515078*
X543627Y515649D02*
X543780Y515078D01*
X555379Y518186*
X555226Y518757*
X541742Y522684D02*
X539175Y521996D01*
X539328Y521426*
X541895Y522114*
X541742Y522684*
X541895Y522114D02*
X541742Y522684D01*
X553341Y525792*
X553494Y525221*
X557480Y234055D02*
X548819D01*
Y226575*
X557480*
Y234055*
X573228Y234449D02*
X564567D01*
Y226969*
X573228*
Y234449*
X428396Y345419D02*
Y345069D01*
X434696*
Y349069*
X428396Y358519D02*
Y358869D01*
X434696*
Y354869*
X428396Y350969D02*
Y352969D01*
X619148Y207530D02*
X619498D01*
Y213830*
X615498*
X606048Y207530D02*
X605698D01*
Y213830*
X609698*
X613598Y207530D02*
X611598D01*
X447268Y428948D02*
X447093Y428645D01*
X452549Y425495*
X454549Y428959*
X453818Y440293D02*
X453993Y440596D01*
X459449Y437446*
X457449Y433982*
X450043Y433755D02*
X451043Y435487D01*
X544590Y509945D02*
X544252Y509855D01*
X545882Y503769*
X549746Y504805*
X557244Y513336D02*
X557582Y513426D01*
X559212Y507341*
X555349Y506306*
X549951Y511382D02*
X551883Y511899D01*
X630158Y513336D02*
X629820Y513426D01*
X628189Y507341*
X632053Y506306*
X642812Y509945D02*
X643150Y509855D01*
X641519Y503769*
X637655Y504805*
X635519Y511899D02*
X637451Y511382D01*
X733584Y440293D02*
X733409Y440596D01*
X727953Y437446*
X729953Y433982*
X740134Y428948D02*
X740309Y428645D01*
X734853Y425495*
X732853Y428959*
X736359Y435487D02*
X737359Y433755D01*
X759006Y358519D02*
Y358869D01*
X752706*
Y354869*
X759006Y345419D02*
Y345069D01*
X752706*
Y349069*
X759006Y352969D02*
Y350969D01*
X487873Y479126D02*
X487596Y478913D01*
X491431Y473915*
X494604Y476350*
X498266Y487101D02*
X498544Y487314D01*
X502379Y482316*
X499206Y479881*
X492276Y482505D02*
X493863Y483722D01*
X689135Y487101D02*
X688858Y487314D01*
X685023Y482316*
X688196Y479881*
X699528Y479126D02*
X699806Y478913D01*
X695971Y473915*
X692797Y476350*
X693539Y483722D02*
X695125Y482505D01*
X600251Y207530D02*
X600601D01*
Y213830*
X596601*
X587151Y207530D02*
X586801D01*
Y213830*
X590801*
X594701Y207530D02*
X592701D01*
X416535Y242717D02*
Y238976D01*
X447244*
Y242717*
X449016*
Y238976*
X447244*
Y242717*
X447638Y242323D02*
X448622D01*
Y239370*
X447638*
Y242323*
X448031Y242717D02*
X448228D01*
Y239764*
X448031*
Y242717*
X416535Y254134D02*
Y257874D01*
X447244*
Y254134*
X449016*
Y257874*
X447244*
Y254134*
X447638Y254528D02*
X448622D01*
Y257480*
X447638*
Y254528*
X448031Y254134D02*
X448228D01*
Y257087*
X448031*
Y254134*
X594201Y229165D02*
X593201D01*
X594201Y225165D02*
X593201D01*
X594451Y227165D02*
X592951Y228165D01*
Y226165*
X594451Y227165*
X608630Y224909D02*
Y223909D01*
X612630Y224909D02*
Y223909D01*
X610630Y225159D02*
X609630Y223659D01*
X611630*
X610630Y225159*
X711311Y251150D02*
X712311D01*
X711311Y255150D02*
X712311D01*
X711061Y253150D02*
X712561Y252150D01*
Y254150*
X711061Y253150*
X481071Y271366D02*
Y270366D01*
X485071Y271366D02*
Y270366D01*
X483071Y271616D02*
X482071Y270116D01*
X484071*
X483071Y271616*
X486583Y271366D02*
Y270366D01*
X490583Y271366D02*
Y270366D01*
X488583Y271616D02*
X487583Y270116D01*
X489583*
X488583Y271616*
X632023Y518186D02*
X629456Y518874D01*
X629609Y519444*
X632176Y518757*
X632023Y518186*
X632176Y518757D02*
X632023Y518186D01*
X643622Y515078*
X643775Y515649*
X634061Y525792D02*
X631494Y526480D01*
X631341Y525909*
X633908Y525221*
X634061Y525792*
X633908Y525221D02*
X634061Y525792D01*
X645660Y522684*
X645507Y522114*
X738332Y442404D02*
X737004Y444706D01*
X737515Y445001*
X738844Y442700*
X738332Y442404*
X738844Y442700D02*
X738332Y442404D01*
X744336Y432005*
X744848Y432300*
X745151Y446341D02*
X743823Y448643D01*
X743311Y448347*
X744640Y446046*
X745151Y446341*
X744640Y446046D02*
X745151Y446341D01*
X751155Y435942*
X750644Y435647*
X764173Y357972D02*
Y360630D01*
X764764*
Y357972*
X764173*
X764764D02*
X764173D01*
Y345965*
X764764*
X772047Y357972D02*
Y360630D01*
X771457*
Y357972*
X772047*
X771457D02*
X772047D01*
Y345965*
X771457*
X485160Y483558D02*
X483052Y481941D01*
X482693Y482409*
X484801Y484027*
X485160Y483558*
X484801Y484027D02*
X485160Y483558D01*
X485160D02*
X494687Y490868D01*
X494327Y491337*
X480367Y489805D02*
X478259Y488188D01*
X478618Y487719*
X480727Y489337*
X480367Y489805*
X480727Y489337D02*
X480367Y489805D01*
X489894Y497115*
X490253Y496647*
X692715Y490868D02*
X690606Y492486D01*
X690966Y492955*
X693074Y491337*
X692715Y490868*
X693074Y491337D02*
X692715Y490868D01*
X702241Y483558*
X702601Y484027*
X697508Y497115D02*
X695400Y498733D01*
X695040Y498264*
X697148Y496647*
X697508Y497115*
X697148Y496647D02*
X697508Y497115D01*
X707034Y489805*
X706675Y489337*
X510335Y163386D02*
X512992D01*
Y162795*
X510335*
Y163386*
Y162795D02*
Y163386D01*
X498327*
Y162795*
X510335Y155512D02*
X512992D01*
Y156102*
X510335*
Y155512*
Y156102D02*
Y155512D01*
X498327*
Y156102*
Y164961D02*
X495669D01*
Y165551*
X498327*
Y164961*
Y165551D02*
Y164961D01*
X510335*
Y165551*
X498327Y172835D02*
X495669D01*
Y172244*
X498327*
Y172835*
Y172244D02*
Y172835D01*
X510335*
Y172244*
X548917Y119291D02*
X551575D01*
Y118701*
X548917*
Y119291*
Y118701D02*
Y119291D01*
X536909*
Y118701*
X548917Y111417D02*
X551575D01*
Y112008*
X548917*
Y111417*
Y112008D02*
Y111417D01*
X536909*
Y112008*
X548917Y151969D02*
X551575D01*
Y151378*
X548917*
Y151969*
Y151378D02*
Y151969D01*
X536909*
Y151378*
X548917Y144094D02*
X551575D01*
Y144685*
X548917*
Y144094*
Y144685D02*
Y144094D01*
X536909*
Y144685*
X537008Y226575D02*
X545669D01*
Y234055*
X537008*
Y226575*
X525197D02*
X533858D01*
Y234055*
X525197*
Y226575*
X520735Y457819D02*
X521012Y458032D01*
X517177Y463031*
X514004Y460595*
X510342Y449845D02*
X510064Y449631D01*
X506229Y454630*
X509402Y457065*
X516332Y454441D02*
X514745Y453223D01*
X677060Y449845D02*
X677337Y449631D01*
X681173Y454630*
X677999Y457065*
X666667Y457819D02*
X666389Y458032D01*
X670224Y463031*
X673398Y460595*
X672657Y453223D02*
X671070Y454441D01*
X478150Y232283D02*
Y230512D01*
X493504*
Y236811*
X478150Y255906D02*
Y257677D01*
X493504*
Y251378*
X478150Y237795D02*
Y241339D01*
Y246850D02*
Y250394D01*
X551181Y141535D02*
Y142126D01*
X534646*
Y141535*
Y122244D02*
Y121654D01*
X551181*
Y122244*
X535039Y154528D02*
Y153937D01*
X551575*
Y154528*
Y173819D02*
Y174409D01*
X535039*
Y173819*
X587992Y530709D02*
X584252D01*
Y500000*
X587992*
Y498228*
X584252*
Y500000*
X587992*
X587598Y499606D02*
Y498622D01*
X584646*
Y499606*
X587598*
X587992Y499213D02*
Y499016D01*
X585039*
Y499213*
X587992*
X599409Y530709D02*
X603150D01*
Y500000*
X599409*
Y498228*
X603150*
Y500000*
X599409*
X599803Y499606D02*
Y498622D01*
X602756*
Y499606*
X599803*
X599409Y499213D02*
Y499016D01*
X602362*
Y499213*
X599409*
X740157Y180709D02*
X743307D01*
Y183858*
X705118Y222047D02*
X701969D01*
Y218898*
X743307D02*
Y222047D01*
X740157*
X525591Y189862D02*
Y187500D01*
X543701*
Y189862*
Y211122D02*
Y213484D01*
X525591*
Y211122*
G54D24*
X474902Y231496D02*
G03X474902I-493J0D01*
G54D25*
G01X712598Y290945D02*
X716142D01*
Y267323*
X712598*
X704724D02*
X701181D01*
Y290945*
X704724*
X736220Y267323D02*
X732677D01*
Y290945*
X736220*
X744094D02*
X747638D01*
Y267323*
X744094*
X651169Y102413D02*
Y136913D01*
X590169*
Y102413*
X651169*
X451280Y204134D02*
Y194390D01*
X393602*
Y231594*
X425591*
X446260D02*
X451280D01*
Y221850*
X790539Y102413D02*
Y136913D01*
X729539*
Y102413*
X790539*
X721642D02*
Y136913D01*
X660642*
Y102413*
X721642*
X487761Y107713D02*
X477873Y113422D01*
X487761Y107713D02*
X502722Y133626D01*
X492834Y139334*
X492831Y139317D02*
G03X477887Y113433I-43618J7927D01*
G01X405315Y262205D02*
X403740D01*
X405315Y292913D02*
X403740D01*
X557087Y141732D02*
G03X557087I-394J0D01*
G01X529921Y154331D02*
G03X529921I-393J0D01*
G01X497441Y116927D02*
X499656Y120763D01*
X497154Y119651D02*
X499943Y118040D01*
X405948Y172308D02*
X408738Y170697D01*
G54D26*
X521850Y188681D02*
G03X521850I-787J0D01*
G54D28*
G01X431496Y540059D02*
Y543842D01*
X428267*
X427082Y545814D02*
G03X428267Y543842I1692J-326D01*
G01X427082Y545814D02*
X423996D01*
X422241Y543842D02*
G03X423996Y545815I-330J2061D01*
G01X422241Y543842D02*
X419221D01*
X419169Y541535*
X422084Y537911D02*
G03X419170Y541535I-3213J400D01*
G01X418996Y535831D02*
G03X422084Y537910I443J2675D01*
G01X418996Y535831D02*
X419522Y531627D01*
X423962Y532656D02*
G03X419522Y531627I-1733J-2617D01*
G01X425636Y529874D02*
G03X423962Y532656I-3998J-512D01*
G01X431495Y532012D02*
G03X425636Y529868I-2470J-2327D01*
G01X431496Y532011D02*
Y535964D01*
Y540059D02*
G03Y535964I-43J-2048D01*
G54D66*
G01X641732Y171047D02*
G03X642732Y172047I0J1000D01*
G01X641732Y171047D02*
Y154937D01*
X642732Y153937D02*
G03X641732Y154937I-1000J0D01*
G01X642732Y153937D02*
X652543D01*
X653543Y154937D02*
G03X652543Y153937I0J-1000D01*
G01X653543Y154937D02*
Y171047D01*
X652543Y172047D02*
G03X653543Y171047I1000J0D01*
G01X652543Y172047D02*
X642732D01*
X560630Y139945D02*
G03X561630Y140945I-0J1000D01*
G01X560630Y139945D02*
Y123835D01*
X561630Y122835D02*
G03X560630Y123835I-1000J-0D01*
G01X561630Y122835D02*
X571441D01*
X572441Y123835D02*
G03X571441Y122835I-0J-1000D01*
G01X572441Y123835D02*
Y139945D01*
X571441Y140945D02*
G03X572441Y139945I1000J-0D01*
G01X571441Y140945D02*
X561630D01*
G54D93*
X541373Y523923D02*
X542339Y524182D01*
X540338Y527787D02*
X541304Y528046D01*
X634432Y526938D02*
X635398Y526679D01*
X635468Y530801D02*
X636434Y530543D01*
X479561Y490629D02*
X480354Y491237D01*
X477126Y493802D02*
X477919Y494411D01*
X697992Y497930D02*
X698785Y497322D01*
X700427Y501104D02*
X701220Y500495D01*
X746049Y446677D02*
X746549Y445811D01*
X749514Y448677D02*
X750014Y447811D01*
X773197Y357980D02*
Y356980D01*
X777197Y357980D02*
Y356980D01*
X414205Y345957D02*
Y346957D01*
X410205Y345957D02*
Y346957D01*
X435340Y436362D02*
X435840Y437228D01*
X431876Y438362D02*
X432376Y439228D01*
X414205Y356980D02*
Y357980D01*
X410205Y356980D02*
Y357980D01*
X440852Y445811D02*
X441352Y446677D01*
X437388Y447811D02*
X437888Y448677D01*
X488222Y497322D02*
X489016Y497930D01*
X485787Y500495D02*
X486581Y501104D01*
X706654Y491237D02*
X707447Y490629D01*
X709089Y494411D02*
X709882Y493802D01*
X552003Y526679D02*
X552969Y526938D01*
X550968Y530543D02*
X551934Y530801D01*
X645062Y524182D02*
X646028Y523923D01*
X646098Y528046D02*
X647064Y527787D01*
X751561Y437228D02*
X752061Y436362D01*
X755025Y439228D02*
X755525Y438362D01*
X608949Y196425D02*
X609949D01*
X608949Y200425D02*
X609949D01*
X445382Y353969D02*
X444382D01*
X445382Y349969D02*
X444382D01*
X613748Y224909D02*
Y223909D01*
X617748Y224909D02*
Y223909D01*
X500847Y473800D02*
X500053Y473191D01*
X503282Y470626D02*
X502488Y470017D01*
X687348Y473191D02*
X686555Y473800D01*
X684913Y470017D02*
X684120Y470626D01*
X518791Y164929D02*
X519791D01*
X518791Y168929D02*
X519791D01*
Y163417D02*
X518791D01*
X519791Y159417D02*
X518791D01*
X566823Y167291D02*
X567823D01*
X566823Y171291D02*
X567823D01*
Y189402D02*
X566823D01*
X567823Y185402D02*
X566823D01*
Y162173D02*
X567823D01*
X566823Y166173D02*
X567823D01*
X688220Y156980D02*
Y157980D01*
X684220Y156980D02*
Y157980D01*
X677984Y156980D02*
Y157980D01*
X673984Y156980D02*
Y157980D01*
X466253Y427860D02*
X465387Y428360D01*
X464253Y424396D02*
X463387Y424896D01*
X729102Y245382D02*
Y244382D01*
X733102Y245382D02*
Y244382D01*
X445957Y271622D02*
X446957D01*
X445957Y275622D02*
X446957D01*
X445957Y277134D02*
X446957D01*
X445957Y281134D02*
X446957D01*
X485071Y281390D02*
Y282390D01*
X481071Y281390D02*
Y282390D01*
X490583Y281390D02*
Y282390D01*
X486583Y281390D02*
Y282390D01*
X557245Y495751D02*
X556986Y496717D01*
X553381Y494716D02*
X553122Y495682D01*
X634020Y494716D02*
X634279Y495682D01*
X630157Y495751D02*
X630416Y496717D01*
X773197Y346957D02*
Y345957D01*
X777197Y346957D02*
Y345957D01*
X723149Y424396D02*
X724015Y424896D01*
X721149Y427860D02*
X722015Y428360D01*
X742020Y349969D02*
X743020D01*
X742020Y353969D02*
X743020D01*
X522896Y445064D02*
X522103Y444455D01*
X525331Y441891D02*
X524538Y441282D01*
X665059Y444143D02*
X664266Y444752D01*
X662624Y440969D02*
X661831Y441578D01*
X594201Y224047D02*
X593201D01*
X594201Y220047D02*
X593201D01*
X744126Y244382D02*
Y245382D01*
X740126Y244382D02*
Y245382D01*
X758161Y184614D02*
X759161D01*
X758161Y188614D02*
X759161D01*
X697213Y157980D02*
Y156980D01*
X701213Y157980D02*
Y156980D01*
X679634Y223260D02*
X678634D01*
X679634Y219260D02*
X678634D01*
X690520Y157980D02*
Y156980D01*
X694520Y157980D02*
Y156980D01*
X519398Y146882D02*
X518398D01*
X519398Y142882D02*
X518398D01*
X501075Y197213D02*
X502075D01*
X501075Y201213D02*
X502075D01*
X501075Y202331D02*
X502075D01*
X501075Y206331D02*
X502075D01*
X567823Y209874D02*
X566823D01*
X567823Y205874D02*
X566823D01*
X567823Y204756D02*
X566823D01*
X567823Y200756D02*
X566823D01*
X663673Y188551D02*
X664673D01*
X663673Y192551D02*
X664673D01*
X663673Y193669D02*
X664673D01*
X663673Y197669D02*
X664673D01*
X663673Y167685D02*
X664673D01*
X663673Y171685D02*
X664673D01*
X663673Y172803D02*
X664673D01*
X663673Y176803D02*
X664673D01*
X712311Y260268D02*
X711311D01*
X712311Y256268D02*
X711311D01*
X679634Y176803D02*
X678634D01*
X679634Y172803D02*
X678634D01*
X702331Y157980D02*
Y156980D01*
X706331Y157980D02*
Y156980D01*
X462173Y252469D02*
Y251469D01*
X466173Y252469D02*
Y251469D01*
X457055Y252469D02*
Y251469D01*
X461055Y252469D02*
Y251469D01*
X462173Y240657D02*
Y239657D01*
X466173Y240657D02*
Y239657D01*
X457055Y240657D02*
Y239657D01*
X461055Y240657D02*
Y239657D01*
X566823Y151937D02*
X567823D01*
X566823Y155937D02*
X567823D01*
X519791Y174441D02*
X518791D01*
X519791Y170441D02*
X518791D01*
Y153906D02*
X519791D01*
X518791Y157906D02*
X519791D01*
X566823Y172409D02*
X567823D01*
X566823Y176409D02*
X567823D01*
X716567Y156980D02*
Y157980D01*
X712567Y156980D02*
Y157980D01*
X457118Y298319D02*
Y299319D01*
X453118Y298319D02*
Y299319D01*
X467354Y298319D02*
Y299319D01*
X463354Y298319D02*
Y299319D01*
X435071Y277059D02*
Y278059D01*
X431071Y277059D02*
Y278059D01*
X440189Y281390D02*
Y282390D01*
X436189Y281390D02*
Y282390D01*
X418866Y267429D02*
Y266429D01*
X422866Y267429D02*
Y266429D01*
X462236Y298319D02*
Y299319D01*
X458236Y298319D02*
Y299319D01*
X711055Y244382D02*
Y245382D01*
X707055Y244382D02*
Y245382D01*
X679634Y218142D02*
X678634D01*
X679634Y214142D02*
X678634D01*
X519398Y141764D02*
X518398D01*
X519398Y137764D02*
X518398D01*
X707449Y157980D02*
Y156980D01*
X711449Y157980D02*
Y156980D01*
X566823Y210992D02*
X567823D01*
X566823Y214992D02*
X567823D01*
X425165Y267429D02*
Y266429D01*
X429165Y267429D02*
Y266429D01*
X455937Y251469D02*
Y252469D01*
X451937Y251469D02*
Y252469D01*
X566823Y157055D02*
X567823D01*
X566823Y161055D02*
X567823D01*
X712567Y245382D02*
Y244382D01*
X716567Y245382D02*
Y244382D01*
X679634Y181921D02*
X678634D01*
X679634Y177921D02*
X678634D01*
X679634Y171685D02*
X678634D01*
X679634Y167685D02*
X678634D01*
X597350Y200425D02*
X596350D01*
X597350Y196425D02*
X596350D01*
X679634Y197669D02*
X678634D01*
X679634Y193669D02*
X678634D01*
X679634Y202787D02*
X678634D01*
X679634Y198787D02*
X678634D01*
X679634Y207906D02*
X678634D01*
X679634Y203906D02*
X678634D01*
X679634Y213024D02*
X678634D01*
X679634Y209024D02*
X678634D01*
X567823Y150031D02*
X566823D01*
X567823Y146031D02*
X566823D01*
X722079Y244382D02*
Y245382D01*
X718079Y244382D02*
Y245382D01*
X727591Y244382D02*
Y245382D01*
X723591Y244382D02*
Y245382D01*
X766035Y209417D02*
X767035D01*
X766035Y213417D02*
X767035D01*
X766035Y204299D02*
X767035D01*
X766035Y208299D02*
X767035D01*
X518398Y127528D02*
X519398D01*
X518398Y131528D02*
X519398D01*
Y126409D02*
X518398D01*
X519398Y122409D02*
X518398D01*
Y132646D02*
X519398D01*
X518398Y136646D02*
X519398D01*
X717685Y157980D02*
Y156980D01*
X721685Y157980D02*
Y156980D01*
X501075Y192094D02*
X502075D01*
X501075Y196094D02*
X502075D01*
X501075Y186976D02*
X502075D01*
X501075Y190976D02*
X502075D01*
X566823Y191701D02*
X567823D01*
X566823Y195701D02*
X567823D01*
X531528Y240051D02*
Y241051D01*
X527528Y240051D02*
Y241051D01*
X543339Y240051D02*
Y241051D01*
X539339Y240051D02*
Y241051D01*
X555150Y240051D02*
Y241051D01*
X551150Y240051D02*
Y241051D01*
X734614Y245382D02*
Y244382D01*
X738614Y245382D02*
Y244382D01*
X668079Y237508D02*
Y236508D01*
X672079Y237508D02*
Y236508D01*
X666961Y231390D02*
Y232390D01*
X662961Y231390D02*
Y232390D01*
X678634Y224772D02*
X679634D01*
X678634Y228772D02*
X679634D01*
X678634Y240126D02*
X679634D01*
X678634Y244126D02*
X679634D01*
X678634Y235008D02*
X679634D01*
X678634Y239008D02*
X679634D01*
X678634Y229890D02*
X679634D01*
X678634Y233890D02*
X679634D01*
G54D94*
X599098Y229465D02*
G03X599098I-197J0D01*
G01X608527Y229609D02*
G03X608527I-197J0D01*
G01X706808Y250850D02*
G03X706808I-197J0D01*
G01X480968Y276066D02*
G03X480968I-197J0D01*
G01X486480D02*
G03X486480I-197J0D01*
G54D95*
G01X472244Y262008D02*
X475197D01*
X477165Y263976*
Y266929*
Y285827D02*
Y290748D01*
X472244*
X460827D02*
X455906D01*
Y285827*
Y266929D02*
Y262008D01*
X460827*
G74*
X0Y0D02*
M02*
