M48
;FILE_FORMAT=3:2
METRIC,LZ
FMAT,2
ICI,OFF
;TYPE=PLATED
T1C.4
T2C.5
T3C.8
T4C.9
T5C1.
%
M71
G90
G93X0Y0
T1C.4F095S3
X13505Y04943
X13655Y04943
X13505Y05093
X13655Y05093
X13505Y05243
X13655Y05243
T2C.5F095S3
X1066Y0612
X1046Y0631
X1108Y0631
X1085Y0631
X1066Y065
X1128Y065
X1015Y0651
X104Y0656
X1102Y067
X1056Y0674
X1088Y0713
X1056Y0718
X1113Y0735
X1056Y0736
X104Y0754
X1015Y0759
X1088Y0767
X1138Y0873
X1138Y0915
X1085Y0918
X1065Y0923
X1047Y0927
X1139Y1141
X1126Y1153
X1253Y128
X1261Y1263
X1154Y1126
X1198Y1097
X1176Y1061
X1144Y0751
X1144Y0724
X1182Y0715
X1179Y0658
X1166Y0658
X1153Y0658
X1223Y0643
X1189Y0632
X1179Y0591
X1166Y0591
X1205Y0584
X1266Y0449
X139Y0316
X1299Y0329
X1299Y0355
X1299Y0368
X1379Y0376
X1338Y0396
X1327Y0449
X1311Y046
X133Y0476
X1358Y0509
X133Y0541
X1288Y0592
X1288Y0603
X139Y0608
X135Y1142
X1294Y1214
X1269Y1244
X1392Y1246
X1508Y1359
X142Y1348
X1488Y134
X1421Y133
X1508Y1321
X1422Y1309
X1488Y1278
X1508Y1259
X1433Y1258
X1443Y0615
X1452Y0606
X1425Y0585
X1448Y0552
X146Y0541
X146Y0522
X146Y0492
X1404Y0491
X146Y0443
X146Y0417
X1518Y0409
X146Y0391
X1532Y0517
X1537Y0554
X158Y0574
X1534Y0577
X1586Y0589
X1612Y0589
X1586Y0602
X16Y0602
X1648Y0602
X1635Y0615
X1625Y1246
X1583Y1258
X1528Y1278
X1641Y1296
X1528Y134
X1659Y1331
X1651Y1314
X1762Y1183
X1705Y111
X1661Y0589
X1674Y0576
X1684Y0566
X1698Y0562
X1706Y0549
X1668Y0497
X1668Y0484
X1769Y0464
X1668Y0457
X1706Y0457
X1753Y0438
X1717Y0419
X1759Y0419
X173Y0408
X1776Y0381
X1759Y0381
X1795Y0326
X1789Y0381
X1828Y0381
X1802Y0381
X1815Y0381
X1789Y0419
X1808Y0434
X1816Y047
X1803Y0479
X1794Y0504
X1803Y0529
X1803Y0552
X1801Y0603
X1789Y063
X1789Y0643
X1789Y0656
X1816Y0668
X18Y0727
X1814Y0742
X1786Y0742
X18Y0756
X184Y1061
X1818Y1097
X1784Y1215
X1801Y1228
X1814Y1239
X1924Y1095
X1906Y1091
X1886Y1085
X1878Y0915
X1878Y0873
X1931Y087
X1951Y0865
X188Y0756
X1866Y0742
X1894Y0742
X188Y0727
X1897Y0668
X1885Y0641
X1857Y0641
X1885Y0603
X1868Y0552
X1877Y0479
X1908Y0474
X1946Y0474
X19Y034
X1885Y0326
X1914Y0326
X19Y0312
X1969Y0861
T3C.8F197S55
X1508Y04563
X1556Y04563
X1508Y04817
X1556Y04817
T4C.9F197S55
X1513Y0363
X15638Y0363
X15384Y0363
X16146Y0363
X15892Y0363
X164Y0363
X1692Y0363
X17682Y0363
X17428Y0363
X17174Y0363
X1819Y0363
X17936Y0363
X18924Y0363
X1867Y0363
X19432Y0363
X19178Y0363
X19686Y0363
X1994Y0363
T5C1.F197S55
X12455Y03137
X10715Y04141
X1137Y0552G85X1137Y053
X1079Y0552G85X1079Y053
X1096Y0591G85X1118Y0591
M30
