*
*
G04 PADS VX.2.4 Build Number: 11695987 generated Gerber (RS-274-X) file*
G04 PC Version=2.1*
*
%IN "Hdd_Clock.pcb"*%
*
%MOIN*%
*
%FSLAX35Y35*%
*
*
*
*
G04 PC Standard Apertures*
*
*
G04 Thermal Relief Aperture macro.*
%AMTER*
1,1,$1,0,0*
1,0,$1-$2,0,0*
21,0,$3,$4,0,0,45*
21,0,$3,$4,0,0,135*
%
*
*
G04 Annular Aperture macro.*
%AMANN*
1,1,$1,0,0*
1,0,$2,0,0*
%
*
*
G04 Odd Aperture macro.*
%AMODD*
1,1,$1,0,0*
1,0,$1-0.005,0,0*
%
*
*
G04 PC Custom Aperture Macros*
*
*
*
*
*
*
G04 PC Aperture Table*
*
%ADD010C,0.001*%
%ADD017C,0.01*%
%ADD028C,0.01181*%
%ADD057R,0.07677X0.07677*%
%ADD058C,0.07677*%
%ADD059C,0.08465*%
%ADD060O,0.10433X0.18307*%
%ADD061O,0.18307X0.10433*%
%ADD062C,0.08268*%
%ADD065C,0.12795*%
%ADD066C,0.005*%
%ADD067C,0.00492*%
%ADD068R,0.06102X0.06496*%
%ADD069R,0.041X0.037*%
%ADD070R,0.05709X0.04528*%
%ADD071R,0.07677X0.06496*%
%ADD072R,0.037X0.041*%
%ADD073R,0.06102X0.04528*%
%ADD074R,0.04528X0.06102*%
%ADD075R,0.10236X0.09843*%
%ADD076R,0.04528X0.05709*%
%ADD077R,0.05709X0.01969*%
%ADD078R,0.06693X0.08661*%
%ADD079R,0.0748X0.07874*%
%ADD080R,0.09055X0.04331*%
%ADD081R,0.09055X0.13386*%
%ADD082R,0.07087X0.02953*%
%ADD083R,0.018X0.056*%
%ADD084R,0.08374X0.05224*%
%ADD085R,0.12411X0.10443*%
%ADD086R,0.09843X0.10236*%
%ADD087R,0.06693X0.01575*%
%ADD088R,0.01575X0.06693*%
%ADD089R,0.07087X0.02165*%
%ADD090R,0.10276X0.09685*%
*
*
*
*
G04 PC Circuitry*
G04 Layer Name Hdd_Clock.pcb - circuitry*
%LPD*%
*
*
G04 PC Custom Flashes*
G04 Layer Name Hdd_Clock.pcb - flashes*
%LPD*%
*
*
G04 PC Circuitry*
G04 Layer Name Hdd_Clock.pcb - circuitry*
%LPD*%
*
G54D10*
G54D17*
G01X540146Y524060D02*
X539344Y527054D01*
X536736Y526356*
X537538Y523361*
X540146Y524060*
X537367Y524000D02*
X539922D01*
X537099Y525000D02*
X539894D01*
X536831Y526000D02*
X539626D01*
X539141Y527000D02*
X539358D01*
X537701Y523405D02*
Y526614D01*
X538701Y523673D02*
Y526882D01*
X539701Y523941D02*
Y525721D01*
X545942Y525613D02*
X545139Y528607D01*
X542531Y527908*
X543334Y524914*
X545942Y525613*
X543311Y525000D02*
X543654D01*
X543043Y526000D02*
X545838D01*
X542775Y527000D02*
X545570D01*
X542873Y528000D02*
X545302D01*
X542701Y527276D02*
Y527954D01*
X543701Y525013D02*
Y528222D01*
X544701Y525280D02*
Y528490D01*
X545701Y525548D02*
Y526511D01*
X633438Y527670D02*
X634240Y530664D01*
X631632Y531363*
X630830Y528369*
X633438Y527670*
X632207Y528000D02*
X633527D01*
X630999Y529000D02*
X633794D01*
X631267Y530000D02*
X634062D01*
X631535Y531000D02*
X632988D01*
X631701Y528136D02*
Y531345D01*
X632701Y527868D02*
Y531077D01*
X633701Y528650D02*
Y530809D01*
X639234Y526117D02*
X640036Y529111D01*
X637428Y529810*
X636626Y526816*
X639234Y526117*
X636675Y527000D02*
X639470D01*
X636943Y528000D02*
X639738D01*
X637211Y529000D02*
X640006D01*
X636701Y526796D02*
Y527096D01*
X637701Y526528D02*
Y529737D01*
X638701Y526260D02*
Y529469D01*
X639701Y527860D02*
Y529201D01*
X478375Y490286D02*
X476488Y492745D01*
X474345Y491101*
X476233Y488642*
X478375Y490286*
X475958Y489000D02*
X476699D01*
X475191Y490000D02*
X478003D01*
X474423Y491000D02*
X477826D01*
X475517Y492000D02*
X477059D01*
X474701Y490638D02*
Y491374D01*
X475701Y489335D02*
Y492141D01*
X476701Y489001D02*
Y492467D01*
X477701Y489768D02*
Y491164D01*
X483135Y493938D02*
X481248Y496397D01*
X479106Y494754*
X480993Y492294*
X483135Y493938*
X480451Y493000D02*
X481912D01*
X479684Y494000D02*
X483087D01*
X479426Y495000D02*
X482320D01*
X480730Y496000D02*
X481553D01*
X479701Y493978D02*
Y495211D01*
X480701Y492675D02*
Y495978D01*
X481701Y492838D02*
Y495807D01*
X482701Y493605D02*
Y494504D01*
X697354Y498987D02*
X699241Y501447D01*
X697099Y503090*
X695212Y500631*
X697354Y498987*
X697337Y499000D02*
X697363D01*
X696034Y500000D02*
X698131D01*
X695495Y501000D02*
X698898D01*
X696262Y502000D02*
X698520D01*
X697029Y503000D02*
X697217D01*
X695701Y500256D02*
Y501268D01*
X696701Y499488D02*
Y502572D01*
X697701Y499440D02*
Y502628D01*
X698701Y500743D02*
Y501861D01*
X702114Y495335D02*
X704001Y497794D01*
X701859Y499438*
X699972Y496978*
X702114Y495335*
X701247Y496000D02*
X702624D01*
X699988Y497000D02*
X703392D01*
X700756Y498000D02*
X703733D01*
X701523Y499000D02*
X702430D01*
X700701Y496419D02*
Y497929D01*
X701701Y495652D02*
Y499232D01*
X702701Y496100D02*
Y498792D01*
X703701Y497403D02*
Y498025D01*
X745864Y447898D02*
X748549Y449448D01*
X747199Y451786*
X744514Y450236*
X745864Y447898*
X745805Y448000D02*
X746041D01*
X745228Y449000D02*
X747773D01*
X744651Y450000D02*
X748230D01*
X745837Y451000D02*
X747653D01*
X744701Y449913D02*
Y450344D01*
X745701Y448181D02*
Y450921D01*
X746701Y448381D02*
Y451499D01*
X747701Y448958D02*
Y450917D01*
X748864Y442702D02*
X751549Y444252D01*
X750199Y446590*
X747514Y445040*
X748864Y442702*
X748692Y443000D02*
X749381D01*
X748115Y444000D02*
X751113D01*
X747537Y445000D02*
X751117D01*
X749177Y446000D02*
X750540D01*
X747701Y444717D02*
Y445148D01*
X748701Y442985D02*
Y445725D01*
X749701Y443185D02*
Y446303D01*
X750701Y443762D02*
Y445721D01*
X434376Y435591D02*
X431691Y437141D01*
X430341Y434803*
X433026Y433253*
X434376Y435591*
X431732Y434000D02*
X433457D01*
X430455Y435000D02*
X434034D01*
X431032Y436000D02*
X433668D01*
X431609Y437000D02*
X431936D01*
X430701Y434595D02*
Y435426D01*
X431701Y434018D02*
Y437136D01*
X432701Y433441D02*
Y436558D01*
X433701Y434423D02*
Y435981D01*
X437376Y440787D02*
X434691Y442337D01*
X433341Y439999*
X436026Y438449*
X437376Y440787*
X435072Y439000D02*
X436344D01*
X433341Y440000D02*
X436921D01*
X433919Y441000D02*
X437008D01*
X434496Y442000D02*
X435275D01*
X433701Y439791D02*
Y440623D01*
X434701Y439214D02*
Y442332D01*
X435701Y438637D02*
Y441754D01*
X436701Y439619D02*
Y441177D01*
X442360Y433949D02*
X438282Y436303D01*
X436518Y433248*
X440596Y430894*
X442360Y433949*
X440413Y431000D02*
X440658D01*
X438681Y432000D02*
X441235D01*
X436949Y433000D02*
X441812D01*
X436952Y434000D02*
X442272D01*
X437530Y435000D02*
X440540D01*
X438107Y436000D02*
X438808D01*
X436701Y433143D02*
Y433564D01*
X437701Y432566D02*
Y435296D01*
X438701Y431988D02*
Y436062D01*
X439701Y431411D02*
Y435484D01*
X440701Y431075D02*
Y434907D01*
X441701Y432807D02*
Y434330D01*
X448797Y445098D02*
X444719Y447452D01*
X442955Y444398*
X447033Y442043*
X448797Y445098*
X445376Y443000D02*
X447586D01*
X443644Y444000D02*
X448163D01*
X443303Y445000D02*
X448740D01*
X443881Y446000D02*
X447235D01*
X444458Y447000D02*
X445503D01*
X443701Y443967D02*
Y445688D01*
X444701Y443390D02*
Y447420D01*
X445701Y442813D02*
Y446886D01*
X446701Y442235D02*
Y446308D01*
X447701Y443199D02*
Y445731D01*
X448701Y444931D02*
Y445154D01*
X544656Y516951D02*
X543437Y521500D01*
X540030Y520587*
X541248Y516038*
X544656Y516951*
X540991Y517000D02*
X544643D01*
X540723Y518000D02*
X544375D01*
X540455Y519000D02*
X544107D01*
X540187Y520000D02*
X543839D01*
X541572Y521000D02*
X543571D01*
X540701Y518082D02*
Y520767D01*
X541701Y516160D02*
Y521034D01*
X542701Y516428D02*
Y521302D01*
X543701Y516696D02*
Y520515D01*
X557091Y520284D02*
X555872Y524832D01*
X552465Y523919*
X553684Y519371*
X557091Y520284*
X553515Y520000D02*
X556033D01*
X553247Y521000D02*
X556899D01*
X552979Y522000D02*
X556631D01*
X552711Y523000D02*
X556363D01*
X552768Y524000D02*
X556095D01*
X552701Y523039D02*
Y523982D01*
X553701Y519375D02*
Y524250D01*
X554701Y519643D02*
Y524518D01*
X555701Y519911D02*
Y524786D01*
X556701Y520179D02*
Y521740D01*
X439887Y445040D02*
X437203Y446590D01*
X435853Y444252*
X438537Y442702*
X439887Y445040*
X438021Y443000D02*
X438710D01*
X436289Y444000D02*
X439287D01*
X436285Y445000D02*
X439864D01*
X436862Y446000D02*
X438225D01*
X436701Y443762D02*
Y445721D01*
X437701Y443185D02*
Y446303D01*
X438701Y442985D02*
Y445725D01*
X439701Y444717D02*
Y445148D01*
X442887Y450236D02*
X440203Y451786D01*
X438853Y449448*
X441537Y447898*
X442887Y450236*
X441361Y448000D02*
X441596D01*
X439629Y449000D02*
X442174D01*
X439171Y450000D02*
X442751D01*
X439749Y451000D02*
X441565D01*
X439701Y448958D02*
Y450917D01*
X440701Y448381D02*
Y451499D01*
X441701Y448181D02*
Y450921D01*
X442701Y449913D02*
Y450344D01*
X487036Y496978D02*
X485149Y499438D01*
X483007Y497794*
X484894Y495335*
X487036Y496978*
X484384Y496000D02*
X485761D01*
X483616Y497000D02*
X487020D01*
X483275Y498000D02*
X486252D01*
X484578Y499000D02*
X485485D01*
X483701Y496890D02*
Y498327D01*
X484701Y495587D02*
Y499094D01*
X485701Y495954D02*
Y498719D01*
X486701Y496721D02*
Y497415D01*
X491796Y500631D02*
X489909Y503090D01*
X487767Y501447*
X489654Y498987*
X491796Y500631*
X489644Y499000D02*
X489671D01*
X488877Y500000D02*
X490974D01*
X488110Y501000D02*
X491513D01*
X488488Y502000D02*
X490746D01*
X489791Y503000D02*
X489978D01*
X488701Y500230D02*
Y502163D01*
X489701Y499023D02*
Y502931D01*
X490701Y499790D02*
Y502059D01*
X491701Y500558D02*
Y500755D01*
X706015Y492294D02*
X707902Y494754D01*
X705760Y496397*
X703873Y493938*
X706015Y492294*
X705096Y493000D02*
X706556D01*
X703921Y494000D02*
X707324D01*
X704688Y495000D02*
X707581D01*
X705455Y496000D02*
X706278D01*
X704701Y493303D02*
Y495017D01*
X705701Y492536D02*
Y496320D01*
X706701Y493188D02*
Y495676D01*
X707701Y494491D02*
Y494908D01*
X710775Y488642D02*
X712662Y491101D01*
X710520Y492745*
X708633Y490286*
X710775Y488642*
X710309Y489000D02*
X711050D01*
X709005Y490000D02*
X711817D01*
X709181Y491000D02*
X712585D01*
X709949Y492000D02*
X711491D01*
X708701Y490234D02*
Y490374D01*
X709701Y489466D02*
Y491677D01*
X710701Y488699D02*
Y492606D01*
X711701Y489848D02*
Y491839D01*
X550776Y526816D02*
X549974Y529810D01*
X547366Y529111*
X548168Y526117*
X550776Y526816*
X547931Y527000D02*
X550727D01*
X547663Y528000D02*
X550459D01*
X547395Y529000D02*
X550191D01*
X547701Y527860D02*
Y529201D01*
X548701Y526260D02*
Y529469D01*
X549701Y526528D02*
Y529737D01*
X550701Y526796D02*
Y527096D01*
X556571Y528369D02*
X555769Y531363D01*
X553161Y530664*
X553963Y527670*
X556571Y528369*
X553875Y528000D02*
X555195D01*
X553607Y529000D02*
X556402D01*
X553339Y530000D02*
X556134D01*
X554414Y531000D02*
X555866D01*
X553701Y528650D02*
Y530809D01*
X554701Y527868D02*
Y531077D01*
X555701Y528136D02*
Y531345D01*
X644068Y524914D02*
X644870Y527908D01*
X642262Y528607*
X641460Y525613*
X644068Y524914*
X643748Y525000D02*
X644091D01*
X641564Y526000D02*
X644359D01*
X641832Y527000D02*
X644627D01*
X642100Y528000D02*
X644529D01*
X641701Y525548D02*
Y526511D01*
X642701Y525280D02*
Y528490D01*
X643701Y525013D02*
Y528222D01*
X644701Y527276D02*
Y527954D01*
X649864Y523361D02*
X650666Y526356D01*
X648058Y527054*
X647256Y524060*
X649864Y523361*
X647480Y524000D02*
X650035D01*
X647507Y525000D02*
X650303D01*
X647775Y526000D02*
X650571D01*
X648043Y527000D02*
X648261D01*
X647701Y523941D02*
Y525721D01*
X648701Y523673D02*
Y526882D01*
X649701Y523405D02*
Y526614D01*
X751376Y438449D02*
X754061Y439999D01*
X752711Y442337*
X750026Y440787*
X751376Y438449*
X751058Y439000D02*
X752330D01*
X750481Y440000D02*
X754060D01*
X750394Y441000D02*
X753483D01*
X752126Y442000D02*
X752905D01*
X750701Y439619D02*
Y441177D01*
X751701Y438637D02*
Y441754D01*
X752701Y439214D02*
Y442332D01*
X753701Y439791D02*
Y440623D01*
X754376Y433253D02*
X757061Y434803D01*
X755711Y437141*
X753026Y435591*
X754376Y433253*
X753945Y434000D02*
X755670D01*
X753367Y435000D02*
X756947D01*
X753734Y436000D02*
X756370D01*
X755466Y437000D02*
X755792D01*
X753701Y434423D02*
Y435981D01*
X754701Y433441D02*
Y436558D01*
X755701Y434018D02*
Y437136D01*
X756701Y434595D02*
Y435426D01*
X502033Y474143D02*
X503920Y471683D01*
X506062Y473327*
X504175Y475786*
X502033Y474143*
X503677Y472000D02*
X504333D01*
X502910Y473000D02*
X505636D01*
X502143Y474000D02*
X505546D01*
X503150Y475000D02*
X504778D01*
X502701Y473272D02*
Y474655D01*
X503701Y471969D02*
Y475422D01*
X504701Y472282D02*
Y475101D01*
X505701Y473050D02*
Y473798D01*
X497273Y470490D02*
X499160Y468031D01*
X501302Y469674*
X499415Y472134*
X497273Y470490*
X498416Y469000D02*
X500423D01*
X497649Y470000D02*
X501052D01*
X497937Y471000D02*
X500285D01*
X499241Y472000D02*
X499518D01*
X497701Y469932D02*
Y470818D01*
X498701Y468629D02*
Y471586D01*
X499701Y468446D02*
Y471761D01*
X500701Y469213D02*
Y470458D01*
X687987Y472134D02*
X686099Y469674D01*
X688242Y468031*
X690129Y470490*
X687987Y472134*
X686978Y469000D02*
X688985D01*
X686349Y470000D02*
X689753D01*
X687117Y471000D02*
X689464D01*
X687884Y472000D02*
X688161D01*
X686701Y469213D02*
Y470458D01*
X687701Y468446D02*
Y471761D01*
X688701Y468629D02*
Y471586D01*
X689701Y469932D02*
Y470818D01*
X683227Y475786D02*
X681339Y473327D01*
X683481Y471683*
X685369Y474143*
X683227Y475786*
X683069Y472000D02*
X683724D01*
X681765Y473000D02*
X684492D01*
X681856Y474000D02*
X685259D01*
X682623Y475000D02*
X684251D01*
X681701Y473050D02*
Y473798D01*
X682701Y472282D02*
Y475101D01*
X683701Y471969D02*
Y475422D01*
X684701Y473272D02*
Y474655D01*
X467024Y426895D02*
X465474Y424211D01*
X467812Y422861*
X469362Y425545*
X467024Y426895*
X467571Y423000D02*
X467893D01*
X465839Y424000D02*
X468470D01*
X465930Y425000D02*
X469047D01*
X466507Y426000D02*
X468574D01*
X465701Y424080D02*
Y424604D01*
X466701Y423502D02*
Y426336D01*
X467701Y422925D02*
Y426504D01*
X468701Y424400D02*
Y425927D01*
X461828Y429895D02*
X460278Y427211D01*
X462616Y425861*
X464166Y428545*
X461828Y429895*
X462374Y426000D02*
X462696D01*
X460642Y427000D02*
X463274D01*
X460733Y428000D02*
X463851D01*
X461311Y429000D02*
X463378D01*
X460701Y426966D02*
Y427944D01*
X461701Y426389D02*
Y429676D01*
X462701Y426008D02*
Y429391D01*
X463701Y427740D02*
Y428814D01*
X557108Y494524D02*
X554113Y493722D01*
X554812Y491114*
X557807Y491916*
X557108Y494524*
X554575Y492000D02*
X557784D01*
X554307Y493000D02*
X557516D01*
X555153Y494000D02*
X557248D01*
X554701Y491530D02*
Y493879D01*
X555701Y491352D02*
Y494147D01*
X556701Y491620D02*
Y494415D01*
X557701Y491888D02*
Y492311D01*
X555555Y500319D02*
X552561Y499517D01*
X553259Y496909*
X556254Y497711*
X555555Y500319*
X553235Y497000D02*
X553598D01*
X552967Y498000D02*
X556176D01*
X552699Y499000D02*
X555908D01*
X554363Y500000D02*
X555641D01*
X552701Y498994D02*
Y499555D01*
X553701Y497027D02*
Y499823D01*
X554701Y497295D02*
Y500091D01*
X555701Y497563D02*
Y499775D01*
X633288Y493722D02*
X630294Y494524D01*
X629595Y491916*
X632589Y491114*
X633288Y493722*
X629617Y492000D02*
X632827D01*
X629885Y493000D02*
X633095D01*
X630153Y494000D02*
X632249D01*
X629701Y491888D02*
Y492311D01*
X630701Y491620D02*
Y494415D01*
X631701Y491352D02*
Y494147D01*
X632701Y491530D02*
Y493879D01*
X634841Y499517D02*
X631847Y500319D01*
X631148Y497711*
X634142Y496909*
X634841Y499517*
X633803Y497000D02*
X634167D01*
X631225Y498000D02*
X634434D01*
X631493Y499000D02*
X634702D01*
X631761Y500000D02*
X633039D01*
X631701Y497563D02*
Y499775D01*
X632701Y497295D02*
Y500091D01*
X633701Y497027D02*
Y499823D01*
X634701Y498994D02*
Y499555D01*
X721928Y424211D02*
X720378Y426895D01*
X718040Y425545*
X719590Y422861*
X721928Y424211*
X719509Y423000D02*
X719831D01*
X718932Y424000D02*
X721563D01*
X718354Y425000D02*
X721472D01*
X718827Y426000D02*
X720895D01*
X718701Y424400D02*
Y425927D01*
X719701Y422925D02*
Y426504D01*
X720701Y423502D02*
Y426336D01*
X721701Y424080D02*
Y424604D01*
X727124Y427211D02*
X725574Y429895D01*
X723236Y428545*
X724786Y425861*
X727124Y427211*
X724705Y426000D02*
X725027D01*
X724128Y427000D02*
X726759D01*
X723550Y428000D02*
X726668D01*
X724023Y429000D02*
X726091D01*
X723701Y427740D02*
Y428814D01*
X724701Y426008D02*
Y429391D01*
X725701Y426389D02*
Y429676D01*
X726701Y426966D02*
Y427944D01*
X524083Y445407D02*
X525970Y442948D01*
X528112Y444591*
X526225Y447051*
X524083Y445407*
X525930Y443000D02*
X526038D01*
X525162Y444000D02*
X527341D01*
X524395Y445000D02*
X527798D01*
X524855Y446000D02*
X527031D01*
X526159Y447000D02*
X526264D01*
X524701Y444601D02*
Y445881D01*
X525701Y443298D02*
Y446649D01*
X526701Y443509D02*
Y446430D01*
X527701Y444276D02*
Y445127D01*
X519323Y441754D02*
X521210Y439295D01*
X523352Y440939*
X521465Y443398*
X519323Y441754*
X520669Y440000D02*
X522128D01*
X519901Y441000D02*
X523305D01*
X519642Y442000D02*
X522537D01*
X520946Y443000D02*
X521770D01*
X519701Y441262D02*
Y442045D01*
X520701Y439958D02*
Y442812D01*
X521701Y439672D02*
Y443090D01*
X522701Y440439D02*
Y441787D01*
X665697Y443086D02*
X663810Y440626D01*
X665952Y438983*
X667839Y441442*
X665697Y443086*
X665930Y439000D02*
X665965D01*
X664627Y440000D02*
X666733D01*
X664097Y441000D02*
X667500D01*
X664864Y442000D02*
X667112D01*
X665631Y443000D02*
X665809D01*
X664701Y439943D02*
Y441787D01*
X665701Y439176D02*
Y443083D01*
X666701Y439958D02*
Y442316D01*
X667701Y441262D02*
Y441548D01*
X660937Y446738D02*
X659050Y444279D01*
X661192Y442635*
X663079Y445095*
X660937Y446738*
X660717Y443000D02*
X661472D01*
X659414Y444000D02*
X662239D01*
X659603Y445000D02*
X663007D01*
X660371Y446000D02*
X661899D01*
X659701Y443780D02*
Y445127D01*
X660701Y443012D02*
Y446430D01*
X661701Y443298D02*
Y446152D01*
X662701Y444601D02*
Y445385D01*
X450681Y432259D02*
X446262Y434810D01*
X444498Y431755*
X448917Y429204*
X450681Y432259*
X447538Y430000D02*
X449377D01*
X445806Y431000D02*
X449954D01*
X444640Y432000D02*
X450532D01*
X445217Y433000D02*
X449397D01*
X445795Y434000D02*
X447665D01*
X444701Y431638D02*
Y432106D01*
X445701Y431061D02*
Y433838D01*
X446701Y430484D02*
Y434557D01*
X447701Y429906D02*
Y433980D01*
X448701Y429329D02*
Y433402D01*
X449701Y430561D02*
Y432825D01*
X454421Y438737D02*
X450002Y441288D01*
X448239Y438233*
X452657Y435682*
X454421Y438737*
X452107Y436000D02*
X452841D01*
X450375Y437000D02*
X453418D01*
X448643Y438000D02*
X453996D01*
X448681Y439000D02*
X453966D01*
X449259Y440000D02*
X452234D01*
X449836Y441000D02*
X450502D01*
X448701Y437966D02*
Y439034D01*
X449701Y437389D02*
Y440766D01*
X450701Y436812D02*
Y440885D01*
X451701Y436234D02*
Y440308D01*
X452701Y435757D02*
Y439730D01*
X453701Y437489D02*
Y439153D01*
X460086Y431148D02*
X455667Y433699D01*
X453904Y430644*
X458322Y428093*
X460086Y431148*
X456751Y429000D02*
X458846D01*
X455019Y430000D02*
X459424D01*
X454109Y431000D02*
X460001D01*
X454687Y432000D02*
X458610D01*
X455264Y433000D02*
X456878D01*
X454701Y430184D02*
Y432024D01*
X455701Y429606D02*
Y433679D01*
X456701Y429029D02*
Y433102D01*
X457701Y428452D02*
Y432525D01*
X458701Y428748D02*
Y431947D01*
X459701Y430480D02*
Y431370D01*
X549344Y509873D02*
X548024Y514801D01*
X544616Y513888*
X545937Y508960*
X549344Y509873*
X545926Y509000D02*
X546088D01*
X545658Y510000D02*
X549310D01*
X545390Y511000D02*
X549042D01*
X545122Y512000D02*
X548774D01*
X544854Y513000D02*
X548506D01*
X545034Y514000D02*
X548238D01*
X544701Y513573D02*
Y513911D01*
X545701Y509841D02*
Y514179D01*
X546701Y509164D02*
Y514447D01*
X547701Y509432D02*
Y514715D01*
X548701Y509700D02*
Y512275D01*
X556570Y511809D02*
X555249Y516737D01*
X551842Y515824*
X553162Y510896*
X556570Y511809*
X553135Y511000D02*
X553552D01*
X552867Y512000D02*
X556519D01*
X552599Y513000D02*
X556251D01*
X552331Y514000D02*
X555983D01*
X552063Y515000D02*
X555715D01*
X552498Y516000D02*
X555447D01*
X552701Y512619D02*
Y516054D01*
X553701Y511040D02*
Y516322D01*
X554701Y511308D02*
Y516590D01*
X555701Y511576D02*
Y515052D01*
X555209Y502436D02*
X553888Y507365D01*
X550481Y506452*
X551802Y501523*
X555209Y502436*
X551674Y502000D02*
X553581D01*
X551406Y503000D02*
X555058D01*
X551138Y504000D02*
X554790D01*
X550870Y505000D02*
X554522D01*
X550602Y506000D02*
X554254D01*
X552527Y507000D02*
X553986D01*
X550701Y505632D02*
Y506511D01*
X551701Y501900D02*
Y506779D01*
X552701Y501764D02*
Y507047D01*
X553701Y502032D02*
Y507315D01*
X554701Y502300D02*
Y504333D01*
X634239Y510896D02*
X635560Y515824D01*
X632152Y516737*
X630832Y511809*
X634239Y510896*
X633850Y511000D02*
X634267D01*
X630883Y512000D02*
X634535D01*
X631151Y513000D02*
X634803D01*
X631419Y514000D02*
X635071D01*
X631687Y515000D02*
X635339D01*
X631955Y516000D02*
X634903D01*
X631701Y511576D02*
Y515052D01*
X632701Y511308D02*
Y516590D01*
X633701Y511040D02*
Y516322D01*
X634701Y512619D02*
Y516054D01*
X641465Y508960D02*
X642785Y513888D01*
X639378Y514801*
X638057Y509873*
X641465Y508960*
X641314Y509000D02*
X641475D01*
X638091Y510000D02*
X641743D01*
X638359Y511000D02*
X642011D01*
X638627Y512000D02*
X642279D01*
X638895Y513000D02*
X642547D01*
X639163Y514000D02*
X642368D01*
X638701Y509700D02*
Y512275D01*
X639701Y509432D02*
Y514715D01*
X640701Y509164D02*
Y514447D01*
X641701Y509841D02*
Y514179D01*
X642701Y513573D02*
Y513911D01*
X635600Y501523D02*
X636920Y506452D01*
X633513Y507365*
X632193Y502436*
X635600Y501523*
X633821Y502000D02*
X635728D01*
X632344Y503000D02*
X635996D01*
X632612Y504000D02*
X636264D01*
X632879Y505000D02*
X636531D01*
X633147Y506000D02*
X636799D01*
X633415Y507000D02*
X634875D01*
X632701Y502300D02*
Y504333D01*
X633701Y502032D02*
Y507315D01*
X634701Y501764D02*
Y507047D01*
X635701Y501900D02*
Y506779D01*
X636701Y505632D02*
Y506511D01*
X734744Y435682D02*
X739163Y438233D01*
X737399Y441288*
X732980Y438737*
X734744Y435682*
X734561Y436000D02*
X735295D01*
X733983Y437000D02*
X737027D01*
X733406Y438000D02*
X738759D01*
X733436Y439000D02*
X738720D01*
X735168Y440000D02*
X738143D01*
X736900Y441000D02*
X737566D01*
X733701Y437489D02*
Y439153D01*
X734701Y435757D02*
Y439730D01*
X735701Y436234D02*
Y440308D01*
X736701Y436812D02*
Y440885D01*
X737701Y437389D02*
Y440766D01*
X738701Y437966D02*
Y439034D01*
X738484Y429204D02*
X742903Y431755D01*
X741139Y434810*
X736721Y432259*
X738484Y429204*
X738025Y430000D02*
X739863D01*
X737447Y431000D02*
X741595D01*
X736870Y432000D02*
X742762D01*
X738004Y433000D02*
X742184D01*
X739736Y434000D02*
X741607D01*
X737701Y430561D02*
Y432825D01*
X738701Y429329D02*
Y433402D01*
X739701Y429906D02*
Y433980D01*
X740701Y430484D02*
Y434557D01*
X741701Y431061D02*
Y433838D01*
X742701Y431638D02*
Y432106D01*
X729079Y428093D02*
X733498Y430644D01*
X731734Y433699*
X727315Y431148*
X729079Y428093*
X728555Y429000D02*
X730651D01*
X727978Y430000D02*
X732383D01*
X727401Y431000D02*
X733292D01*
X728792Y432000D02*
X732715D01*
X730524Y433000D02*
X732138D01*
X727701Y430480D02*
Y431370D01*
X728701Y428748D02*
Y431947D01*
X729701Y428452D02*
Y432525D01*
X730701Y429029D02*
Y433102D01*
X731701Y429606D02*
Y433679D01*
X732701Y430184D02*
Y432024D01*
X492294Y480878D02*
X489187Y484926D01*
X486389Y482779*
X489495Y478731*
X492294Y480878*
X489289Y479000D02*
X489846D01*
X488521Y480000D02*
X491149D01*
X487754Y481000D02*
X492200D01*
X486987Y482000D02*
X491433D01*
X486677Y483000D02*
X490666D01*
X487980Y484000D02*
X489898D01*
X486701Y482372D02*
Y483018D01*
X487701Y481069D02*
Y483786D01*
X488701Y479766D02*
Y484553D01*
X489701Y478889D02*
Y484257D01*
X490701Y479656D02*
Y482954D01*
X491701Y480424D02*
Y481651D01*
X498228Y485432D02*
X495122Y489480D01*
X492323Y487333*
X495429Y483285*
X498228Y485432*
X494881Y484000D02*
X496362D01*
X494113Y485000D02*
X497665D01*
X493346Y486000D02*
X497792D01*
X492579Y487000D02*
X497025D01*
X493193Y488000D02*
X496258D01*
X494496Y489000D02*
X495490D01*
X492701Y486841D02*
Y487622D01*
X493701Y485538D02*
Y488390D01*
X494701Y484234D02*
Y489157D01*
X495701Y483493D02*
Y488726D01*
X496701Y484260D02*
Y487423D01*
X497701Y485028D02*
Y486119D01*
X500558Y476252D02*
X497451Y480300D01*
X494653Y478153*
X497759Y474105*
X500558Y476252*
X497072Y475000D02*
X498925D01*
X496305Y476000D02*
X500228D01*
X495538Y477000D02*
X499984D01*
X494770Y478000D02*
X499217D01*
X495757Y479000D02*
X498449D01*
X497060Y480000D02*
X497682D01*
X494701Y478090D02*
Y478190D01*
X495701Y476787D02*
Y478957D01*
X496701Y475484D02*
Y479725D01*
X497701Y474181D02*
Y479975D01*
X498701Y474828D02*
Y478672D01*
X499701Y475595D02*
Y477369D01*
X691972Y483285D02*
X695078Y487333D01*
X692280Y489480*
X689173Y485432*
X691972Y483285*
X691040Y484000D02*
X692521D01*
X689737Y485000D02*
X693288D01*
X689609Y486000D02*
X694056D01*
X690377Y487000D02*
X694823D01*
X691144Y488000D02*
X694209D01*
X691911Y489000D02*
X692905D01*
X689701Y485028D02*
Y486119D01*
X690701Y484260D02*
Y487423D01*
X691701Y483493D02*
Y488726D01*
X692701Y484234D02*
Y489157D01*
X693701Y485538D02*
Y488390D01*
X694701Y486841D02*
Y487622D01*
X697907Y478731D02*
X701013Y482779D01*
X698214Y484926*
X695108Y480878*
X697907Y478731*
X697556Y479000D02*
X698113D01*
X696253Y480000D02*
X698880D01*
X695201Y481000D02*
X699648D01*
X695969Y482000D02*
X700415D01*
X696736Y483000D02*
X700725D01*
X697503Y484000D02*
X699421D01*
X695701Y480424D02*
Y481651D01*
X696701Y479656D02*
Y482954D01*
X697701Y478889D02*
Y484257D01*
X698701Y479766D02*
Y484553D01*
X699701Y481069D02*
Y483786D01*
X700701Y482372D02*
Y483018D01*
X689643Y474105D02*
X692749Y478153D01*
X689950Y480300*
X686844Y476252*
X686844D02*
X689643Y474105D01*
X688476Y475000D02*
X690329D01*
X687173Y476000D02*
X691097D01*
X687418Y477000D02*
X691864D01*
X688185Y478000D02*
X692631D01*
X688952Y479000D02*
X691645D01*
X689720Y480000D02*
X690342D01*
X687701Y475595D02*
Y477369D01*
X688701Y474828D02*
Y478672D01*
X689701Y474181D02*
Y479975D01*
X690701Y475484D02*
Y479725D01*
X691701Y476787D02*
Y478957D01*
X692701Y478090D02*
Y478190D01*
X633718Y519371D02*
X634937Y523919D01*
X631529Y524832*
X630311Y520284*
X633718Y519371*
X631369Y520000D02*
X633887D01*
X630503Y521000D02*
X634155D01*
X630771Y522000D02*
X634423D01*
X631038Y523000D02*
X634690D01*
X631306Y524000D02*
X634633D01*
X630701Y520179D02*
Y521740D01*
X631701Y519911D02*
Y524786D01*
X632701Y519643D02*
Y524518D01*
X633701Y519375D02*
Y524250D01*
X634701Y523039D02*
Y523982D01*
X646153Y516038D02*
X647372Y520587D01*
X643965Y521500*
X642746Y516951*
X646153Y516038*
X642759Y517000D02*
X646411D01*
X643027Y518000D02*
X646679D01*
X643295Y519000D02*
X646947D01*
X643563Y520000D02*
X647215D01*
X643831Y521000D02*
X645829D01*
X643701Y516696D02*
Y520515D01*
X644701Y516428D02*
Y521302D01*
X645701Y516160D02*
Y521034D01*
X646701Y518082D02*
Y520767D01*
X740368Y442043D02*
X744446Y444398D01*
X742682Y447452*
X738605Y445098*
X738605D02*
X740368Y442043D01*
X739816Y443000D02*
X742026D01*
X739239Y444000D02*
X743758D01*
X738661Y445000D02*
X744098D01*
X740167Y446000D02*
X743521D01*
X741899Y447000D02*
X742944D01*
X738701Y444931D02*
Y445154D01*
X739701Y443199D02*
Y445731D01*
X740701Y442235D02*
Y446308D01*
X741701Y442813D02*
Y446886D01*
X742701Y443390D02*
Y447420D01*
X743701Y443967D02*
Y445688D01*
X746805Y430894D02*
X750883Y433248D01*
X749119Y436303*
X745042Y433949*
X746805Y430894*
X746744Y431000D02*
X746989D01*
X746167Y432000D02*
X748721D01*
X745589Y433000D02*
X750453D01*
X745130Y434000D02*
X750449D01*
X746862Y435000D02*
X749872D01*
X748594Y436000D02*
X749294D01*
X745701Y432807D02*
Y434330D01*
X746701Y431075D02*
Y434907D01*
X747701Y431411D02*
Y435484D01*
X748701Y431988D02*
Y436062D01*
X749701Y432566D02*
Y435296D01*
X750701Y433143D02*
Y433564D01*
X485253Y485624D02*
X482386Y489360D01*
X479588Y487212*
X482454Y483477*
X485253Y485624*
X482053Y484000D02*
X483136D01*
X481285Y485000D02*
X484439D01*
X480518Y486000D02*
X484964D01*
X479751Y487000D02*
X484197D01*
X480614Y488000D02*
X483430D01*
X481917Y489000D02*
X482662D01*
X479701Y487065D02*
Y487299D01*
X480701Y485762D02*
Y488066D01*
X481701Y484458D02*
Y488834D01*
X482701Y483666D02*
Y488950D01*
X483701Y484433D02*
Y487647D01*
X484701Y485201D02*
Y486343D01*
X495466Y493461D02*
X492600Y497197D01*
X489801Y495050*
X492668Y491314*
X495466Y493461*
X492141Y492000D02*
X493562D01*
X491374Y493000D02*
X494865D01*
X490607Y494000D02*
X495053D01*
X489839Y495000D02*
X494286D01*
X491040Y496000D02*
X493518D01*
X492343Y497000D02*
X492751D01*
X490701Y493877D02*
Y495740D01*
X491701Y492574D02*
Y496507D01*
X492701Y491339D02*
Y497066D01*
X493701Y492107D02*
Y495762D01*
X494701Y492874D02*
Y494459D01*
X694734Y491314D02*
X697600Y495050D01*
X694802Y497197*
X691935Y493461*
X694734Y491314*
X693840Y492000D02*
X695260D01*
X692536Y493000D02*
X696028D01*
X692349Y494000D02*
X696795D01*
X693116Y495000D02*
X697562D01*
X693883Y496000D02*
X696362D01*
X694651Y497000D02*
X695058D01*
X692701Y492874D02*
Y494459D01*
X693701Y492107D02*
Y495762D01*
X694701Y491339D02*
Y497066D01*
X695701Y492574D02*
Y496507D01*
X696701Y493877D02*
Y495740D01*
X704947Y483477D02*
X707814Y487212D01*
X705015Y489360*
X702149Y485624*
X704947Y483477*
X704265Y484000D02*
X705349D01*
X702962Y485000D02*
X706116D01*
X702437Y486000D02*
X706884D01*
X703205Y487000D02*
X707651D01*
X703972Y488000D02*
X706787D01*
X704739Y489000D02*
X705484D01*
X702701Y485201D02*
Y486343D01*
X703701Y484433D02*
Y487647D01*
X704701Y483666D02*
Y488950D01*
X705701Y484458D02*
Y488834D01*
X706701Y485762D02*
Y488066D01*
X707701Y487065D02*
Y487299D01*
X516314Y456067D02*
X519420Y452019D01*
X522219Y454167*
X519113Y458215*
X516314Y456067*
X518668Y453000D02*
X520699D01*
X517900Y454000D02*
X522002D01*
X517133Y455000D02*
X521579D01*
X516366Y456000D02*
X520812D01*
X517530Y457000D02*
X520045D01*
X518833Y458000D02*
X519278D01*
X516701Y455563D02*
Y456364D01*
X517701Y454260D02*
Y457131D01*
X518701Y452957D02*
Y457898D01*
X519701Y452234D02*
Y457448D01*
X520701Y453002D02*
Y456145D01*
X521701Y453769D02*
Y454842D01*
X510380Y451513D02*
X513486Y447465D01*
X516285Y449613*
X516285D02*
X513178Y453661D01*
X510380Y451513*
X513076Y448000D02*
X514183D01*
X512308Y449000D02*
X515486D01*
X511541Y450000D02*
X515987D01*
X510774Y451000D02*
X515220D01*
X511014Y452000D02*
X514453D01*
X512317Y453000D02*
X513685D01*
X510701Y451095D02*
Y451760D01*
X511701Y449792D02*
Y452527D01*
X512701Y448489D02*
Y453294D01*
X513701Y447630D02*
Y452980D01*
X514701Y448398D02*
Y451677D01*
X515701Y449165D02*
Y450374D01*
X508050Y460693D02*
X511156Y456645D01*
X513955Y458792*
X510849Y462840*
X508050Y460693*
X510884Y457000D02*
X511619D01*
X510117Y458000D02*
X512922D01*
X509349Y459000D02*
X513796D01*
X508582Y460000D02*
X513028D01*
X508450Y461000D02*
X512261D01*
X509754Y462000D02*
X511494D01*
X508701Y459845D02*
Y461192D01*
X509701Y458542D02*
Y461959D01*
X510701Y457239D02*
Y462727D01*
X511701Y457063D02*
Y461730D01*
X512701Y457830D02*
Y460427D01*
X513701Y458597D02*
Y459124D01*
X674223Y453661D02*
X671117Y449613D01*
X673916Y447465*
X677022Y451513*
X674223Y453661*
X673219Y448000D02*
X674326D01*
X671916Y449000D02*
X675093D01*
X671414Y450000D02*
X675861D01*
X672181Y451000D02*
X676628D01*
X672949Y452000D02*
X676388D01*
X673716Y453000D02*
X675084D01*
X671701Y449165D02*
Y450374D01*
X672701Y448398D02*
Y451677D01*
X673701Y447630D02*
Y452980D01*
X674701Y448489D02*
Y453294D01*
X675701Y449792D02*
Y452527D01*
X676701Y451095D02*
Y451760D01*
X668289Y458215D02*
X665183Y454167D01*
X667981Y452019*
X671087Y456067*
X668289Y458215*
X666703Y453000D02*
X668734D01*
X665400Y454000D02*
X669501D01*
X665822Y455000D02*
X670268D01*
X666589Y456000D02*
X671036D01*
X667357Y457000D02*
X669871D01*
X668124Y458000D02*
X668568D01*
X665701Y453769D02*
Y454842D01*
X666701Y453002D02*
Y456145D01*
X667701Y452234D02*
Y457448D01*
X668701Y452957D02*
Y457898D01*
X669701Y454260D02*
Y457131D01*
X670701Y455563D02*
Y456364D01*
X676553Y462840D02*
X673447Y458792D01*
X676245Y456645*
X679351Y460693*
X676553Y462840*
X675783Y457000D02*
X676517D01*
X674479Y458000D02*
X677285D01*
X673606Y459000D02*
X678052D01*
X674373Y460000D02*
X678819D01*
X675140Y461000D02*
X678951D01*
X675908Y462000D02*
X677648D01*
X673701Y458597D02*
Y459124D01*
X674701Y457830D02*
Y460427D01*
X675701Y457063D02*
Y461730D01*
X676701Y457239D02*
Y462727D01*
X677701Y458542D02*
Y461959D01*
X678701Y459845D02*
Y461192D01*
G54D28*
X487402Y198720D02*
Y202503D01*
X484173*
X482988Y204475D02*
G75*
G03X484173Y202503I1691J-326D01*
G01X482988Y204476D02*
X479902D01*
X478146Y202503D02*
G03X479902Y204477I-330J2061D01*
G01X478146Y202503D02*
X475126D01*
X475074Y200196*
X477990Y196572D02*
G03X475076Y200196I-3213J400D01*
G01X474902Y194492D02*
G03X477990Y196571I442J2675D01*
G01X474902Y194492D02*
X475428Y190288D01*
X479867Y191317D02*
G03X475428Y190288I-1732J-2617D01*
G01X481542Y188536D02*
G03X479867Y191317I-3998J-512D01*
G01X487401Y190674D02*
G03X481542Y188530I-2470J-2328D01*
G01X487402Y190673D02*
Y194625D01*
Y198720D02*
G03Y194625I-43J-2047D01*
G54D57*
G01X645669Y142913D03*
X785039D03*
X716142D03*
G54D58*
X635669D03*
X625669D03*
X615669D03*
X605669D03*
X595669D03*
X775039D03*
X765039D03*
X755039D03*
X745039D03*
X735039D03*
X706142D03*
X696142D03*
X686142D03*
X676142D03*
X666142D03*
G54D59*
X612598Y179646D03*
Y189646D03*
X593701Y179646D03*
Y189646D03*
G54D60*
X447638Y212992D03*
X424803D03*
G54D61*
X435827Y232677D03*
G54D62*
X421834Y163051D03*
X490366Y123484D03*
G54D65*
X593701Y444594D03*
X513484Y305656D03*
X673917D03*
X405512Y111811D03*
X781496D03*
X781890Y538976D03*
X405512D03*
G54D66*
X539566Y525509D02*
X539191Y523959D01*
X537644Y523545*
X536919Y526250*
X538466Y526664*
X539566Y525509*
X537089Y525618D02*
Y526295D01*
X537339Y524685D02*
Y526362D01*
X537589Y523752D02*
Y526429D01*
X537839Y523597D02*
Y526496D01*
X538089Y523664D02*
Y526563D01*
X538339Y523731D02*
Y526630D01*
X538589Y523798D02*
Y526536D01*
X538839Y523865D02*
Y526273D01*
X539089Y523932D02*
Y526011D01*
X539339Y524569D02*
Y525748D01*
X545758Y525719D02*
X544211Y525304D01*
X543111Y526459*
X543486Y528009*
X545033Y528424*
X545758Y525719*
X543339Y526220D02*
Y527400D01*
X543589Y525958D02*
Y528037D01*
X543839Y525695D02*
Y528104D01*
X544089Y525433D02*
Y528170D01*
X544339Y525339D02*
Y528237D01*
X544589Y525406D02*
Y528304D01*
X544839Y525473D02*
Y528371D01*
X545089Y525540D02*
Y528217D01*
X545339Y525607D02*
Y527284D01*
X545589Y525674D02*
Y526351D01*
X633661Y529215D02*
X632561Y528060D01*
X631014Y528475*
X631739Y531179*
X633286Y530765*
X633661Y529215*
X631183Y528430D02*
Y529106D01*
X631433Y528363D02*
Y530040D01*
X631683Y528296D02*
Y530973D01*
X631933Y528229D02*
Y531127D01*
X632183Y528162D02*
Y531060D01*
X632433Y528095D02*
Y530993D01*
X632683Y528189D02*
Y530926D01*
X632933Y528451D02*
Y530859D01*
X633183Y528714D02*
Y530792D01*
X633433Y528976D02*
Y530156D01*
X639128Y526301D02*
X637581Y526715D01*
X637205Y528265*
X638305Y529420*
X639852Y529005*
X639128Y526301*
X637433Y527325D02*
Y528504D01*
X637683Y526688D02*
Y528767D01*
X637933Y526621D02*
Y529029D01*
X638183Y526554D02*
Y529292D01*
X638433Y526487D02*
Y529386D01*
X638683Y526420D02*
Y529319D01*
X638933Y526353D02*
Y529252D01*
X639183Y526508D02*
Y529185D01*
X639433Y527441D02*
Y529118D01*
X639683Y528374D02*
Y529051D01*
X477285Y491403D02*
X477531Y489827D01*
X476260Y488852*
X474556Y491074*
X475826Y492049*
X477285Y491403*
X474740Y490833D02*
Y491215D01*
X474990Y490508D02*
Y491407D01*
X475240Y490182D02*
Y491599D01*
X475490Y489856D02*
Y491791D01*
X475740Y489530D02*
Y491982D01*
X475990Y489204D02*
Y491976D01*
X476240Y488878D02*
Y491865D01*
X476490Y489029D02*
Y491755D01*
X476740Y489220D02*
Y491644D01*
X476990Y489412D02*
Y491533D01*
X477240Y489604D02*
Y491422D01*
X477490Y489796D02*
Y490088D01*
X482925Y493966D02*
X481654Y492991D01*
X480196Y493637*
X479949Y495212*
X481220Y496187*
X482925Y493966*
X479990Y494951D02*
Y495244D01*
X480240Y493617D02*
Y495435D01*
X480490Y493506D02*
Y495627D01*
X480740Y493396D02*
Y495819D01*
X480990Y493285D02*
Y496011D01*
X481240Y493174D02*
Y496161D01*
X481490Y493063D02*
Y495835D01*
X481740Y493057D02*
Y495509D01*
X481990Y493249D02*
Y495183D01*
X482240Y493441D02*
Y494858D01*
X482490Y493632D02*
Y494532D01*
X482740Y493824D02*
Y494206D01*
X698151Y500330D02*
X696693Y499684D01*
X695422Y500659*
X697126Y502880*
X698397Y501905*
X698151Y500330*
X695606Y500517D02*
Y500899D01*
X695856Y500325D02*
Y501225D01*
X696106Y500134D02*
Y501551D01*
X696356Y499942D02*
Y501876D01*
X696606Y499750D02*
Y502202D01*
X696856Y499756D02*
Y502528D01*
X697106Y499867D02*
Y502854D01*
X697356Y499978D02*
Y502704D01*
X697606Y500088D02*
Y502512D01*
X697856Y500199D02*
Y502320D01*
X698106Y500310D02*
Y502128D01*
X698356Y501644D02*
Y501936D01*
X702086Y495545D02*
X700815Y496520D01*
X701062Y498096*
X702520Y498741*
X703791Y497766*
X702086Y495545*
X700856Y496489D02*
Y496781D01*
X701106Y496297D02*
Y498115D01*
X701356Y496105D02*
Y498226D01*
X701606Y495913D02*
Y498337D01*
X701856Y495721D02*
Y498448D01*
X702106Y495571D02*
Y498558D01*
X702356Y495897D02*
Y498669D01*
X702606Y496223D02*
Y498675D01*
X702856Y496549D02*
Y498483D01*
X703106Y496875D02*
Y498292D01*
X703356Y497200D02*
Y498100D01*
X703606Y497526D02*
Y497908D01*
X747114Y448833D02*
X745520Y448794D01*
X744719Y450181*
X747144Y451581*
X747945Y450194*
X747114Y448833*
X744781Y450073D02*
Y450217D01*
X745031Y449640D02*
Y450362D01*
X745281Y449207D02*
Y450506D01*
X745531Y448795D02*
Y450650D01*
X745781Y448801D02*
Y450795D01*
X746031Y448807D02*
Y450939D01*
X746281Y448813D02*
Y451083D01*
X746531Y448819D02*
Y451228D01*
X746781Y448825D02*
Y451372D01*
X747031Y448831D02*
Y451516D01*
X747281Y449107D02*
Y451343D01*
X747531Y449517D02*
Y450910D01*
X747781Y449927D02*
Y450477D01*
X748919Y442907D02*
X748118Y444294D01*
X748949Y445655*
X750543Y445694*
X751344Y444307*
X748919Y442907*
X748281Y444011D02*
Y444561D01*
X748531Y443578D02*
Y444971D01*
X748781Y443145D02*
Y445381D01*
X749031Y442972D02*
Y445657D01*
X749281Y443116D02*
Y445663D01*
X749531Y443260D02*
Y445669D01*
X749781Y443405D02*
Y445675D01*
X750031Y443549D02*
Y445681D01*
X750281Y443693D02*
Y445687D01*
X750531Y443838D02*
Y445694D01*
X750781Y443982D02*
Y445281D01*
X751031Y444126D02*
Y444848D01*
X751281Y444271D02*
Y444415D01*
X775197Y359315D02*
X773797Y360079D01*
Y361680*
X776597*
Y360079*
X775197Y359315*
X773947Y359997D02*
Y361680D01*
X774197Y359861D02*
Y361680D01*
X774447Y359724D02*
Y361680D01*
X774697Y359588D02*
Y361680D01*
X774947Y359451D02*
Y361680D01*
X775197Y359315D02*
Y361680D01*
X775447Y359451D02*
Y361680D01*
X775697Y359588D02*
Y361680D01*
X775947Y359724D02*
Y361680D01*
X776197Y359861D02*
Y361680D01*
X776447Y359997D02*
Y361680D01*
X773797Y353280D02*
Y354882D01*
X775197Y355646*
X776597Y354882*
Y353280*
X773797*
X773947D02*
Y354964D01*
X774197Y353280D02*
Y355100D01*
X774447Y353280D02*
Y355236D01*
X774697Y353280D02*
Y355373D01*
X774947Y353280D02*
Y355509D01*
X775197Y353280D02*
Y355646D01*
X775447Y353280D02*
Y355509D01*
X775697Y353280D02*
Y355373D01*
X775947Y353280D02*
Y355236D01*
X776197Y353280D02*
Y355100D01*
X776447Y353280D02*
Y354964D01*
X412205Y344622D02*
X413605Y343858D01*
Y342257*
X410805*
Y343858*
X412205Y344622*
X410955Y342257D02*
Y343940D01*
X411205Y342257D02*
Y344076D01*
X411455Y342257D02*
Y344213D01*
X411705Y342257D02*
Y344349D01*
X411955Y342257D02*
Y344486D01*
X412205Y342257D02*
Y344622D01*
X412455Y342257D02*
Y344486D01*
X412705Y342257D02*
Y344349D01*
X412955Y342257D02*
Y344213D01*
X413205Y342257D02*
Y344076D01*
X413455Y342257D02*
Y343940D01*
X413605Y350657D02*
Y349055D01*
X412205Y348291*
X410805Y349055*
Y350657*
X413605*
X410955Y348973D02*
Y350657D01*
X411205Y348837D02*
Y350657D01*
X411455Y348701D02*
Y350657D01*
X411705Y348564D02*
Y350657D01*
X411955Y348428D02*
Y350657D01*
X412205Y348291D02*
Y350657D01*
X412455Y348428D02*
Y350657D01*
X412705Y348564D02*
Y350657D01*
X412955Y348701D02*
Y350657D01*
X413205Y348837D02*
Y350657D01*
X413455Y348973D02*
Y350657D01*
X432941Y436206D02*
X433771Y434845D01*
X433771D02*
X432971Y433458D01*
X430546Y434858*
X431347Y436245*
X432941Y436206*
X430608Y434822D02*
Y434966D01*
X430858Y434678D02*
Y435399D01*
X431108Y434533D02*
Y435832D01*
X431358Y434389D02*
Y436245D01*
X431608Y434245D02*
Y436239D01*
X431858Y434100D02*
Y436233D01*
X432108Y433956D02*
Y436227D01*
X432358Y433812D02*
Y436220D01*
X432608Y433667D02*
Y436214D01*
X432858Y433523D02*
Y436208D01*
X433108Y433696D02*
Y435932D01*
X433358Y434129D02*
Y435522D01*
X433608Y434562D02*
Y435113D01*
X437171Y440733D02*
X436370Y439346D01*
X434776Y439384*
X433945Y440746*
X434746Y442133*
X437171Y440733*
X434108Y440478D02*
Y441028D01*
X434358Y440068D02*
Y441461D01*
X434608Y439659D02*
Y441894D01*
X434858Y439382D02*
Y442068D01*
X435108Y439376D02*
Y441923D01*
X435358Y439370D02*
Y441779D01*
X435608Y439364D02*
Y441635D01*
X435858Y439358D02*
Y441490D01*
X436108Y439352D02*
Y441346D01*
X436358Y439346D02*
Y441202D01*
X436608Y439758D02*
Y441057D01*
X436858Y440191D02*
Y440913D01*
X437108Y440624D02*
Y440769D01*
X412205Y355646D02*
X413605Y354882D01*
Y353280*
X410805*
Y354882*
X412205Y355646*
X410955Y353280D02*
Y354964D01*
X411205Y353280D02*
Y355100D01*
X411455Y353280D02*
Y355236D01*
X411705Y353280D02*
Y355373D01*
X411955Y353280D02*
Y355509D01*
X412205Y353280D02*
Y355646D01*
X412455Y353280D02*
Y355509D01*
X412705Y353280D02*
Y355373D01*
X412955Y353280D02*
Y355236D01*
X413205Y353280D02*
Y355100D01*
X413455Y353280D02*
Y354964D01*
X413605Y361680D02*
Y360079D01*
X412205Y359315*
X410805Y360079*
Y361680*
X413605*
X410955Y359997D02*
Y361680D01*
X411205Y359861D02*
Y361680D01*
X411455Y359724D02*
Y361680D01*
X411705Y359588D02*
Y361680D01*
X411955Y359451D02*
Y361680D01*
X412205Y359315D02*
Y361680D01*
X412455Y359451D02*
Y361680D01*
X412705Y359588D02*
Y361680D01*
X412955Y359724D02*
Y361680D01*
X413205Y359861D02*
Y361680D01*
X413455Y359997D02*
Y361680D01*
X438453Y445655D02*
X439283Y444294D01*
X438483Y442907*
X436058Y444307*
X436858Y445694*
X438453Y445655*
X436120Y444271D02*
Y444415D01*
X436370Y444126D02*
Y444848D01*
X436620Y443982D02*
Y445281D01*
X436870Y443838D02*
Y445694D01*
X437120Y443693D02*
Y445687D01*
X437370Y443549D02*
Y445681D01*
X437620Y443405D02*
Y445675D01*
X437870Y443260D02*
Y445669D01*
X438120Y443116D02*
Y445663D01*
X438370Y442972D02*
Y445657D01*
X438620Y443145D02*
Y445381D01*
X438870Y443578D02*
Y444971D01*
X439120Y444011D02*
Y444561D01*
X442683Y450181D02*
X441882Y448794D01*
X440287Y448833*
X439457Y450194*
X440258Y451581*
X442683Y450181*
X439620Y449927D02*
Y450477D01*
X439870Y449517D02*
Y450910D01*
X440120Y449107D02*
Y451343D01*
X440370Y448831D02*
Y451516D01*
X440620Y448825D02*
Y451372D01*
X440870Y448819D02*
Y451228D01*
X441120Y448813D02*
Y451083D01*
X441370Y448807D02*
Y450939D01*
X441620Y448801D02*
Y450795D01*
X441870Y448795D02*
Y450650D01*
X442120Y449207D02*
Y450506D01*
X442370Y449640D02*
Y450362D01*
X442620Y450073D02*
Y450217D01*
X485946Y498096D02*
X486192Y496520D01*
X484922Y495545*
X483217Y497766*
X484488Y498741*
X485946Y498096*
X483402Y497526D02*
Y497908D01*
X483652Y497200D02*
Y498100D01*
X483902Y496875D02*
Y498292D01*
X484152Y496549D02*
Y498483D01*
X484402Y496223D02*
Y498675D01*
X484652Y495897D02*
Y498669D01*
X484902Y495571D02*
Y498558D01*
X485152Y495721D02*
Y498448D01*
X485402Y495913D02*
Y498337D01*
X485652Y496105D02*
Y498226D01*
X485902Y496297D02*
Y498115D01*
X486152Y496489D02*
Y496781D01*
X491586Y500659D02*
X490315Y499684D01*
X488857Y500330*
X488611Y501905*
X489881Y502880*
X491586Y500659*
X488652Y501644D02*
Y501936D01*
X488902Y500310D02*
Y502128D01*
X489152Y500199D02*
Y502320D01*
X489402Y500088D02*
Y502512D01*
X489652Y499978D02*
Y502704D01*
X489902Y499867D02*
Y502854D01*
X490152Y499756D02*
Y502528D01*
X490402Y499750D02*
Y502202D01*
X490652Y499942D02*
Y501876D01*
X490902Y500134D02*
Y501551D01*
X491152Y500325D02*
Y501225D01*
X491402Y500517D02*
Y500899D01*
X706812Y493637D02*
X705354Y492991D01*
X704083Y493966*
X705788Y496187*
X707059Y495212*
X706812Y493637*
X704268Y493824D02*
Y494206D01*
X704518Y493632D02*
Y494532D01*
X704768Y493441D02*
Y494858D01*
X705018Y493249D02*
Y495183D01*
X705268Y493057D02*
Y495509D01*
X705518Y493063D02*
Y495835D01*
X705768Y493174D02*
Y496161D01*
X706018Y493285D02*
Y496011D01*
X706268Y493396D02*
Y495819D01*
X706518Y493506D02*
Y495627D01*
X706768Y493617D02*
Y495435D01*
X707018Y494951D02*
Y495244D01*
X710748Y488852D02*
X709477Y489827D01*
X709723Y491403*
X711181Y492049*
X712452Y491074*
X710748Y488852*
X709518Y489796D02*
Y490088D01*
X709768Y489604D02*
Y491422D01*
X710018Y489412D02*
Y491533D01*
X710268Y489220D02*
Y491644D01*
X710518Y489029D02*
Y491755D01*
X710768Y488878D02*
Y491865D01*
X711018Y489204D02*
Y491976D01*
X711268Y489530D02*
Y491982D01*
X711518Y489856D02*
Y491791D01*
X711768Y490182D02*
Y491599D01*
X712018Y490508D02*
Y491407D01*
X712268Y490833D02*
Y491215D01*
X550196Y528265D02*
X549821Y526715D01*
X548274Y526301*
X547549Y529005*
X549096Y529420*
X550196Y528265*
X547719Y528374D02*
Y529051D01*
X547969Y527441D02*
Y529118D01*
X548219Y526508D02*
Y529185D01*
X548469Y526353D02*
Y529252D01*
X548719Y526420D02*
Y529319D01*
X548969Y526487D02*
Y529386D01*
X549219Y526554D02*
Y529292D01*
X549469Y526621D02*
Y529029D01*
X549719Y526688D02*
Y528767D01*
X549969Y527325D02*
Y528504D01*
X556388Y528475D02*
X554841Y528060D01*
X553741Y529215*
X554116Y530765*
X555663Y531179*
X556388Y528475*
X553969Y528976D02*
Y530156D01*
X554219Y528714D02*
Y530792D01*
X554469Y528451D02*
Y530859D01*
X554719Y528189D02*
Y530926D01*
X554969Y528095D02*
Y530993D01*
X555219Y528162D02*
Y531060D01*
X555469Y528229D02*
Y531127D01*
X555719Y528296D02*
Y530973D01*
X555969Y528363D02*
Y530040D01*
X556219Y528430D02*
Y529106D01*
X644291Y526459D02*
X643191Y525304D01*
X641644Y525719*
X642368Y528424*
X643915Y528009*
X644291Y526459*
X641813Y525674D02*
Y526351D01*
X642063Y525607D02*
Y527284D01*
X642313Y525540D02*
Y528217D01*
X642563Y525473D02*
Y528371D01*
X642813Y525406D02*
Y528304D01*
X643063Y525339D02*
Y528237D01*
X643313Y525433D02*
Y528170D01*
X643563Y525695D02*
Y528104D01*
X643813Y525958D02*
Y528037D01*
X644063Y526220D02*
Y527400D01*
X649758Y523545D02*
X648211Y523959D01*
X647835Y525509*
X648935Y526664*
X650482Y526250*
X649758Y523545*
X648063Y524569D02*
Y525748D01*
X648313Y523932D02*
Y526011D01*
X648563Y523865D02*
Y526273D01*
X648813Y523798D02*
Y526536D01*
X649063Y523731D02*
Y526630D01*
X649313Y523664D02*
Y526563D01*
X649563Y523597D02*
Y526496D01*
X649813Y523752D02*
Y526429D01*
X650063Y524685D02*
Y526362D01*
X650313Y525618D02*
Y526295D01*
X752626Y439384D02*
X751032Y439346D01*
X750231Y440733*
X752656Y442133*
X753457Y440746*
X752626Y439384*
X750293Y440624D02*
Y440769D01*
X750543Y440191D02*
Y440913D01*
X750793Y439758D02*
Y441057D01*
X751043Y439346D02*
Y441202D01*
X751293Y439352D02*
Y441346D01*
X751543Y439358D02*
Y441490D01*
X751793Y439364D02*
Y441635D01*
X752043Y439370D02*
Y441779D01*
X752293Y439376D02*
Y441923D01*
X752543Y439382D02*
Y442068D01*
X752793Y439659D02*
Y441894D01*
X753043Y440068D02*
Y441461D01*
X753293Y440478D02*
Y441028D01*
X754431Y433458D02*
X753630Y434845D01*
X754461Y436206*
X756055Y436245*
X756856Y434858*
X754431Y433458*
X753793Y434562D02*
Y435113D01*
X754043Y434129D02*
Y435522D01*
X754293Y433696D02*
Y435932D01*
X754543Y433523D02*
Y436208D01*
X754793Y433667D02*
Y436214D01*
X755043Y433812D02*
Y436220D01*
X755293Y433956D02*
Y436227D01*
X755543Y434100D02*
Y436233D01*
X755793Y434245D02*
Y436239D01*
X756043Y434389D02*
Y436245D01*
X756293Y434533D02*
Y435832D01*
X756543Y434678D02*
Y435399D01*
X756793Y434822D02*
Y434966D01*
X607614Y198425D02*
X606850Y197025D01*
X605249*
Y199825*
X606850*
X607614Y198425*
X605449Y197025D02*
Y199825D01*
X605699Y197025D02*
Y199825D01*
X605949Y197025D02*
Y199825D01*
X606199Y197025D02*
Y199825D01*
X606449Y197025D02*
Y199825D01*
X606699Y197025D02*
Y199825D01*
X606949Y197206D02*
Y199645D01*
X607199Y197664D02*
Y199186D01*
X607449Y198122D02*
Y198728D01*
X613649Y197025D02*
X612047D01*
X611284Y198425*
X612047Y199825*
X613649*
Y197025*
X611449Y198122D02*
Y198728D01*
X611699Y197664D02*
Y199186D01*
X611949Y197206D02*
Y199645D01*
X612199Y197025D02*
Y199825D01*
X612449Y197025D02*
Y199825D01*
X612699Y197025D02*
Y199825D01*
X612949Y197025D02*
Y199825D01*
X613199Y197025D02*
Y199825D01*
X613449Y197025D02*
Y199825D01*
X446717Y351969D02*
X447480Y353369D01*
X449082*
Y350569*
X447480*
X446717Y351969*
X446882Y351666D02*
Y352271D01*
X447132Y351207D02*
Y352730D01*
X447382Y350749D02*
Y353188D01*
X447632Y350569D02*
Y353369D01*
X447882Y350569D02*
Y353369D01*
X448132Y350569D02*
Y353369D01*
X448382Y350569D02*
Y353369D01*
X448632Y350569D02*
Y353369D01*
X448882Y350569D02*
Y353369D01*
X440682D02*
X442283D01*
X443047Y351969*
X442283Y350569*
X440682*
Y353369*
X440882Y350569D02*
Y353369D01*
X441132Y350569D02*
Y353369D01*
X441382Y350569D02*
Y353369D01*
X441632Y350569D02*
Y353369D01*
X441882Y350569D02*
Y353369D01*
X442132Y350569D02*
Y353369D01*
X442382Y350749D02*
Y353188D01*
X442632Y351207D02*
Y352730D01*
X442882Y351666D02*
Y352271D01*
X615748Y226244D02*
X614348Y227008D01*
Y228609*
X617148*
Y227008*
X615748Y226244*
X614498Y226926D02*
Y228609D01*
X614748Y226790D02*
Y228609D01*
X614998Y226653D02*
Y228609D01*
X615248Y226517D02*
Y228609D01*
X615498Y226381D02*
Y228609D01*
X615748Y226244D02*
Y228609D01*
X615998Y226381D02*
Y228609D01*
X616248Y226517D02*
Y228609D01*
X616498Y226653D02*
Y228609D01*
X616748Y226790D02*
Y228609D01*
X616998Y226926D02*
Y228609D01*
X614348Y220209D02*
Y221811D01*
X615748Y222575*
X617148Y221811*
Y220209*
X614348*
X614498D02*
Y221893D01*
X614748Y220209D02*
Y222029D01*
X614998Y220209D02*
Y222166D01*
X615248Y220209D02*
Y222302D01*
X615498Y220209D02*
Y222438D01*
X615748Y220209D02*
Y222575D01*
X615998Y220209D02*
Y222438D01*
X616248Y220209D02*
Y222302D01*
X616498Y220209D02*
Y222166D01*
X616748Y220209D02*
Y222029D01*
X616998Y220209D02*
Y221893D01*
X503123Y473025D02*
X502877Y474601D01*
X504147Y475576*
X505852Y473355*
X504581Y472380*
X503123Y473025*
X502918Y474340D02*
Y474632D01*
X503168Y473006D02*
Y474824D01*
X503418Y472895D02*
Y475016D01*
X503668Y472784D02*
Y475208D01*
X503918Y472674D02*
Y475400D01*
X504168Y472563D02*
Y475550D01*
X504418Y472452D02*
Y475224D01*
X504668Y472446D02*
Y474898D01*
X504918Y472638D02*
Y474572D01*
X505168Y472830D02*
Y474247D01*
X505418Y473021D02*
Y473921D01*
X505668Y473213D02*
Y473595D01*
X497483Y470462D02*
X498754Y471437D01*
X500212Y470792*
X500458Y469216*
X499188Y468241*
X497483Y470462*
X497668Y470222D02*
Y470604D01*
X497918Y469896D02*
Y470796D01*
X498168Y469571D02*
Y470988D01*
X498418Y469245D02*
Y471179D01*
X498668Y468919D02*
Y471371D01*
X498918Y468593D02*
Y471365D01*
X499168Y468267D02*
Y471254D01*
X499418Y468417D02*
Y471143D01*
X499668Y468609D02*
Y471033D01*
X499918Y468801D02*
Y470922D01*
X500168Y468993D02*
Y470811D01*
X500418Y469185D02*
Y469477D01*
X687190Y470792D02*
X688648Y471437D01*
X689918Y470462*
X688214Y468241*
X686943Y469216*
X687190Y470792*
X686984Y469185D02*
Y469477D01*
X687234Y468993D02*
Y470811D01*
X687484Y468801D02*
Y470922D01*
X687734Y468609D02*
Y471033D01*
X687984Y468417D02*
Y471143D01*
X688234Y468267D02*
Y471254D01*
X688484Y468593D02*
Y471365D01*
X688734Y468919D02*
Y471371D01*
X688984Y469245D02*
Y471179D01*
X689234Y469571D02*
Y470988D01*
X689484Y469896D02*
Y470796D01*
X689734Y470222D02*
Y470604D01*
X683254Y475576D02*
X684525Y474601D01*
X684278Y473025*
X682820Y472380*
X681550Y473355*
X683254Y475576*
X681734Y473213D02*
Y473595D01*
X681984Y473021D02*
Y473921D01*
X682234Y472830D02*
Y474247D01*
X682484Y472638D02*
Y474572D01*
X682734Y472446D02*
Y474898D01*
X682984Y472452D02*
Y475224D01*
X683234Y472563D02*
Y475550D01*
X683484Y472674D02*
Y475400D01*
X683734Y472784D02*
Y475208D01*
X683984Y472895D02*
Y475016D01*
X684234Y473006D02*
Y474824D01*
X684484Y474340D02*
Y474632D01*
X517457Y166929D02*
X516693Y165529D01*
X515091*
Y168329*
X516693*
X517457Y166929*
X515291Y165529D02*
Y168329D01*
X515541Y165529D02*
Y168329D01*
X515791Y165529D02*
Y168329D01*
X516041Y165529D02*
Y168329D01*
X516291Y165529D02*
Y168329D01*
X516541Y165529D02*
Y168329D01*
X516791Y165710D02*
Y168149D01*
X517041Y166168D02*
Y167690D01*
X517291Y166626D02*
Y167232D01*
X523491Y165529D02*
X521890D01*
X521126Y166929*
X521890Y168329*
X523491*
Y165529*
X521291Y166626D02*
Y167232D01*
X521541Y166168D02*
Y167690D01*
X521791Y165710D02*
Y168149D01*
X522041Y165529D02*
Y168329D01*
X522291Y165529D02*
Y168329D01*
X522541Y165529D02*
Y168329D01*
X522791Y165529D02*
Y168329D01*
X523041Y165529D02*
Y168329D01*
X523291Y165529D02*
Y168329D01*
X521126Y161417D02*
X521890Y162817D01*
X523491*
Y160017*
X521890*
X521126Y161417*
X521291Y161114D02*
Y161720D01*
X521541Y160656D02*
Y162179D01*
X521791Y160198D02*
Y162637D01*
X522041Y160017D02*
Y162817D01*
X522291Y160017D02*
Y162817D01*
X522541Y160017D02*
Y162817D01*
X522791Y160017D02*
Y162817D01*
X523041Y160017D02*
Y162817D01*
X523291Y160017D02*
Y162817D01*
X515091D02*
X516693D01*
X517457Y161417*
X516693Y160017*
X515091*
Y162817*
X515291Y160017D02*
Y162817D01*
X515541Y160017D02*
Y162817D01*
X515791Y160017D02*
Y162817D01*
X516041Y160017D02*
Y162817D01*
X516291Y160017D02*
Y162817D01*
X516541Y160017D02*
Y162817D01*
X516791Y160198D02*
Y162637D01*
X517041Y160656D02*
Y162179D01*
X517291Y161114D02*
Y161720D01*
X565488Y169291D02*
X564724Y167891D01*
X563123*
Y170691*
X564724*
X565488Y169291*
X563323Y167891D02*
Y170691D01*
X563573Y167891D02*
Y170691D01*
X563823Y167891D02*
Y170691D01*
X564073Y167891D02*
Y170691D01*
X564323Y167891D02*
Y170691D01*
X564573Y167891D02*
Y170691D01*
X564823Y168072D02*
Y170511D01*
X565073Y168530D02*
Y170053D01*
X565323Y168988D02*
Y169594D01*
X571523Y167891D02*
X569921D01*
X569158Y169291*
X569921Y170691*
X571523*
Y167891*
X569323Y168988D02*
Y169594D01*
X569573Y168530D02*
Y170053D01*
X569823Y168072D02*
Y170511D01*
X570073Y167891D02*
Y170691D01*
X570323Y167891D02*
Y170691D01*
X570573Y167891D02*
Y170691D01*
X570823Y167891D02*
Y170691D01*
X571073Y167891D02*
Y170691D01*
X571323Y167891D02*
Y170691D01*
X569158Y187402D02*
X569921Y188802D01*
X571523*
Y186002*
X569921*
X569158Y187402*
X569323Y187099D02*
Y187704D01*
X569573Y186640D02*
Y188163D01*
X569823Y186182D02*
Y188621D01*
X570073Y186002D02*
Y188802D01*
X570323Y186002D02*
Y188802D01*
X570573Y186002D02*
Y188802D01*
X570823Y186002D02*
Y188802D01*
X571073Y186002D02*
Y188802D01*
X571323Y186002D02*
Y188802D01*
X563123D02*
X564724D01*
X565488Y187402*
X564724Y186002*
X563123*
Y188802*
X563323Y186002D02*
Y188802D01*
X563573Y186002D02*
Y188802D01*
X563823Y186002D02*
Y188802D01*
X564073Y186002D02*
Y188802D01*
X564323Y186002D02*
Y188802D01*
X564573Y186002D02*
Y188802D01*
X564823Y186182D02*
Y188621D01*
X565073Y186640D02*
Y188163D01*
X565323Y187099D02*
Y187704D01*
X565488Y164173D02*
X564724Y162773D01*
X563123*
Y165573*
X564724*
X565488Y164173*
X563323Y162773D02*
Y165573D01*
X563573Y162773D02*
Y165573D01*
X563823Y162773D02*
Y165573D01*
X564073Y162773D02*
Y165573D01*
X564323Y162773D02*
Y165573D01*
X564573Y162773D02*
Y165573D01*
X564823Y162954D02*
Y165393D01*
X565073Y163412D02*
Y164934D01*
X565323Y163870D02*
Y164476D01*
X571523Y162773D02*
X569921D01*
X569158Y164173*
X569921Y165573*
X571523*
Y162773*
X569323Y163870D02*
Y164476D01*
X569573Y163412D02*
Y164934D01*
X569823Y162954D02*
Y165393D01*
X570073Y162773D02*
Y165573D01*
X570323Y162773D02*
Y165573D01*
X570573Y162773D02*
Y165573D01*
X570823Y162773D02*
Y165573D01*
X571073Y162773D02*
Y165573D01*
X571323Y162773D02*
Y165573D01*
X686220Y155646D02*
X687620Y154882D01*
Y153280*
X684820*
Y154882*
X686220Y155646*
X684970Y153280D02*
Y154964D01*
X685220Y153280D02*
Y155100D01*
X685470Y153280D02*
Y155236D01*
X685720Y153280D02*
Y155373D01*
X685970Y153280D02*
Y155509D01*
X686220Y153280D02*
Y155646D01*
X686470Y153280D02*
Y155509D01*
X686720Y153280D02*
Y155373D01*
X686970Y153280D02*
Y155236D01*
X687220Y153280D02*
Y155100D01*
X687470Y153280D02*
Y154964D01*
X687620Y161680D02*
Y160079D01*
X686220Y159315*
X684820Y160079*
Y161680*
X687620*
X684970Y159997D02*
Y161680D01*
X685220Y159861D02*
Y161680D01*
X685470Y159724D02*
Y161680D01*
X685720Y159588D02*
Y161680D01*
X685970Y159451D02*
Y161680D01*
X686220Y159315D02*
Y161680D01*
X686470Y159451D02*
Y161680D01*
X686720Y159588D02*
Y161680D01*
X686970Y159724D02*
Y161680D01*
X687220Y159861D02*
Y161680D01*
X687470Y159997D02*
Y161680D01*
X675984Y155646D02*
X677384Y154882D01*
Y153280*
X674584*
Y154882*
X675984Y155646*
X674734Y153280D02*
Y154964D01*
X674984Y153280D02*
Y155100D01*
X675234Y153280D02*
Y155236D01*
X675484Y153280D02*
Y155373D01*
X675734Y153280D02*
Y155509D01*
X675984Y153280D02*
Y155646D01*
X676234Y153280D02*
Y155509D01*
X676484Y153280D02*
Y155373D01*
X676734Y153280D02*
Y155236D01*
X676984Y153280D02*
Y155100D01*
X677234Y153280D02*
Y154964D01*
X677384Y161680D02*
Y160079D01*
X675984Y159315*
X674584Y160079*
Y161680*
X677384*
X674734Y159997D02*
Y161680D01*
X674984Y159861D02*
Y161680D01*
X675234Y159724D02*
Y161680D01*
X675484Y159588D02*
Y161680D01*
X675734Y159451D02*
Y161680D01*
X675984Y159315D02*
Y161680D01*
X676234Y159451D02*
Y161680D01*
X676484Y159588D02*
Y161680D01*
X676734Y159724D02*
Y161680D01*
X676984Y159861D02*
Y161680D01*
X677234Y159997D02*
Y161680D01*
X466409Y425461D02*
X467770Y426291D01*
X469157Y425490*
X467757Y423066*
X466370Y423866*
X466409Y425461*
X466570Y423751D02*
Y425559D01*
X466820Y423607D02*
Y425711D01*
X467070Y423462D02*
Y425864D01*
X467320Y423318D02*
Y426016D01*
X467570Y423174D02*
Y426169D01*
X467820Y423174D02*
Y426262D01*
X468070Y423607D02*
Y426118D01*
X468320Y424040D02*
Y425974D01*
X468570Y424473D02*
Y425829D01*
X468820Y424906D02*
Y425685D01*
X469070Y425339D02*
Y425541D01*
X461883Y429690D02*
X463270Y428890D01*
X463231Y427295*
X461870Y426465*
X460483Y427266*
X461883Y429690*
X460570Y427215D02*
Y427417D01*
X460820Y427071D02*
Y427850D01*
X461070Y426926D02*
Y428283D01*
X461320Y426782D02*
Y428716D01*
X461570Y426638D02*
Y429149D01*
X461820Y426493D02*
Y429582D01*
X462070Y426587D02*
Y429582D01*
X462320Y426739D02*
Y429438D01*
X462570Y426892D02*
Y429294D01*
X462820Y427045D02*
Y429149D01*
X463070Y427197D02*
Y429005D01*
X731102Y246717D02*
X729702Y247480D01*
Y249082*
X732502*
Y247480*
X731102Y246717*
X729852Y247398D02*
Y249082D01*
X730102Y247262D02*
Y249082D01*
X730352Y247126D02*
Y249082D01*
X730602Y246989D02*
Y249082D01*
X730852Y246853D02*
Y249082D01*
X731102Y246717D02*
Y249082D01*
X731352Y246853D02*
Y249082D01*
X731602Y246989D02*
Y249082D01*
X731852Y247126D02*
Y249082D01*
X732102Y247262D02*
Y249082D01*
X732352Y247398D02*
Y249082D01*
X729702Y240682D02*
Y242283D01*
X731102Y243047*
X732502Y242283*
Y240682*
X729702*
X729852D02*
Y242365D01*
X730102Y240682D02*
Y242502D01*
X730352Y240682D02*
Y242638D01*
X730602Y240682D02*
Y242774D01*
X730852Y240682D02*
Y242911D01*
X731102Y240682D02*
Y243047D01*
X731352Y240682D02*
Y242911D01*
X731602Y240682D02*
Y242774D01*
X731852Y240682D02*
Y242638D01*
X732102Y240682D02*
Y242502D01*
X732352Y240682D02*
Y242365D01*
X444622Y273622D02*
X443858Y272222D01*
X442257*
Y275022*
X443858*
X444622Y273622*
X442457Y272222D02*
Y275022D01*
X442707Y272222D02*
Y275022D01*
X442957Y272222D02*
Y275022D01*
X443207Y272222D02*
Y275022D01*
X443457Y272222D02*
Y275022D01*
X443707Y272222D02*
Y275022D01*
X443957Y272402D02*
Y274842D01*
X444207Y272861D02*
Y274383D01*
X444457Y273319D02*
Y273925D01*
X450657Y272222D02*
X449055D01*
X448291Y273622*
X449055Y275022*
X450657*
Y272222*
X448457Y273319D02*
Y273925D01*
X448707Y272861D02*
Y274383D01*
X448957Y272402D02*
Y274842D01*
X449207Y272222D02*
Y275022D01*
X449457Y272222D02*
Y275022D01*
X449707Y272222D02*
Y275022D01*
X449957Y272222D02*
Y275022D01*
X450207Y272222D02*
Y275022D01*
X450457Y272222D02*
Y275022D01*
X444622Y279134D02*
X443858Y277734D01*
X442257*
Y280534*
X443858*
X444622Y279134*
X442457Y277734D02*
Y280534D01*
X442707Y277734D02*
Y280534D01*
X442957Y277734D02*
Y280534D01*
X443207Y277734D02*
Y280534D01*
X443457Y277734D02*
Y280534D01*
X443707Y277734D02*
Y280534D01*
X443957Y277914D02*
Y280353D01*
X444207Y278373D02*
Y279895D01*
X444457Y278831D02*
Y279437D01*
X450657Y277734D02*
X449055D01*
X448291Y279134*
X449055Y280534*
X450657*
Y277734*
X448457Y278831D02*
Y279437D01*
X448707Y278373D02*
Y279895D01*
X448957Y277914D02*
Y280353D01*
X449207Y277734D02*
Y280534D01*
X449457Y277734D02*
Y280534D01*
X449707Y277734D02*
Y280534D01*
X449957Y277734D02*
Y280534D01*
X450207Y277734D02*
Y280534D01*
X450457Y277734D02*
Y280534D01*
X483071Y280055D02*
X484471Y279291D01*
Y277690*
X481671*
Y279291*
X483071Y280055*
X481821Y277690D02*
Y279373D01*
X482071Y277690D02*
Y279510D01*
X482321Y277690D02*
Y279646D01*
X482571Y277690D02*
Y279782D01*
X482821Y277690D02*
Y279919D01*
X483071Y277690D02*
Y280055D01*
X483321Y277690D02*
Y279919D01*
X483571Y277690D02*
Y279782D01*
X483821Y277690D02*
Y279646D01*
X484071Y277690D02*
Y279510D01*
X484321Y277690D02*
Y279373D01*
X484471Y286090D02*
Y284488D01*
X483071Y283725*
X481671Y284488*
Y286090*
X484471*
X481821Y284406D02*
Y286090D01*
X482071Y284270D02*
Y286090D01*
X482321Y284134D02*
Y286090D01*
X482571Y283997D02*
Y286090D01*
X482821Y283861D02*
Y286090D01*
X483071Y283725D02*
Y286090D01*
X483321Y283861D02*
Y286090D01*
X483571Y283997D02*
Y286090D01*
X483821Y284134D02*
Y286090D01*
X484071Y284270D02*
Y286090D01*
X484321Y284406D02*
Y286090D01*
X488583Y280055D02*
X489983Y279291D01*
Y277690*
X487183*
Y279291*
X488583Y280055*
X487333Y277690D02*
Y279373D01*
X487583Y277690D02*
Y279510D01*
X487833Y277690D02*
Y279646D01*
X488083Y277690D02*
Y279782D01*
X488333Y277690D02*
Y279919D01*
X488583Y277690D02*
Y280055D01*
X488833Y277690D02*
Y279919D01*
X489083Y277690D02*
Y279782D01*
X489333Y277690D02*
Y279646D01*
X489583Y277690D02*
Y279510D01*
X489833Y277690D02*
Y279373D01*
X489983Y286090D02*
Y284488D01*
X488583Y283725*
X487183Y284488*
Y286090*
X489983*
X487333Y284406D02*
Y286090D01*
X487583Y284270D02*
Y286090D01*
X487833Y284134D02*
Y286090D01*
X488083Y283997D02*
Y286090D01*
X488333Y283861D02*
Y286090D01*
X488583Y283725D02*
Y286090D01*
X488833Y283861D02*
Y286090D01*
X489083Y283997D02*
Y286090D01*
X489333Y284134D02*
Y286090D01*
X489583Y284270D02*
Y286090D01*
X489833Y284406D02*
Y286090D01*
X555658Y493944D02*
X557208Y493569D01*
X557623Y492022*
X554918Y491297*
X554504Y492844*
X555658Y493944*
X554684Y492173D02*
Y493016D01*
X554934Y491301D02*
Y493254D01*
X555184Y491368D02*
Y493492D01*
X555434Y491435D02*
Y493730D01*
X555684Y491502D02*
Y493938D01*
X555934Y491569D02*
Y493878D01*
X556184Y491636D02*
Y493817D01*
X556434Y491703D02*
Y493757D01*
X556684Y491770D02*
Y493696D01*
X556934Y491837D02*
Y493636D01*
X557184Y491904D02*
Y493575D01*
X557434Y491971D02*
Y492729D01*
X555449Y500136D02*
X555863Y498589D01*
X554709Y497489*
X553159Y497864*
X552744Y499411*
X555449Y500136*
X552934Y498704D02*
Y499462D01*
X553184Y497858D02*
Y499529D01*
X553434Y497798D02*
Y499596D01*
X553684Y497737D02*
Y499663D01*
X553934Y497676D02*
Y499730D01*
X554184Y497616D02*
Y499797D01*
X554434Y497555D02*
Y499864D01*
X554684Y497495D02*
Y499931D01*
X554934Y497703D02*
Y499998D01*
X555184Y497941D02*
Y500065D01*
X555434Y498179D02*
Y500132D01*
X555684Y498417D02*
Y499260D01*
X631743Y493944D02*
X632898Y492844D01*
X632483Y491297*
X629779Y492022*
X630193Y493569*
X631743Y493944*
X629968Y491971D02*
Y492729D01*
X630218Y491904D02*
Y493575D01*
X630468Y491837D02*
Y493636D01*
X630718Y491770D02*
Y493696D01*
X630968Y491703D02*
Y493757D01*
X631218Y491636D02*
Y493817D01*
X631468Y491569D02*
Y493878D01*
X631718Y491502D02*
Y493938D01*
X631968Y491435D02*
Y493730D01*
X632218Y491368D02*
Y493492D01*
X632468Y491301D02*
Y493254D01*
X632718Y492173D02*
Y493016D01*
X634657Y499411D02*
X634243Y497864D01*
X632693Y497489*
X631538Y498589*
X631953Y500136*
X634657Y499411*
X631718Y498417D02*
Y499260D01*
X631968Y498179D02*
Y500132D01*
X632218Y497941D02*
Y500065D01*
X632468Y497703D02*
Y499998D01*
X632718Y497495D02*
Y499931D01*
X632968Y497555D02*
Y499864D01*
X633218Y497616D02*
Y499797D01*
X633468Y497676D02*
Y499730D01*
X633718Y497737D02*
Y499663D01*
X633968Y497798D02*
Y499596D01*
X634218Y497858D02*
Y499529D01*
X634468Y498704D02*
Y499462D01*
X775197Y348291D02*
X773797Y349055D01*
Y350657*
X776597*
Y349055*
X775197Y348291*
X773947Y348973D02*
Y350657D01*
X774197Y348837D02*
Y350657D01*
X774447Y348701D02*
Y350657D01*
X774697Y348564D02*
Y350657D01*
X774947Y348428D02*
Y350657D01*
X775197Y348291D02*
Y350657D01*
X775447Y348428D02*
Y350657D01*
X775697Y348564D02*
Y350657D01*
X775947Y348701D02*
Y350657D01*
X776197Y348837D02*
Y350657D01*
X776447Y348973D02*
Y350657D01*
X773797Y342257D02*
Y343858D01*
X775197Y344622*
X776597Y343858*
Y342257*
X773797*
X773947D02*
Y343940D01*
X774197Y342257D02*
Y344076D01*
X774447Y342257D02*
Y344213D01*
X774697Y342257D02*
Y344349D01*
X774947Y342257D02*
Y344486D01*
X775197Y342257D02*
Y344622D01*
X775447Y342257D02*
Y344486D01*
X775697Y342257D02*
Y344349D01*
X775947Y342257D02*
Y344213D01*
X776197Y342257D02*
Y344076D01*
X776447Y342257D02*
Y343940D01*
X720993Y425461D02*
X721031Y423866D01*
X719644Y423066*
X718244Y425490*
X719631Y426291*
X720993Y425461*
X718332Y425339D02*
Y425541D01*
X718582Y424906D02*
Y425685D01*
X718832Y424473D02*
Y425829D01*
X719082Y424040D02*
Y425974D01*
X719332Y423607D02*
Y426118D01*
X719582Y423174D02*
Y426262D01*
X719832Y423174D02*
Y426169D01*
X720082Y423318D02*
Y426016D01*
X720332Y423462D02*
Y425864D01*
X720582Y423607D02*
Y425711D01*
X720832Y423751D02*
Y425559D01*
X726919Y427266D02*
X725532Y426465D01*
X724171Y427295*
X724132Y428890*
X725519Y429690*
X726919Y427266*
X724332Y427197D02*
Y429005D01*
X724582Y427045D02*
Y429149D01*
X724832Y426892D02*
Y429294D01*
X725082Y426739D02*
Y429438D01*
X725332Y426587D02*
Y429582D01*
X725582Y426493D02*
Y429582D01*
X725832Y426638D02*
Y429149D01*
X726082Y426782D02*
Y428716D01*
X726332Y426926D02*
Y428283D01*
X726582Y427071D02*
Y427850D01*
X726832Y427215D02*
Y427417D01*
X740685Y351969D02*
X739921Y350569D01*
X738320*
Y353369*
X739921*
X740685Y351969*
X738520Y350569D02*
Y353369D01*
X738770Y350569D02*
Y353369D01*
X739020Y350569D02*
Y353369D01*
X739270Y350569D02*
Y353369D01*
X739520Y350569D02*
Y353369D01*
X739770Y350569D02*
Y353369D01*
X740020Y350749D02*
Y353188D01*
X740270Y351207D02*
Y352730D01*
X740520Y351666D02*
Y352271D01*
X746720Y350569D02*
X745118D01*
X744354Y351969*
X745118Y353369*
X746720*
Y350569*
X744520Y351666D02*
Y352271D01*
X744770Y351207D02*
Y352730D01*
X745020Y350749D02*
Y353188D01*
X745270Y350569D02*
Y353369D01*
X745520Y350569D02*
Y353369D01*
X745770Y350569D02*
Y353369D01*
X746020Y350569D02*
Y353369D01*
X746270Y350569D02*
Y353369D01*
X746520Y350569D02*
Y353369D01*
X525173Y444290D02*
X524926Y445865D01*
X526197Y446840*
X527902Y444619*
X526631Y443644*
X525173Y444290*
X524967Y445605D02*
Y445897D01*
X525217Y444270D02*
Y446089D01*
X525467Y444159D02*
Y446280D01*
X525717Y444049D02*
Y446472D01*
X525967Y443938D02*
Y446664D01*
X526217Y443827D02*
Y446814D01*
X526467Y443717D02*
Y446488D01*
X526717Y443710D02*
Y446162D01*
X526967Y443902D02*
Y445837D01*
X527217Y444094D02*
Y445511D01*
X527467Y444286D02*
Y445185D01*
X527717Y444478D02*
Y444859D01*
X519533Y441727D02*
X520803Y442702D01*
X522262Y442056*
X522508Y440480*
X521237Y439505*
X519533Y441727*
X519717Y441487D02*
Y441868D01*
X519967Y441161D02*
Y442060D01*
X520217Y440835D02*
Y442252D01*
X520467Y440509D02*
Y442444D01*
X520717Y440183D02*
Y442636D01*
X520967Y439858D02*
Y442629D01*
X521217Y439532D02*
Y442519D01*
X521467Y439682D02*
Y442408D01*
X521717Y439874D02*
Y442297D01*
X521967Y440065D02*
Y442186D01*
X522217Y440257D02*
Y442076D01*
X522467Y440449D02*
Y440741D01*
X664900Y441744D02*
X666358Y442389D01*
X667629Y441414*
X665925Y439193*
X664654Y440168*
X664900Y441744*
X664695Y440137D02*
Y440429D01*
X664945Y439945D02*
Y441763D01*
X665195Y439753D02*
Y441874D01*
X665445Y439561D02*
Y441985D01*
X665695Y439369D02*
Y442095D01*
X665945Y439219D02*
Y442206D01*
X666195Y439545D02*
Y442317D01*
X666445Y439871D02*
Y442323D01*
X666695Y440197D02*
Y442131D01*
X666945Y440523D02*
Y441940D01*
X667195Y440848D02*
Y441748D01*
X667445Y441174D02*
Y441556D01*
X660965Y446528D02*
X662236Y445553D01*
X661989Y443977*
X661989D02*
X660531Y443332D01*
X659260Y444307*
X660965Y446528*
X659445Y444165D02*
Y444547D01*
X659695Y443973D02*
Y444873D01*
X659945Y443782D02*
Y445199D01*
X660195Y443590D02*
Y445524D01*
X660445Y443398D02*
Y445850D01*
X660695Y443404D02*
Y446176D01*
X660945Y443515D02*
Y446502D01*
X661195Y443626D02*
Y446352D01*
X661445Y443736D02*
Y446160D01*
X661695Y443847D02*
Y445968D01*
X661945Y443958D02*
Y445776D01*
X662195Y445292D02*
Y445584D01*
X595536Y222047D02*
X596299Y223447D01*
X597901*
Y220647*
X596299*
X595536Y222047*
X595701Y221744D02*
Y222350D01*
X595951Y221286D02*
Y222808D01*
X596201Y220828D02*
Y223267D01*
X596451Y220647D02*
Y223447D01*
X596701Y220647D02*
Y223447D01*
X596951Y220647D02*
Y223447D01*
X597201Y220647D02*
Y223447D01*
X597451Y220647D02*
Y223447D01*
X597701Y220647D02*
Y223447D01*
X589501D02*
X591102D01*
X591866Y222047*
X591102Y220647*
X589501*
Y223447*
X589701Y220647D02*
Y223447D01*
X589951Y220647D02*
Y223447D01*
X590201Y220647D02*
Y223447D01*
X590451Y220647D02*
Y223447D01*
X590701Y220647D02*
Y223447D01*
X590951Y220647D02*
Y223447D01*
X591201Y220828D02*
Y223267D01*
X591451Y221286D02*
Y222808D01*
X591701Y221744D02*
Y222350D01*
X742126Y243047D02*
X743526Y242283D01*
Y240682*
X740726*
Y242283*
X742126Y243047*
X740876Y240682D02*
Y242365D01*
X741126Y240682D02*
Y242502D01*
X741376Y240682D02*
Y242638D01*
X741626Y240682D02*
Y242774D01*
X741876Y240682D02*
Y242911D01*
X742126Y240682D02*
Y243047D01*
X742376Y240682D02*
Y242911D01*
X742626Y240682D02*
Y242774D01*
X742876Y240682D02*
Y242638D01*
X743126Y240682D02*
Y242502D01*
X743376Y240682D02*
Y242365D01*
X743526Y249082D02*
Y247480D01*
X742126Y246717*
X740726Y247480*
Y249082*
X743526*
X740876Y247398D02*
Y249082D01*
X741126Y247262D02*
Y249082D01*
X741376Y247126D02*
Y249082D01*
X741626Y246989D02*
Y249082D01*
X741876Y246853D02*
Y249082D01*
X742126Y246717D02*
Y249082D01*
X742376Y246853D02*
Y249082D01*
X742626Y246989D02*
Y249082D01*
X742876Y247126D02*
Y249082D01*
X743126Y247262D02*
Y249082D01*
X743376Y247398D02*
Y249082D01*
X756827Y186614D02*
X756063Y185214D01*
X754461*
Y188014*
X756063*
X756827Y186614*
X754661Y185214D02*
Y188014D01*
X754911Y185214D02*
Y188014D01*
X755161Y185214D02*
Y188014D01*
X755411Y185214D02*
Y188014D01*
X755661Y185214D02*
Y188014D01*
X755911Y185214D02*
Y188014D01*
X756161Y185395D02*
Y187834D01*
X756411Y185853D02*
Y187375D01*
X756661Y186311D02*
Y186917D01*
X762861Y185214D02*
X761260D01*
X760496Y186614*
X761260Y188014*
X762861*
Y185214*
X760661Y186311D02*
Y186917D01*
X760911Y185853D02*
Y187375D01*
X761161Y185395D02*
Y187834D01*
X761411Y185214D02*
Y188014D01*
X761661Y185214D02*
Y188014D01*
X761911Y185214D02*
Y188014D01*
X762161Y185214D02*
Y188014D01*
X762411Y185214D02*
Y188014D01*
X762661Y185214D02*
Y188014D01*
X699213Y159315D02*
X697813Y160079D01*
Y161680*
X700613*
Y160079*
X699213Y159315*
X697963Y159997D02*
Y161680D01*
X698213Y159861D02*
Y161680D01*
X698463Y159724D02*
Y161680D01*
X698713Y159588D02*
Y161680D01*
X698963Y159451D02*
Y161680D01*
X699213Y159315D02*
Y161680D01*
X699463Y159451D02*
Y161680D01*
X699713Y159588D02*
Y161680D01*
X699963Y159724D02*
Y161680D01*
X700213Y159861D02*
Y161680D01*
X700463Y159997D02*
Y161680D01*
X697813Y153280D02*
Y154882D01*
X699213Y155646*
X700613Y154882*
Y153280*
X697813*
X697963D02*
Y154964D01*
X698213Y153280D02*
Y155100D01*
X698463Y153280D02*
Y155236D01*
X698713Y153280D02*
Y155373D01*
X698963Y153280D02*
Y155509D01*
X699213Y153280D02*
Y155646D01*
X699463Y153280D02*
Y155509D01*
X699713Y153280D02*
Y155373D01*
X699963Y153280D02*
Y155236D01*
X700213Y153280D02*
Y155100D01*
X700463Y153280D02*
Y154964D01*
X680969Y221260D02*
X681732Y222660D01*
X683334*
Y219860*
X681732*
X680969Y221260*
X681134Y220957D02*
Y221563D01*
X681384Y220499D02*
Y222021D01*
X681634Y220040D02*
Y222479D01*
X681884Y219860D02*
Y222660D01*
X682134Y219860D02*
Y222660D01*
X682384Y219860D02*
Y222660D01*
X682634Y219860D02*
Y222660D01*
X682884Y219860D02*
Y222660D01*
X683134Y219860D02*
Y222660D01*
X674934D02*
X676535D01*
X677299Y221260*
X676535Y219860*
X674934*
Y222660*
X675134Y219860D02*
Y222660D01*
X675384Y219860D02*
Y222660D01*
X675634Y219860D02*
Y222660D01*
X675884Y219860D02*
Y222660D01*
X676134Y219860D02*
Y222660D01*
X676384Y219860D02*
Y222660D01*
X676634Y220040D02*
Y222479D01*
X676884Y220499D02*
Y222021D01*
X677134Y220957D02*
Y221563D01*
X692520Y159315D02*
X691120Y160079D01*
Y161680*
X693920*
Y160079*
X692520Y159315*
X691270Y159997D02*
Y161680D01*
X691520Y159861D02*
Y161680D01*
X691770Y159724D02*
Y161680D01*
X692020Y159588D02*
Y161680D01*
X692270Y159451D02*
Y161680D01*
X692520Y159315D02*
Y161680D01*
X692770Y159451D02*
Y161680D01*
X693020Y159588D02*
Y161680D01*
X693270Y159724D02*
Y161680D01*
X693520Y159861D02*
Y161680D01*
X693770Y159997D02*
Y161680D01*
X691120Y153280D02*
Y154882D01*
X692520Y155646*
X693920Y154882*
Y153280*
X691120*
X691270D02*
Y154964D01*
X691520Y153280D02*
Y155100D01*
X691770Y153280D02*
Y155236D01*
X692020Y153280D02*
Y155373D01*
X692270Y153280D02*
Y155509D01*
X692520Y153280D02*
Y155646D01*
X692770Y153280D02*
Y155509D01*
X693020Y153280D02*
Y155373D01*
X693270Y153280D02*
Y155236D01*
X693520Y153280D02*
Y155100D01*
X693770Y153280D02*
Y154964D01*
X520732Y144882D02*
X521496Y146282D01*
X523098*
Y143482*
X521496*
X520732Y144882*
X520898Y144579D02*
Y145185D01*
X521148Y144121D02*
Y145643D01*
X521398Y143662D02*
Y146101D01*
X521648Y143482D02*
Y146282D01*
X521898Y143482D02*
Y146282D01*
X522148Y143482D02*
Y146282D01*
X522398Y143482D02*
Y146282D01*
X522648Y143482D02*
Y146282D01*
X522898Y143482D02*
Y146282D01*
X514698D02*
X516299D01*
X517063Y144882*
X516299Y143482*
X514698*
Y146282*
X514898Y143482D02*
Y146282D01*
X515148Y143482D02*
Y146282D01*
X515398Y143482D02*
Y146282D01*
X515648Y143482D02*
Y146282D01*
X515898Y143482D02*
Y146282D01*
X516148Y143482D02*
Y146282D01*
X516398Y143662D02*
Y146101D01*
X516648Y144121D02*
Y145643D01*
X516898Y144579D02*
Y145185D01*
X499740Y199213D02*
X498976Y197813D01*
X497375*
Y200613*
X498976*
X499740Y199213*
X497575Y197813D02*
Y200613D01*
X497825Y197813D02*
Y200613D01*
X498075Y197813D02*
Y200613D01*
X498325Y197813D02*
Y200613D01*
X498575Y197813D02*
Y200613D01*
X498825Y197813D02*
Y200613D01*
X499075Y197993D02*
Y200432D01*
X499325Y198451D02*
Y199974D01*
X499575Y198910D02*
Y199516D01*
X505775Y197813D02*
X504173D01*
X503410Y199213*
X504173Y200613*
X505775*
Y197813*
X503575Y198910D02*
Y199516D01*
X503825Y198451D02*
Y199974D01*
X504075Y197993D02*
Y200432D01*
X504325Y197813D02*
Y200613D01*
X504575Y197813D02*
Y200613D01*
X504825Y197813D02*
Y200613D01*
X505075Y197813D02*
Y200613D01*
X505325Y197813D02*
Y200613D01*
X505575Y197813D02*
Y200613D01*
X499740Y204331D02*
X498976Y202931D01*
X497375*
Y205731*
X498976*
X499740Y204331*
X497575Y202931D02*
Y205731D01*
X497825Y202931D02*
Y205731D01*
X498075Y202931D02*
Y205731D01*
X498325Y202931D02*
Y205731D01*
X498575Y202931D02*
Y205731D01*
X498825Y202931D02*
Y205731D01*
X499075Y203111D02*
Y205550D01*
X499325Y203569D02*
Y205092D01*
X499575Y204028D02*
Y204634D01*
X505775Y202931D02*
X504173D01*
X503410Y204331*
X504173Y205731*
X505775*
Y202931*
X503575Y204028D02*
Y204634D01*
X503825Y203569D02*
Y205092D01*
X504075Y203111D02*
Y205550D01*
X504325Y202931D02*
Y205731D01*
X504575Y202931D02*
Y205731D01*
X504825Y202931D02*
Y205731D01*
X505075Y202931D02*
Y205731D01*
X505325Y202931D02*
Y205731D01*
X505575Y202931D02*
Y205731D01*
X569158Y207874D02*
X569921Y209274D01*
X571523*
Y206474*
X569921*
X569158Y207874*
X569323Y207571D02*
Y208177D01*
X569573Y207113D02*
Y208635D01*
X569823Y206654D02*
Y209094D01*
X570073Y206474D02*
Y209274D01*
X570323Y206474D02*
Y209274D01*
X570573Y206474D02*
Y209274D01*
X570823Y206474D02*
Y209274D01*
X571073Y206474D02*
Y209274D01*
X571323Y206474D02*
Y209274D01*
X563123D02*
X564724D01*
X565488Y207874*
X564724Y206474*
X563123*
Y209274*
X563323Y206474D02*
Y209274D01*
X563573Y206474D02*
Y209274D01*
X563823Y206474D02*
Y209274D01*
X564073Y206474D02*
Y209274D01*
X564323Y206474D02*
Y209274D01*
X564573Y206474D02*
Y209274D01*
X564823Y206654D02*
Y209094D01*
X565073Y207113D02*
Y208635D01*
X565323Y207571D02*
Y208177D01*
X569158Y202756D02*
X569921Y204156D01*
X571523*
Y201356*
X569921*
X569158Y202756*
X569323Y202453D02*
Y203059D01*
X569573Y201995D02*
Y203517D01*
X569823Y201536D02*
Y203975D01*
X570073Y201356D02*
Y204156D01*
X570323Y201356D02*
Y204156D01*
X570573Y201356D02*
Y204156D01*
X570823Y201356D02*
Y204156D01*
X571073Y201356D02*
Y204156D01*
X571323Y201356D02*
Y204156D01*
X563123D02*
X564724D01*
X565488Y202756*
X564724Y201356*
X563123*
Y204156*
X563323Y201356D02*
Y204156D01*
X563573Y201356D02*
Y204156D01*
X563823Y201356D02*
Y204156D01*
X564073Y201356D02*
Y204156D01*
X564323Y201356D02*
Y204156D01*
X564573Y201356D02*
Y204156D01*
X564823Y201536D02*
Y203975D01*
X565073Y201995D02*
Y203517D01*
X565323Y202453D02*
Y203059D01*
X662338Y190551D02*
X661575Y189151D01*
X659973*
Y191951*
X661575*
X662338Y190551*
X660173Y189151D02*
Y191951D01*
X660423Y189151D02*
Y191951D01*
X660673Y189151D02*
Y191951D01*
X660923Y189151D02*
Y191951D01*
X661173Y189151D02*
Y191951D01*
X661423Y189151D02*
Y191951D01*
X661673Y189332D02*
Y191771D01*
X661923Y189790D02*
Y191312D01*
X662173Y190248D02*
Y190854D01*
X668373Y189151D02*
X666772D01*
X666008Y190551*
X666772Y191951*
X668373*
Y189151*
X666173Y190248D02*
Y190854D01*
X666423Y189790D02*
Y191312D01*
X666673Y189332D02*
Y191771D01*
X666923Y189151D02*
Y191951D01*
X667173Y189151D02*
Y191951D01*
X667423Y189151D02*
Y191951D01*
X667673Y189151D02*
Y191951D01*
X667923Y189151D02*
Y191951D01*
X668173Y189151D02*
Y191951D01*
X662338Y195669D02*
X661575Y194269D01*
X659973*
Y197069*
X661575*
X662338Y195669*
X660173Y194269D02*
Y197069D01*
X660423Y194269D02*
Y197069D01*
X660673Y194269D02*
Y197069D01*
X660923Y194269D02*
Y197069D01*
X661173Y194269D02*
Y197069D01*
X661423Y194269D02*
Y197069D01*
X661673Y194450D02*
Y196889D01*
X661923Y194908D02*
Y196431D01*
X662173Y195366D02*
Y195972D01*
X668373Y194269D02*
X666772D01*
X666008Y195669*
X666772Y197069*
X668373*
Y194269*
X666173Y195366D02*
Y195972D01*
X666423Y194908D02*
Y196431D01*
X666673Y194450D02*
Y196889D01*
X666923Y194269D02*
Y197069D01*
X667173Y194269D02*
Y197069D01*
X667423Y194269D02*
Y197069D01*
X667673Y194269D02*
Y197069D01*
X667923Y194269D02*
Y197069D01*
X668173Y194269D02*
Y197069D01*
X662338Y169685D02*
X661575Y168285D01*
X659973*
Y171085*
X661575*
X662338Y169685*
X660173Y168285D02*
Y171085D01*
X660423Y168285D02*
Y171085D01*
X660673Y168285D02*
Y171085D01*
X660923Y168285D02*
Y171085D01*
X661173Y168285D02*
Y171085D01*
X661423Y168285D02*
Y171085D01*
X661673Y168465D02*
Y170905D01*
X661923Y168924D02*
Y170446D01*
X662173Y169382D02*
Y169988D01*
X668373Y168285D02*
X666772D01*
X666008Y169685*
X666772Y171085*
X668373*
Y168285*
X666173Y169382D02*
Y169988D01*
X666423Y168924D02*
Y170446D01*
X666673Y168465D02*
Y170905D01*
X666923Y168285D02*
Y171085D01*
X667173Y168285D02*
Y171085D01*
X667423Y168285D02*
Y171085D01*
X667673Y168285D02*
Y171085D01*
X667923Y168285D02*
Y171085D01*
X668173Y168285D02*
Y171085D01*
X662338Y174803D02*
X661575Y173403D01*
X659973*
Y176203*
X661575*
X662338Y174803*
X660173Y173403D02*
Y176203D01*
X660423Y173403D02*
Y176203D01*
X660673Y173403D02*
Y176203D01*
X660923Y173403D02*
Y176203D01*
X661173Y173403D02*
Y176203D01*
X661423Y173403D02*
Y176203D01*
X661673Y173584D02*
Y176023D01*
X661923Y174042D02*
Y175564D01*
X662173Y174500D02*
Y175106D01*
X668373Y173403D02*
X666772D01*
X666008Y174803*
X666772Y176203*
X668373*
Y173403*
X666173Y174500D02*
Y175106D01*
X666423Y174042D02*
Y175564D01*
X666673Y173584D02*
Y176023D01*
X666923Y173403D02*
Y176203D01*
X667173Y173403D02*
Y176203D01*
X667423Y173403D02*
Y176203D01*
X667673Y173403D02*
Y176203D01*
X667923Y173403D02*
Y176203D01*
X668173Y173403D02*
Y176203D01*
X713646Y258268D02*
X714409Y259668D01*
X716011*
Y256868*
X714409*
X713646Y258268*
X713811Y257965D02*
Y258571D01*
X714061Y257506D02*
Y259029D01*
X714311Y257048D02*
Y259487D01*
X714561Y256868D02*
Y259668D01*
X714811Y256868D02*
Y259668D01*
X715061Y256868D02*
Y259668D01*
X715311Y256868D02*
Y259668D01*
X715561Y256868D02*
Y259668D01*
X715811Y256868D02*
Y259668D01*
X707611D02*
X709213D01*
X709976Y258268*
X709213Y256868*
X707611*
Y259668*
X707811Y256868D02*
Y259668D01*
X708061Y256868D02*
Y259668D01*
X708311Y256868D02*
Y259668D01*
X708561Y256868D02*
Y259668D01*
X708811Y256868D02*
Y259668D01*
X709061Y256868D02*
Y259668D01*
X709311Y257048D02*
Y259487D01*
X709561Y257506D02*
Y259029D01*
X709811Y257965D02*
Y258571D01*
X680969Y174803D02*
X681732Y176203D01*
X683334*
Y173403*
X681732*
X680969Y174803*
X681134Y174500D02*
Y175106D01*
X681384Y174042D02*
Y175564D01*
X681634Y173584D02*
Y176023D01*
X681884Y173403D02*
Y176203D01*
X682134Y173403D02*
Y176203D01*
X682384Y173403D02*
Y176203D01*
X682634Y173403D02*
Y176203D01*
X682884Y173403D02*
Y176203D01*
X683134Y173403D02*
Y176203D01*
X674934D02*
X676535D01*
X677299Y174803*
X676535Y173403*
X674934*
Y176203*
X675134Y173403D02*
Y176203D01*
X675384Y173403D02*
Y176203D01*
X675634Y173403D02*
Y176203D01*
X675884Y173403D02*
Y176203D01*
X676134Y173403D02*
Y176203D01*
X676384Y173403D02*
Y176203D01*
X676634Y173584D02*
Y176023D01*
X676884Y174042D02*
Y175564D01*
X677134Y174500D02*
Y175106D01*
X704331Y159315D02*
X702931Y160079D01*
Y161680*
X705731*
Y160079*
X704331Y159315*
X703081Y159997D02*
Y161680D01*
X703331Y159861D02*
Y161680D01*
X703581Y159724D02*
Y161680D01*
X703831Y159588D02*
Y161680D01*
X704081Y159451D02*
Y161680D01*
X704331Y159315D02*
Y161680D01*
X704581Y159451D02*
Y161680D01*
X704831Y159588D02*
Y161680D01*
X705081Y159724D02*
Y161680D01*
X705331Y159861D02*
Y161680D01*
X705581Y159997D02*
Y161680D01*
X702931Y153280D02*
Y154882D01*
X704331Y155646*
X705731Y154882*
Y153280*
X702931*
X703081D02*
Y154964D01*
X703331Y153280D02*
Y155100D01*
X703581Y153280D02*
Y155236D01*
X703831Y153280D02*
Y155373D01*
X704081Y153280D02*
Y155509D01*
X704331Y153280D02*
Y155646D01*
X704581Y153280D02*
Y155509D01*
X704831Y153280D02*
Y155373D01*
X705081Y153280D02*
Y155236D01*
X705331Y153280D02*
Y155100D01*
X705581Y153280D02*
Y154964D01*
X464173Y253803D02*
X462773Y254567D01*
Y256169*
X465573*
Y254567*
X464173Y253803*
X462923Y254485D02*
Y256169D01*
X463173Y254349D02*
Y256169D01*
X463423Y254212D02*
Y256169D01*
X463673Y254076D02*
Y256169D01*
X463923Y253940D02*
Y256169D01*
X464173Y253803D02*
Y256169D01*
X464423Y253940D02*
Y256169D01*
X464673Y254076D02*
Y256169D01*
X464923Y254212D02*
Y256169D01*
X465173Y254349D02*
Y256169D01*
X465423Y254485D02*
Y256169D01*
X462773Y247769D02*
Y249370D01*
X464173Y250134*
X465573Y249370*
Y247769*
X462773*
X462923D02*
Y249452D01*
X463173Y247769D02*
Y249588D01*
X463423Y247769D02*
Y249725D01*
X463673Y247769D02*
Y249861D01*
X463923Y247769D02*
Y249997D01*
X464173Y247769D02*
Y250134D01*
X464423Y247769D02*
Y249997D01*
X464673Y247769D02*
Y249861D01*
X464923Y247769D02*
Y249725D01*
X465173Y247769D02*
Y249588D01*
X465423Y247769D02*
Y249452D01*
X459055Y253803D02*
X457655Y254567D01*
Y256169*
X460455*
Y254567*
X459055Y253803*
X457805Y254485D02*
Y256169D01*
X458055Y254349D02*
Y256169D01*
X458305Y254212D02*
Y256169D01*
X458555Y254076D02*
Y256169D01*
X458805Y253940D02*
Y256169D01*
X459055Y253803D02*
Y256169D01*
X459305Y253940D02*
Y256169D01*
X459555Y254076D02*
Y256169D01*
X459805Y254212D02*
Y256169D01*
X460055Y254349D02*
Y256169D01*
X460305Y254485D02*
Y256169D01*
X457655Y247769D02*
Y249370D01*
X459055Y250134*
X460455Y249370*
Y247769*
X457655*
X457805D02*
Y249452D01*
X458055Y247769D02*
Y249588D01*
X458305Y247769D02*
Y249725D01*
X458555Y247769D02*
Y249861D01*
X458805Y247769D02*
Y249997D01*
X459055Y247769D02*
Y250134D01*
X459305Y247769D02*
Y249997D01*
X459555Y247769D02*
Y249861D01*
X459805Y247769D02*
Y249725D01*
X460055Y247769D02*
Y249588D01*
X460305Y247769D02*
Y249452D01*
X464173Y241992D02*
X462773Y242756D01*
Y244357*
X465573*
Y242756*
X464173Y241992*
X462923Y242674D02*
Y244357D01*
X463173Y242538D02*
Y244357D01*
X463423Y242401D02*
Y244357D01*
X463673Y242265D02*
Y244357D01*
X463923Y242129D02*
Y244357D01*
X464173Y241992D02*
Y244357D01*
X464423Y242129D02*
Y244357D01*
X464673Y242265D02*
Y244357D01*
X464923Y242401D02*
Y244357D01*
X465173Y242538D02*
Y244357D01*
X465423Y242674D02*
Y244357D01*
X462773Y235957D02*
Y237559D01*
X464173Y238323*
X465573Y237559*
Y235957*
X462773*
X462923D02*
Y237641D01*
X463173Y235957D02*
Y237777D01*
X463423Y235957D02*
Y237914D01*
X463673Y235957D02*
Y238050D01*
X463923Y235957D02*
Y238186D01*
X464173Y235957D02*
Y238323D01*
X464423Y235957D02*
Y238186D01*
X464673Y235957D02*
Y238050D01*
X464923Y235957D02*
Y237914D01*
X465173Y235957D02*
Y237777D01*
X465423Y235957D02*
Y237641D01*
X459055Y241992D02*
X457655Y242756D01*
Y244357*
X460455*
Y242756*
X459055Y241992*
X457805Y242674D02*
Y244357D01*
X458055Y242538D02*
Y244357D01*
X458305Y242401D02*
Y244357D01*
X458555Y242265D02*
Y244357D01*
X458805Y242129D02*
Y244357D01*
X459055Y241992D02*
Y244357D01*
X459305Y242129D02*
Y244357D01*
X459555Y242265D02*
Y244357D01*
X459805Y242401D02*
Y244357D01*
X460055Y242538D02*
Y244357D01*
X460305Y242674D02*
Y244357D01*
X457655Y235957D02*
Y237559D01*
X459055Y238323*
X460455Y237559*
Y235957*
X457655*
X457805D02*
Y237641D01*
X458055Y235957D02*
Y237777D01*
X458305Y235957D02*
Y237914D01*
X458555Y235957D02*
Y238050D01*
X458805Y235957D02*
Y238186D01*
X459055Y235957D02*
Y238323D01*
X459305Y235957D02*
Y238186D01*
X459555Y235957D02*
Y238050D01*
X459805Y235957D02*
Y237914D01*
X460055Y235957D02*
Y237777D01*
X460305Y235957D02*
Y237641D01*
X565488Y153937D02*
X564724Y152537D01*
X563123*
Y155337*
X564724*
X565488Y153937*
X563323Y152537D02*
Y155337D01*
X563573Y152537D02*
Y155337D01*
X563823Y152537D02*
Y155337D01*
X564073Y152537D02*
Y155337D01*
X564323Y152537D02*
Y155337D01*
X564573Y152537D02*
Y155337D01*
X564823Y152717D02*
Y155157D01*
X565073Y153176D02*
Y154698D01*
X565323Y153634D02*
Y154240D01*
X571523Y152537D02*
X569921D01*
X569158Y153937*
X569921Y155337*
X571523*
Y152537*
X569323Y153634D02*
Y154240D01*
X569573Y153176D02*
Y154698D01*
X569823Y152717D02*
Y155157D01*
X570073Y152537D02*
Y155337D01*
X570323Y152537D02*
Y155337D01*
X570573Y152537D02*
Y155337D01*
X570823Y152537D02*
Y155337D01*
X571073Y152537D02*
Y155337D01*
X571323Y152537D02*
Y155337D01*
X521126Y172441D02*
X521890Y173841D01*
X523491*
Y171041*
X521890*
X521126Y172441*
X521291Y172138D02*
Y172744D01*
X521541Y171680D02*
Y173202D01*
X521791Y171221D02*
Y173661D01*
X522041Y171041D02*
Y173841D01*
X522291Y171041D02*
Y173841D01*
X522541Y171041D02*
Y173841D01*
X522791Y171041D02*
Y173841D01*
X523041Y171041D02*
Y173841D01*
X523291Y171041D02*
Y173841D01*
X515091D02*
X516693D01*
X517457Y172441*
X516693Y171041*
X515091*
Y173841*
X515291Y171041D02*
Y173841D01*
X515541Y171041D02*
Y173841D01*
X515791Y171041D02*
Y173841D01*
X516041Y171041D02*
Y173841D01*
X516291Y171041D02*
Y173841D01*
X516541Y171041D02*
Y173841D01*
X516791Y171221D02*
Y173661D01*
X517041Y171680D02*
Y173202D01*
X517291Y172138D02*
Y172744D01*
X517457Y155906D02*
X516693Y154506D01*
X515091*
Y157306*
X516693*
X517457Y155906*
X515291Y154506D02*
Y157306D01*
X515541Y154506D02*
Y157306D01*
X515791Y154506D02*
Y157306D01*
X516041Y154506D02*
Y157306D01*
X516291Y154506D02*
Y157306D01*
X516541Y154506D02*
Y157306D01*
X516791Y154686D02*
Y157125D01*
X517041Y155144D02*
Y156667D01*
X517291Y155603D02*
Y156208D01*
X523491Y154506D02*
X521890D01*
X521126Y155906*
X521890Y157306*
X523491*
Y154506*
X521291Y155603D02*
Y156208D01*
X521541Y155144D02*
Y156667D01*
X521791Y154686D02*
Y157125D01*
X522041Y154506D02*
Y157306D01*
X522291Y154506D02*
Y157306D01*
X522541Y154506D02*
Y157306D01*
X522791Y154506D02*
Y157306D01*
X523041Y154506D02*
Y157306D01*
X523291Y154506D02*
Y157306D01*
X565488Y174409D02*
X564724Y173009D01*
X563123*
Y175809*
X564724*
X565488Y174409*
X563323Y173009D02*
Y175809D01*
X563573Y173009D02*
Y175809D01*
X563823Y173009D02*
Y175809D01*
X564073Y173009D02*
Y175809D01*
X564323Y173009D02*
Y175809D01*
X564573Y173009D02*
Y175809D01*
X564823Y173190D02*
Y175629D01*
X565073Y173648D02*
Y175171D01*
X565323Y174107D02*
Y174712D01*
X571523Y173009D02*
X569921D01*
X569158Y174409*
X569921Y175809*
X571523*
Y173009*
X569323Y174107D02*
Y174712D01*
X569573Y173648D02*
Y175171D01*
X569823Y173190D02*
Y175629D01*
X570073Y173009D02*
Y175809D01*
X570323Y173009D02*
Y175809D01*
X570573Y173009D02*
Y175809D01*
X570823Y173009D02*
Y175809D01*
X571073Y173009D02*
Y175809D01*
X571323Y173009D02*
Y175809D01*
X714567Y155646D02*
X715967Y154882D01*
Y153280*
X713167*
Y154882*
X714567Y155646*
X713317Y153280D02*
Y154964D01*
X713567Y153280D02*
Y155100D01*
X713817Y153280D02*
Y155236D01*
X714067Y153280D02*
Y155373D01*
X714317Y153280D02*
Y155509D01*
X714567Y153280D02*
Y155646D01*
X714817Y153280D02*
Y155509D01*
X715067Y153280D02*
Y155373D01*
X715317Y153280D02*
Y155236D01*
X715567Y153280D02*
Y155100D01*
X715817Y153280D02*
Y154964D01*
X715967Y161680D02*
Y160079D01*
X714567Y159315*
X713167Y160079*
Y161680*
X715967*
X713317Y159997D02*
Y161680D01*
X713567Y159861D02*
Y161680D01*
X713817Y159724D02*
Y161680D01*
X714067Y159588D02*
Y161680D01*
X714317Y159451D02*
Y161680D01*
X714567Y159315D02*
Y161680D01*
X714817Y159451D02*
Y161680D01*
X715067Y159588D02*
Y161680D01*
X715317Y159724D02*
Y161680D01*
X715567Y159861D02*
Y161680D01*
X715817Y159997D02*
Y161680D01*
X455118Y296984D02*
X456518Y296220D01*
Y294619*
X453718*
Y296220*
X455118Y296984*
X453868Y294619D02*
Y296302D01*
X454118Y294619D02*
Y296439D01*
X454368Y294619D02*
Y296575D01*
X454618Y294619D02*
Y296711D01*
X454868Y294619D02*
Y296848D01*
X455118Y294619D02*
Y296984D01*
X455368Y294619D02*
Y296848D01*
X455618Y294619D02*
Y296711D01*
X455868Y294619D02*
Y296575D01*
X456118Y294619D02*
Y296439D01*
X456368Y294619D02*
Y296302D01*
X456518Y303019D02*
Y301417D01*
X455118Y300654*
X453718Y301417*
Y303019*
X456518*
X453868Y301335D02*
Y303019D01*
X454118Y301199D02*
Y303019D01*
X454368Y301063D02*
Y303019D01*
X454618Y300926D02*
Y303019D01*
X454868Y300790D02*
Y303019D01*
X455118Y300654D02*
Y303019D01*
X455368Y300790D02*
Y303019D01*
X455618Y300926D02*
Y303019D01*
X455868Y301063D02*
Y303019D01*
X456118Y301199D02*
Y303019D01*
X456368Y301335D02*
Y303019D01*
X465354Y296984D02*
X466754Y296220D01*
Y294619*
X463954*
Y296220*
X465354Y296984*
X464104Y294619D02*
Y296302D01*
X464354Y294619D02*
Y296439D01*
X464604Y294619D02*
Y296575D01*
X464854Y294619D02*
Y296711D01*
X465104Y294619D02*
Y296848D01*
X465354Y294619D02*
Y296984D01*
X465604Y294619D02*
Y296848D01*
X465854Y294619D02*
Y296711D01*
X466104Y294619D02*
Y296575D01*
X466354Y294619D02*
Y296439D01*
X466604Y294619D02*
Y296302D01*
X466754Y303019D02*
Y301417D01*
X465354Y300654*
X463954Y301417*
Y303019*
X466754*
X464104Y301335D02*
Y303019D01*
X464354Y301199D02*
Y303019D01*
X464604Y301063D02*
Y303019D01*
X464854Y300926D02*
Y303019D01*
X465104Y300790D02*
Y303019D01*
X465354Y300654D02*
Y303019D01*
X465604Y300790D02*
Y303019D01*
X465854Y300926D02*
Y303019D01*
X466104Y301063D02*
Y303019D01*
X466354Y301199D02*
Y303019D01*
X466604Y301335D02*
Y303019D01*
X433071Y275724D02*
X434471Y274961D01*
Y273359*
X431671*
Y274961*
X433071Y275724*
X431821Y273359D02*
Y275042D01*
X432071Y273359D02*
Y275179D01*
X432321Y273359D02*
Y275315D01*
X432571Y273359D02*
Y275452D01*
X432821Y273359D02*
Y275588D01*
X433071Y273359D02*
Y275724D01*
X433321Y273359D02*
Y275588D01*
X433571Y273359D02*
Y275452D01*
X433821Y273359D02*
Y275315D01*
X434071Y273359D02*
Y275179D01*
X434321Y273359D02*
Y275042D01*
X434471Y281759D02*
Y280157D01*
X433071Y279394*
X431671Y280157*
Y281759*
X434471*
X431821Y280076D02*
Y281759D01*
X432071Y279939D02*
Y281759D01*
X432321Y279803D02*
Y281759D01*
X432571Y279667D02*
Y281759D01*
X432821Y279530D02*
Y281759D01*
X433071Y279394D02*
Y281759D01*
X433321Y279530D02*
Y281759D01*
X433571Y279667D02*
Y281759D01*
X433821Y279803D02*
Y281759D01*
X434071Y279939D02*
Y281759D01*
X434321Y280076D02*
Y281759D01*
X438189Y280055D02*
X439589Y279291D01*
Y277690*
X436789*
Y279291*
X438189Y280055*
X436939Y277690D02*
Y279373D01*
X437189Y277690D02*
Y279510D01*
X437439Y277690D02*
Y279646D01*
X437689Y277690D02*
Y279782D01*
X437939Y277690D02*
Y279919D01*
X438189Y277690D02*
Y280055D01*
X438439Y277690D02*
Y279919D01*
X438689Y277690D02*
Y279782D01*
X438939Y277690D02*
Y279646D01*
X439189Y277690D02*
Y279510D01*
X439439Y277690D02*
Y279373D01*
X439589Y286090D02*
Y284488D01*
X438189Y283725*
X436789Y284488*
Y286090*
X439589*
X436939Y284406D02*
Y286090D01*
X437189Y284270D02*
Y286090D01*
X437439Y284134D02*
Y286090D01*
X437689Y283997D02*
Y286090D01*
X437939Y283861D02*
Y286090D01*
X438189Y283725D02*
Y286090D01*
X438439Y283861D02*
Y286090D01*
X438689Y283997D02*
Y286090D01*
X438939Y284134D02*
Y286090D01*
X439189Y284270D02*
Y286090D01*
X439439Y284406D02*
Y286090D01*
X420866Y268764D02*
X419466Y269528D01*
Y271129*
X422266*
Y269528*
X420866Y268764*
X419616Y269446D02*
Y271129D01*
X419866Y269309D02*
Y271129D01*
X420116Y269173D02*
Y271129D01*
X420366Y269037D02*
Y271129D01*
X420616Y268900D02*
Y271129D01*
X420866Y268764D02*
Y271129D01*
X421116Y268900D02*
Y271129D01*
X421366Y269037D02*
Y271129D01*
X421616Y269173D02*
Y271129D01*
X421866Y269309D02*
Y271129D01*
X422116Y269446D02*
Y271129D01*
X419466Y262729D02*
Y264331D01*
X420866Y265094*
X422266Y264331*
Y262729*
X419466*
X419616D02*
Y264413D01*
X419866Y262729D02*
Y264549D01*
X420116Y262729D02*
Y264685D01*
X420366Y262729D02*
Y264822D01*
X420616Y262729D02*
Y264958D01*
X420866Y262729D02*
Y265094D01*
X421116Y262729D02*
Y264958D01*
X421366Y262729D02*
Y264822D01*
X421616Y262729D02*
Y264685D01*
X421866Y262729D02*
Y264549D01*
X422116Y262729D02*
Y264413D01*
X460236Y296984D02*
X461636Y296220D01*
Y294619*
X458836*
Y296220*
X460236Y296984*
X458986Y294619D02*
Y296302D01*
X459236Y294619D02*
Y296439D01*
X459486Y294619D02*
Y296575D01*
X459736Y294619D02*
Y296711D01*
X459986Y294619D02*
Y296848D01*
X460236Y294619D02*
Y296984D01*
X460486Y294619D02*
Y296848D01*
X460736Y294619D02*
Y296711D01*
X460986Y294619D02*
Y296575D01*
X461236Y294619D02*
Y296439D01*
X461486Y294619D02*
Y296302D01*
X461636Y303019D02*
Y301417D01*
X460236Y300654*
X458836Y301417*
Y303019*
X461636*
X458986Y301335D02*
Y303019D01*
X459236Y301199D02*
Y303019D01*
X459486Y301063D02*
Y303019D01*
X459736Y300926D02*
Y303019D01*
X459986Y300790D02*
Y303019D01*
X460236Y300654D02*
Y303019D01*
X460486Y300790D02*
Y303019D01*
X460736Y300926D02*
Y303019D01*
X460986Y301063D02*
Y303019D01*
X461236Y301199D02*
Y303019D01*
X461486Y301335D02*
Y303019D01*
X709055Y243047D02*
X710455Y242283D01*
Y240682*
X707655*
Y242283*
X709055Y243047*
X707805Y240682D02*
Y242365D01*
X708055Y240682D02*
Y242502D01*
X708305Y240682D02*
Y242638D01*
X708555Y240682D02*
Y242774D01*
X708805Y240682D02*
Y242911D01*
X709055Y240682D02*
Y243047D01*
X709305Y240682D02*
Y242911D01*
X709555Y240682D02*
Y242774D01*
X709805Y240682D02*
Y242638D01*
X710055Y240682D02*
Y242502D01*
X710305Y240682D02*
Y242365D01*
X710455Y249082D02*
Y247480D01*
X709055Y246717*
X707655Y247480*
Y249082*
X710455*
X707805Y247398D02*
Y249082D01*
X708055Y247262D02*
Y249082D01*
X708305Y247126D02*
Y249082D01*
X708555Y246989D02*
Y249082D01*
X708805Y246853D02*
Y249082D01*
X709055Y246717D02*
Y249082D01*
X709305Y246853D02*
Y249082D01*
X709555Y246989D02*
Y249082D01*
X709805Y247126D02*
Y249082D01*
X710055Y247262D02*
Y249082D01*
X710305Y247398D02*
Y249082D01*
X595536Y227165D02*
X596299Y228565D01*
X597901*
Y225765*
X596299*
X595536Y227165*
X595701Y226862D02*
Y227468D01*
X595951Y226404D02*
Y227927D01*
X596201Y225946D02*
Y228385D01*
X596451Y225765D02*
Y228565D01*
X596701Y225765D02*
Y228565D01*
X596951Y225765D02*
Y228565D01*
X597201Y225765D02*
Y228565D01*
X597451Y225765D02*
Y228565D01*
X597701Y225765D02*
Y228565D01*
X589501D02*
X591102D01*
X591866Y227165*
X591102Y225765*
X589501*
Y228565*
X589701Y225765D02*
Y228565D01*
X589951Y225765D02*
Y228565D01*
X590201Y225765D02*
Y228565D01*
X590451Y225765D02*
Y228565D01*
X590701Y225765D02*
Y228565D01*
X590951Y225765D02*
Y228565D01*
X591201Y225946D02*
Y228385D01*
X591451Y226404D02*
Y227927D01*
X591701Y226862D02*
Y227468D01*
X610630Y226244D02*
X609230Y227008D01*
Y228609*
X612030*
Y227008*
X610630Y226244*
X609380Y226926D02*
Y228609D01*
X609630Y226790D02*
Y228609D01*
X609880Y226653D02*
Y228609D01*
X610130Y226517D02*
Y228609D01*
X610380Y226381D02*
Y228609D01*
X610630Y226244D02*
Y228609D01*
X610880Y226381D02*
Y228609D01*
X611130Y226517D02*
Y228609D01*
X611380Y226653D02*
Y228609D01*
X611630Y226790D02*
Y228609D01*
X611880Y226926D02*
Y228609D01*
X609230Y220209D02*
Y221811D01*
X610630Y222575*
X612030Y221811*
Y220209*
X609230*
X609380D02*
Y221893D01*
X609630Y220209D02*
Y222029D01*
X609880Y220209D02*
Y222166D01*
X610130Y220209D02*
Y222302D01*
X610380Y220209D02*
Y222438D01*
X610630Y220209D02*
Y222575D01*
X610880Y220209D02*
Y222438D01*
X611130Y220209D02*
Y222302D01*
X611380Y220209D02*
Y222166D01*
X611630Y220209D02*
Y222029D01*
X611880Y220209D02*
Y221893D01*
X709976Y253150D02*
X709213Y251750D01*
X707611*
Y254550*
X709213*
X709976Y253150*
X707811Y251750D02*
Y254550D01*
X708061Y251750D02*
Y254550D01*
X708311Y251750D02*
Y254550D01*
X708561Y251750D02*
Y254550D01*
X708811Y251750D02*
Y254550D01*
X709061Y251750D02*
Y254550D01*
X709311Y251930D02*
Y254369D01*
X709561Y252388D02*
Y253911D01*
X709811Y252847D02*
Y253453D01*
X716011Y251750D02*
X714409D01*
X713646Y253150*
X714409Y254550*
X716011*
Y251750*
X713811Y252847D02*
Y253453D01*
X714061Y252388D02*
Y253911D01*
X714311Y251930D02*
Y254369D01*
X714561Y251750D02*
Y254550D01*
X714811Y251750D02*
Y254550D01*
X715061Y251750D02*
Y254550D01*
X715311Y251750D02*
Y254550D01*
X715561Y251750D02*
Y254550D01*
X715811Y251750D02*
Y254550D01*
X483071Y272701D02*
X481671Y273465D01*
Y275066*
X484471*
Y273465*
X483071Y272701*
X481821Y273383D02*
Y275066D01*
X482071Y273246D02*
Y275066D01*
X482321Y273110D02*
Y275066D01*
X482571Y272974D02*
Y275066D01*
X482821Y272837D02*
Y275066D01*
X483071Y272701D02*
Y275066D01*
X483321Y272837D02*
Y275066D01*
X483571Y272974D02*
Y275066D01*
X483821Y273110D02*
Y275066D01*
X484071Y273246D02*
Y275066D01*
X484321Y273383D02*
Y275066D01*
X481671Y266666D02*
Y268268D01*
X483071Y269031*
X484471Y268268*
Y266666*
X481671*
X481821D02*
Y268350D01*
X482071Y266666D02*
Y268486D01*
X482321Y266666D02*
Y268622D01*
X482571Y266666D02*
Y268759D01*
X482821Y266666D02*
Y268895D01*
X483071Y266666D02*
Y269031D01*
X483321Y266666D02*
Y268895D01*
X483571Y266666D02*
Y268759D01*
X483821Y266666D02*
Y268622D01*
X484071Y266666D02*
Y268486D01*
X484321Y266666D02*
Y268350D01*
X488583Y272701D02*
X487183Y273465D01*
Y275066*
X489983*
Y273465*
X488583Y272701*
X487333Y273383D02*
Y275066D01*
X487583Y273246D02*
Y275066D01*
X487833Y273110D02*
Y275066D01*
X488083Y272974D02*
Y275066D01*
X488333Y272837D02*
Y275066D01*
X488583Y272701D02*
Y275066D01*
X488833Y272837D02*
Y275066D01*
X489083Y272974D02*
Y275066D01*
X489333Y273110D02*
Y275066D01*
X489583Y273246D02*
Y275066D01*
X489833Y273383D02*
Y275066D01*
X487183Y266666D02*
Y268268D01*
X488583Y269031*
X489983Y268268*
Y266666*
X487183*
X487333D02*
Y268350D01*
X487583Y266666D02*
Y268486D01*
X487833Y266666D02*
Y268622D01*
X488083Y266666D02*
Y268759D01*
X488333Y266666D02*
Y268895D01*
X488583Y266666D02*
Y269031D01*
X488833Y266666D02*
Y268895D01*
X489083Y266666D02*
Y268759D01*
X489333Y266666D02*
Y268622D01*
X489583Y266666D02*
Y268486D01*
X489833Y266666D02*
Y268350D01*
X680969Y216142D02*
X681732Y217542D01*
X683334*
Y214742*
X681732*
X680969Y216142*
X681134Y215839D02*
Y216445D01*
X681384Y215380D02*
Y216903D01*
X681634Y214922D02*
Y217361D01*
X681884Y214742D02*
Y217542D01*
X682134Y214742D02*
Y217542D01*
X682384Y214742D02*
Y217542D01*
X682634Y214742D02*
Y217542D01*
X682884Y214742D02*
Y217542D01*
X683134Y214742D02*
Y217542D01*
X674934D02*
X676535D01*
X677299Y216142*
X676535Y214742*
X674934*
Y217542*
X675134Y214742D02*
Y217542D01*
X675384Y214742D02*
Y217542D01*
X675634Y214742D02*
Y217542D01*
X675884Y214742D02*
Y217542D01*
X676134Y214742D02*
Y217542D01*
X676384Y214742D02*
Y217542D01*
X676634Y214922D02*
Y217361D01*
X676884Y215380D02*
Y216903D01*
X677134Y215839D02*
Y216445D01*
X520732Y139764D02*
X521496Y141164D01*
X523098*
Y138364*
X521496*
X520732Y139764*
X520898Y139461D02*
Y140067D01*
X521148Y139003D02*
Y140525D01*
X521398Y138544D02*
Y140983D01*
X521648Y138364D02*
Y141164D01*
X521898Y138364D02*
Y141164D01*
X522148Y138364D02*
Y141164D01*
X522398Y138364D02*
Y141164D01*
X522648Y138364D02*
Y141164D01*
X522898Y138364D02*
Y141164D01*
X514698D02*
X516299D01*
X517063Y139764*
X516299Y138364*
X514698*
Y141164*
X514898Y138364D02*
Y141164D01*
X515148Y138364D02*
Y141164D01*
X515398Y138364D02*
Y141164D01*
X515648Y138364D02*
Y141164D01*
X515898Y138364D02*
Y141164D01*
X516148Y138364D02*
Y141164D01*
X516398Y138544D02*
Y140983D01*
X516648Y139003D02*
Y140525D01*
X516898Y139461D02*
Y140067D01*
X709449Y159315D02*
X708049Y160079D01*
Y161680*
X710849*
Y160079*
X709449Y159315*
X708199Y159997D02*
Y161680D01*
X708449Y159861D02*
Y161680D01*
X708699Y159724D02*
Y161680D01*
X708949Y159588D02*
Y161680D01*
X709199Y159451D02*
Y161680D01*
X709449Y159315D02*
Y161680D01*
X709699Y159451D02*
Y161680D01*
X709949Y159588D02*
Y161680D01*
X710199Y159724D02*
Y161680D01*
X710449Y159861D02*
Y161680D01*
X710699Y159997D02*
Y161680D01*
X708049Y153280D02*
Y154882D01*
X709449Y155646*
X710849Y154882*
Y153280*
X708049*
X708199D02*
Y154964D01*
X708449Y153280D02*
Y155100D01*
X708699Y153280D02*
Y155236D01*
X708949Y153280D02*
Y155373D01*
X709199Y153280D02*
Y155509D01*
X709449Y153280D02*
Y155646D01*
X709699Y153280D02*
Y155509D01*
X709949Y153280D02*
Y155373D01*
X710199Y153280D02*
Y155236D01*
X710449Y153280D02*
Y155100D01*
X710699Y153280D02*
Y154964D01*
X565488Y212992D02*
X564724Y211592D01*
X563123*
Y214392*
X564724*
X565488Y212992*
X563323Y211592D02*
Y214392D01*
X563573Y211592D02*
Y214392D01*
X563823Y211592D02*
Y214392D01*
X564073Y211592D02*
Y214392D01*
X564323Y211592D02*
Y214392D01*
X564573Y211592D02*
Y214392D01*
X564823Y211773D02*
Y214212D01*
X565073Y212231D02*
Y213753D01*
X565323Y212689D02*
Y213295D01*
X571523Y211592D02*
X569921D01*
X569158Y212992*
X569921Y214392*
X571523*
Y211592*
X569323Y212689D02*
Y213295D01*
X569573Y212231D02*
Y213753D01*
X569823Y211773D02*
Y214212D01*
X570073Y211592D02*
Y214392D01*
X570323Y211592D02*
Y214392D01*
X570573Y211592D02*
Y214392D01*
X570823Y211592D02*
Y214392D01*
X571073Y211592D02*
Y214392D01*
X571323Y211592D02*
Y214392D01*
X427165Y268764D02*
X425765Y269528D01*
Y271129*
X428565*
Y269528*
X427165Y268764*
X425915Y269446D02*
Y271129D01*
X426165Y269309D02*
Y271129D01*
X426415Y269173D02*
Y271129D01*
X426665Y269037D02*
Y271129D01*
X426915Y268900D02*
Y271129D01*
X427165Y268764D02*
Y271129D01*
X427415Y268900D02*
Y271129D01*
X427665Y269037D02*
Y271129D01*
X427915Y269173D02*
Y271129D01*
X428165Y269309D02*
Y271129D01*
X428415Y269446D02*
Y271129D01*
X425765Y262729D02*
Y264331D01*
X427165Y265094*
X428565Y264331*
Y262729*
X425765*
X425915D02*
Y264413D01*
X426165Y262729D02*
Y264549D01*
X426415Y262729D02*
Y264685D01*
X426665Y262729D02*
Y264822D01*
X426915Y262729D02*
Y264958D01*
X427165Y262729D02*
Y265094D01*
X427415Y262729D02*
Y264958D01*
X427665Y262729D02*
Y264822D01*
X427915Y262729D02*
Y264685D01*
X428165Y262729D02*
Y264549D01*
X428415Y262729D02*
Y264413D01*
X453937Y250134D02*
X455337Y249370D01*
Y247769*
X452537*
Y249370*
X453937Y250134*
X452687Y247769D02*
Y249452D01*
X452937Y247769D02*
Y249588D01*
X453187Y247769D02*
Y249725D01*
X453437Y247769D02*
Y249861D01*
X453687Y247769D02*
Y249997D01*
X453937Y247769D02*
Y250134D01*
X454187Y247769D02*
Y249997D01*
X454437Y247769D02*
Y249861D01*
X454687Y247769D02*
Y249725D01*
X454937Y247769D02*
Y249588D01*
X455187Y247769D02*
Y249452D01*
X455337Y256169D02*
Y254567D01*
X453937Y253803*
X452537Y254567*
Y256169*
X455337*
X452687Y254485D02*
Y256169D01*
X452937Y254349D02*
Y256169D01*
X453187Y254212D02*
Y256169D01*
X453437Y254076D02*
Y256169D01*
X453687Y253940D02*
Y256169D01*
X453937Y253803D02*
Y256169D01*
X454187Y253940D02*
Y256169D01*
X454437Y254076D02*
Y256169D01*
X454687Y254212D02*
Y256169D01*
X454937Y254349D02*
Y256169D01*
X455187Y254485D02*
Y256169D01*
X565488Y159055D02*
X564724Y157655D01*
X563123*
Y160455*
X564724*
X565488Y159055*
X563323Y157655D02*
Y160455D01*
X563573Y157655D02*
Y160455D01*
X563823Y157655D02*
Y160455D01*
X564073Y157655D02*
Y160455D01*
X564323Y157655D02*
Y160455D01*
X564573Y157655D02*
Y160455D01*
X564823Y157836D02*
Y160275D01*
X565073Y158294D02*
Y159816D01*
X565323Y158752D02*
Y159358D01*
X571523Y157655D02*
X569921D01*
X569158Y159055*
X569921Y160455*
X571523*
Y157655*
X569323Y158752D02*
Y159358D01*
X569573Y158294D02*
Y159816D01*
X569823Y157836D02*
Y160275D01*
X570073Y157655D02*
Y160455D01*
X570323Y157655D02*
Y160455D01*
X570573Y157655D02*
Y160455D01*
X570823Y157655D02*
Y160455D01*
X571073Y157655D02*
Y160455D01*
X571323Y157655D02*
Y160455D01*
X714567Y246717D02*
X713167Y247480D01*
Y249082*
X715967*
Y247480*
X714567Y246717*
X713317Y247398D02*
Y249082D01*
X713567Y247262D02*
Y249082D01*
X713817Y247126D02*
Y249082D01*
X714067Y246989D02*
Y249082D01*
X714317Y246853D02*
Y249082D01*
X714567Y246717D02*
Y249082D01*
X714817Y246853D02*
Y249082D01*
X715067Y246989D02*
Y249082D01*
X715317Y247126D02*
Y249082D01*
X715567Y247262D02*
Y249082D01*
X715817Y247398D02*
Y249082D01*
X713167Y240682D02*
Y242283D01*
X714567Y243047*
X715967Y242283*
Y240682*
X713167*
X713317D02*
Y242365D01*
X713567Y240682D02*
Y242502D01*
X713817Y240682D02*
Y242638D01*
X714067Y240682D02*
Y242774D01*
X714317Y240682D02*
Y242911D01*
X714567Y240682D02*
Y243047D01*
X714817Y240682D02*
Y242911D01*
X715067Y240682D02*
Y242774D01*
X715317Y240682D02*
Y242638D01*
X715567Y240682D02*
Y242502D01*
X715817Y240682D02*
Y242365D01*
X680969Y179921D02*
X681732Y181321D01*
X683334*
Y178521*
X681732*
X680969Y179921*
X681134Y179618D02*
Y180224D01*
X681384Y179160D02*
Y180683D01*
X681634Y178702D02*
Y181141D01*
X681884Y178521D02*
Y181321D01*
X682134Y178521D02*
Y181321D01*
X682384Y178521D02*
Y181321D01*
X682634Y178521D02*
Y181321D01*
X682884Y178521D02*
Y181321D01*
X683134Y178521D02*
Y181321D01*
X674934D02*
X676535D01*
X677299Y179921*
X676535Y178521*
X674934*
Y181321*
X675134Y178521D02*
Y181321D01*
X675384Y178521D02*
Y181321D01*
X675634Y178521D02*
Y181321D01*
X675884Y178521D02*
Y181321D01*
X676134Y178521D02*
Y181321D01*
X676384Y178521D02*
Y181321D01*
X676634Y178702D02*
Y181141D01*
X676884Y179160D02*
Y180683D01*
X677134Y179618D02*
Y180224D01*
X680969Y169685D02*
X681732Y171085D01*
X683334*
Y168285*
X681732*
X680969Y169685*
X681134Y169382D02*
Y169988D01*
X681384Y168924D02*
Y170446D01*
X681634Y168465D02*
Y170905D01*
X681884Y168285D02*
Y171085D01*
X682134Y168285D02*
Y171085D01*
X682384Y168285D02*
Y171085D01*
X682634Y168285D02*
Y171085D01*
X682884Y168285D02*
Y171085D01*
X683134Y168285D02*
Y171085D01*
X674934D02*
X676535D01*
X677299Y169685*
X676535Y168285*
X674934*
Y171085*
X675134Y168285D02*
Y171085D01*
X675384Y168285D02*
Y171085D01*
X675634Y168285D02*
Y171085D01*
X675884Y168285D02*
Y171085D01*
X676134Y168285D02*
Y171085D01*
X676384Y168285D02*
Y171085D01*
X676634Y168465D02*
Y170905D01*
X676884Y168924D02*
Y170446D01*
X677134Y169382D02*
Y169988D01*
X598685Y198425D02*
X599449Y199825D01*
X601050*
Y197025*
X599449*
X598685Y198425*
X598850Y198122D02*
Y198728D01*
X599100Y197664D02*
Y199186D01*
X599350Y197206D02*
Y199645D01*
X599600Y197025D02*
Y199825D01*
X599850Y197025D02*
Y199825D01*
X600100Y197025D02*
Y199825D01*
X600350Y197025D02*
Y199825D01*
X600600Y197025D02*
Y199825D01*
X600850Y197025D02*
Y199825D01*
X592650D02*
X594252D01*
X595016Y198425*
X594252Y197025*
X592650*
Y199825*
X592850Y197025D02*
Y199825D01*
X593100Y197025D02*
Y199825D01*
X593350Y197025D02*
Y199825D01*
X593600Y197025D02*
Y199825D01*
X593850Y197025D02*
Y199825D01*
X594100Y197025D02*
Y199825D01*
X594350Y197206D02*
Y199645D01*
X594600Y197664D02*
Y199186D01*
X594850Y198122D02*
Y198728D01*
X680969Y195669D02*
X681732Y197069D01*
X683334*
Y194269*
X681732*
X680969Y195669*
X681134Y195366D02*
Y195972D01*
X681384Y194908D02*
Y196431D01*
X681634Y194450D02*
Y196889D01*
X681884Y194269D02*
Y197069D01*
X682134Y194269D02*
Y197069D01*
X682384Y194269D02*
Y197069D01*
X682634Y194269D02*
Y197069D01*
X682884Y194269D02*
Y197069D01*
X683134Y194269D02*
Y197069D01*
X674934D02*
X676535D01*
X677299Y195669*
X676535Y194269*
X674934*
Y197069*
X675134Y194269D02*
Y197069D01*
X675384Y194269D02*
Y197069D01*
X675634Y194269D02*
Y197069D01*
X675884Y194269D02*
Y197069D01*
X676134Y194269D02*
Y197069D01*
X676384Y194269D02*
Y197069D01*
X676634Y194450D02*
Y196889D01*
X676884Y194908D02*
Y196431D01*
X677134Y195366D02*
Y195972D01*
X680969Y200787D02*
X681732Y202187D01*
X683334*
Y199387*
X681732*
X680969Y200787*
X681134Y200484D02*
Y201090D01*
X681384Y200026D02*
Y201549D01*
X681634Y199568D02*
Y202007D01*
X681884Y199387D02*
Y202187D01*
X682134Y199387D02*
Y202187D01*
X682384Y199387D02*
Y202187D01*
X682634Y199387D02*
Y202187D01*
X682884Y199387D02*
Y202187D01*
X683134Y199387D02*
Y202187D01*
X674934D02*
X676535D01*
X677299Y200787*
X676535Y199387*
X674934*
Y202187*
X675134Y199387D02*
Y202187D01*
X675384Y199387D02*
Y202187D01*
X675634Y199387D02*
Y202187D01*
X675884Y199387D02*
Y202187D01*
X676134Y199387D02*
Y202187D01*
X676384Y199387D02*
Y202187D01*
X676634Y199568D02*
Y202007D01*
X676884Y200026D02*
Y201549D01*
X677134Y200484D02*
Y201090D01*
X680969Y205906D02*
X681732Y207306D01*
X683334*
Y204506*
X681732*
X680969Y205906*
X681134Y205603D02*
Y206208D01*
X681384Y205144D02*
Y206667D01*
X681634Y204686D02*
Y207125D01*
X681884Y204506D02*
Y207306D01*
X682134Y204506D02*
Y207306D01*
X682384Y204506D02*
Y207306D01*
X682634Y204506D02*
Y207306D01*
X682884Y204506D02*
Y207306D01*
X683134Y204506D02*
Y207306D01*
X674934D02*
X676535D01*
X677299Y205906*
X676535Y204506*
X674934*
Y207306*
X675134Y204506D02*
Y207306D01*
X675384Y204506D02*
Y207306D01*
X675634Y204506D02*
Y207306D01*
X675884Y204506D02*
Y207306D01*
X676134Y204506D02*
Y207306D01*
X676384Y204506D02*
Y207306D01*
X676634Y204686D02*
Y207125D01*
X676884Y205144D02*
Y206667D01*
X677134Y205603D02*
Y206208D01*
X680969Y211024D02*
X681732Y212424D01*
X683334*
Y209624*
X681732*
X680969Y211024*
X681134Y210721D02*
Y211327D01*
X681384Y210262D02*
Y211785D01*
X681634Y209804D02*
Y212243D01*
X681884Y209624D02*
Y212424D01*
X682134Y209624D02*
Y212424D01*
X682384Y209624D02*
Y212424D01*
X682634Y209624D02*
Y212424D01*
X682884Y209624D02*
Y212424D01*
X683134Y209624D02*
Y212424D01*
X674934D02*
X676535D01*
X677299Y211024*
X676535Y209624*
X674934*
Y212424*
X675134Y209624D02*
Y212424D01*
X675384Y209624D02*
Y212424D01*
X675634Y209624D02*
Y212424D01*
X675884Y209624D02*
Y212424D01*
X676134Y209624D02*
Y212424D01*
X676384Y209624D02*
Y212424D01*
X676634Y209804D02*
Y212243D01*
X676884Y210262D02*
Y211785D01*
X677134Y210721D02*
Y211327D01*
X569158Y148031D02*
X569921Y149431D01*
X571523*
Y146631*
X569921*
X569158Y148031*
X569323Y147729D02*
Y148334D01*
X569573Y147270D02*
Y148793D01*
X569823Y146812D02*
Y149251D01*
X570073Y146631D02*
Y149431D01*
X570323Y146631D02*
Y149431D01*
X570573Y146631D02*
Y149431D01*
X570823Y146631D02*
Y149431D01*
X571073Y146631D02*
Y149431D01*
X571323Y146631D02*
Y149431D01*
X563123D02*
X564724D01*
X565488Y148031*
X564724Y146631*
X563123*
Y149431*
X563323Y146631D02*
Y149431D01*
X563573Y146631D02*
Y149431D01*
X563823Y146631D02*
Y149431D01*
X564073Y146631D02*
Y149431D01*
X564323Y146631D02*
Y149431D01*
X564573Y146631D02*
Y149431D01*
X564823Y146812D02*
Y149251D01*
X565073Y147270D02*
Y148793D01*
X565323Y147729D02*
Y148334D01*
X720079Y243047D02*
X721479Y242283D01*
Y240682*
X718679*
Y242283*
X720079Y243047*
X718829Y240682D02*
Y242365D01*
X719079Y240682D02*
Y242502D01*
X719329Y240682D02*
Y242638D01*
X719579Y240682D02*
Y242774D01*
X719829Y240682D02*
Y242911D01*
X720079Y240682D02*
Y243047D01*
X720329Y240682D02*
Y242911D01*
X720579Y240682D02*
Y242774D01*
X720829Y240682D02*
Y242638D01*
X721079Y240682D02*
Y242502D01*
X721329Y240682D02*
Y242365D01*
X721479Y249082D02*
Y247480D01*
X720079Y246717*
X718679Y247480*
Y249082*
X721479*
X718829Y247398D02*
Y249082D01*
X719079Y247262D02*
Y249082D01*
X719329Y247126D02*
Y249082D01*
X719579Y246989D02*
Y249082D01*
X719829Y246853D02*
Y249082D01*
X720079Y246717D02*
Y249082D01*
X720329Y246853D02*
Y249082D01*
X720579Y246989D02*
Y249082D01*
X720829Y247126D02*
Y249082D01*
X721079Y247262D02*
Y249082D01*
X721329Y247398D02*
Y249082D01*
X725591Y243047D02*
X726991Y242283D01*
Y240682*
X724191*
Y242283*
X725591Y243047*
X724341Y240682D02*
Y242365D01*
X724591Y240682D02*
Y242502D01*
X724841Y240682D02*
Y242638D01*
X725091Y240682D02*
Y242774D01*
X725341Y240682D02*
Y242911D01*
X725591Y240682D02*
Y243047D01*
X725841Y240682D02*
Y242911D01*
X726091Y240682D02*
Y242774D01*
X726341Y240682D02*
Y242638D01*
X726591Y240682D02*
Y242502D01*
X726841Y240682D02*
Y242365D01*
X726991Y249082D02*
Y247480D01*
X725591Y246717*
X724191Y247480*
Y249082*
X726991*
X724341Y247398D02*
Y249082D01*
X724591Y247262D02*
Y249082D01*
X724841Y247126D02*
Y249082D01*
X725091Y246989D02*
Y249082D01*
X725341Y246853D02*
Y249082D01*
X725591Y246717D02*
Y249082D01*
X725841Y246853D02*
Y249082D01*
X726091Y246989D02*
Y249082D01*
X726341Y247126D02*
Y249082D01*
X726591Y247262D02*
Y249082D01*
X726841Y247398D02*
Y249082D01*
X764701Y211417D02*
X763937Y210017D01*
X762335*
Y212817*
X763937*
X764701Y211417*
X762535Y210017D02*
Y212817D01*
X762785Y210017D02*
Y212817D01*
X763035Y210017D02*
Y212817D01*
X763285Y210017D02*
Y212817D01*
X763535Y210017D02*
Y212817D01*
X763785Y210017D02*
Y212817D01*
X764035Y210198D02*
Y212637D01*
X764285Y210656D02*
Y212179D01*
X764535Y211114D02*
Y211720D01*
X770735Y210017D02*
X769134D01*
X768370Y211417*
X769134Y212817*
X770735*
Y210017*
X768535Y211114D02*
Y211720D01*
X768785Y210656D02*
Y212179D01*
X769035Y210198D02*
Y212637D01*
X769285Y210017D02*
Y212817D01*
X769535Y210017D02*
Y212817D01*
X769785Y210017D02*
Y212817D01*
X770035Y210017D02*
Y212817D01*
X770285Y210017D02*
Y212817D01*
X770535Y210017D02*
Y212817D01*
X764701Y206299D02*
X763937Y204899D01*
X762335*
Y207699*
X763937*
X764701Y206299*
X762535Y204899D02*
Y207699D01*
X762785Y204899D02*
Y207699D01*
X763035Y204899D02*
Y207699D01*
X763285Y204899D02*
Y207699D01*
X763535Y204899D02*
Y207699D01*
X763785Y204899D02*
Y207699D01*
X764035Y205080D02*
Y207519D01*
X764285Y205538D02*
Y207060D01*
X764535Y205996D02*
Y206602D01*
X770735Y204899D02*
X769134D01*
X768370Y206299*
X769134Y207699*
X770735*
Y204899*
X768535Y205996D02*
Y206602D01*
X768785Y205538D02*
Y207060D01*
X769035Y205080D02*
Y207519D01*
X769285Y204899D02*
Y207699D01*
X769535Y204899D02*
Y207699D01*
X769785Y204899D02*
Y207699D01*
X770035Y204899D02*
Y207699D01*
X770285Y204899D02*
Y207699D01*
X770535Y204899D02*
Y207699D01*
X517063Y129528D02*
X516299Y128128D01*
X514698*
Y130928*
X516299*
X517063Y129528*
X514898Y128128D02*
Y130928D01*
X515148Y128128D02*
Y130928D01*
X515398Y128128D02*
Y130928D01*
X515648Y128128D02*
Y130928D01*
X515898Y128128D02*
Y130928D01*
X516148Y128128D02*
Y130928D01*
X516398Y128308D02*
Y130747D01*
X516648Y128766D02*
Y130289D01*
X516898Y129225D02*
Y129830D01*
X523098Y128128D02*
X521496D01*
X520732Y129528*
X521496Y130928*
X523098*
Y128128*
X520898Y129225D02*
Y129830D01*
X521148Y128766D02*
Y130289D01*
X521398Y128308D02*
Y130747D01*
X521648Y128128D02*
Y130928D01*
X521898Y128128D02*
Y130928D01*
X522148Y128128D02*
Y130928D01*
X522398Y128128D02*
Y130928D01*
X522648Y128128D02*
Y130928D01*
X522898Y128128D02*
Y130928D01*
X520732Y124409D02*
X521496Y125809D01*
X523098*
Y123009*
X521496*
X520732Y124409*
X520898Y124107D02*
Y124712D01*
X521148Y123648D02*
Y125171D01*
X521398Y123190D02*
Y125629D01*
X521648Y123009D02*
Y125809D01*
X521898Y123009D02*
Y125809D01*
X522148Y123009D02*
Y125809D01*
X522398Y123009D02*
Y125809D01*
X522648Y123009D02*
Y125809D01*
X522898Y123009D02*
Y125809D01*
X514698D02*
X516299D01*
X517063Y124409*
X516299Y123009*
X514698*
Y125809*
X514898Y123009D02*
Y125809D01*
X515148Y123009D02*
Y125809D01*
X515398Y123009D02*
Y125809D01*
X515648Y123009D02*
Y125809D01*
X515898Y123009D02*
Y125809D01*
X516148Y123009D02*
Y125809D01*
X516398Y123190D02*
Y125629D01*
X516648Y123648D02*
Y125171D01*
X516898Y124107D02*
Y124712D01*
X517063Y134646D02*
X516299Y133246D01*
X514698*
Y136046*
X516299*
X517063Y134646*
X514898Y133246D02*
Y136046D01*
X515148Y133246D02*
Y136046D01*
X515398Y133246D02*
Y136046D01*
X515648Y133246D02*
Y136046D01*
X515898Y133246D02*
Y136046D01*
X516148Y133246D02*
Y136046D01*
X516398Y133426D02*
Y135865D01*
X516648Y133884D02*
Y135407D01*
X516898Y134343D02*
Y134949D01*
X523098Y133246D02*
X521496D01*
X520732Y134646*
X521496Y136046*
X523098*
Y133246*
X520898Y134343D02*
Y134949D01*
X521148Y133884D02*
Y135407D01*
X521398Y133426D02*
Y135865D01*
X521648Y133246D02*
Y136046D01*
X521898Y133246D02*
Y136046D01*
X522148Y133246D02*
Y136046D01*
X522398Y133246D02*
Y136046D01*
X522648Y133246D02*
Y136046D01*
X522898Y133246D02*
Y136046D01*
X719685Y159315D02*
X718285Y160079D01*
Y161680*
X721085*
Y160079*
X719685Y159315*
X718435Y159997D02*
Y161680D01*
X718685Y159861D02*
Y161680D01*
X718935Y159724D02*
Y161680D01*
X719185Y159588D02*
Y161680D01*
X719435Y159451D02*
Y161680D01*
X719685Y159315D02*
Y161680D01*
X719935Y159451D02*
Y161680D01*
X720185Y159588D02*
Y161680D01*
X720435Y159724D02*
Y161680D01*
X720685Y159861D02*
Y161680D01*
X720935Y159997D02*
Y161680D01*
X718285Y153280D02*
Y154882D01*
X719685Y155646*
X721085Y154882*
Y153280*
X718285*
X718435D02*
Y154964D01*
X718685Y153280D02*
Y155100D01*
X718935Y153280D02*
Y155236D01*
X719185Y153280D02*
Y155373D01*
X719435Y153280D02*
Y155509D01*
X719685Y153280D02*
Y155646D01*
X719935Y153280D02*
Y155509D01*
X720185Y153280D02*
Y155373D01*
X720435Y153280D02*
Y155236D01*
X720685Y153280D02*
Y155100D01*
X720935Y153280D02*
Y154964D01*
X499740Y194094D02*
X498976Y192694D01*
X497375*
Y195494*
X498976*
X499740Y194094*
X497575Y192694D02*
Y195494D01*
X497825Y192694D02*
Y195494D01*
X498075Y192694D02*
Y195494D01*
X498325Y192694D02*
Y195494D01*
X498575Y192694D02*
Y195494D01*
X498825Y192694D02*
Y195494D01*
X499075Y192875D02*
Y195314D01*
X499325Y193333D02*
Y194856D01*
X499575Y193792D02*
Y194397D01*
X505775Y192694D02*
X504173D01*
X503410Y194094*
X504173Y195494*
X505775*
Y192694*
X503575Y193792D02*
Y194397D01*
X503825Y193333D02*
Y194856D01*
X504075Y192875D02*
Y195314D01*
X504325Y192694D02*
Y195494D01*
X504575Y192694D02*
Y195494D01*
X504825Y192694D02*
Y195494D01*
X505075Y192694D02*
Y195494D01*
X505325Y192694D02*
Y195494D01*
X505575Y192694D02*
Y195494D01*
X499740Y188976D02*
X498976Y187576D01*
X497375*
Y190376*
X498976*
X499740Y188976*
X497575Y187576D02*
Y190376D01*
X497825Y187576D02*
Y190376D01*
X498075Y187576D02*
Y190376D01*
X498325Y187576D02*
Y190376D01*
X498575Y187576D02*
Y190376D01*
X498825Y187576D02*
Y190376D01*
X499075Y187757D02*
Y190196D01*
X499325Y188215D02*
Y189738D01*
X499575Y188673D02*
Y189279D01*
X505775Y187576D02*
X504173D01*
X503410Y188976*
X504173Y190376*
X505775*
Y187576*
X503575Y188673D02*
Y189279D01*
X503825Y188215D02*
Y189738D01*
X504075Y187757D02*
Y190196D01*
X504325Y187576D02*
Y190376D01*
X504575Y187576D02*
Y190376D01*
X504825Y187576D02*
Y190376D01*
X505075Y187576D02*
Y190376D01*
X505325Y187576D02*
Y190376D01*
X505575Y187576D02*
Y190376D01*
X565488Y193701D02*
X564724Y192301D01*
X563123*
Y195101*
X564724*
X565488Y193701*
X563323Y192301D02*
Y195101D01*
X563573Y192301D02*
Y195101D01*
X563823Y192301D02*
Y195101D01*
X564073Y192301D02*
Y195101D01*
X564323Y192301D02*
Y195101D01*
X564573Y192301D02*
Y195101D01*
X564823Y192481D02*
Y194920D01*
X565073Y192940D02*
Y194462D01*
X565323Y193398D02*
Y194004D01*
X571523Y192301D02*
X569921D01*
X569158Y193701*
X569921Y195101*
X571523*
Y192301*
X569323Y193398D02*
Y194004D01*
X569573Y192940D02*
Y194462D01*
X569823Y192481D02*
Y194920D01*
X570073Y192301D02*
Y195101D01*
X570323Y192301D02*
Y195101D01*
X570573Y192301D02*
Y195101D01*
X570823Y192301D02*
Y195101D01*
X571073Y192301D02*
Y195101D01*
X571323Y192301D02*
Y195101D01*
X529528Y238716D02*
X530928Y237953D01*
Y236351*
X528128*
Y237953*
X529528Y238716*
X528278Y236351D02*
Y238035D01*
X528528Y236351D02*
Y238171D01*
X528778Y236351D02*
Y238307D01*
X529028Y236351D02*
Y238444D01*
X529278Y236351D02*
Y238580D01*
X529528Y236351D02*
Y238716D01*
X529778Y236351D02*
Y238580D01*
X530028Y236351D02*
Y238444D01*
X530278Y236351D02*
Y238307D01*
X530528Y236351D02*
Y238171D01*
X530778Y236351D02*
Y238035D01*
X530928Y244751D02*
Y243150D01*
X529528Y242386*
X528128Y243150*
Y244751*
X530928*
X528278Y243068D02*
Y244751D01*
X528528Y242931D02*
Y244751D01*
X528778Y242795D02*
Y244751D01*
X529028Y242659D02*
Y244751D01*
X529278Y242522D02*
Y244751D01*
X529528Y242386D02*
Y244751D01*
X529778Y242522D02*
Y244751D01*
X530028Y242659D02*
Y244751D01*
X530278Y242795D02*
Y244751D01*
X530528Y242931D02*
Y244751D01*
X530778Y243068D02*
Y244751D01*
X541339Y238716D02*
X542739Y237953D01*
Y236351*
X539939*
Y237953*
X541339Y238716*
X540089Y236351D02*
Y238035D01*
X540339Y236351D02*
Y238171D01*
X540589Y236351D02*
Y238307D01*
X540839Y236351D02*
Y238444D01*
X541089Y236351D02*
Y238580D01*
X541339Y236351D02*
Y238716D01*
X541589Y236351D02*
Y238580D01*
X541839Y236351D02*
Y238444D01*
X542089Y236351D02*
Y238307D01*
X542339Y236351D02*
Y238171D01*
X542589Y236351D02*
Y238035D01*
X542739Y244751D02*
Y243150D01*
X541339Y242386*
X539939Y243150*
Y244751*
X542739*
X540089Y243068D02*
Y244751D01*
X540339Y242931D02*
Y244751D01*
X540589Y242795D02*
Y244751D01*
X540839Y242659D02*
Y244751D01*
X541089Y242522D02*
Y244751D01*
X541339Y242386D02*
Y244751D01*
X541589Y242522D02*
Y244751D01*
X541839Y242659D02*
Y244751D01*
X542089Y242795D02*
Y244751D01*
X542339Y242931D02*
Y244751D01*
X542589Y243068D02*
Y244751D01*
X553150Y238716D02*
X554550Y237953D01*
Y236351*
X551750*
Y237953*
X553150Y238716*
X551900Y236351D02*
Y238035D01*
X552150Y236351D02*
Y238171D01*
X552400Y236351D02*
Y238307D01*
X552650Y236351D02*
Y238444D01*
X552900Y236351D02*
Y238580D01*
X553150Y236351D02*
Y238716D01*
X553400Y236351D02*
Y238580D01*
X553650Y236351D02*
Y238444D01*
X553900Y236351D02*
Y238307D01*
X554150Y236351D02*
Y238171D01*
X554400Y236351D02*
Y238035D01*
X554550Y244751D02*
Y243150D01*
X553150Y242386*
X551750Y243150*
Y244751*
X554550*
X551900Y243068D02*
Y244751D01*
X552150Y242931D02*
Y244751D01*
X552400Y242795D02*
Y244751D01*
X552650Y242659D02*
Y244751D01*
X552900Y242522D02*
Y244751D01*
X553150Y242386D02*
Y244751D01*
X553400Y242522D02*
Y244751D01*
X553650Y242659D02*
Y244751D01*
X553900Y242795D02*
Y244751D01*
X554150Y242931D02*
Y244751D01*
X554400Y243068D02*
Y244751D01*
X736614Y246717D02*
X735214Y247480D01*
Y249082*
X738014*
Y247480*
X736614Y246717*
X735364Y247398D02*
Y249082D01*
X735614Y247262D02*
Y249082D01*
X735864Y247126D02*
Y249082D01*
X736114Y246989D02*
Y249082D01*
X736364Y246853D02*
Y249082D01*
X736614Y246717D02*
Y249082D01*
X736864Y246853D02*
Y249082D01*
X737114Y246989D02*
Y249082D01*
X737364Y247126D02*
Y249082D01*
X737614Y247262D02*
Y249082D01*
X737864Y247398D02*
Y249082D01*
X735214Y240682D02*
Y242283D01*
X736614Y243047*
X738014Y242283*
Y240682*
X735214*
X735364D02*
Y242365D01*
X735614Y240682D02*
Y242502D01*
X735864Y240682D02*
Y242638D01*
X736114Y240682D02*
Y242774D01*
X736364Y240682D02*
Y242911D01*
X736614Y240682D02*
Y243047D01*
X736864Y240682D02*
Y242911D01*
X737114Y240682D02*
Y242774D01*
X737364Y240682D02*
Y242638D01*
X737614Y240682D02*
Y242502D01*
X737864Y240682D02*
Y242365D01*
X670079Y238843D02*
X668679Y239606D01*
Y241208*
X671479*
Y239606*
X670079Y238843*
X668829Y239524D02*
Y241208D01*
X669079Y239388D02*
Y241208D01*
X669329Y239252D02*
Y241208D01*
X669579Y239115D02*
Y241208D01*
X669829Y238979D02*
Y241208D01*
X670079Y238843D02*
Y241208D01*
X670329Y238979D02*
Y241208D01*
X670579Y239115D02*
Y241208D01*
X670829Y239252D02*
Y241208D01*
X671079Y239388D02*
Y241208D01*
X671329Y239524D02*
Y241208D01*
X668679Y232808D02*
Y234409D01*
X670079Y235173*
X671479Y234409*
Y232808*
X668679*
X668829D02*
Y234491D01*
X669079Y232808D02*
Y234628D01*
X669329Y232808D02*
Y234764D01*
X669579Y232808D02*
Y234900D01*
X669829Y232808D02*
Y235037D01*
X670079Y232808D02*
Y235173D01*
X670329Y232808D02*
Y235037D01*
X670579Y232808D02*
Y234900D01*
X670829Y232808D02*
Y234764D01*
X671079Y232808D02*
Y234628D01*
X671329Y232808D02*
Y234491D01*
X664961Y230055D02*
X666361Y229291D01*
Y227690*
X663561*
Y229291*
X664961Y230055*
X663711Y227690D02*
Y229373D01*
X663961Y227690D02*
Y229510D01*
X664211Y227690D02*
Y229646D01*
X664461Y227690D02*
Y229782D01*
X664711Y227690D02*
Y229919D01*
X664961Y227690D02*
Y230055D01*
X665211Y227690D02*
Y229919D01*
X665461Y227690D02*
Y229782D01*
X665711Y227690D02*
Y229646D01*
X665961Y227690D02*
Y229510D01*
X666211Y227690D02*
Y229373D01*
X666361Y236090D02*
Y234488D01*
X664961Y233725*
X663561Y234488*
Y236090*
X666361*
X663711Y234406D02*
Y236090D01*
X663961Y234270D02*
Y236090D01*
X664211Y234134D02*
Y236090D01*
X664461Y233997D02*
Y236090D01*
X664711Y233861D02*
Y236090D01*
X664961Y233725D02*
Y236090D01*
X665211Y233861D02*
Y236090D01*
X665461Y233997D02*
Y236090D01*
X665711Y234134D02*
Y236090D01*
X665961Y234270D02*
Y236090D01*
X666211Y234406D02*
Y236090D01*
X677299Y226772D02*
X676535Y225372D01*
X674934*
Y228172*
X676535*
X677299Y226772*
X675134Y225372D02*
Y228172D01*
X675384Y225372D02*
Y228172D01*
X675634Y225372D02*
Y228172D01*
X675884Y225372D02*
Y228172D01*
X676134Y225372D02*
Y228172D01*
X676384Y225372D02*
Y228172D01*
X676634Y225552D02*
Y227991D01*
X676884Y226010D02*
Y227533D01*
X677134Y226469D02*
Y227075D01*
X683334Y225372D02*
X681732D01*
X680969Y226772*
X681732Y228172*
X683334*
Y225372*
X681134Y226469D02*
Y227075D01*
X681384Y226010D02*
Y227533D01*
X681634Y225552D02*
Y227991D01*
X681884Y225372D02*
Y228172D01*
X682134Y225372D02*
Y228172D01*
X682384Y225372D02*
Y228172D01*
X682634Y225372D02*
Y228172D01*
X682884Y225372D02*
Y228172D01*
X683134Y225372D02*
Y228172D01*
X677299Y242126D02*
X676535Y240726D01*
X674934*
Y243526*
X676535*
X677299Y242126*
X675134Y240726D02*
Y243526D01*
X675384Y240726D02*
Y243526D01*
X675634Y240726D02*
Y243526D01*
X675884Y240726D02*
Y243526D01*
X676134Y240726D02*
Y243526D01*
X676384Y240726D02*
Y243526D01*
X676634Y240906D02*
Y243346D01*
X676884Y241365D02*
Y242887D01*
X677134Y241823D02*
Y242429D01*
X683334Y240726D02*
X681732D01*
X680969Y242126*
X681732Y243526*
X683334*
Y240726*
X681134Y241823D02*
Y242429D01*
X681384Y241365D02*
Y242887D01*
X681634Y240906D02*
Y243346D01*
X681884Y240726D02*
Y243526D01*
X682134Y240726D02*
Y243526D01*
X682384Y240726D02*
Y243526D01*
X682634Y240726D02*
Y243526D01*
X682884Y240726D02*
Y243526D01*
X683134Y240726D02*
Y243526D01*
X677299Y237008D02*
X676535Y235608D01*
X674934*
Y238408*
X676535*
X677299Y237008*
X675134Y235608D02*
Y238408D01*
X675384Y235608D02*
Y238408D01*
X675634Y235608D02*
Y238408D01*
X675884Y235608D02*
Y238408D01*
X676134Y235608D02*
Y238408D01*
X676384Y235608D02*
Y238408D01*
X676634Y235788D02*
Y238227D01*
X676884Y236247D02*
Y237769D01*
X677134Y236705D02*
Y237311D01*
X683334Y235608D02*
X681732D01*
X680969Y237008*
X681732Y238408*
X683334*
Y235608*
X681134Y236705D02*
Y237311D01*
X681384Y236247D02*
Y237769D01*
X681634Y235788D02*
Y238227D01*
X681884Y235608D02*
Y238408D01*
X682134Y235608D02*
Y238408D01*
X682384Y235608D02*
Y238408D01*
X682634Y235608D02*
Y238408D01*
X682884Y235608D02*
Y238408D01*
X683134Y235608D02*
Y238408D01*
X677299Y231890D02*
X676535Y230490D01*
X674934*
Y233290*
X676535*
X677299Y231890*
X675134Y230490D02*
Y233290D01*
X675384Y230490D02*
Y233290D01*
X675634Y230490D02*
Y233290D01*
X675884Y230490D02*
Y233290D01*
X676134Y230490D02*
Y233290D01*
X676384Y230490D02*
Y233290D01*
X676634Y230670D02*
Y233109D01*
X676884Y231129D02*
Y232651D01*
X677134Y231587D02*
Y232193D01*
X683334Y230490D02*
X681732D01*
X680969Y231890*
X681732Y233290*
X683334*
Y230490*
X681134Y231587D02*
Y232193D01*
X681384Y231129D02*
Y232651D01*
X681634Y230670D02*
Y233109D01*
X681884Y230490D02*
Y233290D01*
X682134Y230490D02*
Y233290D01*
X682384Y230490D02*
Y233290D01*
X682634Y230490D02*
Y233290D01*
X682884Y230490D02*
Y233290D01*
X683134Y230490D02*
Y233290D01*
G54D67*
X421506Y360030D02*
Y357927D01*
X419291Y356811*
X417077Y357927*
Y360030*
X421506*
X417077Y357927D02*
Y360030D01*
X417323Y357803D02*
Y360030D01*
X417569Y357679D02*
Y360030D01*
X417815Y357555D02*
Y360030D01*
X418061Y357431D02*
Y360030D01*
X418307Y357307D02*
Y360030D01*
X418553Y357183D02*
Y360030D01*
X418799Y357059D02*
Y360030D01*
X419045Y356935D02*
Y360030D01*
X419291Y356811D02*
Y360030D01*
X419537Y356935D02*
Y360030D01*
X419783Y357059D02*
Y360030D01*
X420030Y357183D02*
Y360030D01*
X420276Y357307D02*
Y360030D01*
X420522Y357431D02*
Y360030D01*
X420768Y357555D02*
Y360030D01*
X421014Y357679D02*
Y360030D01*
X421260Y357803D02*
Y360030D01*
X419291Y347126D02*
X421506Y346010D01*
Y343907*
X417077*
Y346010*
X419291Y347126*
X417077Y343907D02*
Y346010D01*
X417323Y343907D02*
Y346134D01*
X417569Y343907D02*
Y346258D01*
X417815Y343907D02*
Y346382D01*
X418061Y343907D02*
Y346506D01*
X418307Y343907D02*
Y346630D01*
X418553Y343907D02*
Y346754D01*
X418799Y343907D02*
Y346878D01*
X419045Y343907D02*
Y347002D01*
X419291Y343907D02*
Y347126D01*
X419537Y343907D02*
Y347002D01*
X419783Y343907D02*
Y346878D01*
X420030Y343907D02*
Y346754D01*
X420276Y343907D02*
Y346630D01*
X420522Y343907D02*
Y346506D01*
X420768Y343907D02*
Y346382D01*
X421014Y343907D02*
Y346258D01*
X421260Y343907D02*
Y346134D01*
X448606Y445047D02*
X447555Y443226D01*
X445079Y443367*
X443719Y445441*
X444770Y447262*
X448606Y445047*
X443888Y445183D02*
Y445733D01*
X444134Y444808D02*
Y446160D01*
X444380Y444433D02*
Y446586D01*
X444626Y444057D02*
Y447012D01*
X444872Y443682D02*
Y447203D01*
X445118Y443365D02*
Y447061D01*
X445364Y443351D02*
Y446919D01*
X445611Y443337D02*
Y446777D01*
X445857Y443323D02*
Y446634D01*
X446103Y443309D02*
Y446492D01*
X446349Y443295D02*
Y446350D01*
X446595Y443281D02*
Y446208D01*
X446841Y443267D02*
Y446066D01*
X447087Y443253D02*
Y445924D01*
X447333Y443239D02*
Y445782D01*
X447579Y443268D02*
Y445640D01*
X447825Y443694D02*
Y445498D01*
X448071Y444120D02*
Y445356D01*
X448317Y444547D02*
Y445214D01*
X448563Y444973D02*
Y445072D01*
X440237Y434980D02*
X441596Y432906D01*
X440545Y431085*
X436709Y433299*
X437761Y435120*
X440237Y434980*
X436752Y433275D02*
Y433374D01*
X436998Y433133D02*
Y433800D01*
X437244Y432991D02*
Y434226D01*
X437490Y432849D02*
Y434652D01*
X437737Y432706D02*
Y435078D01*
X437983Y432564D02*
Y435108D01*
X438229Y432422D02*
Y435094D01*
X438475Y432280D02*
Y435080D01*
X438721Y432138D02*
Y435066D01*
X438967Y431996D02*
Y435052D01*
X439213Y431854D02*
Y435038D01*
X439459Y431712D02*
Y435024D01*
X439705Y431570D02*
Y435010D01*
X439951Y431428D02*
Y434996D01*
X440197Y431286D02*
Y434982D01*
X440443Y431144D02*
Y434664D01*
X440689Y431335D02*
Y434289D01*
X440935Y431761D02*
Y433914D01*
X441181Y432187D02*
Y433538D01*
X441427Y432613D02*
Y433163D01*
X556920Y520382D02*
X554889Y519838D01*
X553238Y521688*
X553743Y524116*
X555773Y524661*
X556920Y520382*
X553482Y521415D02*
Y522861D01*
X553728Y521140D02*
Y524044D01*
X553974Y520864D02*
Y524178D01*
X554220Y520588D02*
Y524244D01*
X554466Y520312D02*
Y524310D01*
X554712Y520037D02*
Y524376D01*
X554958Y519857D02*
Y524442D01*
X555204Y519923D02*
Y524508D01*
X555450Y519989D02*
Y524574D01*
X555696Y520054D02*
Y524640D01*
X555942Y520120D02*
Y524031D01*
X556188Y520186D02*
Y523113D01*
X556434Y520252D02*
Y522194D01*
X556680Y520318D02*
Y521276D01*
X543883Y519182D02*
X543378Y516754D01*
X541347Y516210*
X540201Y520488*
X542232Y521032*
X543883Y519182*
X540440Y519594D02*
Y520552D01*
X540686Y518676D02*
Y520618D01*
X540932Y517758D02*
Y520684D01*
X541178Y516839D02*
Y520750D01*
X541424Y516230D02*
Y520816D01*
X541671Y516296D02*
Y520882D01*
X541917Y516362D02*
Y520948D01*
X542163Y516428D02*
Y521014D01*
X542409Y516494D02*
Y520833D01*
X542655Y516560D02*
Y520558D01*
X542901Y516626D02*
Y520282D01*
X543147Y516692D02*
Y520006D01*
X543393Y516826D02*
Y519731D01*
X543639Y518010D02*
Y519455D01*
X439670Y248425D02*
X442648Y252707D01*
X448573*
Y244144*
X442648*
X439670Y248425*
X439764Y248290D02*
Y248560D01*
X440010Y247936D02*
Y248914D01*
X440256Y247583D02*
Y249268D01*
X440502Y247229D02*
Y249621D01*
X440748Y246875D02*
Y249975D01*
X440994Y246522D02*
Y250329D01*
X441240Y246168D02*
Y250683D01*
X441486Y245814D02*
Y251036D01*
X441732Y245460D02*
Y251390D01*
X441978Y245107D02*
Y251744D01*
X442224Y244753D02*
Y252097D01*
X442470Y244399D02*
Y252451D01*
X442717Y244144D02*
Y252707D01*
X442963Y244144D02*
Y252707D01*
X443209Y244144D02*
Y252707D01*
X443455Y244144D02*
Y252707D01*
X443701Y244144D02*
Y252707D01*
X443947Y244144D02*
Y252707D01*
X444193Y244144D02*
Y252707D01*
X444439Y244144D02*
Y252707D01*
X444685Y244144D02*
Y252707D01*
X444931Y244144D02*
Y252707D01*
X445177Y244144D02*
Y252707D01*
X445423Y244144D02*
Y252707D01*
X445669Y244144D02*
Y252707D01*
X445915Y244144D02*
Y252707D01*
X446161Y244144D02*
Y252707D01*
X446407Y244144D02*
Y252707D01*
X446654Y244144D02*
Y252707D01*
X446900Y244144D02*
Y252707D01*
X447146Y244144D02*
Y252707D01*
X447392Y244144D02*
Y252707D01*
X447638Y244144D02*
Y252707D01*
X447884Y244144D02*
Y252707D01*
X448130Y244144D02*
Y252707D01*
X448376Y244144D02*
Y252707D01*
X415207D02*
X421131D01*
X424110Y248425*
X421131Y244144*
X415207*
Y252707*
X415404Y244144D02*
Y252707D01*
X415650Y244144D02*
Y252707D01*
X415896Y244144D02*
Y252707D01*
X416142Y244144D02*
Y252707D01*
X416388Y244144D02*
Y252707D01*
X416634Y244144D02*
Y252707D01*
X416880Y244144D02*
Y252707D01*
X417126Y244144D02*
Y252707D01*
X417372Y244144D02*
Y252707D01*
X417618Y244144D02*
Y252707D01*
X417864Y244144D02*
Y252707D01*
X418110Y244144D02*
Y252707D01*
X418356Y244144D02*
Y252707D01*
X418602Y244144D02*
Y252707D01*
X418848Y244144D02*
Y252707D01*
X419094Y244144D02*
Y252707D01*
X419341Y244144D02*
Y252707D01*
X419587Y244144D02*
Y252707D01*
X419833Y244144D02*
Y252707D01*
X420079Y244144D02*
Y252707D01*
X420325Y244144D02*
Y252707D01*
X420571Y244144D02*
Y252707D01*
X420817Y244144D02*
Y252707D01*
X421063Y244144D02*
Y252707D01*
X421309Y244399D02*
Y252451D01*
X421555Y244753D02*
Y252097D01*
X421801Y245107D02*
Y251744D01*
X422047Y245460D02*
Y251390D01*
X422293Y245814D02*
Y251036D01*
X422539Y246168D02*
Y250683D01*
X422785Y246522D02*
Y250329D01*
X423031Y246875D02*
Y249975D01*
X423278Y247229D02*
Y249621D01*
X423524Y247583D02*
Y249268D01*
X423770Y247936D02*
Y248914D01*
X424016Y248290D02*
Y248560D01*
X646054Y516210D02*
X644024Y516754D01*
X643519Y519182*
X645170Y521032*
X647201Y520488*
X646054Y516210*
X643763Y518010D02*
Y519455D01*
X644009Y516826D02*
Y519731D01*
X644255Y516692D02*
Y520006D01*
X644501Y516626D02*
Y520282D01*
X644747Y516560D02*
Y520558D01*
X644993Y516494D02*
Y520833D01*
X645239Y516428D02*
Y521014D01*
X645485Y516362D02*
Y520948D01*
X645731Y516296D02*
Y520882D01*
X645977Y516230D02*
Y520816D01*
X646223Y516839D02*
Y520750D01*
X646469Y517758D02*
Y520684D01*
X646715Y518676D02*
Y520618D01*
X646961Y519594D02*
Y520552D01*
X634164Y521688D02*
X632513Y519838D01*
X630482Y520382*
X631628Y524661*
X633659Y524116*
X634164Y521688*
X630721Y520318D02*
Y521276D01*
X630967Y520252D02*
Y522194D01*
X631213Y520186D02*
Y523113D01*
X631459Y520120D02*
Y524031D01*
X631705Y520054D02*
Y524640D01*
X631952Y519989D02*
Y524574D01*
X632198Y519923D02*
Y524508D01*
X632444Y519857D02*
Y524442D01*
X632690Y520037D02*
Y524376D01*
X632936Y520312D02*
Y524310D01*
X633182Y520588D02*
Y524244D01*
X633428Y520864D02*
Y524178D01*
X633674Y521140D02*
Y524044D01*
X633920Y521415D02*
Y522861D01*
X746856Y431085D02*
X745805Y432906D01*
X747165Y434980*
X749641Y435120*
X750692Y433299*
X746856Y431085*
X745974Y432613D02*
Y433163D01*
X746220Y432187D02*
Y433538D01*
X746466Y431761D02*
Y433914D01*
X746712Y431335D02*
Y434289D01*
X746958Y431144D02*
Y434664D01*
X747204Y431286D02*
Y434982D01*
X747450Y431428D02*
Y434996D01*
X747697Y431570D02*
Y435010D01*
X747943Y431712D02*
Y435024D01*
X748189Y431854D02*
Y435038D01*
X748435Y431996D02*
Y435052D01*
X748681Y432138D02*
Y435066D01*
X748927Y432280D02*
Y435080D01*
X749173Y432422D02*
Y435094D01*
X749419Y432564D02*
Y435108D01*
X749665Y432706D02*
Y435078D01*
X749911Y432849D02*
Y434652D01*
X750157Y432991D02*
Y434226D01*
X750403Y433133D02*
Y433800D01*
X750649Y433275D02*
Y433374D01*
X742323Y443367D02*
X739847Y443226D01*
X738795Y445047*
X742631Y447262*
X743682Y445441*
X742323Y443367*
X738838Y444973D02*
Y445072D01*
X739084Y444547D02*
Y445214D01*
X739330Y444120D02*
Y445356D01*
X739576Y443694D02*
Y445498D01*
X739823Y443268D02*
Y445640D01*
X740069Y443239D02*
Y445782D01*
X740315Y443253D02*
Y445924D01*
X740561Y443267D02*
Y446066D01*
X740807Y443281D02*
Y446208D01*
X741053Y443295D02*
Y446350D01*
X741299Y443309D02*
Y446492D01*
X741545Y443323D02*
Y446634D01*
X741791Y443337D02*
Y446777D01*
X742037Y443351D02*
Y446919D01*
X742283Y443365D02*
Y447061D01*
X742529Y443682D02*
Y447203D01*
X742775Y444057D02*
Y447012D01*
X743021Y444433D02*
Y446586D01*
X743267Y444808D02*
Y446160D01*
X743513Y445183D02*
Y445733D01*
X765896Y343907D02*
Y346010D01*
X768110Y347126*
X770325Y346010*
Y343907*
X765896*
Y346010*
X766142Y343907D02*
Y346134D01*
X766388Y343907D02*
Y346258D01*
X766634Y343907D02*
Y346382D01*
X766880Y343907D02*
Y346506D01*
X767126Y343907D02*
Y346630D01*
X767372Y343907D02*
Y346754D01*
X767618Y343907D02*
Y346878D01*
X767864Y343907D02*
Y347002D01*
X768110Y343907D02*
Y347126D01*
X768356Y343907D02*
Y347002D01*
X768602Y343907D02*
Y346878D01*
X768848Y343907D02*
Y346754D01*
X769094Y343907D02*
Y346630D01*
X769341Y343907D02*
Y346506D01*
X769587Y343907D02*
Y346382D01*
X769833Y343907D02*
Y346258D01*
X770079Y343907D02*
Y346134D01*
X768110Y356811D02*
X765896Y357927D01*
Y360030*
X770325*
Y357927*
X768110Y356811*
X765896Y357927D02*
Y360030D01*
X766142Y357803D02*
Y360030D01*
X766388Y357679D02*
Y360030D01*
X766634Y357555D02*
Y360030D01*
X766880Y357431D02*
Y360030D01*
X767126Y357307D02*
Y360030D01*
X767372Y357183D02*
Y360030D01*
X767618Y357059D02*
Y360030D01*
X767864Y356935D02*
Y360030D01*
X768110Y356811D02*
Y360030D01*
X768356Y356935D02*
Y360030D01*
X768602Y357059D02*
Y360030D01*
X768848Y357183D02*
Y360030D01*
X769094Y357307D02*
Y360030D01*
X769341Y357431D02*
Y360030D01*
X769587Y357555D02*
Y360030D01*
X769833Y357679D02*
Y360030D01*
X770079Y357803D02*
Y360030D01*
X495270Y493487D02*
X493602Y492207D01*
X491369Y493285*
X490906Y495721*
X492574Y497001*
X495270Y493487*
X490972Y495375D02*
Y495772D01*
X491218Y494079D02*
Y495960D01*
X491464Y493239D02*
Y496149D01*
X491710Y493120D02*
Y496338D01*
X491956Y493001D02*
Y496527D01*
X492202Y492883D02*
Y496716D01*
X492448Y492764D02*
Y496904D01*
X492694Y492645D02*
Y496844D01*
X492940Y492527D02*
Y496524D01*
X493186Y492408D02*
Y496203D01*
X493433Y492289D02*
Y495882D01*
X493679Y492266D02*
Y495562D01*
X493925Y492455D02*
Y495241D01*
X494171Y492643D02*
Y494920D01*
X494417Y492832D02*
Y494600D01*
X494663Y493021D02*
Y494279D01*
X494909Y493210D02*
Y493958D01*
X495155Y493399D02*
Y493638D01*
X483685Y487389D02*
X484148Y484953D01*
X482480Y483673*
X479784Y487187*
X481452Y488466*
X483685Y487389*
X479899Y487036D02*
Y487275D01*
X480145Y486715D02*
Y487464D01*
X480391Y486395D02*
Y487653D01*
X480637Y486074D02*
Y487842D01*
X480883Y485753D02*
Y488030D01*
X481129Y485433D02*
Y488219D01*
X481375Y485112D02*
Y488408D01*
X481622Y484791D02*
Y488384D01*
X481868Y484471D02*
Y488266D01*
X482114Y484150D02*
Y488147D01*
X482360Y483829D02*
Y488028D01*
X482606Y483769D02*
Y487910D01*
X482852Y483958D02*
Y487791D01*
X483098Y484147D02*
Y487672D01*
X483344Y484336D02*
Y487554D01*
X483590Y484524D02*
Y487435D01*
X483836Y484713D02*
Y486594D01*
X484082Y484902D02*
Y485299D01*
X704922Y483673D02*
X703254Y484953D01*
X703716Y487389*
X705950Y488466*
X707618Y487187*
X704922Y483673*
X703319Y484902D02*
Y485299D01*
X703565Y484713D02*
Y486594D01*
X703812Y484524D02*
Y487435D01*
X704058Y484336D02*
Y487554D01*
X704304Y484147D02*
Y487672D01*
X704550Y483958D02*
Y487791D01*
X704796Y483769D02*
Y487910D01*
X705042Y483829D02*
Y488028D01*
X705288Y484150D02*
Y488147D01*
X705534Y484471D02*
Y488266D01*
X705780Y484791D02*
Y488384D01*
X706026Y485112D02*
Y488408D01*
X706272Y485433D02*
Y488219D01*
X706518Y485753D02*
Y488030D01*
X706764Y486074D02*
Y487842D01*
X707010Y486395D02*
Y487653D01*
X707256Y486715D02*
Y487464D01*
X707502Y487036D02*
Y487275D01*
X696033Y493285D02*
X693799Y492207D01*
X692131Y493487*
X694827Y497001*
X696495Y495721*
X696033Y493285*
X692247Y493399D02*
Y493638D01*
X692493Y493210D02*
Y493958D01*
X692739Y493021D02*
Y494279D01*
X692985Y492832D02*
Y494600D01*
X693231Y492643D02*
Y494920D01*
X693477Y492455D02*
Y495241D01*
X693723Y492266D02*
Y495562D01*
X693969Y492289D02*
Y495882D01*
X694215Y492408D02*
Y496203D01*
X694461Y492527D02*
Y496524D01*
X694707Y492645D02*
Y496844D01*
X694953Y492764D02*
Y496904D01*
X695199Y492883D02*
Y496716D01*
X695445Y493001D02*
Y496527D01*
X695691Y493120D02*
Y496338D01*
X695938Y493239D02*
Y496149D01*
X696184Y494079D02*
Y495960D01*
X696430Y495375D02*
Y495772D01*
X496270Y161663D02*
X498372D01*
X499488Y159449*
X498372Y157234*
X496270*
Y161663*
X496457Y157234D02*
Y161663D01*
X496703Y157234D02*
Y161663D01*
X496949Y157234D02*
Y161663D01*
X497195Y157234D02*
Y161663D01*
X497441Y157234D02*
Y161663D01*
X497687Y157234D02*
Y161663D01*
X497933Y157234D02*
Y161663D01*
X498179Y157234D02*
Y161663D01*
X498425Y157340D02*
Y161558D01*
X498671Y157828D02*
Y161070D01*
X498917Y158316D02*
Y160582D01*
X499163Y158804D02*
Y160093D01*
X499409Y159293D02*
Y159605D01*
X509173Y159449D02*
X510289Y161663D01*
X512392*
Y157234*
X510289*
X509173Y159449*
X509252Y159293D02*
Y159605D01*
X509498Y158804D02*
Y160093D01*
X509744Y158316D02*
Y160582D01*
X509990Y157828D02*
Y161070D01*
X510236Y157340D02*
Y161558D01*
X510482Y157234D02*
Y161663D01*
X510728Y157234D02*
Y161663D01*
X510974Y157234D02*
Y161663D01*
X511220Y157234D02*
Y161663D01*
X511467Y157234D02*
Y161663D01*
X511713Y157234D02*
Y161663D01*
X511959Y157234D02*
Y161663D01*
X512205Y157234D02*
Y161663D01*
X512392Y166683D02*
X510289D01*
X509173Y168898*
X510289Y171112*
X512392*
Y166683*
X509252Y168741D02*
Y169054D01*
X509498Y168253D02*
Y169542D01*
X509744Y167765D02*
Y170030D01*
X509990Y167277D02*
Y170519D01*
X510236Y166788D02*
Y171007D01*
X510482Y166683D02*
Y171112D01*
X510728Y166683D02*
Y171112D01*
X510974Y166683D02*
Y171112D01*
X511220Y166683D02*
Y171112D01*
X511467Y166683D02*
Y171112D01*
X511713Y166683D02*
Y171112D01*
X511959Y166683D02*
Y171112D01*
X512205Y166683D02*
Y171112D01*
X499488Y168898D02*
X498372Y166683D01*
X496270*
Y171112*
X498372*
X499488Y168898*
X496457Y166683D02*
Y171112D01*
X496703Y166683D02*
Y171112D01*
X496949Y166683D02*
Y171112D01*
X497195Y166683D02*
Y171112D01*
X497441Y166683D02*
Y171112D01*
X497687Y166683D02*
Y171112D01*
X497933Y166683D02*
Y171112D01*
X498179Y166683D02*
Y171112D01*
X498425Y166788D02*
Y171007D01*
X498671Y167277D02*
Y170519D01*
X498917Y167765D02*
Y170030D01*
X499163Y168253D02*
Y169542D01*
X499409Y168741D02*
Y169054D01*
X534852Y117569D02*
X536955D01*
X538071Y115354*
X536955Y113140*
X534852*
Y117569*
X535039Y113140D02*
Y117569D01*
X535285Y113140D02*
Y117569D01*
X535531Y113140D02*
Y117569D01*
X535778Y113140D02*
Y117569D01*
X536024Y113140D02*
Y117569D01*
X536270Y113140D02*
Y117569D01*
X536516Y113140D02*
Y117569D01*
X536762Y113140D02*
Y117569D01*
X537008Y113245D02*
Y117464D01*
X537254Y113733D02*
Y116975D01*
X537500Y114222D02*
Y116487D01*
X537746Y114710D02*
Y115999D01*
X537992Y115198D02*
Y115511D01*
X547756Y115354D02*
X548872Y117569D01*
X550974*
Y113140*
X548872*
X547756Y115354*
X547835Y115198D02*
Y115511D01*
X548081Y114710D02*
Y115999D01*
X548327Y114222D02*
Y116487D01*
X548573Y113733D02*
Y116975D01*
X548819Y113245D02*
Y117464D01*
X549065Y113140D02*
Y117569D01*
X549311Y113140D02*
Y117569D01*
X549557Y113140D02*
Y117569D01*
X549803Y113140D02*
Y117569D01*
X550049Y113140D02*
Y117569D01*
X550295Y113140D02*
Y117569D01*
X550541Y113140D02*
Y117569D01*
X550787Y113140D02*
Y117569D01*
X534852Y150246D02*
X536955D01*
X538071Y148031*
X536955Y145817*
X534852*
Y150246*
X535039Y145817D02*
Y150246D01*
X535285Y145817D02*
Y150246D01*
X535531Y145817D02*
Y150246D01*
X535778Y145817D02*
Y150246D01*
X536024Y145817D02*
Y150246D01*
X536270Y145817D02*
Y150246D01*
X536516Y145817D02*
Y150246D01*
X536762Y145817D02*
Y150246D01*
X537008Y145922D02*
Y150141D01*
X537254Y146411D02*
Y149652D01*
X537500Y146899D02*
Y149164D01*
X537746Y147387D02*
Y148676D01*
X537992Y147875D02*
Y148188D01*
X547756Y148031D02*
X548872Y150246D01*
X550974*
Y145817*
X548872*
X547756Y148031*
X547835Y147875D02*
Y148188D01*
X548081Y147387D02*
Y148676D01*
X548327Y146899D02*
Y149164D01*
X548573Y146411D02*
Y149652D01*
X548819Y145922D02*
Y150141D01*
X549065Y145817D02*
Y150246D01*
X549311Y145817D02*
Y150246D01*
X549557Y145817D02*
Y150246D01*
X549803Y145817D02*
Y150246D01*
X550049Y145817D02*
Y150246D01*
X550295Y145817D02*
Y150246D01*
X550541Y145817D02*
Y150246D01*
X550787Y145817D02*
Y150246D01*
X593701Y507574D02*
X597982Y504596D01*
Y498671*
X589419*
Y504596*
X593701Y507574*
X589518Y498671D02*
Y504664D01*
X589764Y498671D02*
Y504835D01*
X590010Y498671D02*
Y505007D01*
X590256Y498671D02*
Y505178D01*
X590502Y498671D02*
Y505349D01*
X590748Y498671D02*
Y505520D01*
X590994Y498671D02*
Y505691D01*
X591240Y498671D02*
Y505863D01*
X591486Y498671D02*
Y506034D01*
X591732Y498671D02*
Y506205D01*
X591978Y498671D02*
Y506376D01*
X592224Y498671D02*
Y506547D01*
X592470Y498671D02*
Y506718D01*
X592717Y498671D02*
Y506890D01*
X592963Y498671D02*
Y507061D01*
X593209Y498671D02*
Y507232D01*
X593455Y498671D02*
Y507403D01*
X593701Y498671D02*
Y507574D01*
X593947Y498671D02*
Y507403D01*
X594193Y498671D02*
Y507232D01*
X594439Y498671D02*
Y507061D01*
X594685Y498671D02*
Y506890D01*
X594931Y498671D02*
Y506718D01*
X595177Y498671D02*
Y506547D01*
X595423Y498671D02*
Y506376D01*
X595669Y498671D02*
Y506205D01*
X595915Y498671D02*
Y506034D01*
X596161Y498671D02*
Y505863D01*
X596407Y498671D02*
Y505691D01*
X596654Y498671D02*
Y505520D01*
X596900Y498671D02*
Y505349D01*
X597146Y498671D02*
Y505178D01*
X597392Y498671D02*
Y505007D01*
X597638Y498671D02*
Y504835D01*
X597884Y498671D02*
Y504664D01*
X597982Y532037D02*
Y526113D01*
X593701Y523134*
X589419Y526113*
Y532037*
X597982*
X589518Y526044D02*
Y532037D01*
X589764Y525873D02*
Y532037D01*
X590010Y525702D02*
Y532037D01*
X590256Y525531D02*
Y532037D01*
X590502Y525360D02*
Y532037D01*
X590748Y525188D02*
Y532037D01*
X590994Y525017D02*
Y532037D01*
X591240Y524846D02*
Y532037D01*
X591486Y524675D02*
Y532037D01*
X591732Y524504D02*
Y532037D01*
X591978Y524333D02*
Y532037D01*
X592224Y524161D02*
Y532037D01*
X592470Y523990D02*
Y532037D01*
X592717Y523819D02*
Y532037D01*
X592963Y523648D02*
Y532037D01*
X593209Y523477D02*
Y532037D01*
X593455Y523306D02*
Y532037D01*
X593701Y523134D02*
Y532037D01*
X593947Y523306D02*
Y532037D01*
X594193Y523477D02*
Y532037D01*
X594439Y523648D02*
Y532037D01*
X594685Y523819D02*
Y532037D01*
X594931Y523990D02*
Y532037D01*
X595177Y524161D02*
Y532037D01*
X595423Y524333D02*
Y532037D01*
X595669Y524504D02*
Y532037D01*
X595915Y524675D02*
Y532037D01*
X596161Y524846D02*
Y532037D01*
X596407Y525017D02*
Y532037D01*
X596654Y525188D02*
Y532037D01*
X596900Y525360D02*
Y532037D01*
X597146Y525531D02*
Y532037D01*
X597392Y525702D02*
Y532037D01*
X597638Y525873D02*
Y532037D01*
X597884Y526044D02*
Y532037D01*
G54D68*
X708661Y266339D03*
Y291929D03*
X740157D03*
Y266339D03*
G54D69*
X775197Y360480D03*
Y354480D03*
X412205Y343457D03*
Y349457D03*
Y354480D03*
Y360480D03*
X615748Y227409D03*
Y221409D03*
X686220Y154480D03*
Y160480D03*
X675984Y154480D03*
Y160480D03*
X731102Y247882D03*
Y241882D03*
X483071Y278890D03*
Y284890D03*
X488583Y278890D03*
Y284890D03*
X775197Y349457D03*
Y343457D03*
X742126Y241882D03*
Y247882D03*
X699213Y160480D03*
Y154480D03*
X692520Y160480D03*
Y154480D03*
X704331Y160480D03*
Y154480D03*
X464173Y254969D03*
Y248969D03*
X459055Y254969D03*
Y248969D03*
X464173Y243157D03*
Y237157D03*
X459055Y243157D03*
Y237157D03*
X714567Y154480D03*
Y160480D03*
X455118Y295819D03*
Y301819D03*
X465354Y295819D03*
Y301819D03*
X433071Y274559D03*
Y280559D03*
X438189Y278890D03*
Y284890D03*
X420866Y269929D03*
Y263929D03*
X460236Y295819D03*
Y301819D03*
X709055Y241882D03*
Y247882D03*
X610630Y227409D03*
Y221409D03*
X483071Y273866D03*
Y267866D03*
X488583Y273866D03*
Y267866D03*
X709449Y160480D03*
Y154480D03*
X427165Y269929D03*
Y263929D03*
X453937Y248969D03*
Y254969D03*
X714567Y247882D03*
Y241882D03*
X720079D03*
Y247882D03*
X725591Y241882D03*
Y247882D03*
X719685Y160480D03*
Y154480D03*
X529528Y237551D03*
Y243551D03*
X541339Y237551D03*
Y243551D03*
X553150Y237551D03*
Y243551D03*
X736614Y247882D03*
Y241882D03*
X670079Y240008D03*
Y234008D03*
X664961Y228890D03*
Y234890D03*
G54D70*
X419291Y345531D03*
Y358406D03*
X768110D03*
Y345531D03*
G54D71*
X553150Y230315D03*
X568898Y230709D03*
X541339Y230315D03*
X529528D03*
G54D72*
X606449Y198425D03*
X612449D03*
X447882Y351969D03*
X441882D03*
X516291Y166929D03*
X522291D03*
Y161417D03*
X516291D03*
X564323Y169291D03*
X570323D03*
Y187402D03*
X564323D03*
Y164173D03*
X570323D03*
X443457Y273622D03*
X449457D03*
X443457Y279134D03*
X449457D03*
X739520Y351969D03*
X745520D03*
X596701Y222047D03*
X590701D03*
X755661Y186614D03*
X761661D03*
X682134Y221260D03*
X676134D03*
X521898Y144882D03*
X515898D03*
X498575Y199213D03*
X504575D03*
X498575Y204331D03*
X504575D03*
X570323Y207874D03*
X564323D03*
X570323Y202756D03*
X564323D03*
X661173Y190551D03*
X667173D03*
X661173Y195669D03*
X667173D03*
X661173Y169685D03*
X667173D03*
X661173Y174803D03*
X667173D03*
X714811Y258268D03*
X708811D03*
X682134Y174803D03*
X676134D03*
X564323Y153937D03*
X570323D03*
X522291Y172441D03*
X516291D03*
Y155906D03*
X522291D03*
X564323Y174409D03*
X570323D03*
X596701Y227165D03*
X590701D03*
X708811Y253150D03*
X714811D03*
X682134Y216142D03*
X676134D03*
X521898Y139764D03*
X515898D03*
X564323Y212992D03*
X570323D03*
X564323Y159055D03*
X570323D03*
X682134Y179921D03*
X676134D03*
X682134Y169685D03*
X676134D03*
X599850Y198425D03*
X593850D03*
X682134Y195669D03*
X676134D03*
X682134Y200787D03*
X676134D03*
X682134Y205906D03*
X676134D03*
X682134Y211024D03*
X676134D03*
X570323Y148031D03*
X564323D03*
X763535Y211417D03*
X769535D03*
X763535Y206299D03*
X769535D03*
X515898Y129528D03*
X521898D03*
Y124409D03*
X515898D03*
Y134646D03*
X521898D03*
X498575Y194094D03*
X504575D03*
X498575Y188976D03*
X504575D03*
X564323Y193701D03*
X570323D03*
X676134Y226772D03*
X682134D03*
X676134Y242126D03*
X682134D03*
X676134Y237008D03*
X682134D03*
X676134Y231890D03*
X682134D03*
G54D73*
X427146Y348228D03*
Y355709D03*
X435846Y351969D03*
X760256Y355709D03*
Y348228D03*
X751555Y351969D03*
G54D74*
X616339Y206280D03*
X608858D03*
X612598Y214980D03*
X597441Y206280D03*
X589961D03*
X593701Y214980D03*
G54D75*
X444094Y248425D03*
X419685D03*
G54D76*
X510768Y159449D03*
X497894D03*
Y168898D03*
X510768D03*
X549350Y115354D03*
X536476D03*
X549350Y148031D03*
X536476D03*
G54D77*
X409941Y272441D03*
Y275000D03*
Y277559D03*
Y280118D03*
Y282677D03*
G54D78*
X409449Y265354D03*
Y289764D03*
G54D79*
X399409Y262795D03*
Y272835D03*
Y282283D03*
Y292323D03*
G54D80*
X474409Y235039D03*
Y244094D03*
Y253150D03*
G54D81*
X497244Y244094D03*
G54D82*
X553346Y139390D03*
Y134390D03*
Y129390D03*
Y124390D03*
X532480D03*
Y129390D03*
Y134390D03*
Y139390D03*
X532874Y156673D03*
Y161673D03*
Y166673D03*
Y171673D03*
X553740D03*
Y166673D03*
Y161673D03*
Y156673D03*
G54D83*
X475492Y265354D03*
X472933D03*
X470374D03*
X467815D03*
X465256D03*
X462697D03*
X460138D03*
X457579D03*
Y287402D03*
X460138D03*
X462697D03*
X465256D03*
X467815D03*
X470374D03*
X472933D03*
X475492D03*
G54D84*
X647638Y167815D03*
Y158169D03*
X566535Y136713D03*
Y127067D03*
G54D85*
X647638Y180512D03*
Y206102D03*
G54D86*
X593701Y503150D03*
Y527559D03*
G54D87*
X700197Y186614D03*
Y188583D03*
Y190551D03*
Y192520D03*
Y194488D03*
Y196457D03*
Y198425D03*
Y200394D03*
Y202362D03*
Y204331D03*
Y206299D03*
Y208268D03*
Y210236D03*
Y212205D03*
Y214173D03*
Y216142D03*
X745079D03*
Y214173D03*
Y212205D03*
Y210236D03*
Y208268D03*
Y206299D03*
Y204331D03*
Y202362D03*
Y200394D03*
Y198425D03*
Y196457D03*
Y194488D03*
Y192520D03*
Y190551D03*
Y188583D03*
Y186614D03*
G54D88*
X707874Y223819D03*
X709843D03*
X711811D03*
X713780D03*
X715748D03*
X717717D03*
X719685D03*
X721654D03*
X723622D03*
X725591D03*
X727559D03*
X729528D03*
X731496D03*
X733465D03*
X735433D03*
X737402D03*
Y178937D03*
X735433D03*
X733465D03*
X731496D03*
X729528D03*
X727559D03*
X725591D03*
X723622D03*
X721654D03*
X719685D03*
X717717D03*
X715748D03*
X713780D03*
X711811D03*
X709843D03*
X707874D03*
G54D89*
X523622Y191535D03*
Y194094D03*
Y196654D03*
Y199213D03*
Y201772D03*
Y204331D03*
Y206890D03*
Y209449D03*
X545669D03*
Y206890D03*
Y204331D03*
Y201772D03*
Y199213D03*
Y196654D03*
Y194094D03*
Y191535D03*
G54D90*
X534646Y200492D03*
G74*
X0Y0D02*
M02*
