M48
;FILE_FORMAT=2:4
INCH,LZ
FMAT,2
ICI,OFF
;TYPE=PLATED
T1C.01969
T2C.0315
T3C.03543
T4C.03937
;TYPE=NON_PLATED
T5C.12205
%
M72
G90
G93X0Y0
T1C.01969F095S3
X002598Y014094
X001811Y014843
X003346Y014843
X004252Y014843
X002598Y015591
X005039Y015591
X000591Y01563
X001575Y015827
X004016Y016378
X002205Y016535
X003465Y018071
X002205Y018268
X004449Y018937
X002205Y018976
X001575Y019685
X000591Y019882
X003465Y020197
X005433Y02437
X005433Y026024
X003346Y026142
X002559Y026339
X00185Y026496
X005472Y034921
X004961Y035394
X009961Y040394
X010276Y039724
X006063Y034331
X007795Y033189
X006929Y031772
X005669Y019567
X005669Y018504
X007165Y01815
X006024Y015906
X006535Y015906
X007047Y015906
X00878Y015315
X007441Y014882
X007047Y013268
X006535Y013268
X008071Y012992
X015354Y002441
X011772Y002953
X011772Y003976
X011772Y004488
X014921Y004803
X013307Y005591
X012244Y007677
X012874Y007677
X011535Y007677
X011535Y008307
X014094Y010039
X012244Y012205
X011339Y013307
X011339Y01374
X01378Y034961
X011575Y037795
X010591Y038976
X015433Y039055
X02Y043504
X016535Y043071
X019213Y042756
X016575Y042362
X02Y042008
X016614Y041535
X019213Y040315
X02Y039567
X017047Y039528
X017441Y014213
X017795Y013858
X017638Y011732
X01811Y011299
X01811Y010787
X019055Y01063
X01811Y010276
X01811Y009291
X016654Y00878
X01811Y007441
X01811Y006417
X020394Y006102
X01811Y005394
X020945Y010354
X020945Y011732
X022835Y012126
X022835Y012677
X024094Y013189
X023622Y013701
X025512Y013701
X022717Y014213
X025Y014213
X024606Y039055
X022953Y039528
X020787Y040315
X025236Y041024
X020787Y042756
X025945Y042402
X02563Y041732
X03Y036575
X027756Y033701
X026102Y013189
X026575Y012677
X027205Y012126
X027795Y012126
X027795Y011614
X030512Y01122
X030551Y009646
X026299Y009567
X026299Y009055
X026299Y007992
X027795Y007992
X027362Y00748
X028228Y006496
X029882Y006496
X030551Y006496
X02874Y006063
X029882Y005
X030551Y005
X03185Y002835
X031575Y005
X032598Y005
X031063Y005
X032087Y005
X030866Y007677
X031811Y007677
X030866Y012559
X031181Y01374
X030709Y014803
X030709Y015315
X032244Y015827
X030709Y015827
X031496Y018622
X030945Y019213
X032047Y019213
X031496Y019764
X033071Y031772
X032205Y033189
X030866Y037835
X031535Y038346
X032047Y03878
X036378Y03311
X035669Y032953
X034882Y032717
X034567Y026024
X034567Y02437
X036654Y024252
X037441Y024055
X034646Y019764
X034094Y019213
X035197Y019213
X034646Y018622
X034646Y015827
X035276Y015236
X034016Y015236
X035276Y01374
X034961Y012559
X035354Y008071
X036535Y007756
X038031Y007756
X035433Y003386
X034843Y002835
X035984Y002835
X035433Y002283
X03815Y023898
T2C.0315F197S55
X02Y007965
X02189Y007965
X02Y008965
X02189Y008965
T3C.03543F197S55
X020197Y004291
X022197Y004291
X021197Y004291
X024197Y004291
X023197Y004291
X025197Y004291
X027244Y004291
X030244Y004291
X029244Y004291
X028244Y004291
X032244Y004291
X031244Y004291
X035134Y004291
X034134Y004291
X037134Y004291
X036134Y004291
X038134Y004291
X039134Y004291
T4C.03937F197S55
X009667Y002348
X002813Y006305
X005394Y011732G85X005394Y010866
X00311Y011732G85X00311Y010866
X00378Y013268G85X004646Y013268
T5C.12205F035S794
X001181Y001181
X011978Y020566
X02Y034459
X028022Y020566
X03878Y001181
M30
