M48
;FILE_FORMAT=2:4
INCH,LZ
FMAT,2
ICI,OFF
;TYPE=PLATED
T1C.01969
T2C.0315
T3C.03543
T4C.03937
%
M72
G90
G93X0Y0
T1C.01969F095S3
X041969Y024094
X041181Y024843
X042717Y024843
X043622Y024843
X041969Y025591
X044409Y025591
X039961Y02563
X040945Y025827
X043386Y026378
X041575Y026535
X042835Y028071
X041575Y028268
X043819Y028937
X041575Y028976
X040945Y029685
X039961Y029882
X042835Y030197
X044803Y03437
X044803Y036024
X042717Y036142
X041929Y036339
X04122Y036496
X044843Y044921
X044331Y045394
X049331Y050394
X049646Y049724
X045433Y044331
X047165Y043189
X046299Y041772
X045039Y029567
X045039Y028504
X046535Y02815
X045394Y025906
X045906Y025906
X046417Y025906
X04815Y025315
X046811Y024882
X046417Y023268
X045906Y023268
X047441Y022992
X054724Y012441
X051142Y012953
X051142Y013976
X051142Y014488
X054291Y014803
X052677Y015591
X051614Y017677
X052244Y017677
X050906Y017677
X050906Y018307
X053465Y020039
X051614Y022205
X050709Y023307
X050709Y02374
X05315Y044961
X050945Y047795
X049961Y048976
X054803Y049055
X05937Y053504
X055906Y053071
X058583Y052756
X055945Y052362
X05937Y052008
X055984Y051535
X058583Y050315
X05937Y049567
X056417Y049528
X056811Y024213
X057165Y023858
X057008Y021732
X05748Y021299
X05748Y020787
X058425Y02063
X05748Y020276
X05748Y019291
X056024Y01878
X05748Y017441
X05748Y016417
X059764Y016102
X05748Y015394
X060315Y020354
X060315Y021732
X062205Y022126
X062205Y022677
X063465Y023189
X062992Y023701
X064882Y023701
X062087Y024213
X06437Y024213
X063976Y049055
X062323Y049528
X060157Y050315
X064606Y051024
X060157Y052756
X065315Y052402
X065Y051732
X06937Y046575
X067126Y043701
X065472Y023189
X065945Y022677
X066575Y022126
X067165Y022126
X067165Y021614
X069882Y02122
X069921Y019646
X065669Y019567
X065669Y019055
X065669Y017992
X067165Y017992
X066732Y01748
X067598Y016496
X069252Y016496
X069921Y016496
X06811Y016063
X069252Y015
X069921Y015
X07122Y012835
X070945Y015
X071969Y015
X070433Y015
X071457Y015
X070236Y017677
X071181Y017677
X070236Y022559
X070551Y02374
X070079Y024803
X070079Y025315
X071614Y025827
X070079Y025827
X070866Y028622
X070315Y029213
X071417Y029213
X070866Y029764
X072441Y041772
X071575Y043189
X070236Y047835
X070906Y048346
X071417Y04878
X075748Y04311
X075039Y042953
X074252Y042717
X073937Y036024
X073937Y03437
X076024Y034252
X076811Y034055
X074016Y029764
X073465Y029213
X074567Y029213
X074016Y028622
X074016Y025827
X074646Y025236
X073386Y025236
X074646Y02374
X074331Y022559
X074724Y018071
X075906Y017756
X077402Y017756
X074803Y013386
X074213Y012835
X075354Y012835
X074803Y012283
X07752Y033898
T2C.0315F197S55
X05937Y017965
X06126Y017965
X05937Y018965
X06126Y018965
T3C.03543F197S55
X059567Y014291
X061567Y014291
X060567Y014291
X063567Y014291
X062567Y014291
X064567Y014291
X066614Y014291
X069614Y014291
X068614Y014291
X067614Y014291
X071614Y014291
X070614Y014291
X074504Y014291
X073504Y014291
X076504Y014291
X075504Y014291
X077504Y014291
X078504Y014291
T4C.03937F197S55
X049037Y012348
X042183Y016305
X044764Y021732G85X044764Y020866
X04248Y021732G85X04248Y020866
X04315Y023268G85X044016Y023268
M30
